<svg xmlns="http://www.w3.org/2000/svg" width="16.509" height="12.956" viewBox="0 0 16.509 12.956">
  <g id="add-user_2_" data-name="add-user (2)" transform="translate(0 -55.089)">
    <g id="Group_7620" data-name="Group 7620" transform="translate(0 55.089)">
      <g id="Group_7619" data-name="Group 7619" transform="translate(0 0)">
        <path id="Path_9811" data-name="Path 9811" d="M11.352,63.44a5.427,5.427,0,0,0-2.217-1.432,3.97,3.97,0,1,0-5.313,0A5.428,5.428,0,0,0,1.6,63.44,5.767,5.767,0,0,0,0,67.418v.627H12.956v-.627A5.768,5.768,0,0,0,11.352,63.44Zm-7.59-4.38a2.717,2.717,0,1,1,2.717,2.717A2.72,2.72,0,0,1,3.761,59.059ZM1.3,66.791A4.325,4.325,0,0,1,5.224,63.03H7.732a4.325,4.325,0,0,1,3.926,3.761Z" transform="translate(0 -55.089)" fill="#616267"/>
      </g>
    </g>
    <g id="Group_7622" data-name="Group 7622" transform="translate(11.493 58.642)">
      <g id="Group_7621" data-name="Group 7621" transform="translate(0 0)">
        <path id="Path_9812" data-name="Path 9812" d="M359.59,167.147v-1.881h-1.254v1.881h-1.881V168.4h1.881v1.881h1.254V168.4h1.881v-1.254Z" transform="translate(-356.456 -165.266)" fill="#616267"/>
      </g>
    </g>
  </g>
</svg>
