<svg
    xmlns="http://www.w3.org/2000/svg"
    viewBox="0 0 16 18"
    id="vector">
    <path
        id="path"
        d="M 14.014 6.306 L 14.014 0.362 C 14 0.261 13.95 0.169 13.873 0.102 C 13.797 0.036 13.699 -0.001 13.597 -0.001 C 13.495 -0.001 13.397 0.036 13.321 0.102 C 13.244 0.169 13.194 0.261 13.18 0.362 L 13.18 6.306 C 13.194 6.407 13.244 6.499 13.321 6.566 C 13.397 6.632 13.495 6.669 13.597 6.669 C 13.699 6.669 13.797 6.632 13.873 6.566 C 13.95 6.499 14 6.407 14.014 6.306 Z"
        fill="#ffffff"/>
    <path
        id="path_1"
        d="M 16.43 2.796 L 10.486 2.796 C 10.385 2.81 10.293 2.86 10.226 2.937 C 10.16 3.013 10.123 3.111 10.123 3.213 C 10.123 3.315 10.16 3.413 10.226 3.489 C 10.293 3.566 10.385 3.616 10.486 3.63 L 16.43 3.63 C 16.531 3.616 16.623 3.566 16.69 3.489 C 16.756 3.413 16.793 3.315 16.793 3.213 C 16.793 3.111 16.756 3.013 16.69 2.937 C 16.623 2.86 16.531 2.81 16.43 2.796 Z"
        fill="#ffffff"/>
    <path
        id="path_2"
        d="M 6.086 10.19 C 7.865 10.19 9.308 8.438 9.308 6.277 C 9.308 4.116 8.829 2.364 6.086 2.364 C 3.343 2.364 2.864 4.116 2.864 6.277 C 2.864 8.438 4.306 10.19 6.086 10.19 Z"
        fill="#ffffff"/>
    <path
        id="path_3"
        d="M 0.005 16.165 C 0.005 16.033 0.005 16.128 0.005 16.165 Z"
        fill="#ffffff"/>
    <path
        id="path_4"
        d="M 12.17 16.268 C 12.17 16.232 12.17 16.018 12.17 16.268 Z"
        fill="#ffffff"/>
    <path
        id="path_5"
        d="M 12.164 16.007 C 12.104 12.242 11.613 11.17 7.85 10.49 C 7.365 10.924 6.737 11.165 6.086 11.165 C 5.435 11.165 4.807 10.924 4.322 10.49 C 0.601 11.162 0.079 12.218 0.01 15.884 C 0.004 16.184 0.002 16.199 0.001 16.164 C 0.001 16.229 0.001 16.35 0.001 16.564 C 0.001 16.564 0.901 18.37 6.085 18.37 C 11.269 18.37 12.169 16.564 12.169 16.564 C 12.169 16.429 12.169 16.335 12.169 16.271 C 12.163 16.183 12.161 16.095 12.164 16.007 Z"
        fill="#ffffff"/>
</svg>
