<svg
    xmlns="http://www.w3.org/2000/svg"
    viewBox="0 0 16 16"
    id="vector">
    <path
        id="path"
        d="M 3.491 10.893 C 5.043 12.755 6.976 14.264 9.158 15.319 C 10.147 15.828 11.223 16.145 12.33 16.255 C 12.406 16.255 12.48 16.262 12.556 16.262 C 12.939 16.274 13.319 16.202 13.671 16.051 C 14.023 15.9 14.337 15.675 14.593 15.39 C 14.598 15.385 14.603 15.379 14.606 15.373 C 14.808 15.141 15.022 14.919 15.248 14.71 C 15.404 14.561 15.564 14.405 15.717 14.246 C 15.941 14.045 16.103 13.784 16.186 13.495 C 16.268 13.205 16.267 12.898 16.183 12.609 C 16.099 12.32 15.935 12.061 15.71 11.861 L 13.71 9.867 C 13.562 9.702 13.382 9.57 13.18 9.477 C 12.979 9.385 12.761 9.335 12.539 9.33 C 12.316 9.336 12.096 9.386 11.893 9.477 C 11.689 9.569 11.506 9.701 11.354 9.864 L 10.163 11.052 C 10.053 10.989 9.94 10.933 9.834 10.88 C 9.709 10.82 9.587 10.753 9.468 10.68 C 8.322 9.938 7.305 9.015 6.456 7.946 C 6.047 7.454 5.704 6.909 5.438 6.327 C 5.751 6.045 6.044 5.75 6.326 5.461 C 6.426 5.361 6.526 5.255 6.632 5.152 C 6.864 4.955 7.033 4.695 7.12 4.404 C 7.206 4.113 7.206 3.802 7.12 3.511 C 7.033 3.22 6.864 2.96 6.632 2.763 L 5.64 1.774 C 5.523 1.658 5.414 1.545 5.3 1.429 C 5.08 1.203 4.851 0.971 4.624 0.762 C 4.472 0.604 4.291 0.477 4.09 0.389 C 3.889 0.302 3.672 0.255 3.453 0.251 C 3.006 0.261 2.581 0.446 2.268 0.765 L 1.023 2.006 C 0.579 2.439 0.308 3.019 0.261 3.638 C 0.216 4.546 0.374 5.453 0.724 6.292 C 1.37 7.976 2.307 9.533 3.491 10.893 Z M 1.075 3.707 C 1.107 3.279 1.296 2.877 1.604 2.579 L 2.842 1.345 C 3.002 1.175 3.221 1.074 3.454 1.063 C 3.568 1.068 3.68 1.097 3.783 1.146 C 3.886 1.196 3.979 1.266 4.054 1.352 C 4.277 1.558 4.487 1.773 4.713 2.002 C 4.826 2.118 4.943 2.234 5.059 2.354 L 6.051 3.343 C 6.181 3.439 6.278 3.573 6.327 3.727 C 6.377 3.881 6.377 4.046 6.327 4.2 C 6.278 4.354 6.181 4.488 6.051 4.584 C 5.951 4.684 5.845 4.793 5.741 4.896 C 5.431 5.208 5.141 5.503 4.822 5.785 L 4.805 5.802 C 4.704 5.892 4.633 6.011 4.604 6.143 C 4.574 6.275 4.586 6.413 4.639 6.538 C 4.639 6.548 4.646 6.555 4.649 6.565 C 4.946 7.249 5.339 7.887 5.817 8.459 C 6.72 9.599 7.804 10.583 9.025 11.372 C 9.167 11.459 9.314 11.539 9.464 11.611 C 9.589 11.671 9.711 11.738 9.83 11.811 L 9.867 11.831 C 9.966 11.884 10.077 11.913 10.19 11.914 C 10.284 11.912 10.377 11.89 10.463 11.851 C 10.549 11.813 10.626 11.757 10.69 11.688 L 11.935 10.447 C 12.012 10.359 12.105 10.288 12.209 10.236 C 12.314 10.185 12.428 10.154 12.544 10.147 C 12.657 10.154 12.768 10.185 12.869 10.236 C 12.971 10.288 13.06 10.36 13.133 10.447 L 15.14 12.447 C 15.265 12.548 15.356 12.685 15.403 12.839 C 15.449 12.993 15.447 13.157 15.399 13.31 C 15.35 13.464 15.257 13.599 15.13 13.698 C 14.99 13.847 14.844 13.99 14.687 14.139 C 14.441 14.367 14.208 14.607 13.987 14.859 C 13.807 15.057 13.586 15.214 13.34 15.318 C 13.093 15.421 12.826 15.469 12.559 15.459 C 12.502 15.459 12.442 15.459 12.386 15.452 C 11.384 15.349 10.411 15.059 9.517 14.596 C 7.439 13.593 5.599 12.156 4.122 10.383 C 3 9.092 2.11 7.616 1.493 6.02 C 1.183 5.29 1.041 4.499 1.075 3.707 Z"
        fill="#181818"
        stroke="#181818"
        stroke-width="0.5"
        stroke-linejoin="round"/>
</svg>
