<svg
    xmlns="http://www.w3.org/2000/svg"
    viewBox="0 0 69 69"
    id="vector">
    <path
        id="path_1"
        d="M 34.918 44.5 C 34.863 44.5 34.809 44.489 34.759 44.468 C 34.683 44.436 34.618 44.383 34.572 44.314 C 34.526 44.246 34.502 44.165 34.502 44.083 L 34.502 35.448 L 30.203 39.391 C 30.139 39.455 30.056 39.497 29.966 39.51 C 29.876 39.523 29.785 39.506 29.705 39.462 C 29.626 39.419 29.563 39.35 29.526 39.267 C 29.489 39.184 29.48 39.091 29.501 39.003 C 29.521 38.914 29.57 38.835 29.64 38.777 L 34.303 34.5 L 29.636 30.224 C 29.555 30.149 29.507 30.044 29.503 29.934 C 29.499 29.824 29.539 29.716 29.614 29.635 C 29.689 29.554 29.793 29.506 29.904 29.501 C 30.014 29.497 30.122 29.536 30.203 29.611 L 34.503 33.553 L 34.503 24.917 C 34.503 24.834 34.527 24.754 34.573 24.685 C 34.619 24.617 34.684 24.563 34.76 24.531 C 34.837 24.5 34.921 24.492 35.001 24.508 C 35.082 24.524 35.157 24.564 35.215 24.622 L 40.215 29.622 C 40.293 29.7 40.337 29.806 40.337 29.916 C 40.337 30.027 40.293 30.133 40.215 30.211 L 40.203 30.224 L 35.535 34.5 L 40.203 38.776 C 40.284 38.851 40.333 38.955 40.338 39.065 C 40.343 39.176 40.304 39.283 40.229 39.365 L 40.217 39.378 L 35.217 44.378 C 35.178 44.417 35.131 44.448 35.08 44.469 C 35.028 44.49 34.973 44.501 34.918 44.5 Z M 35.335 35.448 L 35.335 43.078 L 39.316 39.097 Z M 35.335 25.923 L 35.335 33.553 L 39.316 29.9 Z"
        fill="#000000"/>
    <path
        id="path_2"
        d="M 34.918 44.5 C 34.807 44.5 34.701 44.456 34.623 44.378 C 34.545 44.3 34.501 44.194 34.501 44.083 L 34.501 35.448 L 30.203 39.391 C 30.139 39.455 30.056 39.497 29.966 39.51 C 29.876 39.523 29.785 39.506 29.705 39.462 C 29.626 39.419 29.563 39.35 29.526 39.267 C 29.489 39.184 29.48 39.091 29.501 39.003 C 29.521 38.914 29.57 38.835 29.64 38.777 L 34.303 34.5 L 29.636 30.224 C 29.555 30.149 29.507 30.044 29.503 29.934 C 29.499 29.824 29.539 29.716 29.614 29.635 C 29.689 29.554 29.793 29.506 29.904 29.501 C 30.014 29.497 30.122 29.536 30.203 29.611 L 34.503 33.553 L 34.503 24.917 C 34.503 24.834 34.527 24.754 34.573 24.685 C 34.619 24.617 34.684 24.563 34.76 24.531 C 34.837 24.5 34.921 24.492 35.001 24.508 C 35.082 24.524 35.157 24.564 35.215 24.622 L 40.215 29.622 C 40.293 29.7 40.337 29.806 40.337 29.916 C 40.337 30.027 40.293 30.133 40.215 30.211 L 40.203 30.224 L 35.535 34.5 L 40.203 38.776 C 40.284 38.851 40.333 38.955 40.338 39.065 C 40.343 39.176 40.304 39.283 40.229 39.365 L 40.217 39.378 L 35.217 44.378 C 35.178 44.417 35.131 44.448 35.08 44.469 C 35.028 44.49 34.973 44.501 34.918 44.5 Z M 35.335 35.448 L 35.335 43.078 L 39.316 39.097 Z M 35.335 25.923 L 35.335 33.553 L 39.316 29.9 Z"
        fill="#000000"
        stroke="#000000"
        stroke-width="0.1"/>
</svg>
