<svg
    xmlns="http://www.w3.org/2000/svg"
    viewBox="0 0 33 33"
    id="vector">
    <path
        id="path_1"
        d="M 21.533 27.604 L 13.082 27.604 C 12.944 27.604 12.811 27.549 12.713 27.451 C 12.615 27.353 12.56 27.22 12.56 27.082 C 12.56 26.944 12.615 26.811 12.713 26.713 C 12.811 26.615 12.944 26.56 13.082 26.56 L 16.782 26.56 L 16.782 23.923 C 15.5 23.828 14.27 23.375 13.234 22.615 L 13.85 21.768 C 15.004 22.619 16.432 23.014 17.859 22.877 C 19.287 22.74 20.614 22.08 21.584 21.025 C 22.555 19.97 23.102 18.593 23.12 17.159 C 23.12 17.019 23.176 16.885 23.275 16.786 C 23.374 16.688 23.509 16.632 23.648 16.632 C 23.788 16.632 23.923 16.688 24.022 16.786 C 24.121 16.885 24.177 17.019 24.177 17.159 C 24.178 18.879 23.518 20.536 22.334 21.784 C 21.155 23.035 19.548 23.798 17.834 23.922 L 17.834 26.559 L 21.534 26.559 C 21.672 26.559 21.805 26.614 21.903 26.712 C 22.001 26.81 22.056 26.943 22.056 27.081 C 22.056 27.219 22.001 27.352 21.903 27.45 C 21.805 27.548 21.672 27.603 21.534 27.603 Z M 12.572 22.066 L 12.572 22.066 C 11.902 21.435 11.368 20.675 11.002 19.832 C 10.635 18.988 10.444 18.079 10.44 17.159 C 10.44 17.019 10.496 16.885 10.595 16.786 C 10.694 16.688 10.829 16.632 10.969 16.632 C 11.108 16.632 11.243 16.688 11.342 16.786 C 11.441 16.885 11.497 17.019 11.497 17.159 C 11.497 17.913 11.647 18.659 11.939 19.355 C 12.231 20.05 12.659 20.68 13.197 21.208 L 12.575 22.064 Z M 17.308 21.077 C 16.449 21.08 15.612 20.805 14.923 20.291 L 15.539 19.444 C 16.115 19.879 16.832 20.085 17.551 20.022 C 18.27 19.959 18.94 19.631 19.432 19.103 C 19.923 18.575 20.202 17.882 20.213 17.161 L 20.213 13.009 L 21.27 11.555 L 21.27 17.155 C 21.264 18.2 20.843 19.2 20.1 19.935 C 19.358 20.67 18.353 21.081 17.308 21.076 Z M 14.29 19.701 L 14.29 19.701 C 13.681 18.995 13.346 18.092 13.346 17.16 L 13.346 10.632 C 13.359 9.632 13.749 8.673 14.438 7.949 C 15.127 7.224 16.066 6.787 17.063 6.724 C 18.061 6.662 19.047 6.979 19.821 7.611 C 20.595 8.244 21.103 9.147 21.24 10.137 L 20.213 11.548 L 20.213 10.632 C 20.199 9.871 19.886 9.145 19.343 8.612 C 18.8 8.079 18.069 7.78 17.308 7.78 C 16.546 7.78 15.815 8.079 15.272 8.612 C 14.729 9.145 14.416 9.871 14.402 10.632 L 14.402 17.16 C 14.401 17.753 14.586 18.332 14.931 18.815 L 14.291 19.697 Z"
        fill="#ffffff"/>
    <path
        id="path_2"
        d="M 9.977 24.674 L 22.532 7.41"
        fill="#ffffff"
        stroke="#ffffff"
        stroke-width="1"
        stroke-linecap="round"/>
</svg>
