<svg
    xmlns="http://www.w3.org/2000/svg"
    viewBox="0 0 54 54"
    id="vector">
    <path
        id="path_1"
        d="M 19.584 24.911 C 21.408 28.408 24.262 31.262 27.759 33.086 L 30.484 30.361 C 30.629 30.181 30.832 30.058 31.059 30.012 C 31.285 29.967 31.52 30.003 31.723 30.113 C 33.154 30.62 34.664 30.872 36.182 30.856 C 36.404 30.842 36.625 30.891 36.819 30.997 C 37.014 31.104 37.174 31.264 37.282 31.458 C 37.389 31.653 37.439 31.873 37.425 32.095 L 37.425 36.306 C 37.44 36.528 37.39 36.75 37.283 36.945 C 37.176 37.14 37.016 37.301 36.821 37.408 C 36.626 37.515 36.404 37.564 36.182 37.55 C 32.485 37.553 28.851 36.582 25.649 34.734 C 22.446 32.886 19.787 30.226 17.939 27.023 C 16.092 23.82 15.121 20.186 15.125 16.489 C 15.112 16.268 15.161 16.048 15.268 15.854 C 15.375 15.659 15.534 15.5 15.729 15.393 C 15.923 15.286 16.143 15.237 16.364 15.25 L 20.699 15.25 C 20.92 15.237 21.14 15.286 21.334 15.393 C 21.528 15.5 21.687 15.66 21.794 15.854 C 21.901 16.048 21.95 16.268 21.937 16.489 C 21.942 18.006 22.193 19.513 22.681 20.95 C 22.731 21.162 22.734 21.383 22.691 21.596 C 22.649 21.81 22.56 22.012 22.433 22.189 Z"
        fill="#ffffff"/>
</svg>
