<svg
    xmlns="http://www.w3.org/2000/svg"
    viewBox="0 0 15 8"
    id="call_options_up_arrow">
    <path
        id="path"
        d="M 7.079 0.322 L 0.322 7.079 C 0.157 7.243 0.048 7.455 0.011 7.685 C -0.026 7.915 0.011 8.151 0.117 8.358 C 0.222 8.566 0.391 8.735 0.599 8.84 C 0.806 8.946 1.042 8.983 1.272 8.946 C 1.502 8.909 1.714 8.8 1.878 8.635 L 7.857 2.657 L 13.835 8.635 C 13.999 8.8 14.211 8.909 14.441 8.946 C 14.671 8.983 14.907 8.946 15.115 8.841 C 15.322 8.735 15.491 8.566 15.597 8.359 C 15.702 8.151 15.74 7.916 15.703 7.686 C 15.666 7.456 15.557 7.243 15.392 7.079 L 8.635 0.322 C 8.498 0.185 8.328 0.087 8.142 0.037 C 7.955 -0.013 7.759 -0.013 7.572 0.037 C 7.386 0.087 7.216 0.185 7.079 0.322 Z"
        fill="#ffffff"
        fill-opacity="0.65"
        stroke-opacity="0.65"/>
</svg>
