<svg xmlns="http://www.w3.org/2000/svg" width="54" height="54" viewBox="0 0 54 54">
  <g id="Group_8830" data-name="Group 8830" transform="translate(-0.5 -0.375)">
    <circle id="Ellipse_2_copy_4" data-name="Ellipse 2 copy 4" cx="27" cy="27" r="27" transform="translate(0.5 0.375)" fill="#30c076"/>
    <g id="phone-call-button" transform="translate(15.625 15.625)">
      <g id="call">
        <path id="Path_9631" data-name="Path 9631" d="M4.459,9.661a19.283,19.283,0,0,0,8.175,8.175l2.725-2.725a.986.986,0,0,1,1.239-.248,12.956,12.956,0,0,0,4.459.743A1.17,1.17,0,0,1,22.3,16.845v4.211A1.17,1.17,0,0,1,21.057,22.3,21.039,21.039,0,0,1,0,1.239,1.17,1.17,0,0,1,1.239,0H5.574A1.17,1.17,0,0,1,6.812,1.239,14.028,14.028,0,0,0,7.556,5.7a1.525,1.525,0,0,1-.248,1.239Z" fill="#fff"/>
      </g>
    </g>
  </g>
</svg>
