<svg
    xmlns="http://www.w3.org/2000/svg"
    viewBox="0 0 196 44"
    id="call_end_button">
    <!--<path
        id="path"
        d="M 22 0 L 174 0 C 179.833 0 185.432 2.319 189.556 6.444 C 193.681 10.568 196 16.167 196 22 L 196 22 C 196 27.833 193.681 33.432 189.556 37.556 C 185.432 41.681 179.833 44 174 44 L 22 44 C 16.167 44 10.568 41.681 6.444 37.556 C 2.319 33.432 0 27.833 0 22 L 0 22 C 0 16.167 2.319 10.568 6.444 6.444 C 10.568 2.319 16.167 0 22 0 Z"
        fill="#ff4d67"/>-->
    <path
        id="path_1"
        d="M 89.63 28.163 C 90.009 28.199 90.391 28.122 90.727 27.941 C 91.062 27.76 91.337 27.484 91.516 27.147 C 91.694 26.811 91.769 26.428 91.73 26.049 C 91.73 25.049 91.72 24.067 91.715 23.072 C 91.696 22.963 91.718 22.851 91.778 22.759 C 91.838 22.666 91.931 22.599 92.038 22.572 C 92.526 22.463 93.019 22.243 93.512 22.14 C 95.831 21.656 98.213 21.555 100.565 21.84 C 101.749 21.959 102.91 22.243 104.015 22.684 C 104.112 22.716 104.195 22.781 104.25 22.867 C 104.304 22.953 104.328 23.056 104.315 23.157 C 104.267 24.157 104.298 25.112 104.303 26.108 C 104.264 26.5 104.342 26.894 104.527 27.242 C 104.711 27.589 104.994 27.875 105.34 28.062 C 105.686 28.25 106.08 28.331 106.472 28.296 L 108.825 28.308 C 109.644 28.308 110.438 28.343 111.231 28.32 C 111.608 28.344 111.983 28.26 112.314 28.077 C 112.644 27.895 112.915 27.622 113.096 27.29 C 113.276 26.959 113.358 26.582 113.331 26.206 C 113.331 25.206 113.321 24.224 113.316 23.229 C 113.321 22.339 113.008 21.477 112.432 20.798 C 111.467 19.728 110.277 18.885 108.948 18.328 C 106.248 17.113 103.359 16.371 100.407 16.135 C 96.453 15.74 92.461 16.21 88.707 17.513 C 87.015 18.046 85.441 18.9 84.071 20.028 C 83.601 20.411 83.228 20.9 82.985 21.455 C 82.742 22.011 82.634 22.616 82.671 23.221 C 82.76 24.133 82.68 25.043 82.711 25.95 C 82.685 26.339 82.77 26.727 82.956 27.07 C 83.142 27.412 83.422 27.694 83.763 27.883 C 84.103 28.073 84.491 28.161 84.88 28.138 Z"
        fill="#ffffff"/>
</svg>
