<svg
    xmlns="http://www.w3.org/2000/svg"
    viewBox="0 0 54 54"
    id="camera_switch_active">
    <!--<path
        id="path"
        d="M 27.083 0 C 34.263 0 41.156 2.855 46.234 7.932 C 51.311 13.01 54.166 19.903 54.166 27.083 C 54.166 34.263 51.311 41.156 46.234 46.234 C 41.156 51.311 34.263 54.166 27.083 54.166 C 19.903 54.166 13.01 51.311 7.932 46.234 C 2.855 41.156 0 34.263 0 27.083 C 0 19.903 2.855 13.01 7.932 7.932 C 13.01 2.855 19.903 0 27.083 0 Z"
        fill="#ffffff"/>-->
    <path
        id="path_1"
        d="M 14.111 23.046 L 14.111 33.922 C 14.112 34.719 14.429 35.485 14.993 36.048 C 15.556 36.612 16.322 36.929 17.119 36.93 L 35.752 36.93 C 36.549 36.929 37.315 36.612 37.878 36.048 C 38.442 35.485 38.759 34.719 38.76 33.922 L 38.76 23.046 C 38.759 22.287 38.458 21.559 37.921 21.023 C 37.385 20.486 36.657 20.185 35.898 20.184 L 31.898 20.184 L 31.798 19.766 C 31.613 18.956 31.157 18.233 30.506 17.716 C 29.855 17.2 29.047 16.92 28.216 16.924 L 24.65 16.924 C 23.819 16.922 23.012 17.202 22.361 17.718 C 21.711 18.234 21.255 18.957 21.068 19.766 L 20.968 20.184 L 16.968 20.184 C 16.211 20.187 15.484 20.489 14.949 21.025 C 14.414 21.562 14.112 22.289 14.111 23.046 Z M 21.466 21.416 C 21.605 21.416 21.741 21.369 21.85 21.282 C 21.959 21.196 22.035 21.074 22.066 20.938 L 22.272 20.038 C 22.396 19.501 22.699 19.021 23.131 18.678 C 23.563 18.336 24.1 18.15 24.651 18.152 L 28.218 18.152 C 28.769 18.15 29.306 18.336 29.738 18.678 C 30.17 19.021 30.473 19.501 30.597 20.038 L 30.803 20.938 C 30.835 21.074 30.911 21.195 31.02 21.281 C 31.129 21.368 31.264 21.416 31.403 21.416 L 35.895 21.416 C 36.181 21.416 36.462 21.491 36.71 21.634 C 36.958 21.777 37.164 21.983 37.307 22.231 C 37.45 22.479 37.525 22.76 37.525 23.046 L 37.525 33.922 C 37.525 34.234 37.443 34.54 37.287 34.81 C 37.132 35.08 36.907 35.305 36.637 35.46 C 36.367 35.616 36.061 35.698 35.749 35.698 L 17.119 35.698 C 16.807 35.698 16.501 35.616 16.231 35.46 C 15.961 35.305 15.736 35.08 15.581 34.81 C 15.425 34.54 15.343 34.234 15.343 33.922 L 15.343 23.046 C 15.343 22.76 15.418 22.479 15.561 22.231 C 15.704 21.983 15.91 21.777 16.158 21.634 C 16.406 21.491 16.687 21.416 16.973 21.416 L 21.466 21.416 Z"
        fill="#000000"/>
    <path
        id="path_2"
        d="M 17.456 24.047 C 17.456 24.221 17.511 24.391 17.614 24.532 C 17.716 24.673 17.86 24.778 18.026 24.832 C 18.192 24.885 18.37 24.885 18.536 24.832 C 18.702 24.778 18.846 24.673 18.948 24.532 C 19.051 24.391 19.106 24.221 19.106 24.047 C 19.106 23.873 19.051 23.703 18.948 23.562 C 18.846 23.421 18.702 23.316 18.536 23.262 C 18.37 23.209 18.192 23.209 18.026 23.262 C 17.86 23.316 17.716 23.421 17.614 23.562 C 17.511 23.703 17.456 23.873 17.456 24.047 Z"
        fill="#000000"/>
    <path
        id="path_3"
        d="M 31.333 24.367 C 31.271 24.354 31.207 24.357 31.146 24.376 C 31.086 24.396 31.032 24.431 30.989 24.478 C 30.947 24.525 30.917 24.582 30.904 24.644 L 30.642 25.869 C 30.118 24.983 29.318 24.293 28.365 23.906 C 27.412 23.519 26.357 23.455 25.364 23.725 C 24.371 23.994 23.494 24.583 22.867 25.399 C 22.241 26.215 21.9 27.215 21.896 28.244 C 21.896 28.34 21.934 28.431 22.002 28.499 C 22.07 28.566 22.161 28.604 22.257 28.604 C 22.353 28.604 22.444 28.566 22.512 28.499 C 22.58 28.431 22.618 28.34 22.618 28.244 C 22.617 27.37 22.904 26.519 23.435 25.825 C 23.966 25.131 24.712 24.631 25.556 24.403 C 26.399 24.175 27.295 24.232 28.104 24.565 C 28.912 24.898 29.588 25.488 30.027 26.244 L 28.828 25.994 C 28.735 25.975 28.638 25.994 28.558 26.046 C 28.479 26.098 28.423 26.179 28.403 26.272 C 28.383 26.365 28.401 26.462 28.452 26.543 C 28.503 26.623 28.584 26.679 28.677 26.7 L 30.744 27.143 C 30.806 27.156 30.87 27.153 30.931 27.134 C 30.991 27.114 31.045 27.079 31.088 27.032 C 31.13 26.985 31.16 26.928 31.173 26.866 L 31.616 24.799 C 31.63 24.736 31.627 24.671 31.607 24.61 C 31.587 24.548 31.551 24.494 31.503 24.451 C 31.455 24.408 31.396 24.379 31.333 24.367 Z"
        fill="#000000"
        stroke="#000000"
        stroke-width="0.3"/>
    <path
        id="path_4"
        d="M 30.969 27.771 C 30.906 27.773 30.844 27.792 30.79 27.825 C 30.736 27.859 30.692 27.906 30.662 27.962 C 30.632 28.018 30.618 28.081 30.62 28.144 C 30.654 29.196 30.269 30.22 29.549 30.989 C 28.829 31.758 27.832 32.209 26.78 32.244 L 26.648 32.244 C 25.971 32.245 25.306 32.072 24.714 31.743 C 24.123 31.415 23.626 30.94 23.269 30.365 L 24.524 30.702 C 24.617 30.726 24.715 30.713 24.798 30.665 C 24.881 30.617 24.942 30.538 24.966 30.445 C 24.991 30.353 24.978 30.254 24.93 30.171 C 24.882 30.088 24.804 30.027 24.711 30.002 L 22.669 29.456 C 22.577 29.431 22.478 29.444 22.395 29.492 C 22.312 29.54 22.252 29.619 22.227 29.711 L 21.68 31.753 C 21.66 31.827 21.664 31.905 21.691 31.977 C 21.719 32.049 21.768 32.11 21.832 32.151 C 21.897 32.193 21.973 32.213 22.049 32.209 C 22.126 32.205 22.199 32.177 22.258 32.129 C 22.318 32.08 22.36 32.014 22.38 31.94 L 22.688 30.792 C 23.112 31.459 23.697 32.009 24.389 32.39 C 25.082 32.77 25.86 32.97 26.65 32.97 L 26.806 32.97 C 28.05 32.928 29.227 32.393 30.078 31.485 C 30.928 30.576 31.384 29.366 31.344 28.122 C 31.342 28.058 31.324 27.996 31.29 27.942 C 31.256 27.887 31.209 27.843 31.153 27.813 C 31.096 27.783 31.033 27.769 30.969 27.771 Z"
        fill="#000000"
        stroke="#000000"
        stroke-width="0.3"/>
</svg>
