<svg
    xmlns="http://www.w3.org/2000/svg"
    viewBox="0 0 52 52"
    id="camera_switch_inactive">
    <!--<path
        id="path"
        d="M 26 26 M 0 26 C 0 19.107 2.741 12.489 7.615 7.615 C 12.489 2.741 19.107 0 26 0 C 32.893 0 39.511 2.741 44.385 7.615 C 49.259 12.489 52 19.107 52 26 C 52 32.893 49.259 39.511 44.385 44.385 C 39.511 49.259 32.893 52 26 52 C 19.107 52 12.489 49.259 7.615 44.385 C 2.741 39.511 0 32.893 0 26"
        fill="#ffffff"
        fill-opacity="0.3"
        stroke-opacity="0.3"/>-->
    <path
        id="path_1"
        d="M 13.547 22.124 L 13.547 32.565 C 13.548 33.33 13.852 34.065 14.393 34.607 C 14.935 35.148 15.67 35.452 16.435 35.453 L 34.323 35.453 C 35.088 35.452 35.823 35.148 36.365 34.607 C 36.906 34.065 37.21 33.33 37.211 32.565 L 37.211 22.124 C 37.211 21.396 36.921 20.696 36.406 20.181 C 35.891 19.666 35.191 19.376 34.463 19.376 L 30.619 19.376 L 30.527 18.976 C 30.35 18.198 29.912 17.504 29.287 17.008 C 28.662 16.512 27.887 16.243 27.089 16.247 L 23.664 16.247 C 22.867 16.245 22.092 16.514 21.467 17.01 C 20.843 17.505 20.405 18.199 20.226 18.976 L 20.134 19.376 L 16.295 19.376 C 15.567 19.377 14.868 19.667 14.353 20.182 C 13.838 20.697 13.548 21.396 13.547 22.124 Z M 20.607 20.559 C 20.741 20.559 20.871 20.513 20.976 20.429 C 21.08 20.345 21.153 20.228 21.182 20.097 L 21.382 19.237 C 21.501 18.721 21.792 18.261 22.207 17.932 C 22.622 17.603 23.136 17.424 23.666 17.426 L 27.09 17.426 C 27.62 17.424 28.134 17.603 28.549 17.932 C 28.964 18.261 29.255 18.721 29.374 19.237 L 29.574 20.097 C 29.604 20.227 29.678 20.343 29.782 20.426 C 29.886 20.509 30.016 20.555 30.149 20.556 L 34.462 20.556 C 34.737 20.556 35.007 20.628 35.245 20.765 C 35.483 20.903 35.68 21.1 35.818 21.338 C 35.955 21.576 36.027 21.846 36.027 22.121 L 36.027 32.565 C 36.027 32.863 35.948 33.157 35.799 33.415 C 35.65 33.673 35.435 33.888 35.177 34.037 C 34.919 34.186 34.625 34.265 34.327 34.265 L 16.435 34.265 C 15.984 34.265 15.552 34.086 15.233 33.767 C 14.914 33.448 14.735 33.016 14.735 32.565 L 14.735 22.124 C 14.735 21.849 14.807 21.579 14.944 21.341 C 15.082 21.103 15.279 20.906 15.517 20.768 C 15.755 20.631 16.025 20.559 16.3 20.559 L 20.607 20.559 Z"
        fill="#ffffff"/>
    <path
        id="path_2"
        d="M 16.758 23.085 C 16.758 23.295 16.841 23.497 16.99 23.645 C 17.138 23.794 17.34 23.877 17.55 23.877 C 17.76 23.877 17.962 23.794 18.11 23.645 C 18.259 23.497 18.342 23.295 18.342 23.085 C 18.342 22.875 18.259 22.673 18.11 22.525 C 17.962 22.376 17.76 22.293 17.55 22.293 C 17.34 22.293 17.138 22.376 16.99 22.525 C 16.841 22.673 16.758 22.875 16.758 23.085 Z"
        fill="#ffffff"/>
    <path
        id="path_3"
        d="M 30.081 23.392 C 29.991 23.373 29.897 23.39 29.82 23.44 C 29.743 23.49 29.688 23.568 29.669 23.658 L 29.417 24.834 C 28.917 23.979 28.149 23.312 27.232 22.937 C 26.315 22.561 25.3 22.499 24.344 22.758 C 23.388 23.018 22.544 23.585 21.943 24.372 C 21.341 25.16 21.016 26.123 21.017 27.114 C 21.022 27.203 21.06 27.286 21.125 27.347 C 21.189 27.408 21.275 27.442 21.363 27.442 C 21.452 27.442 21.538 27.408 21.602 27.347 C 21.667 27.286 21.705 27.203 21.71 27.114 C 21.71 26.275 21.986 25.459 22.496 24.793 C 23.006 24.127 23.722 23.647 24.532 23.429 C 25.342 23.211 26.202 23.266 26.978 23.586 C 27.753 23.905 28.402 24.472 28.823 25.198 L 27.671 24.952 C 27.583 24.937 27.492 24.957 27.418 25.007 C 27.344 25.057 27.293 25.134 27.274 25.222 C 27.255 25.309 27.271 25.4 27.318 25.476 C 27.365 25.552 27.44 25.607 27.526 25.63 L 29.51 26.055 C 29.6 26.074 29.694 26.057 29.771 26.007 C 29.848 25.957 29.903 25.879 29.922 25.789 L 30.347 23.805 C 30.36 23.745 30.357 23.683 30.338 23.625 C 30.32 23.567 30.286 23.515 30.241 23.474 C 30.196 23.433 30.141 23.405 30.081 23.392 Z"
        fill="#ffffff"
        stroke="#ffffff"
        stroke-width="0.3"/>
    <path
        id="path_4"
        d="M 29.732 26.66 C 29.64 26.663 29.553 26.703 29.49 26.77 C 29.428 26.837 29.394 26.926 29.397 27.018 C 29.419 27.687 29.265 28.35 28.949 28.941 C 28.634 29.531 28.169 30.029 27.6 30.382 C 27.032 30.736 26.38 30.934 25.711 30.956 L 25.584 30.956 C 24.934 30.956 24.295 30.79 23.727 30.474 C 23.159 30.157 22.682 29.701 22.34 29.148 L 23.545 29.471 C 23.633 29.492 23.726 29.478 23.803 29.432 C 23.881 29.386 23.938 29.311 23.961 29.224 C 23.985 29.136 23.973 29.043 23.929 28.964 C 23.885 28.885 23.812 28.827 23.725 28.801 L 21.765 28.275 C 21.676 28.251 21.581 28.264 21.502 28.31 C 21.422 28.355 21.364 28.431 21.34 28.52 L 20.814 30.48 C 20.793 30.551 20.795 30.628 20.821 30.698 C 20.846 30.768 20.894 30.828 20.956 30.869 C 21.018 30.91 21.092 30.93 21.166 30.925 C 21.241 30.921 21.312 30.893 21.369 30.845 C 21.426 30.797 21.467 30.732 21.484 30.66 L 21.784 29.56 C 22.19 30.2 22.752 30.727 23.416 31.092 C 24.08 31.458 24.826 31.649 25.584 31.65 L 25.734 31.65 C 26.928 31.611 28.059 31.098 28.876 30.226 C 29.692 29.353 30.129 28.191 30.09 26.997 C 30.088 26.936 30.071 26.876 30.039 26.824 C 30.007 26.772 29.961 26.73 29.907 26.701 C 29.854 26.672 29.793 26.658 29.732 26.66 Z"
        fill="#ffffff"
        stroke="#ffffff"
        stroke-width="0.3"/>
</svg>
