<svg
    xmlns="http://www.w3.org/2000/svg"
    viewBox="0 0 54 54"
    id="vector">
    <path
        id="path_1"
        d="M 32.964 20.734 C 32.841 20.61 32.687 20.521 32.518 20.476 C 32.35 20.431 32.172 20.431 32.004 20.476 C 31.835 20.521 31.681 20.61 31.558 20.734 L 26.683 25.599 L 21.803 20.725 C 21.613 20.566 21.369 20.484 21.122 20.495 C 20.874 20.507 20.639 20.61 20.464 20.786 C 20.288 20.961 20.185 21.196 20.173 21.444 C 20.162 21.691 20.244 21.935 20.403 22.125 L 25.278 27 L 20.403 31.881 C 20.238 32.025 20.124 32.219 20.081 32.434 C 20.038 32.649 20.066 32.872 20.163 33.069 C 20.259 33.265 20.418 33.425 20.615 33.522 C 20.811 33.619 21.034 33.649 21.249 33.606 C 21.464 33.563 21.659 33.451 21.803 33.286 L 26.678 28.411 L 31.553 33.286 C 31.701 33.435 31.893 33.534 32.101 33.567 C 32.309 33.6 32.522 33.567 32.709 33.471 C 32.897 33.376 33.049 33.224 33.144 33.036 C 33.24 32.849 33.273 32.636 33.24 32.428 C 33.207 32.22 33.108 32.028 32.959 31.88 L 28.089 27.005 L 32.964 22.125 C 33.144 21.939 33.245 21.689 33.245 21.43 C 33.245 21.17 33.144 20.92 32.964 20.734 Z"
        fill="#303030"/>
</svg>
