<svg
    xmlns="http://www.w3.org/2000/svg"
    viewBox="0 0 10 10"
    id="vector">
    <path
        id="path"
        d="M 9.161 10.25 L 6.101 10.25 C 5.908 10.249 5.723 10.172 5.586 10.036 C 5.45 9.899 5.373 9.714 5.372 9.521 L 5.372 5.208 C 5.373 5.015 5.45 4.83 5.586 4.693 C 5.723 4.557 5.908 4.48 6.101 4.479 L 9.161 4.479 C 9.354 4.48 9.539 4.557 9.676 4.693 C 9.812 4.83 9.889 5.015 9.89 5.208 L 9.89 9.521 C 9.889 9.714 9.812 9.899 9.676 10.036 C 9.539 10.172 9.354 10.249 9.161 10.25 Z M 9.161 0 L 6.101 0 C 5.908 0.001 5.723 0.078 5.586 0.214 C 5.45 0.351 5.373 0.536 5.372 0.729 L 5.372 2.954 C 5.373 3.147 5.45 3.332 5.586 3.469 C 5.723 3.605 5.908 3.682 6.101 3.683 L 9.161 3.683 C 9.354 3.682 9.539 3.605 9.676 3.469 C 9.812 3.332 9.889 3.147 9.89 2.954 L 9.89 0.729 C 9.889 0.536 9.812 0.351 9.676 0.214 C 9.539 0.078 9.354 0.001 9.161 0 Z M 0.729 0.114 L 3.789 0.114 C 3.982 0.115 4.167 0.192 4.304 0.328 C 4.44 0.465 4.517 0.65 4.518 0.843 L 4.518 9.408 C 4.517 9.601 4.44 9.786 4.304 9.923 C 4.167 10.059 3.982 10.136 3.789 10.137 L 0.729 10.137 C 0.536 10.136 0.351 10.059 0.214 9.923 C 0.078 9.786 0.001 9.601 0 9.408 L 0 0.843 C 0.001 0.65 0.078 0.465 0.214 0.328 C 0.351 0.192 0.536 0.115 0.729 0.114 Z"
        fill="#212121"/>
</svg>
