<svg
    xmlns="http://www.w3.org/2000/svg"
    viewBox="0 0 69 69"
    id="vector">
    <path
        id="path_1"
        d="M 34.378 25 C 31.368 24.997 28.478 26.19 26.345 28.314 C 24.213 30.438 23.009 33.324 23 36.333 L 23 39 C 23.001 39.768 23.267 40.512 23.753 41.107 C 24.238 41.702 24.915 42.111 25.667 42.266 L 25.667 42.333 C 25.656 42.903 25.828 43.462 26.158 43.927 C 26.488 44.392 26.958 44.74 27.5 44.918 C 28.041 45.096 28.626 45.096 29.167 44.918 C 29.709 44.74 30.179 44.392 30.509 43.927 C 30.839 43.462 31.011 42.903 31 42.333 L 31 35.667 C 31.011 35.097 30.839 34.538 30.509 34.073 C 30.179 33.608 29.709 33.26 29.167 33.082 C 28.626 32.904 28.041 32.904 27.5 33.082 C 26.958 33.26 26.488 33.608 26.158 34.073 C 25.828 34.538 25.656 35.097 25.667 35.667 L 25.667 35.734 C 25.184 35.832 24.728 36.037 24.334 36.334 L 24.334 36.334 C 24.36 33.688 25.431 31.157 27.311 29.296 C 29.191 27.435 31.733 26.389 34.379 26.389 C 37.024 26.389 39.566 27.435 41.446 29.296 C 43.326 31.157 44.397 33.688 44.423 36.334 L 44.423 36.334 C 44.029 36.037 43.573 35.832 43.09 35.734 L 43.09 35.667 C 43.101 35.097 42.929 34.538 42.599 34.073 C 42.269 33.608 41.799 33.26 41.257 33.082 C 40.716 32.904 40.131 32.904 39.59 33.082 C 39.048 33.26 38.578 33.608 38.248 34.073 C 37.918 34.538 37.746 35.097 37.757 35.667 L 37.757 42.334 C 37.746 42.904 37.918 43.463 38.248 43.928 C 38.578 44.393 39.048 44.741 39.59 44.919 C 40.131 45.097 40.716 45.097 41.257 44.919 C 41.799 44.741 42.269 44.393 42.599 43.928 C 42.929 43.463 43.101 42.904 43.09 42.334 L 43.09 42.267 C 43.842 42.112 44.518 41.703 45.004 41.108 C 45.489 40.513 45.755 39.768 45.756 39 L 45.756 36.333 C 45.747 33.324 44.543 30.438 42.411 28.314 C 40.278 26.19 37.388 24.997 34.378 25 Z M 28.333 34.333 C 28.686 34.334 29.025 34.474 29.275 34.724 C 29.525 34.974 29.665 35.313 29.666 35.666 L 29.666 42.333 C 29.665 42.686 29.524 43.024 29.274 43.273 C 29.024 43.522 28.685 43.662 28.332 43.662 C 27.98 43.662 27.641 43.522 27.391 43.273 C 27.141 43.024 27 42.686 26.999 42.333 L 26.999 35.667 C 26.999 35.313 27.14 34.974 27.39 34.724 C 27.64 34.474 27.979 34.333 28.333 34.333 Z M 25.667 37.114 L 25.667 40.886 C 25.277 40.748 24.939 40.493 24.7 40.155 C 24.461 39.817 24.333 39.414 24.333 39 C 24.333 38.586 24.461 38.183 24.7 37.845 C 24.939 37.507 25.277 37.252 25.667 37.114 Z M 40.423 43.666 C 40.07 43.665 39.731 43.525 39.481 43.275 C 39.231 43.025 39.091 42.686 39.09 42.333 L 39.09 35.667 C 39.091 35.314 39.232 34.976 39.482 34.727 C 39.732 34.478 40.071 34.338 40.423 34.338 C 40.776 34.338 41.115 34.478 41.365 34.727 C 41.615 34.976 41.756 35.314 41.757 35.667 L 41.757 42.334 C 41.756 42.688 41.615 43.027 41.365 43.277 C 41.115 43.527 40.776 43.667 40.422 43.667 Z M 43.09 40.885 L 43.09 37.114 C 43.48 37.252 43.818 37.507 44.057 37.845 C 44.296 38.183 44.424 38.586 44.424 39 C 44.424 39.414 44.296 39.817 44.057 40.155 C 43.818 40.493 43.48 40.748 43.09 40.886 Z"
        fill="#000000"
        stroke="#ffffff"
        stroke-width="0.3"/>
</svg>
