<svg
    xmlns="http://www.w3.org/2000/svg"
    viewBox="0 0 33 33"
    id="ic_audio_mute">
    <path
        id="path"
        d="M 16.86 0 C 21.33 0 25.621 1.778 28.782 4.938 C 31.942 8.099 33.72 12.39 33.72 16.86 C 33.72 21.33 31.942 25.621 28.782 28.782 C 25.621 31.942 21.33 33.72 16.86 33.72 C 12.39 33.72 8.099 31.942 4.938 28.782 C 1.778 25.621 0 21.33 0 16.86 C 0 12.39 1.778 8.099 4.938 4.938 C 8.099 1.778 12.39 0 16.86 0 Z"
        fill="#efefef"/>
    <path
        id="path_1"
        d="M 22.286 16.151 L 20.968 16.151 C 20.968 16.696 20.854 17.236 20.635 17.735 L 21.588 18.686 C 22.04 17.917 22.281 17.043 22.288 16.151 Z M 19.171 16.282 C 19.171 16.236 19.187 16.197 19.187 16.151 L 19.187 11.514 C 19.187 10.898 18.942 10.306 18.506 9.87 C 18.07 9.434 17.478 9.189 16.862 9.189 C 16.246 9.189 15.654 9.434 15.218 9.87 C 14.782 10.306 14.537 10.898 14.537 11.514 L 14.537 11.653 Z M 10.871 9.968 L 9.886 10.95 L 14.543 15.596 L 14.543 16.152 C 14.542 16.559 14.648 16.959 14.852 17.312 C 15.055 17.665 15.348 17.958 15.7 18.161 C 16.053 18.364 16.453 18.471 16.86 18.47 C 17.028 18.469 17.196 18.448 17.36 18.408 L 18.646 19.691 C 18.085 19.952 17.475 20.089 16.856 20.091 C 16.15 20.106 15.452 19.935 14.833 19.595 C 14.214 19.255 13.696 18.757 13.331 18.152 C 12.965 17.548 12.766 16.857 12.753 16.151 L 11.436 16.151 C 11.472 17.426 11.96 18.648 12.811 19.599 C 13.662 20.549 14.822 21.168 16.086 21.345 L 16.086 23.88 L 17.636 23.88 L 17.636 21.345 C 18.331 21.241 18.999 21.003 19.604 20.645 L 22.851 23.875 L 23.835 22.894 Z"
        fill="#969696"/>
</svg>
