<svg
    xmlns="http://www.w3.org/2000/svg"
    viewBox="0 0 26 30"
    id="ic_add_user">
    <path
        id="path"
        d="M 17.81 21.914 C 17.81 22.069 17.748 22.219 17.638 22.328 C 17.529 22.438 17.379 22.5 17.224 22.5 L 9.255 22.5 C 8.789 22.499 8.342 22.314 8.012 21.985 C 7.683 21.655 7.498 21.208 7.497 20.742 L 7.497 19.658 C 7.497 19.159 7.603 18.666 7.808 18.212 C 8.013 17.757 8.313 17.352 8.687 17.022 C 9.742 16.138 11.005 15.536 12.356 15.272 C 11.543 14.646 10.978 13.751 10.763 12.747 C 10.548 11.743 10.696 10.695 11.181 9.791 C 11.667 8.886 12.458 8.183 13.413 7.807 C 14.368 7.431 15.426 7.407 16.397 7.738 C 17.369 8.069 18.192 8.734 18.719 9.615 C 19.245 10.496 19.442 11.536 19.274 12.549 C 19.106 13.561 18.584 14.482 17.8 15.145 C 17.017 15.809 16.023 16.173 14.997 16.172 C 13.003 16.058 11.035 16.672 9.46 17.9 C 9.211 18.12 9.012 18.39 8.875 18.693 C 8.739 18.995 8.668 19.324 8.669 19.656 L 8.669 20.74 C 8.669 20.895 8.731 21.044 8.841 21.154 C 8.951 21.264 9.1 21.326 9.255 21.326 L 17.224 21.326 C 17.327 21.326 17.428 21.353 17.518 21.405 C 17.607 21.456 17.681 21.531 17.732 21.62 C 17.783 21.71 17.81 21.811 17.81 21.914 Z M 14.997 15 C 15.836 15 16.641 14.666 17.234 14.073 C 17.827 13.48 18.161 12.675 18.161 11.836 C 18.161 10.997 17.827 10.192 17.234 9.599 C 16.641 9.006 15.836 8.672 14.997 8.672 C 14.158 8.672 13.353 9.006 12.76 9.599 C 12.167 10.192 11.833 10.997 11.833 11.836 C 11.834 12.675 12.168 13.479 12.761 14.072 C 13.354 14.665 14.158 14.999 14.997 15 Z M 14.997 15"
        fill="#ffffff"/>
    <path
        id="path_1"
        d="M 12.023 21.914 C 12.023 22.069 12.085 22.219 12.195 22.328 C 12.304 22.438 12.454 22.5 12.609 22.5 L 20.578 22.5 C 21.044 22.499 21.491 22.314 21.821 21.985 C 22.15 21.655 22.335 21.208 22.336 20.742 L 22.336 19.658 C 22.336 19.159 22.23 18.666 22.025 18.212 C 21.82 17.757 21.52 17.352 21.146 17.022 C 20.091 16.138 18.828 15.536 17.477 15.272 C 18.29 14.646 18.855 13.751 19.07 12.747 C 19.285 11.743 19.137 10.695 18.652 9.791 C 18.166 8.886 17.375 8.183 16.42 7.807 C 15.465 7.431 14.407 7.407 13.436 7.738 C 12.464 8.069 11.641 8.734 11.114 9.615 C 10.588 10.496 10.391 11.536 10.559 12.549 C 10.727 13.561 11.249 14.482 12.033 15.145 C 12.816 15.809 13.81 16.173 14.836 16.172 C 16.83 16.058 18.798 16.672 20.373 17.9 C 20.622 18.12 20.821 18.39 20.958 18.693 C 21.094 18.995 21.165 19.324 21.164 19.656 L 21.164 20.74 C 21.164 20.895 21.102 21.044 20.992 21.154 C 20.882 21.264 20.733 21.326 20.578 21.326 L 12.609 21.326 C 12.506 21.326 12.405 21.353 12.315 21.405 C 12.226 21.456 12.152 21.531 12.101 21.62 C 12.05 21.71 12.023 21.811 12.023 21.914 Z M 14.836 15 C 13.997 15 13.192 14.666 12.599 14.073 C 12.006 13.48 11.672 12.675 11.672 11.836 C 11.672 10.997 12.006 10.192 12.599 9.599 C 13.192 9.006 13.997 8.672 14.836 8.672 C 15.675 8.672 16.48 9.006 17.073 9.599 C 17.666 10.192 18 10.997 18 11.836 C 17.999 12.675 17.665 13.479 17.072 14.072 C 16.479 14.665 15.675 14.999 14.836 15 Z M 14.836 15"
        fill="#ffffff"/>
</svg>
