<svg
    xmlns="http://www.w3.org/2000/svg"
    viewBox="0 0 3 16"
    id="ic_call_more_menu">
    <path
        id="path"
        d="M 0 14.5 C -0.005 14.085 0.132 13.68 0.388 13.353 C 0.644 13.025 1.004 12.795 1.408 12.699 C 1.813 12.604 2.238 12.648 2.613 12.826 C 2.989 13.004 3.293 13.304 3.475 13.678 C 3.657 14.051 3.706 14.476 3.615 14.881 C 3.524 15.286 3.298 15.649 2.974 15.908 C 2.65 16.168 2.246 16.31 1.831 16.31 C 1.511 16.312 1.197 16.23 0.919 16.072 C 0.642 15.913 0.41 15.685 0.249 15.409 C 0.088 15.133 0.002 14.82 0 14.5 Z M 0 8.16 C -0.005 7.745 0.132 7.34 0.388 7.013 C 0.644 6.685 1.004 6.455 1.408 6.359 C 1.813 6.264 2.238 6.308 2.613 6.486 C 2.989 6.664 3.293 6.964 3.475 7.338 C 3.657 7.711 3.706 8.136 3.615 8.541 C 3.524 8.946 3.298 9.309 2.974 9.568 C 2.65 9.828 2.246 9.97 1.831 9.97 C 1.511 9.972 1.197 9.89 0.919 9.732 C 0.642 9.573 0.41 9.345 0.249 9.069 C 0.088 8.793 0.002 8.48 0 8.16 Z M 0 1.81 C -0.005 1.395 0.132 0.99 0.388 0.663 C 0.644 0.335 1.004 0.105 1.408 0.009 C 1.813 -0.086 2.238 -0.042 2.613 0.136 C 2.989 0.314 3.293 0.614 3.475 0.988 C 3.657 1.361 3.706 1.786 3.615 2.191 C 3.524 2.596 3.298 2.959 2.974 3.218 C 2.65 3.478 2.246 3.62 1.831 3.62 C 1.511 3.622 1.197 3.54 0.919 3.382 C 0.642 3.223 0.41 2.995 0.249 2.719 C 0.088 2.443 0.002 2.13 0 1.81 Z"
        fill="#ffffff"/>
</svg>
