<svg
    xmlns="http://www.w3.org/2000/svg"
    viewBox="0 0 224 35"
    id="vector">
    <defs>
        <clipPath id="clip_path">
            <path d="M 0 0 L 224.098 0 L 224.098 35.726 L 0 35.726 Z"/>
        </clipPath>
        <clipPath id="clip_path_1">
            <path d="M 0 0 L 224.098 0 L 224.098 35.726 L 0 35.726 Z"/>
        </clipPath>
        <clipPath id="clip_path_2">
            <path d="M 0 0 L 224.098 0 L 224.098 35.726 L 0 35.726 Z"/>
        </clipPath>
        <clipPath id="clip_path_3">
            <path d="M 0 0 L 224.098 0 L 224.098 35.726 L 0 35.726 Z"/>
        </clipPath>
        <clipPath id="clip_path_4">
            <path d="M 0 0 L 224.098 0 L 224.098 35.726 L 0 35.726 Z"/>
        </clipPath>
        <clipPath id="clip_path_5">
            <path d="M 0 0 L 224.098 0 L 224.098 35.726 L 0 35.726 Z"/>
        </clipPath>
        <clipPath id="clip_path_6">
            <path d="M 0 0 L 224.098 0 L 224.098 35.726 L 0 35.726 Z"/>
        </clipPath>
        <clipPath id="clip_path_7">
            <path d="M 0 0 L 224.098 0 L 224.098 35.726 L 0 35.726 Z"/>
        </clipPath>
        <clipPath id="clip_path_8">
            <path d="M 0 0 L 224.098 0 L 224.098 35.726 L 0 35.726 Z"/>
        </clipPath>
        <clipPath id="clip_path_9">
            <path d="M 0 0 L 224.098 0 L 224.098 35.726 L 0 35.726 Z"/>
        </clipPath>
        <clipPath id="clip_path_10">
            <path d="M 0 0 L 224.098 0 L 224.098 35.726 L 0 35.726 Z"/>
        </clipPath>
        <clipPath id="clip_path_11">
            <path d="M 0 0 L 224.098 0 L 224.098 35.726 L 0 35.726 Z"/>
        </clipPath>
        <clipPath id="clip_path_12">
            <path d="M 0 0 L 224.098 0 L 224.098 35.726 L 0 35.726 Z"/>
        </clipPath>
        <clipPath id="clip_path_13">
            <path d="M 0 0 L 224.098 0 L 224.098 35.726 L 0 35.726 Z"/>
        </clipPath>
        <clipPath id="clip_path_14">
            <path d="M 0 0 L 224.098 0 L 224.098 35.726 L 0 35.726 Z"/>
        </clipPath>
        <clipPath id="clip_path_15">
            <path d="M 0 0 L 224.098 0 L 224.098 35.726 L 0 35.726 Z"/>
        </clipPath>
        <clipPath id="clip_path_16">
            <path d="M 0 0 L 224.098 0 L 224.098 35.726 L 0 35.726 Z"/>
        </clipPath>
        <clipPath id="clip_path_17">
            <path d="M 0 0 L 224.098 0 L 224.098 35.726 L 0 35.726 Z"/>
        </clipPath>
        <clipPath id="clip_path_18">
            <path d="M 0 0 L 224.098 0 L 224.098 35.726 L 0 35.726 Z"/>
        </clipPath>
        <clipPath id="clip_path_19">
            <path d="M 0 0 L 224.098 0 L 224.098 35.726 L 0 35.726 Z"/>
        </clipPath>
        <clipPath id="clip_path_20">
            <path d="M 0 0 L 224.098 0 L 224.098 35.726 L 0 35.726 Z"/>
        </clipPath>
        <clipPath id="clip_path_21">
            <path d="M 0 0 L 224.098 0 L 224.098 35.726 L 0 35.726 Z"/>
        </clipPath>
        <clipPath id="clip_path_22">
            <path d="M 0 0 L 224.098 0 L 224.098 35.726 L 0 35.726 Z"/>
        </clipPath>
        <clipPath id="clip_path_23">
            <path d="M 0 0 L 224.098 0 L 224.098 35.726 L 0 35.726 Z"/>
        </clipPath>
        <clipPath id="clip_path_24">
            <path d="M 0 0 L 224.098 0 L 224.098 35.726 L 0 35.726 Z"/>
        </clipPath>
        <clipPath id="clip_path_25">
            <path d="M 0 0 L 224.098 0 L 224.098 35.726 L 0 35.726 Z"/>
        </clipPath>
        <clipPath id="clip_path_26">
            <path d="M 0 0 L 224.098 0 L 224.098 35.726 L 0 35.726 Z"/>
        </clipPath>
        <clipPath id="clip_path_27">
            <path d="M 0 0 L 224.098 0 L 224.098 35.726 L 0 35.726 Z"/>
        </clipPath>
        <clipPath id="clip_path_28">
            <path d="M 0 0 L 224.098 0 L 224.098 35.726 L 0 35.726 Z"/>
        </clipPath>
        <clipPath id="clip_path_29">
            <path d="M 0 0 L 224.098 0 L 224.098 35.726 L 0 35.726 Z"/>
        </clipPath>
        <clipPath id="clip_path_30">
            <path d="M 0 0 L 224.098 0 L 224.098 35.726 L 0 35.726 Z"/>
        </clipPath>
    </defs>
    <g id="group">
        <path
            id="path"
            clip-path="url(#clip_path)"
            d="M 70.089 8.653 L 70.089 26.036 C 70.099 26.497 69.961 26.949 69.694 27.326 C 69.428 27.702 69.048 27.984 68.61 28.128 C 68.172 28.272 67.699 28.272 67.261 28.128 C 66.823 27.984 66.443 27.702 66.177 27.326 C 65.91 26.949 65.772 26.497 65.782 26.036 L 65.782 15.636 L 61.827 21.854 C 61.651 22.252 61.366 22.592 61.004 22.835 C 60.643 23.078 60.221 23.214 59.786 23.227 C 59.352 23.21 58.931 23.072 58.571 22.83 C 58.21 22.587 57.924 22.25 57.745 21.854 L 53.79 15.571 L 53.79 26.034 C 53.79 26.605 53.563 27.153 53.159 27.557 C 52.755 27.961 52.207 28.188 51.636 28.188 C 51.065 28.188 50.517 27.961 50.113 27.557 C 49.709 27.153 49.482 26.605 49.482 26.034 L 49.482 8.651 C 49.461 8.268 49.544 7.885 49.723 7.546 C 49.902 7.206 50.17 6.921 50.499 6.722 C 50.827 6.523 51.204 6.417 51.588 6.416 C 52.513 6.416 53.12 6.864 53.854 8.075 L 59.787 17.486 L 65.72 8.075 C 66.486 6.864 67.059 6.416 67.986 6.416 C 68.37 6.418 68.746 6.524 69.075 6.723 C 69.403 6.922 69.671 7.206 69.85 7.546 C 70.029 7.886 70.112 8.268 70.091 8.651"
            fill="#ffffff"/>
        <path
            id="path_1"
            clip-path="url(#clip_path_1)"
            d="M 74.457 26.037 L 74.457 13.885 C 74.457 13.314 74.684 12.766 75.088 12.363 C 75.491 11.959 76.039 11.732 76.61 11.732 C 77.181 11.732 77.729 11.959 78.132 12.363 C 78.536 12.766 78.763 13.314 78.763 13.885 L 78.763 26.037 C 78.763 26.608 78.536 27.156 78.132 27.559 C 77.729 27.963 77.181 28.19 76.61 28.19 C 76.039 28.19 75.491 27.963 75.088 27.559 C 74.684 27.156 74.457 26.608 74.457 26.037 M 79.306 6.323 C 79.325 6.939 79.133 7.544 78.761 8.036 C 78.389 8.527 77.859 8.877 77.261 9.027 C 76.663 9.176 76.031 9.116 75.472 8.857 C 74.913 8.597 74.458 8.154 74.186 7.601 C 73.913 7.048 73.838 6.418 73.973 5.816 C 74.107 5.215 74.444 4.677 74.927 4.293 C 75.41 3.91 76.009 3.703 76.626 3.707 C 77.327 3.7 78.004 3.972 78.506 4.462 C 79.008 4.952 79.296 5.622 79.306 6.323"
            fill="#ffffff"/>
        <path
            id="path_2"
            clip-path="url(#clip_path_2)"
            d="M 93.053 13.816 C 93.059 14.356 92.851 14.878 92.475 15.266 C 92.099 15.654 91.584 15.878 91.044 15.889 C 90.352 15.895 89.674 16.093 89.088 16.461 C 88.501 16.828 88.027 17.351 87.719 17.972 C 87.412 18.592 87.282 19.285 87.344 19.975 L 87.344 26.036 C 87.359 26.419 87.27 26.8 87.086 27.136 C 86.902 27.473 86.63 27.753 86.299 27.946 C 85.968 28.14 85.591 28.24 85.207 28.236 C 84.821 28.241 84.441 28.142 84.107 27.949 C 83.773 27.756 83.497 27.476 83.309 27.14 C 83.121 26.803 83.027 26.422 83.038 26.036 L 83.038 13.882 C 83.026 13.502 83.117 13.125 83.303 12.792 C 83.488 12.46 83.76 12.184 84.09 11.994 C 84.42 11.804 84.795 11.708 85.176 11.715 C 85.704 11.712 86.215 11.911 86.6 12.272 C 86.986 12.634 87.219 13.129 87.25 13.657 C 87.729 13.102 88.321 12.655 88.986 12.347 C 89.652 12.039 90.376 11.877 91.109 11.871 C 91.456 11.851 91.801 11.929 92.106 12.096 C 92.41 12.264 92.661 12.515 92.829 12.819 C 92.997 13.123 93.075 13.468 93.055 13.815"
            fill="#ffffff"/>
        <path
            id="path_3"
            clip-path="url(#clip_path_3)"
            d="M 105.429 13.818 C 105.435 14.358 105.227 14.88 104.85 15.268 C 104.474 15.656 103.959 15.88 103.419 15.891 C 102.727 15.897 102.049 16.095 101.462 16.462 C 100.875 16.83 100.402 17.353 100.094 17.973 C 99.786 18.594 99.657 19.287 99.719 19.977 L 99.719 26.038 C 99.734 26.421 99.645 26.802 99.461 27.138 C 99.277 27.475 99.005 27.755 98.674 27.948 C 98.343 28.142 97.966 28.242 97.582 28.238 C 97.196 28.243 96.816 28.144 96.482 27.951 C 96.148 27.758 95.872 27.478 95.684 27.142 C 95.496 26.805 95.402 26.424 95.413 26.038 L 95.413 13.884 C 95.401 13.504 95.492 13.127 95.677 12.795 C 95.863 12.462 96.135 12.186 96.464 11.997 C 96.794 11.807 97.17 11.71 97.55 11.717 C 98.078 11.714 98.588 11.914 98.974 12.275 C 99.36 12.637 99.593 13.132 99.624 13.66 C 100.103 13.104 100.695 12.658 101.361 12.35 C 102.027 12.042 102.751 11.879 103.484 11.874 C 103.831 11.854 104.176 11.932 104.481 12.099 C 104.785 12.267 105.036 12.518 105.204 12.822 C 105.372 13.126 105.45 13.471 105.43 13.818"
            fill="#ffffff"/>
        <path
            id="path_4"
            clip-path="url(#clip_path_4)"
            d="M 110.946 19.973 C 110.907 20.86 111.157 21.736 111.66 22.467 C 112.162 23.199 112.89 23.748 113.732 24.029 C 114.573 24.311 115.485 24.311 116.326 24.029 C 117.168 23.748 117.896 23.199 118.398 22.467 C 118.901 21.736 119.151 20.86 119.112 19.973 C 119.164 19.078 118.921 18.191 118.42 17.447 C 117.919 16.704 117.187 16.146 116.338 15.859 C 115.489 15.572 114.569 15.572 113.72 15.859 C 112.871 16.146 112.139 16.704 111.638 17.447 C 111.137 18.191 110.894 19.078 110.946 19.973 M 123.514 19.941 C 123.5 21.416 123.096 22.861 122.341 24.129 C 121.587 25.396 120.51 26.442 119.22 27.157 C 117.931 27.873 116.474 28.234 114.999 28.203 C 112.83 28.133 110.773 27.209 109.28 25.634 C 107.786 24.059 106.973 21.956 107.019 19.786 C 107.064 17.616 107.964 15.549 109.522 14.038 C 111.08 12.526 113.173 11.689 115.343 11.71 C 117.514 11.73 119.591 12.606 121.12 14.147 C 122.649 15.687 123.51 17.77 123.515 19.941"
            fill="#ffffff"/>
        <path
            id="path_5"
            clip-path="url(#clip_path_5)"
            d="M 136.877 13.816 C 136.883 14.356 136.675 14.878 136.298 15.266 C 135.922 15.654 135.407 15.878 134.867 15.889 C 134.175 15.895 133.497 16.093 132.911 16.461 C 132.324 16.828 131.85 17.351 131.542 17.972 C 131.235 18.592 131.105 19.285 131.167 19.975 L 131.167 26.036 C 131.183 26.419 131.094 26.799 130.91 27.136 C 130.726 27.472 130.454 27.753 130.123 27.946 C 129.792 28.14 129.414 28.24 129.031 28.236 C 128.645 28.241 128.265 28.142 127.931 27.949 C 127.597 27.756 127.321 27.476 127.133 27.14 C 126.945 26.803 126.851 26.422 126.862 26.036 L 126.862 13.882 C 126.85 13.502 126.941 13.125 127.127 12.792 C 127.312 12.46 127.584 12.184 127.914 11.994 C 128.244 11.804 128.619 11.708 129 11.715 C 129.528 11.712 130.038 11.912 130.423 12.273 C 130.809 12.634 131.042 13.13 131.073 13.657 C 131.552 13.102 132.144 12.655 132.809 12.347 C 133.475 12.039 134.199 11.877 134.932 11.871 C 135.279 11.85 135.625 11.928 135.929 12.096 C 136.233 12.264 136.484 12.514 136.652 12.818 C 136.82 13.122 136.899 13.468 136.879 13.815"
            fill="#ffffff"/>
        <path
            id="path_6"
            clip-path="url(#clip_path_6)"
            d="M 140.226 27.12 L 140.226 7.662 C 140.221 7.509 140.258 7.359 140.333 7.225 C 140.408 7.092 140.517 6.982 140.65 6.907 C 140.783 6.832 140.933 6.794 141.086 6.798 L 152.409 6.798 C 152.541 6.795 152.671 6.827 152.787 6.89 C 152.903 6.954 152.999 7.047 153.068 7.159 C 153.136 7.272 153.173 7.401 153.176 7.533 C 153.173 7.735 153.091 7.928 152.948 8.071 C 152.805 8.213 152.611 8.295 152.409 8.297 L 141.883 8.297 L 141.883 16.432 L 150.529 16.432 C 150.66 16.429 150.79 16.461 150.906 16.524 C 151.021 16.588 151.118 16.68 151.186 16.793 C 151.254 16.905 151.291 17.034 151.294 17.165 C 151.291 17.367 151.21 17.56 151.067 17.703 C 150.924 17.846 150.731 17.928 150.529 17.931 L 141.883 17.931 L 141.883 27.117 C 141.889 27.268 141.855 27.419 141.785 27.553 C 141.714 27.686 141.609 27.799 141.481 27.88 C 141.353 27.96 141.205 28.005 141.054 28.01 C 140.902 28.008 140.752 27.965 140.623 27.886 C 140.493 27.806 140.387 27.692 140.317 27.556 C 140.247 27.421 140.215 27.269 140.225 27.117"
            fill="#ffffff"/>
        <path
            id="path_7"
            clip-path="url(#clip_path_7)"
            d="M 156.588 27.375 L 156.588 7.634 C 156.605 7.435 156.697 7.249 156.844 7.114 C 156.992 6.978 157.185 6.903 157.385 6.903 C 157.585 6.903 157.778 6.978 157.926 7.114 C 158.073 7.249 158.165 7.435 158.182 7.634 L 158.182 27.375 C 158.187 27.517 158.153 27.657 158.084 27.781 C 158.014 27.905 157.912 28.007 157.788 28.077 C 157.664 28.146 157.524 28.18 157.382 28.175 C 157.241 28.177 157.102 28.141 156.98 28.071 C 156.857 28.001 156.756 27.9 156.686 27.777 C 156.616 27.655 156.58 27.516 156.582 27.375"
            fill="#ffffff"/>
        <path
            id="path_8"
            clip-path="url(#clip_path_8)"
            d="M 176.939 12.929 C 176.928 13.05 176.894 13.168 176.839 13.276 L 169.375 30.056 C 168.194 32.672 166.475 33.915 164.144 33.915 C 163.694 33.922 163.245 33.88 162.805 33.79 C 162.631 33.759 162.473 33.67 162.356 33.537 C 162.24 33.404 162.172 33.235 162.165 33.058 C 162.167 32.864 162.244 32.678 162.382 32.54 C 162.519 32.402 162.705 32.324 162.899 32.322 C 163.153 32.322 163.632 32.451 164.016 32.451 C 165.801 32.451 167.016 31.559 167.875 29.643 L 168.768 27.569 L 162.451 13.312 C 162.392 13.193 162.358 13.063 162.351 12.931 C 162.35 12.79 162.386 12.651 162.456 12.529 C 162.526 12.407 162.627 12.306 162.749 12.236 C 162.871 12.166 163.01 12.13 163.151 12.131 C 163.319 12.131 163.483 12.184 163.621 12.281 C 163.758 12.379 163.862 12.516 163.918 12.675 L 169.66 25.626 L 175.337 12.675 C 175.396 12.512 175.506 12.372 175.649 12.274 C 175.793 12.176 175.963 12.126 176.137 12.131 C 176.348 12.134 176.55 12.22 176.699 12.369 C 176.848 12.518 176.934 12.72 176.937 12.931"
            fill="#ffffff"/>
        <path
            id="path_9"
            clip-path="url(#clip_path_9)"
            d="M 185.374 18.818 C 185.374 18.763 185.385 18.709 185.406 18.658 C 185.427 18.607 185.458 18.561 185.497 18.522 C 185.536 18.484 185.583 18.453 185.634 18.433 C 185.684 18.41 185.739 18.399 185.794 18.398 L 197.94 18.398 L 197.94 19.237 L 185.793 19.237 C 185.738 19.237 185.684 19.226 185.633 19.206 C 185.53 19.162 185.449 19.08 185.406 18.977 C 185.385 18.927 185.374 18.873 185.374 18.818 Z"
            fill="#727070"/>
        <path
            id="path_10"
            clip-path="url(#clip_path_10)"
            d="M 211.902 18.818 C 211.902 18.872 211.893 18.927 211.875 18.978 C 211.857 19.028 211.831 19.074 211.797 19.115 C 211.765 19.154 211.725 19.185 211.68 19.208 C 211.637 19.228 211.59 19.239 211.543 19.239 L 197.943 19.239 L 197.943 18.399 L 211.543 18.399 C 211.591 18.399 211.638 18.411 211.68 18.433 C 211.725 18.454 211.765 18.484 211.797 18.523 C 211.832 18.562 211.858 18.608 211.875 18.658 C 211.893 18.709 211.902 18.763 211.902 18.818 Z"
            fill="#c4c4c4"/>
        <path
            id="path_11"
            clip-path="url(#clip_path_11)"
            d="M 185.645 23.956 C 185.647 23.397 185.797 22.849 186.082 22.367 C 186.367 21.886 186.775 21.49 187.264 21.219 C 187.753 20.949 188.305 20.814 188.864 20.828 C 189.305 20.823 189.743 20.914 190.145 21.094 C 190.548 21.275 190.906 21.541 191.196 21.874 C 191.316 21.996 191.385 22.16 191.389 22.331 C 191.386 22.481 191.323 22.624 191.215 22.728 C 191.108 22.833 190.963 22.89 190.813 22.889 C 190.721 22.886 190.631 22.863 190.549 22.821 C 190.466 22.78 190.394 22.721 190.337 22.649 C 190.158 22.433 189.933 22.26 189.678 22.143 C 189.423 22.026 189.144 21.969 188.864 21.974 C 188.338 21.974 187.833 22.183 187.461 22.555 C 187.089 22.927 186.88 23.432 186.88 23.958 C 186.88 24.484 187.089 24.989 187.461 25.361 C 187.833 25.733 188.338 25.942 188.864 25.942 C 189.143 25.946 189.42 25.887 189.673 25.77 C 189.927 25.653 190.15 25.48 190.328 25.265 C 190.387 25.193 190.461 25.135 190.545 25.095 C 190.629 25.054 190.72 25.032 190.813 25.029 C 190.912 25.028 191.009 25.053 191.095 25.102 C 191.181 25.151 191.253 25.221 191.303 25.306 C 191.353 25.391 191.379 25.488 191.38 25.587 C 191.373 25.757 191.305 25.92 191.188 26.044 C 190.899 26.378 190.54 26.644 190.137 26.824 C 189.734 27.003 189.296 27.093 188.855 27.085 C 188.297 27.1 187.745 26.965 187.256 26.694 C 186.768 26.423 186.361 26.026 186.077 25.545 C 185.794 25.064 185.645 24.515 185.645 23.957 Z"
            fill="#06060a"/>
        <path
            id="path_12"
            clip-path="url(#clip_path_12)"
            d="M 185.645 23.956 C 185.647 23.397 185.797 22.849 186.082 22.367 C 186.367 21.886 186.775 21.49 187.264 21.219 C 187.753 20.949 188.305 20.814 188.864 20.828 C 189.305 20.823 189.743 20.914 190.145 21.094 C 190.548 21.275 190.906 21.541 191.196 21.874 C 191.316 21.996 191.385 22.16 191.389 22.331 C 191.386 22.481 191.323 22.624 191.215 22.728 C 191.108 22.833 190.963 22.89 190.813 22.889 C 190.721 22.886 190.631 22.863 190.549 22.821 C 190.466 22.78 190.394 22.721 190.337 22.649 C 190.158 22.433 189.933 22.26 189.678 22.143 C 189.423 22.026 189.144 21.969 188.864 21.974 C 188.338 21.974 187.833 22.183 187.461 22.555 C 187.089 22.927 186.88 23.432 186.88 23.958 C 186.88 24.484 187.089 24.989 187.461 25.361 C 187.833 25.733 188.338 25.942 188.864 25.942 C 189.143 25.946 189.42 25.887 189.673 25.77 C 189.927 25.653 190.15 25.48 190.328 25.265 C 190.387 25.193 190.461 25.135 190.545 25.095 C 190.629 25.054 190.72 25.032 190.813 25.029 C 190.912 25.028 191.009 25.053 191.095 25.102 C 191.181 25.151 191.253 25.221 191.303 25.306 C 191.353 25.391 191.379 25.488 191.38 25.587 C 191.373 25.757 191.305 25.92 191.188 26.044 C 190.899 26.378 190.54 26.644 190.137 26.824 C 189.734 27.003 189.296 27.093 188.855 27.085 C 188.297 27.1 187.745 26.965 187.256 26.694 C 186.768 26.423 186.361 26.026 186.077 25.545 C 185.794 25.064 185.645 24.515 185.645 23.957 Z"
            fill="#ffffff"/>
        <path
            id="path_13"
            clip-path="url(#clip_path_13)"
            d="M 193.795 23.955 C 193.806 24.467 194.019 24.954 194.388 25.309 C 194.756 25.665 195.251 25.86 195.763 25.853 C 196.275 25.845 196.763 25.636 197.121 25.27 C 197.479 24.904 197.678 24.411 197.674 23.899 C 197.671 23.387 197.464 22.897 197.101 22.536 C 196.738 22.175 196.246 21.973 195.734 21.973 C 195.386 21.963 195.041 22.049 194.739 22.222 C 194.437 22.396 194.189 22.649 194.022 22.955 C 193.856 23.261 193.777 23.607 193.795 23.955 Z M 198.945 23.955 C 198.964 24.686 198.733 25.402 198.29 25.983 C 197.847 26.565 197.219 26.979 196.509 27.155 C 195.799 27.331 195.051 27.26 194.387 26.954 C 193.723 26.647 193.184 26.123 192.858 25.468 C 192.533 24.814 192.44 24.067 192.596 23.353 C 192.752 22.638 193.147 21.998 193.716 21.539 C 194.285 21.08 194.994 20.828 195.725 20.826 C 196.284 20.813 196.836 20.949 197.324 21.22 C 197.813 21.491 198.221 21.887 198.505 22.368 C 198.79 22.848 198.942 23.396 198.945 23.955 Z"
            fill="#ffffff"/>
        <path
            id="path_14"
            clip-path="url(#clip_path_14)"
            d="M 193.795 23.955 C 193.806 24.467 194.019 24.954 194.388 25.309 C 194.756 25.665 195.251 25.86 195.763 25.853 C 196.275 25.845 196.763 25.636 197.121 25.27 C 197.479 24.904 197.678 24.411 197.674 23.899 C 197.671 23.387 197.464 22.897 197.101 22.536 C 196.738 22.175 196.246 21.973 195.734 21.973 C 195.386 21.963 195.041 22.049 194.739 22.222 C 194.437 22.396 194.189 22.649 194.022 22.955 C 193.856 23.261 193.777 23.607 193.795 23.955 Z M 198.945 23.955 C 198.964 24.686 198.733 25.402 198.29 25.983 C 197.847 26.565 197.219 26.979 196.509 27.155 C 195.799 27.331 195.051 27.26 194.387 26.954 C 193.723 26.647 193.184 26.123 192.858 25.468 C 192.533 24.814 192.44 24.067 192.596 23.353 C 192.752 22.638 193.147 21.998 193.716 21.539 C 194.285 21.08 194.994 20.828 195.725 20.826 C 196.284 20.813 196.836 20.949 197.324 21.22 C 197.813 21.491 198.221 21.887 198.505 22.368 C 198.79 22.848 198.942 23.396 198.945 23.955 Z"
            fill="#00000000"
            fill-opacity="0"
            stroke="#000000"
            stroke-opacity="0"
            stroke-width="1"/>
        <path
            id="path_15"
            clip-path="url(#clip_path_15)"
            d="M 205.232 21.46 L 205.232 26.46 C 205.236 26.568 205.211 26.675 205.159 26.769 C 205.107 26.864 205.031 26.943 204.939 26.998 C 204.846 27.053 204.74 27.082 204.632 27.082 C 204.507 27.075 204.385 27.037 204.278 26.972 C 204.171 26.906 204.082 26.815 204.019 26.706 L 201.33 23.249 L 201.33 26.449 C 201.33 26.613 201.265 26.77 201.149 26.886 C 201.033 27.002 200.876 27.067 200.712 27.067 C 200.548 27.067 200.391 27.002 200.275 26.886 C 200.159 26.77 200.094 26.613 200.094 26.449 L 200.094 21.449 C 200.091 21.341 200.117 21.235 200.168 21.14 C 200.22 21.045 200.296 20.966 200.388 20.91 C 200.481 20.855 200.586 20.825 200.694 20.823 C 201.006 20.823 201.14 21 201.326 21.223 L 204.006 24.656 L 203.997 21.456 C 203.997 21.292 204.062 21.135 204.178 21.019 C 204.294 20.903 204.451 20.838 204.615 20.838 C 204.779 20.838 204.936 20.903 205.052 21.019 C 205.168 21.135 205.233 21.292 205.233 21.456 Z"
            fill="#06060a"/>
        <path
            id="path_16"
            clip-path="url(#clip_path_16)"
            d="M 205.232 21.46 L 205.232 26.46 C 205.236 26.568 205.211 26.675 205.159 26.769 C 205.107 26.864 205.031 26.943 204.939 26.998 C 204.846 27.053 204.74 27.082 204.632 27.082 C 204.507 27.075 204.385 27.037 204.278 26.972 C 204.171 26.906 204.082 26.815 204.019 26.706 L 201.33 23.249 L 201.33 26.449 C 201.33 26.613 201.265 26.77 201.149 26.886 C 201.033 27.002 200.876 27.067 200.712 27.067 C 200.548 27.067 200.391 27.002 200.275 26.886 C 200.159 26.77 200.094 26.613 200.094 26.449 L 200.094 21.449 C 200.091 21.341 200.117 21.235 200.168 21.14 C 200.22 21.045 200.296 20.966 200.388 20.91 C 200.481 20.855 200.586 20.825 200.694 20.823 C 201.006 20.823 201.14 21 201.326 21.223 L 204.006 24.656 L 203.997 21.456 C 203.997 21.292 204.062 21.135 204.178 21.019 C 204.294 20.903 204.451 20.838 204.615 20.838 C 204.779 20.838 204.936 20.903 205.052 21.019 C 205.168 21.135 205.233 21.292 205.233 21.456 Z"
            fill="#ffffff"/>
        <path
            id="path_17"
            clip-path="url(#clip_path_17)"
            d="M 208.371 26.454 L 208.371 22.054 L 206.935 22.054 C 206.787 22.054 206.645 21.995 206.54 21.891 C 206.436 21.786 206.377 21.644 206.377 21.496 C 206.377 21.348 206.436 21.206 206.54 21.101 C 206.645 20.997 206.787 20.938 206.935 20.938 L 211.041 20.938 C 211.141 20.934 211.24 20.958 211.327 21.006 C 211.415 21.055 211.487 21.126 211.537 21.213 C 211.586 21.299 211.611 21.398 211.609 21.498 C 211.609 21.597 211.583 21.694 211.533 21.78 C 211.483 21.865 211.411 21.936 211.324 21.984 C 211.238 22.033 211.14 22.057 211.041 22.055 L 209.605 22.055 L 209.605 26.455 C 209.605 26.585 209.564 26.713 209.487 26.818 C 209.41 26.924 209.302 27.002 209.178 27.043 C 209.054 27.083 208.92 27.083 208.796 27.043 C 208.672 27.002 208.564 26.924 208.487 26.818 C 208.41 26.713 208.369 26.585 208.369 26.455 Z"
            fill="#ffffff"/>
        <path
            id="path_18"
            clip-path="url(#clip_path_18)"
            d="M 208.371 26.454 L 208.371 22.054 L 206.935 22.054 C 206.787 22.054 206.645 21.995 206.54 21.891 C 206.436 21.786 206.377 21.644 206.377 21.496 C 206.377 21.348 206.436 21.206 206.54 21.101 C 206.645 20.997 206.787 20.938 206.935 20.938 L 211.041 20.938 C 211.141 20.934 211.24 20.958 211.327 21.006 C 211.415 21.055 211.487 21.126 211.537 21.213 C 211.586 21.299 211.611 21.398 211.609 21.498 C 211.609 21.597 211.583 21.694 211.533 21.78 C 211.483 21.865 211.411 21.936 211.324 21.984 C 211.238 22.033 211.14 22.057 211.041 22.055 L 209.605 22.055 L 209.605 26.455 C 209.605 26.585 209.564 26.713 209.487 26.818 C 209.41 26.924 209.302 27.002 209.178 27.043 C 209.054 27.083 208.92 27.083 208.796 27.043 C 208.672 27.002 208.564 26.924 208.487 26.818 C 208.41 26.713 208.369 26.585 208.369 26.455 Z"
            fill="#00000000"
            fill-opacity="0"
            stroke="#000000"
            stroke-opacity="0"
            stroke-width="1"/>
        <path
            id="path_19"
            clip-path="url(#clip_path_19)"
            d="M 212.756 24.48 L 212.756 21.462 C 212.756 21.298 212.821 21.141 212.937 21.025 C 213.053 20.909 213.21 20.844 213.374 20.844 C 213.538 20.844 213.695 20.909 213.811 21.025 C 213.927 21.141 213.992 21.298 213.992 21.462 L 213.992 24.572 C 213.984 24.857 214.068 25.137 214.232 25.371 C 214.396 25.604 214.631 25.779 214.902 25.868 C 215.172 25.958 215.465 25.958 215.735 25.868 C 216.006 25.779 216.241 25.604 216.405 25.371 C 216.569 25.137 216.653 24.857 216.645 24.572 L 216.645 21.462 C 216.645 21.298 216.71 21.141 216.826 21.025 C 216.942 20.909 217.099 20.844 217.263 20.844 C 217.427 20.844 217.584 20.909 217.7 21.025 C 217.816 21.141 217.881 21.298 217.881 21.462 L 217.881 24.48 C 217.892 25.028 217.727 25.565 217.41 26.012 C 217.093 26.46 216.641 26.794 216.12 26.965 C 215.6 27.136 215.037 27.136 214.517 26.965 C 213.996 26.794 213.544 26.46 213.227 26.012 C 212.91 25.565 212.745 25.028 212.756 24.48 Z"
            fill="#06060a"/>
        <path
            id="path_20"
            clip-path="url(#clip_path_20)"
            d="M 212.756 24.48 L 212.756 21.462 C 212.756 21.298 212.821 21.141 212.937 21.025 C 213.053 20.909 213.21 20.844 213.374 20.844 C 213.538 20.844 213.695 20.909 213.811 21.025 C 213.927 21.141 213.992 21.298 213.992 21.462 L 213.992 24.572 C 213.984 24.857 214.068 25.137 214.232 25.371 C 214.396 25.604 214.631 25.779 214.902 25.868 C 215.172 25.958 215.465 25.958 215.735 25.868 C 216.006 25.779 216.241 25.604 216.405 25.371 C 216.569 25.137 216.653 24.857 216.645 24.572 L 216.645 21.462 C 216.645 21.298 216.71 21.141 216.826 21.025 C 216.942 20.909 217.099 20.844 217.263 20.844 C 217.427 20.844 217.584 20.909 217.7 21.025 C 217.816 21.141 217.881 21.298 217.881 21.462 L 217.881 24.48 C 217.892 25.028 217.727 25.565 217.41 26.012 C 217.093 26.46 216.641 26.794 216.12 26.965 C 215.6 27.136 215.037 27.136 214.517 26.965 C 213.996 26.794 213.544 26.46 213.227 26.012 C 212.91 25.565 212.745 25.028 212.756 24.48 Z"
            fill="#ffffff"/>
        <path
            id="path_21"
            clip-path="url(#clip_path_21)"
            d="M 219.241 26.273 C 219.173 26.213 219.118 26.139 219.078 26.057 C 219.039 25.975 219.017 25.886 219.013 25.795 C 219.016 25.647 219.077 25.506 219.183 25.404 C 219.29 25.301 219.432 25.244 219.58 25.246 C 219.698 25.245 219.812 25.288 219.9 25.366 C 220.061 25.552 220.259 25.703 220.481 25.81 C 220.703 25.916 220.944 25.976 221.19 25.986 C 221.729 25.986 222.048 25.729 222.048 25.32 C 222.048 24.97 221.838 24.826 221.279 24.569 L 220.63 24.275 C 219.669 23.837 219.166 23.314 219.166 22.537 C 219.182 22.208 219.288 21.89 219.472 21.616 C 219.655 21.343 219.91 21.125 220.209 20.986 C 220.508 20.847 220.839 20.792 221.166 20.827 C 221.483 20.815 221.799 20.873 222.091 20.997 C 222.384 21.12 222.645 21.306 222.858 21.542 C 222.91 21.593 222.951 21.654 222.98 21.722 C 223.008 21.789 223.023 21.861 223.023 21.934 C 223.017 22.081 222.955 22.22 222.849 22.322 C 222.744 22.424 222.603 22.482 222.456 22.483 C 222.332 22.483 222.212 22.438 222.118 22.357 C 221.871 22.093 221.528 21.938 221.167 21.926 C 220.728 21.926 220.417 22.137 220.417 22.509 C 220.417 22.809 220.581 22.959 221.117 23.209 L 221.804 23.509 C 222.811 23.955 223.294 24.452 223.294 25.274 C 223.283 25.624 223.175 25.964 222.982 26.255 C 222.788 26.547 222.517 26.779 222.2 26.926 C 221.882 27.072 221.529 27.128 221.182 27.085 C 220.451 27.082 219.75 26.79 219.234 26.273 Z"
            fill="#ffffff"/>
        <path
            id="path_22"
            clip-path="url(#clip_path_22)"
            d="M 219.241 26.273 C 219.173 26.213 219.118 26.139 219.078 26.057 C 219.039 25.975 219.017 25.886 219.013 25.795 C 219.016 25.647 219.077 25.506 219.183 25.404 C 219.29 25.301 219.432 25.244 219.58 25.246 C 219.698 25.245 219.812 25.288 219.9 25.366 C 220.061 25.552 220.259 25.703 220.481 25.81 C 220.703 25.916 220.944 25.976 221.19 25.986 C 221.729 25.986 222.048 25.729 222.048 25.32 C 222.048 24.97 221.838 24.826 221.279 24.569 L 220.63 24.275 C 219.669 23.837 219.166 23.314 219.166 22.537 C 219.182 22.208 219.288 21.89 219.472 21.616 C 219.655 21.343 219.91 21.125 220.209 20.986 C 220.508 20.847 220.839 20.792 221.166 20.827 C 221.483 20.815 221.799 20.873 222.091 20.997 C 222.384 21.12 222.645 21.306 222.858 21.542 C 222.91 21.593 222.951 21.654 222.98 21.722 C 223.008 21.789 223.023 21.861 223.023 21.934 C 223.017 22.081 222.955 22.22 222.849 22.322 C 222.744 22.424 222.603 22.482 222.456 22.483 C 222.332 22.483 222.212 22.438 222.118 22.357 C 221.871 22.093 221.528 21.938 221.167 21.926 C 220.728 21.926 220.417 22.137 220.417 22.509 C 220.417 22.809 220.581 22.959 221.117 23.209 L 221.804 23.509 C 222.811 23.955 223.294 24.452 223.294 25.274 C 223.283 25.624 223.175 25.964 222.982 26.255 C 222.788 26.547 222.517 26.779 222.2 26.926 C 221.882 27.072 221.529 27.128 221.182 27.085 C 220.451 27.082 219.75 26.79 219.234 26.273 Z"
            fill="#00000000"
            fill-opacity="0"
            stroke="#000000"
            stroke-opacity="0"
            stroke-width="1"/>
        <path
            id="path_23"
            clip-path="url(#clip_path_23)"
            d="M 223.075 18.818 C 223.075 18.873 223.065 18.928 223.044 18.979 C 223.023 19.03 222.992 19.076 222.953 19.116 C 222.914 19.156 222.867 19.187 222.816 19.209 C 222.765 19.229 222.711 19.24 222.656 19.24 L 210.509 19.24 L 210.509 18.399 L 222.658 18.399 C 222.713 18.399 222.768 18.411 222.818 18.433 C 222.87 18.453 222.916 18.484 222.955 18.523 C 222.994 18.561 223.025 18.607 223.046 18.658 C 223.066 18.709 223.076 18.763 223.075 18.818 Z"
            fill="#dedede"/>
        <path
            id="path_24"
            clip-path="url(#clip_path_24)"
            d="M 187.631 12.996 C 187.431 12.999 187.234 12.945 187.063 12.841 C 186.893 12.737 186.755 12.587 186.665 12.408 C 186.576 12.229 186.539 12.028 186.558 11.829 C 186.539 11.63 186.577 11.429 186.666 11.25 C 186.756 11.07 186.893 10.919 187.064 10.814 C 187.234 10.709 187.431 10.654 187.631 10.654 C 187.928 10.673 188.207 10.805 188.411 11.023 C 188.614 11.24 188.727 11.527 188.727 11.825 C 188.727 12.122 188.614 12.409 188.411 12.626 C 188.207 12.844 187.928 12.976 187.631 12.995 Z M 187.846 9.608 C 187.611 9.599 187.376 9.64 187.157 9.727 C 186.938 9.814 186.74 9.947 186.575 10.115 L 186.575 8.005 C 186.579 7.902 186.556 7.799 186.506 7.709 C 186.457 7.618 186.383 7.543 186.294 7.491 C 186.205 7.438 186.103 7.412 186 7.413 C 185.896 7.411 185.794 7.438 185.704 7.49 C 185.614 7.542 185.539 7.617 185.489 7.708 C 185.438 7.798 185.413 7.901 185.416 8.005 L 185.416 13.461 C 185.413 13.564 185.437 13.666 185.487 13.756 C 185.536 13.846 185.609 13.921 185.698 13.973 C 185.786 14.025 185.887 14.053 185.99 14.053 C 186.135 14.053 186.275 13.997 186.379 13.896 C 186.483 13.795 186.544 13.657 186.548 13.512 C 186.711 13.692 186.913 13.835 187.137 13.928 C 187.362 14.022 187.605 14.064 187.848 14.053 C 188.407 14.009 188.929 13.755 189.309 13.343 C 189.689 12.932 189.9 12.391 189.9 11.831 C 189.9 11.271 189.689 10.73 189.309 10.319 C 188.929 9.907 188.407 9.653 187.848 9.609 Z"
            fill="#ffffff"/>
        <path
            id="path_25"
            clip-path="url(#clip_path_25)"
            d="M 194.463 9.61 C 194.355 9.607 194.248 9.637 194.156 9.695 C 194.065 9.753 193.992 9.836 193.948 9.935 L 192.799 12.449 L 191.674 9.935 C 191.632 9.836 191.562 9.753 191.472 9.695 C 191.381 9.637 191.276 9.607 191.169 9.61 C 191.021 9.611 190.878 9.67 190.773 9.774 C 190.667 9.878 190.606 10.02 190.603 10.168 C 190.607 10.264 190.633 10.359 190.68 10.443 L 192.147 13.676 L 191.993 14.019 C 191.934 14.183 191.823 14.324 191.679 14.421 C 191.534 14.519 191.361 14.567 191.187 14.56 C 191.162 14.56 191.127 14.551 191.087 14.551 C 190.997 14.547 190.907 14.567 190.827 14.61 C 190.748 14.653 190.681 14.717 190.635 14.794 C 190.588 14.872 190.564 14.961 190.564 15.051 C 190.563 15.147 190.59 15.241 190.641 15.322 C 190.693 15.402 190.767 15.466 190.855 15.505 C 191.01 15.571 191.177 15.603 191.345 15.599 C 192.117 15.599 192.631 15.204 193.086 14.269 L 194.956 10.435 C 195.002 10.354 195.026 10.262 195.025 10.169 C 195.022 10.022 194.963 9.881 194.858 9.777 C 194.754 9.672 194.613 9.613 194.466 9.61 Z"
            fill="#ffffff"/>
        <path
            id="path_26"
            clip-path="url(#clip_path_26)"
            d="M 1.418 26.487 L 10.147 33.264 C 10.335 33.41 10.57 33.48 10.807 33.46 C 11.043 33.44 11.264 33.332 11.425 33.157 C 11.586 32.982 11.675 32.753 11.675 32.516 L 11.675 26.49"
            fill="#0dcea6"/>
        <path
            id="path_27"
            clip-path="url(#clip_path_27)"
            d="M 41.377 6.706 L 41.377 26.565 C 41.365 26.888 41.225 27.193 40.989 27.413 C 40.753 27.633 40.439 27.75 40.116 27.739 L 7.533 27.739 C 7.271 27.76 7.009 27.691 6.79 27.544 C 6.572 27.397 6.41 27.18 6.331 26.928 C 6.252 26.677 6.261 26.407 6.356 26.161 C 6.45 25.915 6.626 25.709 6.853 25.576 L 39.841 5.92 C 40.038 5.796 40.273 5.744 40.505 5.773 C 40.736 5.803 40.95 5.912 41.11 6.082 C 41.27 6.253 41.365 6.473 41.38 6.706 Z"
            fill="#ffd119"/>
        <path
            id="path_28"
            clip-path="url(#clip_path_28)"
            d="M 1.37 2.597 L 1.37 26.369 C 1.374 26.746 1.529 27.106 1.798 27.369 C 2.068 27.633 2.431 27.778 2.808 27.774 L 39.956 27.774 C 40.263 27.782 40.564 27.688 40.813 27.508 C 41.062 27.327 41.244 27.07 41.332 26.776 C 41.42 26.482 41.409 26.167 41.301 25.879 C 41.192 25.592 40.992 25.348 40.731 25.186 L 3.125 1.658 C 2.896 1.512 2.622 1.453 2.354 1.49 C 2.085 1.528 1.838 1.66 1.658 1.863 C 1.478 2.066 1.376 2.327 1.37 2.598 Z"
            fill="#ff0935"/>
        <path
            id="path_29"
            clip-path="url(#clip_path_29)"
            d="M 29.124 21.416 C 29.125 21.035 28.978 20.668 28.713 20.394 C 28.448 20.12 28.087 19.959 27.706 19.947 C 27.315 19.955 26.941 20.114 26.664 20.39 C 26.387 20.667 26.228 21.04 26.219 21.431 C 26.234 21.812 26.395 22.174 26.669 22.44 C 26.942 22.705 27.308 22.856 27.69 22.859 C 28.071 22.857 28.436 22.703 28.705 22.433 C 28.973 22.163 29.124 21.797 29.124 21.416 Z M 21.468 22.883 C 21.849 22.879 22.214 22.723 22.482 22.452 C 22.75 22.18 22.9 21.813 22.899 21.432 C 22.896 21.051 22.745 20.685 22.478 20.412 C 22.212 20.14 21.849 19.981 21.468 19.969 C 21.076 19.979 20.704 20.14 20.428 20.419 C 20.152 20.697 19.995 21.071 19.989 21.463 C 20.006 21.844 20.17 22.204 20.445 22.468 C 20.72 22.733 21.087 22.881 21.468 22.883 Z M 15.236 22.917 C 15.618 22.912 15.983 22.756 16.251 22.484 C 16.519 22.212 16.669 21.845 16.669 21.463 C 16.663 21.081 16.51 20.716 16.242 20.444 C 15.974 20.172 15.611 20.014 15.229 20.002 C 14.837 20.013 14.464 20.175 14.189 20.455 C 13.915 20.734 13.759 21.11 13.755 21.502 C 13.772 21.883 13.935 22.244 14.211 22.508 C 14.487 22.772 14.854 22.92 15.236 22.92 Z"
            fill="#ffffff"/>
        <path
            id="path_30"
            clip-path="url(#clip_path_30)"
            d="M 24.197 14.922 L 28.32 12.484 L 41.071 25.538 Z"
            fill="#000000"
            fill-opacity="0.15"
            stroke-opacity="0.15"/>
    </g>
</svg>
