<svg
    xmlns="http://www.w3.org/2000/svg"
    viewBox="0 0 66 66"
    id="vector">
    <path
        id="path_1"
        d="M 41.354 35.876 C 41.111 35.582 40.786 35.367 40.421 35.257 C 40.056 35.148 39.667 35.149 39.302 35.261 C 38.938 35.373 38.615 35.59 38.374 35.886 C 37.667 36.593 36.98 37.294 36.279 38.002 C 36.216 38.092 36.121 38.155 36.013 38.178 C 35.905 38.202 35.792 38.183 35.698 38.127 C 35.276 37.859 34.771 37.666 34.35 37.39 C 32.368 36.092 30.612 34.479 29.151 32.615 C 28.398 31.694 27.778 30.672 27.308 29.578 C 27.262 29.487 27.249 29.383 27.271 29.283 C 27.293 29.184 27.35 29.095 27.43 29.032 C 28.171 28.359 28.825 27.662 29.525 26.954 C 29.83 26.704 30.053 26.37 30.169 25.994 C 30.284 25.618 30.286 25.215 30.174 24.838 C 30.062 24.461 29.841 24.125 29.539 23.873 L 27.883 22.201 C 27.304 21.621 26.768 21.035 26.191 20.491 C 25.941 20.207 25.616 20.001 25.254 19.897 C 24.891 19.792 24.506 19.793 24.144 19.9 C 23.782 20.007 23.458 20.216 23.211 20.501 C 22.504 21.208 21.817 21.909 21.116 22.616 C 20.484 23.242 20.095 24.074 20.023 24.96 C 19.948 26.399 20.193 27.837 20.739 29.171 C 21.79 31.939 23.308 34.507 25.228 36.761 C 27.745 39.835 30.9 42.326 34.476 44.059 C 36.049 44.879 37.766 45.388 39.532 45.559 C 40.135 45.621 40.745 45.538 41.309 45.318 C 41.874 45.097 42.378 44.746 42.78 44.291 C 43.362 43.584 44.062 42.997 44.681 42.333 C 44.975 42.077 45.189 41.742 45.3 41.369 C 45.41 40.995 45.412 40.597 45.305 40.223 C 45.198 39.848 44.986 39.511 44.695 39.252 Z"
        fill="#00000000"
        stroke="#ffffff"
        stroke-width="1.3"/>
    <path
        id="path_2"
        d="M 38.7 25.2 L 20.7 43.2"
        fill="#00000000"
        stroke="#52627c"
        stroke-width="1"
        stroke-linecap="round"/>
    <path
        id="path_3"
        d="M 39.7 25.2 L 21.7 43.2"
        fill="#00000000"
        stroke="#ffffff"
        stroke-width="1"
        stroke-linecap="round"/>
</svg>
