<svg
    xmlns="http://www.w3.org/2000/svg"
    viewBox="0 0 32 32"
    id="vector">
    <path
        id="path"
        d="M 26.8 25 L 5.2 25 C 4.4 25 3.7 24.6 3.3 23.9 C 2.9 23.2 3 22.4 3.4 21.7 L 4.5 20 C 6.3 17.3 7.2 14.2 7.2 11 C 7.2 7.3 9.6 3.9 13.1 2.7 C 13.7 1.6 14.8 1 16 1 C 17.2 1 18.3 1.6 18.9 2.7 C 22.4 3.9 24.8 7.3 24.8 11 C 24.8 14.2 25.7 17.3 27.5 20 L 28.6 21.7 C 29 22.4 29.1 23.2 28.7 23.9 C 28.4 24.6 27.6 25 26.8 25 Z"
        fill="#ffffff"/>
    <path
        id="path_1"
        d="M 11.1 27 C 11.6 29.3 13.6 31 16 31 C 18.4 31 20.4 29.3 20.9 27 L 11.1 27 Z"
        fill="#ffffff"/>
</svg>
