<svg
    xmlns="http://www.w3.org/2000/svg"
    viewBox="0 0 40 40"
    id="ic_unpin_user">
    <path
        id="path"
        d="M 20.326 20.326 M 0 20.326 C 0 14.937 2.143 9.764 5.953 5.953 C 9.764 2.143 14.937 0 20.326 0 C 25.715 0 30.888 2.143 34.699 5.953 C 38.509 9.764 40.652 14.937 40.652 20.326 C 40.652 25.715 38.509 30.888 34.699 34.699 C 30.888 38.509 25.715 40.652 20.326 40.652 C 14.937 40.652 9.764 38.509 5.953 34.699 C 2.143 30.888 0 25.715 0 20.326"
        fill="#00000080"/>
    <path
        id="path_1"
        d="M 25.823 20.737 L 23.746 17.443 L 24.954 11.043 C 24.986 10.873 24.967 10.698 24.9 10.539 C 24.833 10.38 24.72 10.244 24.577 10.148 C 24.433 10.053 24.264 10.002 24.091 10.002 L 16.919 10.002 C 16.746 10.002 16.577 10.053 16.433 10.148 C 16.29 10.244 16.177 10.38 16.11 10.539 C 16.043 10.698 16.024 10.873 16.056 11.043 L 17.264 17.443 L 15.134 20.821 C 15.022 20.999 14.977 21.211 15.009 21.419 C 15.04 21.627 15.145 21.817 15.304 21.954 C 15.463 22.092 15.667 22.167 15.877 22.167 L 19.626 22.167 L 19.626 29.618 C 19.626 29.851 19.719 30.074 19.883 30.239 C 20.048 30.403 20.271 30.496 20.504 30.496 C 20.737 30.496 20.96 30.403 21.125 30.239 C 21.289 30.074 21.382 29.851 21.382 29.618 L 21.382 22.167 L 25.138 22.167 C 25.36 22.167 25.574 22.083 25.736 21.931 C 25.898 21.78 25.997 21.573 26.013 21.351 C 26.029 21.13 25.96 20.911 25.821 20.738 Z M 17.47 20.41 L 18.935 18.087 C 19.053 17.899 19.096 17.674 19.055 17.456 L 17.979 11.756 L 23.032 11.756 L 21.956 17.456 C 21.915 17.674 21.958 17.899 22.076 18.087 L 23.541 20.41 Z"
        fill="#ffffff"/>
</svg>
