<svg
    xmlns="http://www.w3.org/2000/svg"
    viewBox="0 0 69 69"
    id="mute_inactive">
    <!--<path
        id="path"
        d="M 34.497 34.502 M 7.497 34.502 C 7.497 27.344 10.344 20.472 15.405 15.41 C 20.467 10.349 27.339 7.502 34.497 7.502 C 41.655 7.502 48.527 10.349 53.589 15.41 C 58.65 20.472 61.497 27.344 61.497 34.502 C 61.497 41.66 58.65 48.532 53.589 53.594 C 48.527 58.655 41.655 61.502 34.497 61.502 C 27.339 61.502 20.467 58.655 15.405 53.594 C 10.344 48.532 7.497 41.66 7.497 34.502"
        fill="#ffffff"
        fill-opacity="0.3"
        stroke-opacity="0.3"/>-->
    <path
        id="path_1"
        d="M 35.002 41.056 L 35.002 43.631 L 38.612 43.631 C 38.72 43.631 38.825 43.665 38.913 43.728 C 39 43.791 39.065 43.88 39.099 43.983 C 39.132 44.086 39.132 44.196 39.099 44.299 C 39.065 44.402 39 44.491 38.913 44.554 C 38.825 44.617 38.72 44.651 38.612 44.651 L 30.36 44.651 C 30.252 44.651 30.147 44.617 30.059 44.554 C 29.972 44.491 29.907 44.402 29.873 44.299 C 29.84 44.196 29.84 44.086 29.873 43.983 C 29.907 43.88 29.972 43.791 30.059 43.728 C 30.147 43.665 30.252 43.631 30.36 43.631 L 33.97 43.631 L 33.97 41.056 C 32.298 40.935 30.732 40.188 29.586 38.966 C 28.44 37.743 27.795 36.132 27.782 34.456 C 27.788 34.323 27.845 34.198 27.941 34.106 C 28.037 34.014 28.165 33.963 28.297 33.963 C 28.43 33.963 28.558 34.014 28.654 34.106 C 28.75 34.198 28.807 34.323 28.813 34.456 C 28.813 35.96 29.411 37.404 30.475 38.467 C 31.538 39.531 32.982 40.129 34.486 40.129 C 35.99 40.129 37.434 39.531 38.497 38.467 C 39.561 37.404 40.159 35.96 40.159 34.456 C 40.165 34.323 40.222 34.198 40.318 34.106 C 40.414 34.014 40.542 33.963 40.675 33.963 C 40.807 33.963 40.935 34.014 41.031 34.106 C 41.127 34.198 41.184 34.323 41.19 34.456 C 41.181 36.133 40.538 37.746 39.391 38.97 C 38.244 40.194 36.675 40.939 35.002 41.056 Z M 38.354 28.079 L 38.354 34.456 C 38.354 35.481 37.946 36.466 37.221 37.191 C 36.496 37.916 35.511 38.324 34.486 38.324 C 33.461 38.324 32.476 37.916 31.751 37.191 C 31.026 36.466 30.618 35.481 30.618 34.456 L 30.618 28.079 C 30.618 27.054 31.026 26.069 31.751 25.344 C 32.476 24.619 33.461 24.211 34.486 24.211 C 35.511 24.211 36.496 24.619 37.221 25.344 C 37.946 26.069 38.354 27.054 38.354 28.079 Z M 37.323 28.079 C 37.309 27.336 37.004 26.628 36.474 26.107 C 35.943 25.587 35.229 25.295 34.486 25.295 C 33.744 25.295 33.03 25.587 32.499 26.107 C 31.969 26.628 31.664 27.336 31.65 28.079 L 31.65 34.456 C 31.664 35.199 31.969 35.907 32.499 36.428 C 33.03 36.948 33.744 37.24 34.486 37.24 C 35.229 37.24 35.943 36.948 36.474 36.428 C 37.004 35.907 37.309 35.199 37.323 34.456 Z"
        fill="#ffffff"/>
</svg>
