<svg
    xmlns="http://www.w3.org/2000/svg"
    viewBox="0 0 52 52"
    id="mute_active">
    <!--<path
        id="path"
        d="M 26 26 M 0 26 C 0 19.107 2.741 12.489 7.615 7.615 C 12.489 2.741 19.107 0 26 0 C 32.893 0 39.511 2.741 44.385 7.615 C 49.259 12.489 52 19.107 52 26 C 52 32.893 49.259 39.511 44.385 44.385 C 39.511 49.259 32.893 52 26 52 C 19.107 52 12.489 49.259 7.615 44.385 C 2.741 39.511 0 32.893 0 26"
        fill="#ffffff"/>-->
    <path
        id="path_1"
        d="M 29.834 35.622 L 21.909 35.622 C 21.803 35.627 21.698 35.597 21.61 35.537 C 21.522 35.476 21.456 35.389 21.422 35.288 C 21.388 35.187 21.388 35.078 21.422 34.977 C 21.456 34.876 21.522 34.789 21.61 34.728 C 21.698 34.668 21.803 34.638 21.909 34.643 L 25.375 34.643 L 25.375 32.171 C 24.174 32.082 23.023 31.657 22.052 30.945 L 22.629 30.151 C 23.71 30.948 25.049 31.318 26.386 31.19 C 27.723 31.061 28.967 30.443 29.876 29.454 C 30.786 28.466 31.299 27.175 31.316 25.832 C 31.333 25.713 31.392 25.604 31.483 25.525 C 31.574 25.446 31.691 25.403 31.811 25.403 C 31.931 25.403 32.048 25.446 32.139 25.525 C 32.23 25.604 32.289 25.713 32.306 25.832 C 32.306 27.444 31.688 28.996 30.58 30.166 C 29.476 31.336 27.971 32.05 26.366 32.166 L 26.366 34.645 L 29.834 34.645 C 29.94 34.64 30.045 34.67 30.133 34.73 C 30.221 34.791 30.287 34.878 30.321 34.979 C 30.355 35.08 30.355 35.189 30.321 35.29 C 30.287 35.391 30.221 35.478 30.133 35.539 C 30.045 35.599 29.94 35.629 29.834 35.624 Z M 21.434 30.43 L 21.434 30.43 C 20.806 29.839 20.305 29.127 19.961 28.336 C 19.617 27.545 19.438 26.692 19.434 25.83 C 19.451 25.711 19.51 25.602 19.601 25.523 C 19.692 25.444 19.809 25.401 19.929 25.401 C 20.049 25.401 20.166 25.444 20.257 25.523 C 20.348 25.602 20.407 25.711 20.424 25.83 C 20.424 26.536 20.565 27.236 20.838 27.887 C 21.111 28.539 21.512 29.129 22.016 29.624 L 21.433 30.424 Z M 25.872 29.503 C 25.066 29.507 24.28 29.249 23.634 28.767 L 24.211 27.973 C 24.751 28.381 25.423 28.574 26.097 28.515 C 26.77 28.456 27.399 28.149 27.86 27.654 C 28.32 27.158 28.581 26.509 28.591 25.833 L 28.591 21.945 L 29.582 20.581 L 29.582 25.833 C 29.574 26.811 29.179 27.747 28.484 28.435 C 27.788 29.123 26.848 29.507 25.87 29.504 Z M 23.042 28.215 L 23.042 28.215 C 22.472 27.553 22.158 26.708 22.158 25.835 L 22.158 19.715 C 22.167 18.776 22.532 17.875 23.178 17.193 C 23.824 16.512 24.705 16.1 25.642 16.042 C 26.579 15.983 27.505 16.281 28.231 16.877 C 28.957 17.472 29.432 18.321 29.558 19.251 L 28.592 20.575 L 28.592 19.715 C 28.592 18.993 28.305 18.3 27.794 17.79 C 27.284 17.279 26.591 16.992 25.869 16.992 C 25.147 16.992 24.454 17.279 23.944 17.79 C 23.433 18.3 23.146 18.993 23.146 19.715 L 23.146 25.833 C 23.146 26.391 23.321 26.934 23.646 27.387 L 23.046 28.213 Z"
        fill="#000000"/>
    <path
        id="path_2"
        d="M 19 32.875 L 30.766 16.696"
        fill="#00000000"
        stroke="#000000"
        stroke-width="1.5"
        stroke-linecap="round"/>
</svg>
