<svg
    xmlns="http://www.w3.org/2000/svg"
    viewBox="0 0 33 33"
    id="vector">
    <g id="group">
        <path
            id="path_1"
            d="M 22.666 16.105 L 21.32 16.105 C 21.32 16.662 21.204 17.213 20.98 17.723 L 21.954 18.694 C 22.414 17.908 22.66 17.015 22.666 16.105 Z M 19.484 16.239 C 19.484 16.192 19.5 16.152 19.5 16.105 L 19.5 11.368 C 19.498 10.74 19.247 10.137 18.802 9.693 C 18.357 9.25 17.753 9 17.125 9 C 16.497 9 15.893 9.25 15.448 9.693 C 15.003 10.137 14.752 10.74 14.75 11.368 L 14.75 11.51 Z M 11.005 9.789 L 10 10.792 L 14.758 15.537 L 14.758 16.105 C 14.757 16.521 14.866 16.93 15.073 17.29 C 15.281 17.65 15.58 17.95 15.94 18.157 C 16.3 18.365 16.709 18.474 17.125 18.473 C 17.299 18.472 17.471 18.451 17.64 18.41 L 18.954 19.721 C 18.381 19.989 17.757 20.129 17.125 20.132 C 16.402 20.15 15.688 19.976 15.054 19.629 C 14.42 19.281 13.889 18.772 13.515 18.154 C 13.142 17.535 12.938 16.829 12.925 16.106 L 11.583 16.106 C 11.621 17.408 12.119 18.656 12.988 19.627 C 13.857 20.598 15.043 21.23 16.333 21.411 L 16.333 24 L 17.916 24 L 17.916 21.411 C 18.626 21.306 19.309 21.065 19.927 20.7 L 23.244 24 L 24.249 23 Z"
            fill="#969696"
            stroke-width="1"/>
    </g>
</svg>
