<svg xmlns="http://www.w3.org/2000/svg" width="15" height="9.5" viewBox="0 0 15 9.5">
  <g id="Video_inactive__ic" data-name="Video_inactive _ic" transform="translate(-735.36 -595.109)">
    <g id="video-camera-fill" transform="translate(735.36 595.109)">
      <path id="Path_13754" data-name="Path 13754" d="M18.5,54.5v6a1,1,0,0,1-1,1h-7A2.5,2.5,0,0,1,8,59V53a1,1,0,0,1,1-1h7A2.5,2.5,0,0,1,18.5,54.5Zm4.251-1.182a.5.5,0,0,0-.5,0l-2.5,1.429a.5.5,0,0,0-.252.434v3.143a.5.5,0,0,0,.252.434l2.5,1.429A.5.5,0,0,0,23,59.75v-6a.5.5,0,0,0-.249-.432Z" transform="translate(-8 -52)" fill="#3276e2"/>
    </g>
  </g>
</svg>
