<svg xmlns="http://www.w3.org/2000/svg" width="11.053" height="15" viewBox="0 0 11.053 15">
  <g id="microphone" transform="translate(0 0)">
    <g id="Group_15633" data-name="Group 15633" transform="translate(0 0)">
      <g id="Group_15632" data-name="Group 15632" transform="translate(0)">
        <path id="Path_13746" data-name="Path 13746" d="M141.035,9.474A2.364,2.364,0,0,0,143.4,7.105l.008-4.737a2.368,2.368,0,0,0-4.737,0V7.105A2.37,2.37,0,0,0,141.035,9.474Z" transform="translate(-135.509)" fill="#3276e2"/>
        <path id="Path_13747" data-name="Path 13747" d="M63.044,192a4.187,4.187,0,0,1-8.368,0H53.333a5.507,5.507,0,0,0,4.737,5.305v2.589h1.579v-2.589A5.507,5.507,0,0,0,64.386,192Z" transform="translate(-53.333 -184.895)" fill="#3276e2"/>
      </g>
    </g>
  </g>
</svg>
