<svg
    xmlns="http://www.w3.org/2000/svg"
    viewBox="0 0 33 33"
    id="vector">
    <g id="group">
        <path
            id="path_1"
            d="M 23.422 22.791 C 23.492 22.867 23.536 22.964 23.547 23.067 C 23.559 23.17 23.538 23.274 23.486 23.364 C 23.435 23.454 23.357 23.525 23.262 23.568 C 23.168 23.61 23.062 23.622 22.961 23.601 C 22.86 23.58 22.767 23.527 22.698 23.45 L 20.108 20.601 C 20.067 20.827 19.949 21.032 19.773 21.179 C 19.597 21.327 19.375 21.408 19.145 21.408 L 12.292 21.408 C 11.643 21.407 11.021 21.149 10.562 20.69 C 10.104 20.231 9.846 19.609 9.845 18.96 L 9.845 13.087 C 9.845 12.828 9.949 12.579 10.132 12.395 C 10.316 12.212 10.565 12.108 10.824 12.108 L 12.387 12.108 L 11.129 10.724 C 11.042 10.628 10.997 10.501 11.003 10.372 C 11.009 10.242 11.066 10.121 11.162 10.033 C 11.258 9.946 11.385 9.901 11.514 9.907 C 11.644 9.913 11.766 9.97 11.853 10.066 Z M 24.284 13.398 C 24.21 13.355 24.126 13.333 24.04 13.333 C 23.954 13.333 23.87 13.355 23.796 13.398 L 21.349 14.798 C 21.274 14.841 21.212 14.903 21.168 14.977 C 21.125 15.052 21.102 15.137 21.102 15.223 L 21.102 18.299 C 21.102 18.385 21.125 18.47 21.168 18.545 C 21.212 18.619 21.274 18.681 21.349 18.724 L 23.796 20.124 C 23.896 20.181 24.012 20.201 24.125 20.181 C 24.238 20.161 24.341 20.101 24.414 20.013 C 24.488 19.925 24.528 19.814 24.528 19.699 L 24.528 13.821 C 24.528 13.735 24.505 13.651 24.463 13.577 C 24.42 13.503 24.358 13.441 24.284 13.398 Z M 19.271 16.771 C 19.337 16.844 19.424 16.896 19.521 16.919 C 19.617 16.942 19.718 16.935 19.81 16.9 C 19.902 16.864 19.982 16.801 20.038 16.719 C 20.094 16.638 20.123 16.541 20.123 16.442 L 20.123 14.555 C 20.123 13.906 19.865 13.283 19.406 12.824 C 18.948 12.365 18.325 12.107 17.676 12.106 L 16.139 12.106 C 16.012 12.106 15.889 12.155 15.798 12.244 C 15.706 12.332 15.653 12.453 15.649 12.58 C 15.645 12.707 15.691 12.831 15.777 12.925 Z"
            fill="#969696"
            stroke-width="1"/>
    </g>
</svg>
