<svg
    xmlns="http://www.w3.org/2000/svg"
    viewBox="0 0 12 13"
    id="vector">
    <path
        id="path"
        d="M 9.517 11.158 L 8.04 11.158 C 7.975 11.16 7.91 11.148 7.85 11.123 C 7.789 11.099 7.735 11.062 7.689 11.016 C 7.643 10.97 7.606 10.915 7.582 10.854 C 7.557 10.793 7.545 10.728 7.547 10.663 C 7.545 10.598 7.557 10.533 7.581 10.473 C 7.606 10.413 7.642 10.358 7.689 10.313 C 7.735 10.267 7.79 10.231 7.85 10.207 C 7.91 10.183 7.975 10.171 8.04 10.173 L 9.517 10.173 L 9.517 8.7 C 9.515 8.635 9.527 8.57 9.552 8.51 C 9.576 8.449 9.613 8.395 9.659 8.349 C 9.705 8.303 9.76 8.266 9.821 8.242 C 9.882 8.218 9.947 8.206 10.012 8.208 C 10.077 8.206 10.142 8.218 10.202 8.242 C 10.262 8.266 10.317 8.303 10.362 8.349 C 10.408 8.395 10.444 8.45 10.467 8.51 C 10.491 8.571 10.503 8.635 10.501 8.7 L 10.501 10.177 L 11.978 10.177 C 12.043 10.175 12.108 10.187 12.168 10.212 C 12.229 10.236 12.283 10.273 12.329 10.319 C 12.375 10.365 12.412 10.42 12.436 10.481 C 12.461 10.542 12.473 10.607 12.471 10.672 C 12.473 10.737 12.461 10.802 12.437 10.862 C 12.412 10.922 12.376 10.977 12.329 11.022 C 12.283 11.068 12.228 11.104 12.168 11.127 C 12.107 11.151 12.043 11.163 11.978 11.161 L 10.5 11.161 L 10.5 12.638 C 10.502 12.703 10.49 12.768 10.465 12.828 C 10.441 12.889 10.404 12.943 10.358 12.989 C 10.312 13.035 10.257 13.072 10.196 13.096 C 10.135 13.12 10.07 13.132 10.005 13.13 C 9.94 13.132 9.875 13.12 9.815 13.096 C 9.755 13.072 9.7 13.035 9.655 12.989 C 9.609 12.943 9.573 12.888 9.55 12.828 C 9.526 12.767 9.514 12.703 9.516 12.638 Z M 0.984 11.814 C 0.855 11.814 0.727 11.787 0.608 11.735 C 0.49 11.684 0.383 11.608 0.295 11.514 C 0.2 11.426 0.125 11.319 0.073 11.201 C 0.022 11.082 -0.005 10.954 -0.005 10.825 L -0.005 1.964 C -0.005 1.835 0.022 1.707 0.074 1.588 C 0.125 1.47 0.201 1.363 0.295 1.275 C 0.383 1.181 0.49 1.105 0.608 1.054 C 0.727 1.002 0.855 0.975 0.984 0.975 L 2.051 0.975 L 2.051 0.516 C 2.049 0.447 2.062 0.378 2.088 0.313 C 2.114 0.249 2.153 0.191 2.202 0.142 C 2.251 0.093 2.309 0.054 2.373 0.028 C 2.438 0.002 2.507 -0.011 2.576 -0.009 C 2.647 -0.011 2.718 0.002 2.784 0.027 C 2.851 0.053 2.911 0.092 2.962 0.142 C 3.013 0.19 3.053 0.248 3.08 0.312 C 3.106 0.377 3.12 0.446 3.118 0.516 L 3.118 0.975 L 7.384 0.975 L 7.384 0.516 C 7.382 0.447 7.395 0.378 7.421 0.313 C 7.447 0.249 7.486 0.191 7.535 0.142 C 7.584 0.093 7.642 0.054 7.706 0.028 C 7.771 0.002 7.84 -0.011 7.909 -0.009 C 7.98 -0.011 8.051 0.002 8.117 0.027 C 8.184 0.053 8.244 0.092 8.295 0.142 C 8.346 0.19 8.386 0.248 8.413 0.312 C 8.439 0.377 8.453 0.446 8.451 0.516 L 8.451 0.975 L 9.518 0.975 C 9.647 0.975 9.775 1.002 9.894 1.054 C 10.012 1.105 10.119 1.181 10.207 1.275 C 10.301 1.363 10.377 1.47 10.428 1.588 C 10.48 1.707 10.507 1.835 10.507 1.964 L 10.507 6.919 C 10.344 6.897 10.18 6.886 10.015 6.886 C 9.85 6.886 9.686 6.897 9.523 6.919 L 9.523 5.081 L 0.99 5.081 L 0.99 10.824 L 6.241 10.824 C 6.241 10.989 6.257 11.154 6.29 11.316 C 6.323 11.483 6.367 11.647 6.421 11.808 Z M 0.984 4.102 L 9.517 4.102 L 9.517 1.969 L 0.984 1.969 Z M 0.984 4.102 L 0.984 4.102 Z"
        fill="#ffffff"/>
</svg>
