<svg
    xmlns="http://www.w3.org/2000/svg"
    viewBox="0 0 52 52"
    id="speaker_active">
    <!--<path
        id="path"
        d="M 26 26 M 0 26 C 0 19.107 2.741 12.489 7.615 7.615 C 12.489 2.741 19.107 0 26 0 C 32.893 0 39.511 2.741 44.385 7.615 C 49.259 12.489 52 19.107 52 26 C 52 32.893 49.259 39.511 44.385 44.385 C 39.511 49.259 32.893 52 26 52 C 19.107 52 12.489 49.259 7.615 44.385 C 2.741 39.511 0 32.893 0 26"
        fill="#ffffff"/>-->
    <path
        id="path_1"
        d="M 26.777 34.254 C 26.756 34.254 26.725 34.249 26.697 34.225 L 20.527 29.29 L 20.39 29.181 L 20.215 29.181 L 17.268 29.181 C 16.845 29.181 16.5 28.836 16.5 28.413 L 16.5 23.34 C 16.5 22.917 16.845 22.573 17.268 22.573 L 20.215 22.573 L 20.39 22.573 L 20.527 22.463 L 26.694 17.529 C 26.716 17.511 26.747 17.5 26.778 17.5 C 26.798 17.5 26.818 17.505 26.838 17.515 C 26.883 17.536 26.912 17.584 26.912 17.634 L 26.912 34.119 C 26.912 34.171 26.883 34.218 26.835 34.241 C 26.819 34.249 26.798 34.254 26.777 34.254 Z"
        fill="#00000000"
        stroke="#00000000"/>
    <path
        id="path_2"
        d="M 26.412 33.358 L 26.412 18.395 L 20.84 22.853 L 20.566 23.073 L 20.215 23.073 L 17.268 23.073 C 17.12 23.073 17 23.193 17 23.34 L 17 28.413 C 17 28.558 17.123 28.681 17.268 28.681 L 20.215 28.681 L 20.566 28.681 L 20.84 28.9 L 26.412 33.358 M 26.777 34.754 C 26.636 34.754 26.497 34.707 26.383 34.615 L 20.215 29.681 L 17.268 29.681 C 16.569 29.681 16 29.111 16 28.413 L 16 23.34 C 16 22.64 16.569 22.073 17.268 22.073 L 20.215 22.073 L 26.381 17.139 C 26.497 17.047 26.638 17 26.778 17 C 26.872 17 26.966 17.022 27.053 17.064 C 27.273 17.169 27.412 17.391 27.412 17.634 L 27.412 34.119 C 27.412 34.362 27.273 34.584 27.053 34.691 C 26.965 34.733 26.871 34.754 26.777 34.754 Z"
        fill="#ffffff"
        stroke="#00000000"/>
    <path
        id="path_3"
        d="M 30.622 30.359 C 30.501 30.468 30.343 30.525 30.18 30.521 C 30.017 30.516 29.863 30.449 29.748 30.333 C 29.634 30.217 29.568 30.062 29.565 29.899 C 29.562 29.737 29.621 29.579 29.731 29.459 C 30.361 28.831 30.814 28.048 31.044 27.189 C 31.275 26.33 31.275 25.426 31.044 24.567 C 30.814 23.708 30.361 22.925 29.731 22.297 C 29.635 22.203 29.572 22.081 29.55 21.949 C 29.528 21.817 29.549 21.681 29.609 21.561 C 29.669 21.442 29.766 21.344 29.885 21.283 C 30.004 21.221 30.14 21.199 30.272 21.22 C 30.405 21.24 30.527 21.302 30.622 21.397 C 31.411 22.183 31.979 23.163 32.268 24.238 C 32.557 25.313 32.557 26.446 32.268 27.521 C 31.979 28.596 31.411 29.576 30.622 30.362 Z"
        fill="#00000000"/>
    <path
        id="path_4"
        d="M 32.411 32.147 C 32.292 32.265 32.13 32.331 31.962 32.33 C 31.794 32.329 31.634 32.262 31.515 32.143 C 31.397 32.024 31.331 31.862 31.331 31.694 C 31.331 31.527 31.398 31.366 31.517 31.247 C 32.464 30.307 33.146 29.133 33.492 27.845 C 33.839 26.556 33.839 25.199 33.492 23.91 C 33.146 22.622 32.464 21.448 31.517 20.508 C 31.398 20.389 31.331 20.228 31.331 20.061 C 31.331 19.893 31.397 19.731 31.515 19.612 C 31.634 19.493 31.794 19.426 31.962 19.425 C 32.13 19.424 32.292 19.49 32.411 19.608 C 33.516 20.706 34.312 22.077 34.717 23.581 C 35.122 25.085 35.122 26.671 34.717 28.175 C 34.312 29.679 33.516 31.05 32.411 32.148 Z"
        fill="#00000000"/>
</svg>
