<svg
    xmlns="http://www.w3.org/2000/svg"
    viewBox="0 0 18 11"
    id="vector">
    <path
        id="path"
        d="M 1.74 11.3 C 1.367 11.308 1.005 11.168 0.736 10.91 C 0.466 10.653 0.309 10.298 0.3 9.925 L 0.3 1.676 C 0.309 1.303 0.466 0.948 0.736 0.691 C 1.005 0.433 1.367 0.293 1.74 0.301 L 13.26 0.301 C 13.633 0.293 13.995 0.433 14.264 0.691 C 14.534 0.948 14.691 1.303 14.7 1.676 L 14.7 3.165 L 17.119 1.241 C 17.249 1.137 17.41 1.08 17.576 1.08 C 17.7 1.077 17.823 1.106 17.932 1.166 C 18.041 1.225 18.132 1.312 18.197 1.418 C 18.261 1.524 18.297 1.645 18.3 1.769 L 18.3 9.833 C 18.297 9.957 18.261 10.078 18.197 10.184 C 18.132 10.29 18.041 10.377 17.932 10.436 C 17.823 10.496 17.7 10.525 17.576 10.522 C 17.41 10.522 17.249 10.465 17.119 10.361 L 14.7 8.437 L 14.7 9.926 C 14.691 10.299 14.534 10.654 14.264 10.911 C 13.995 11.169 13.633 11.309 13.26 11.301 Z M 1.02 1.675 L 1.02 9.924 C 1.024 10.111 1.103 10.288 1.238 10.417 C 1.373 10.546 1.553 10.616 1.74 10.612 L 13.26 10.612 C 13.384 10.616 13.506 10.586 13.615 10.527 C 13.724 10.468 13.815 10.381 13.879 10.275 C 13.943 10.169 13.978 10.048 13.98 9.924 L 13.98 1.675 C 13.978 1.551 13.943 1.43 13.879 1.324 C 13.815 1.218 13.724 1.131 13.615 1.072 C 13.506 1.013 13.384 0.983 13.26 0.987 L 1.74 0.987 C 1.553 0.983 1.373 1.053 1.238 1.182 C 1.103 1.311 1.024 1.488 1.02 1.675 Z M 14.699 4.06 L 14.699 7.54 L 17.578 9.831 L 17.578 1.768 Z"
        fill="#181818"
        stroke="#181818"
        stroke-width="0.6"
        stroke-linejoin="round"/>
</svg>
