<svg
    xmlns="http://www.w3.org/2000/svg"
    viewBox="0 0 54 54"
    id="vector">
    <path
        id="path_1"
        d="M 17.843 33.779 C 17.376 33.797 16.92 33.628 16.576 33.311 C 16.232 32.994 16.028 32.552 16.009 32.085 L 16.009 21.925 C 16.028 21.458 16.232 21.016 16.576 20.699 C 16.92 20.382 17.376 20.213 17.843 20.231 L 32.517 20.231 C 32.985 20.213 33.441 20.381 33.785 20.699 C 34.129 21.016 34.333 21.457 34.352 21.925 L 34.352 23.758 L 37.433 21.388 C 37.6 21.259 37.804 21.189 38.015 21.188 C 38.171 21.181 38.325 21.216 38.463 21.288 C 38.601 21.36 38.718 21.467 38.801 21.599 C 38.884 21.73 38.932 21.881 38.938 22.037 L 38.938 31.971 C 38.932 32.127 38.884 32.278 38.801 32.409 C 38.718 32.541 38.601 32.648 38.463 32.72 C 38.325 32.792 38.171 32.827 38.015 32.82 C 37.804 32.82 37.599 32.749 37.433 32.62 L 34.352 30.25 L 34.352 32.084 C 34.333 32.552 34.129 32.993 33.785 33.31 C 33.441 33.628 32.985 33.796 32.517 33.778 Z M 16.927 21.925 L 16.927 32.085 C 16.937 32.319 17.039 32.539 17.211 32.698 C 17.382 32.856 17.61 32.941 17.844 32.932 L 32.517 32.932 C 32.751 32.941 32.979 32.856 33.15 32.698 C 33.322 32.539 33.424 32.319 33.434 32.085 L 33.434 21.925 C 33.424 21.691 33.322 21.471 33.15 21.312 C 32.979 21.154 32.751 21.069 32.517 21.078 L 17.843 21.078 C 17.609 21.07 17.382 21.154 17.21 21.313 C 17.039 21.471 16.937 21.692 16.927 21.925 Z M 34.352 24.862 L 34.352 29.149 L 38.019 31.971 L 38.019 22.04 Z"
        fill="#ffffff"
        stroke="#ffffff"
        stroke-width="0.6"
        stroke-linejoin="round"/>
</svg>
