<svg
    xmlns="http://www.w3.org/2000/svg"
    viewBox="0 0 67 67"
    id="video_inactive">
    <!--<path
        id="path"
        d="M 33.5 33.5 M 7.5 33.5 C 7.5 26.607 10.241 19.989 15.115 15.115 C 19.989 10.241 26.607 7.5 33.5 7.5 C 40.393 7.5 47.011 10.241 51.885 15.115 C 56.759 19.989 59.5 26.607 59.5 33.5 C 59.5 40.393 56.759 47.011 51.885 51.885 C 47.011 56.759 40.393 59.5 33.5 59.5 C 26.607 59.5 19.989 56.759 15.115 51.885 C 10.241 47.011 7.5 40.393 7.5 33.5"
        fill="#ffffff"/>-->
    <path
        id="path_1"
        d="M 23.558 42.123 C 23.421 41.999 23.339 41.826 23.33 41.642 C 23.32 41.457 23.383 41.277 23.506 41.139 L 25.337 39.074 C 24.932 39.055 24.549 38.881 24.269 38.588 C 23.988 38.295 23.831 37.906 23.83 37.5 L 23.83 28.043 C 23.832 27.623 24.001 27.221 24.299 26.926 C 24.597 26.63 25.001 26.465 25.421 26.467 L 36.53 26.467 L 39.13 23.531 C 39.21 23.44 39.313 23.372 39.428 23.334 C 39.542 23.296 39.665 23.289 39.784 23.315 C 39.902 23.34 40.012 23.396 40.101 23.478 C 40.237 23.602 40.32 23.775 40.329 23.959 C 40.339 24.143 40.276 24.323 40.154 24.461 L 38.362 26.482 L 38.393 26.482 L 37.714 27.25 L 37.676 27.25 L 27.884 38.289 L 27.922 38.289 L 27.222 39.077 L 27.185 39.077 L 24.53 42.07 C 24.45 42.16 24.347 42.228 24.232 42.266 C 24.117 42.304 23.995 42.31 23.876 42.285 C 23.758 42.26 23.649 42.204 23.559 42.123 Z M 24.63 28.043 L 24.63 37.5 C 24.631 37.71 24.715 37.911 24.864 38.059 C 25.013 38.206 25.215 38.289 25.425 38.288 L 26.03 38.288 L 35.83 27.255 L 25.421 27.255 C 25.212 27.255 25.011 27.338 24.863 27.486 C 24.715 27.633 24.631 27.834 24.63 28.043 Z M 29.072 39.077 L 29.772 38.289 L 38.139 38.289 C 38.348 38.289 38.549 38.206 38.697 38.058 C 38.845 37.91 38.929 37.709 38.93 37.5 L 38.93 35.137 L 38.93 35.137 L 38.93 30.407 L 38.93 30.407 L 38.93 28.043 C 38.931 28.018 38.931 27.993 38.93 27.968 L 39.53 27.288 C 39.657 27.519 39.724 27.779 39.724 28.043 L 39.724 29.75 L 42.394 27.544 C 42.549 27.416 42.747 27.351 42.948 27.363 C 43.149 27.375 43.338 27.464 43.476 27.61 C 43.615 27.756 43.693 27.949 43.694 28.15 L 43.694 37.395 C 43.691 37.596 43.612 37.788 43.473 37.932 C 43.335 38.077 43.146 38.164 42.946 38.176 C 42.746 38.187 42.549 38.123 42.394 37.995 L 39.73 35.793 L 39.73 37.5 C 39.728 37.92 39.559 38.321 39.262 38.617 C 38.964 38.913 38.561 39.078 38.141 39.077 Z M 39.73 30.776 L 39.73 34.767 L 42.909 37.394 L 42.909 28.15 Z"
        fill="#000000"/>
</svg>
