<svg xmlns="http://www.w3.org/2000/svg" width="18.6" height="11.6" viewBox="0 0 18.6 11.6">
  <path id="Forma_1" data-name="Forma 1" d="M326.773,181a1.409,1.409,0,0,1-1.44-1.375v-8.249a1.409,1.409,0,0,1,1.44-1.375h11.52a1.409,1.409,0,0,1,1.44,1.375v1.489l2.419-1.924a.734.734,0,0,1,.457-.161.706.706,0,0,1,.724.689v8.064a.706.706,0,0,1-.724.689.732.732,0,0,1-.457-.161l-2.419-1.924v1.489a1.409,1.409,0,0,1-1.44,1.375Zm-.72-9.625v8.249a.705.705,0,0,0,.72.688h11.52a.7.7,0,0,0,.72-.688v-8.249a.7.7,0,0,0-.72-.688h-11.52A.705.705,0,0,0,326.053,171.375Zm13.679,2.385v3.48l2.879,2.291v-8.063Z" transform="translate(-325.033 -169.7)" fill="#181818" stroke="#181818" stroke-linejoin="round" stroke-width="0.6"/>
</svg>
