<svg
    xmlns="http://www.w3.org/2000/svg"
    viewBox="0 0 52 52"
    id="video_active">
    <!--<path
        id="path"
        d="M 26 26 M 0 26 C 0 19.107 2.741 12.489 7.615 7.615 C 12.489 2.741 19.107 0 26 0 C 32.893 0 39.511 2.741 44.385 7.615 C 49.259 12.489 52 19.107 52 26 C 52 32.893 49.259 39.511 44.385 44.385 C 39.511 49.259 32.893 52 26 52 C 19.107 52 12.489 49.259 7.615 44.385 C 2.741 39.511 0 32.893 0 26"
        fill="#ffffff"
        fill-opacity="0.3"
        stroke-opacity="0.3"/>-->
    <path
        id="path_1"
        d="M 17.591 32.576 C 17.313 32.578 17.039 32.506 16.798 32.368 C 16.556 32.23 16.356 32.031 16.215 31.791 C 16.075 31.551 16.001 31.278 16 31 L 16 21.542 C 16.001 21.264 16.075 20.991 16.215 20.751 C 16.356 20.511 16.556 20.312 16.798 20.174 C 17.039 20.036 17.313 19.964 17.591 19.966 L 30.308 19.966 C 30.586 19.964 30.86 20.036 31.101 20.174 C 31.343 20.312 31.544 20.511 31.684 20.751 C 31.824 20.991 31.899 21.264 31.9 21.542 L 31.9 23.25 L 34.57 21.044 C 34.725 20.916 34.923 20.851 35.124 20.863 C 35.325 20.875 35.514 20.964 35.652 21.11 C 35.791 21.256 35.869 21.449 35.87 21.65 L 35.87 30.895 C 35.867 31.096 35.788 31.288 35.649 31.432 C 35.511 31.577 35.322 31.664 35.122 31.676 C 34.922 31.687 34.725 31.623 34.57 31.495 L 31.9 29.293 L 31.9 31 C 31.899 31.278 31.824 31.551 31.684 31.791 C 31.544 32.031 31.344 32.23 31.102 32.367 C 30.861 32.505 30.588 32.577 30.31 32.576 Z M 16.8 21.542 L 16.8 31 C 16.802 31.21 16.886 31.41 17.035 31.558 C 17.184 31.706 17.385 31.788 17.595 31.788 L 30.308 31.788 C 30.517 31.788 30.718 31.705 30.866 31.557 C 31.015 31.41 31.099 31.209 31.1 31 L 31.1 21.542 C 31.099 21.332 31.015 21.131 30.866 20.983 C 30.717 20.836 30.515 20.753 30.305 20.754 L 17.591 20.754 C 17.382 20.755 17.181 20.838 17.033 20.985 C 16.885 21.133 16.801 21.333 16.8 21.542 Z M 31.9 24.276 L 31.9 28.267 L 35.079 30.894 L 35.079 21.65 Z"
        fill="#ffffff"/>
</svg>
