<svg xmlns="http://www.w3.org/2000/svg" width="18" height="18" viewBox="0 0 18 18">
  <path id="About_and_Help" data-name="About and Help" d="M41.829,421l-1.246-3.6a9.006,9.006,0,0,0,.9-3.89,8.8,8.8,0,0,0-2.521-6.183,8.7,8.7,0,0,0-6.115-2.642,8.819,8.819,0,0,0-6.375,2.584,8.941,8.941,0,0,0-1.913,2.845,8.52,8.52,0,0,0-.666,3.512,8.815,8.815,0,0,0,8.781,8.65h0a8.963,8.963,0,0,0,3.883-.9l3.593,1.248a1.056,1.056,0,0,0,.406.058,1.324,1.324,0,0,0,.9-.377A1.175,1.175,0,0,0,41.829,421Zm-1.072.581a.25.25,0,0,1-.232.058l-3.8-1.306a.367.367,0,0,0-.174-.029.846.846,0,0,0-.261.058,7.748,7.748,0,1,1,3.217-3.222.561.561,0,0,0-.029.435l1.3,3.8A.164.164,0,0,1,40.757,421.58Zm-8.143-4.122a.5.5,0,0,0-.522.522.52.52,0,0,0,.522.523.5.5,0,0,0,.522-.523A.519.519,0,0,0,32.614,417.458Zm0-8.244a2.649,2.649,0,0,0-2.637,2.642.522.522,0,1,0,1.043,0,1.594,1.594,0,1,1,1.594,1.6.52.52,0,0,0-.522.523v2.177a.522.522,0,1,0,1.043,0v-1.684a2.65,2.65,0,0,0,2.116-2.613A2.612,2.612,0,0,0,32.614,409.214Z" transform="translate(-23.889 -404.683)" fill="#181818"/>
</svg>
