<svg xmlns="http://www.w3.org/2000/svg" width="18.169" height="18.134" viewBox="0 0 18.169 18.134">
  <g id="add-user" transform="translate(0.15 -0.349)">
    <g id="Group_7482" data-name="Group 7482" transform="translate(0 0.499)">
      <g id="Group_7481" data-name="Group 7481" transform="translate(0 0)">
        <path id="Path_1737" data-name="Path 1737" d="M8.917.5A5.154,5.154,0,0,0,6,9.9a8.931,8.931,0,0,0-6,8.431H1.393a7.532,7.532,0,0,1,7.524-7.524A5.155,5.155,0,0,0,8.917.5Zm0,8.917a3.762,3.762,0,1,1,3.762-3.762A3.766,3.766,0,0,1,8.917,9.416Z" transform="translate(0 -0.499)" fill="#181818" stroke="#f5f6fa" stroke-linecap="round" stroke-linejoin="round" stroke-width="0.3"/>
      </g>
    </g>
    <g id="Group_7484" data-name="Group 7484" transform="translate(10.624 11.088)">
      <g id="Group_7483" data-name="Group 7483">
        <path id="Path_1738" data-name="Path 1738" d="M308.724,306.832v-2.926h-1.393v2.926h-2.926v1.393h2.926v2.926h1.393v-2.926h2.926v-1.393Z" transform="translate(-304.405 -303.906)" fill="#181818" stroke="#f5f6fa" stroke-linecap="round" stroke-width="0.3"/>
      </g>
    </g>
  </g>
</svg>
