<svg xmlns="http://www.w3.org/2000/svg" width="18.382" height="20.239" viewBox="0 0 18.382 20.239">
  <g id="antenna" transform="translate(-25.667 0.178)">
    <g id="Group_8886" data-name="Group 8886" transform="translate(26.008 -0.001)">
      <g id="Group_8885" data-name="Group 8885">
        <path id="Path_10200" data-name="Path 10200" d="M389.421.194v0a.34.34,0,0,0-.554.4,8.151,8.151,0,0,1,0,9.476.34.34,0,0,0,.077.475h0a.34.34,0,0,0,.474-.079A8.831,8.831,0,0,0,389.421.194Z" transform="translate(-373.368 -0.05)" fill="#181818" stroke="#181818" stroke-width="0.3"/>
        <path id="Path_10201" data-name="Path 10201" d="M28.128.063h0a.34.34,0,0,0-.474.079,8.831,8.831,0,0,0,0,10.268.34.34,0,0,0,.554-.4,8.151,8.151,0,0,1,0-9.476A.34.34,0,0,0,28.128.063Z" transform="translate(-26.008 0.001)" fill="#181818" stroke="#181818" stroke-width="0.3"/>
        <path id="Path_10202" data-name="Path 10202" d="M83.941,28.352a.34.34,0,0,0-.061-.478h0a.34.34,0,0,0-.477.059,6.439,6.439,0,0,0,0,7.926.34.34,0,1,0,.537-.418A5.758,5.758,0,0,1,83.941,28.352Z" transform="translate(-79.656 -26.62)" fill="#181818" stroke="#181818" stroke-width="0.3"/>
        <path id="Path_10203" data-name="Path 10203" d="M339.771,27.851h0a.34.34,0,0,0-.059.477,5.758,5.758,0,0,1,0,7.089.34.34,0,1,0,.537.418,6.439,6.439,0,0,0,0-7.926A.34.34,0,0,0,339.771,27.851Z" transform="translate(-326.297 -26.597)" fill="#181818" stroke="#181818" stroke-width="0.3"/>
        <path id="Path_10204" data-name="Path 10204" d="M290.127,56.337a3.391,3.391,0,0,1,0,4.657.34.34,0,0,0,.014.481h0a.34.34,0,0,0,.481-.015h0a4.072,4.072,0,0,0,0-5.589.34.34,0,0,0-.5.462Z" transform="translate(-278.8 -53.39)" fill="#181818" stroke="#181818" stroke-width="0.3"/>
        <path id="Path_10205" data-name="Path 10205" d="M139.367,61.568a.34.34,0,0,0,.248-.574,3.391,3.391,0,0,1,0-4.657.34.34,0,1,0-.492-.47l0,0a4.072,4.072,0,0,0,0,5.589A.34.34,0,0,0,139.367,61.568Z" transform="translate(-133.244 -53.389)" fill="#181818" stroke="#181818" stroke-width="0.3"/>
        <path id="Path_10206" data-name="Path 10206" d="M138.841,99.682l-3.314-12.923a1.7,1.7,0,1,0-2.2,0l-3.314,12.923a.34.34,0,0,0,.245.414h0a.347.347,0,0,0,.084.011.34.34,0,0,0,.329-.256l.114-.442a.341.341,0,0,0,.055-.021l6.362-3.349.978,3.812a.34.34,0,0,0,.33.256.345.345,0,0,0,.085-.011.34.34,0,0,0,.246-.414ZM135.56,89.627l-1.851-1.62.234-.913a1.527,1.527,0,0,0,.967,0Zm-1.133-5.177a1.021,1.021,0,1,1-1.021,1.021A1.021,1.021,0,0,1,134.427,84.45Zm-.907,4.3,2.05,1.794-3.029,2.018Zm-2.508,9.782,1.222-4.765,4.152,1.937Zm1.725-5.281,3.2-2.136L137,95.235Z" transform="translate(-125.577 -80.195)" fill="#181818" stroke="#181818" stroke-width="0.3"/>
      </g>
    </g>
  </g>
</svg>
