<svg xmlns="http://www.w3.org/2000/svg" width="18.093" height="22.788" viewBox="0 0 18.093 22.788">
  <g id="Group_15662" data-name="Group 15662" transform="translate(-1.28)">
    <path id="Path_9793" data-name="Path 9793" d="M70.828,20.753a2.037,2.037,0,0,1-2.039,2.035H54.774a2.037,2.037,0,0,1-2.039-2.035V2.035A2.037,2.037,0,0,1,54.774,0H63.5a1.53,1.53,0,0,1,1.082.448l5.8,5.8a1.524,1.524,0,0,1,.447,1.078Z" transform="translate(-51.455 0)" fill="#788f9b"/>
    <path id="Path_9796" data-name="Path 9796" d="M315.4,9.659h-5.18a1.378,1.378,0,0,1-1.378-1.379V3.1a1.514,1.514,0,0,1,.448.31l5.8,5.8a1.515,1.515,0,0,1,.31.447Z" transform="translate(-296.16 -2.963)" fill="#9fb2b9"/>
    <text id="APK" transform="translate(4.704 15.77)" fill="#fff" font-size="6" font-family="SFUIDisplay-Medium, SF UI Display" font-weight="500"><tspan x="0" y="0">APK</tspan></text>
  </g>
</svg>
