<svg xmlns="http://www.w3.org/2000/svg" width="17.998" height="17.998" viewBox="0 0 17.998 17.998">
  <g id="Archive_ic_settings" transform="translate(17.998 17.998) rotate(180)">
    <g id="Group_7605" data-name="Group 7605">
      <g id="Group_7604" data-name="Group 7604">
        <path id="Path_9818" data-name="Path 9818" d="M17.017.982A3.329,3.329,0,0,0,14.647,0H3.351A3.355,3.355,0,0,0,0,3.351v11.3A3.355,3.355,0,0,0,3.351,18h11.3A3.355,3.355,0,0,0,18,14.647V3.351A3.329,3.329,0,0,0,17.017.982Zm-.073,13.665a2.3,2.3,0,0,1-2.3,2.3H3.351a2.3,2.3,0,0,1-2.3-2.3V3.351a2.3,2.3,0,0,1,2.3-2.3h11.3a2.3,2.3,0,0,1,2.3,2.3Z"/>
      </g>
    </g>
    <g id="Group_7607" data-name="Group 7607" transform="translate(12.322 11.341) rotate(180)">
      <g id="Group_7606" data-name="Group 7606">
        <path id="Path_9819" data-name="Path 9819" d="M6.491,4.257a.527.527,0,0,0-.746,0l-1.9,1.9V.527A.527.527,0,0,0,2.8.527V6.152L.9,4.257A.527.527,0,1,0,.154,5l2.8,2.8a.527.527,0,0,0,.746,0L6.491,5A.527.527,0,0,0,6.491,4.257Z"/>
      </g>
    </g>
    <g id="Group_7609" data-name="Group 7609" transform="translate(3.389 13.555)">
      <g id="Group_7608" data-name="Group 7608">
        <path id="Path_9820" data-name="Path 9820" d="M107.1,385.6H96.929a.527.527,0,1,0,0,1.055H107.1a.527.527,0,1,0,0-1.055Z" transform="translate(-96.402 -385.601)"/>
      </g>
    </g>
  </g>
</svg>
