<svg
    xmlns="http://www.w3.org/2000/svg"
    viewBox="0 0 16 16"
    id="vector">
    <path
        id="path"
        d="M 13.5 0 C 14.163 0 14.799 0.264 15.268 0.732 C 15.736 1.201 16 1.837 16 2.5 L 16 13.5 C 16 14.163 15.736 14.799 15.268 15.268 C 14.799 15.736 14.163 16 13.5 16 L 2.5 16 C 1.837 16 1.201 15.736 0.732 15.268 C 0.264 14.799 0 14.163 0 13.5 L 0 2.5 C 0 1.837 0.264 1.201 0.732 0.732 C 1.201 0.264 1.837 0 2.5 0 Z M 14.749 13.5 L 14.749 2.5 C 14.749 2.169 14.617 1.851 14.383 1.617 C 14.149 1.383 13.831 1.251 13.5 1.25 L 2.5 1.25 C 2.169 1.251 1.851 1.383 1.617 1.617 C 1.383 1.851 1.251 2.169 1.25 2.5 L 1.25 13.5 C 1.251 13.831 1.382 14.149 1.617 14.383 C 1.851 14.618 2.169 14.749 2.5 14.75 L 13.5 14.75 C 13.831 14.75 14.15 14.618 14.384 14.384 C 14.618 14.15 14.75 13.831 14.75 13.5 Z M 8.641 3.773 L 8.641 7.867 L 9.274 7.234 C 9.33 7.178 9.396 7.134 9.469 7.104 C 9.542 7.073 9.62 7.058 9.699 7.058 C 9.778 7.058 9.856 7.073 9.929 7.104 C 10.002 7.134 10.068 7.178 10.124 7.234 C 10.199 7.309 10.253 7.402 10.28 7.504 C 10.308 7.606 10.308 7.713 10.28 7.815 C 10.253 7.917 10.199 8.01 10.124 8.085 L 10.124 8.085 L 9.931 8.277 C 9.799 8.41 9.666 8.543 9.531 8.677 C 9.373 8.834 9.216 8.989 9.059 9.147 C 8.927 9.279 8.797 9.413 8.665 9.547 C 8.563 9.664 8.446 9.768 8.317 9.855 C 8.27 9.88 8.221 9.898 8.169 9.91 C 8.076 9.931 7.979 9.928 7.887 9.902 C 7.795 9.876 7.711 9.828 7.642 9.762 C 7.503 9.637 7.372 9.506 7.242 9.373 C 7.112 9.24 6.97 9.103 6.835 8.966 L 6.423 8.554 C 6.315 8.449 6.21 8.341 6.103 8.235 L 5.972 8.104 C 5.897 8.029 5.843 7.936 5.816 7.834 C 5.788 7.732 5.788 7.625 5.816 7.523 C 5.843 7.421 5.897 7.328 5.972 7.253 C 6.028 7.197 6.094 7.153 6.167 7.123 C 6.24 7.092 6.318 7.077 6.397 7.077 C 6.476 7.077 6.554 7.092 6.627 7.123 C 6.7 7.153 6.766 7.197 6.822 7.253 L 7.439 7.87 L 7.439 3.776 C 7.439 3.617 7.502 3.464 7.615 3.352 C 7.727 3.239 7.88 3.176 8.039 3.176 C 8.198 3.175 8.351 3.238 8.464 3.349 C 8.577 3.461 8.641 3.613 8.642 3.772 Z M 11.047 11.42 C 11.187 11.438 11.317 11.506 11.41 11.612 C 11.504 11.718 11.555 11.855 11.555 11.996 C 11.555 12.137 11.504 12.274 11.41 12.38 C 11.317 12.486 11.187 12.555 11.047 12.572 L 4.963 12.572 C 4.821 12.555 4.691 12.488 4.595 12.382 C 4.5 12.276 4.446 12.139 4.444 11.996 C 4.446 11.853 4.5 11.716 4.595 11.611 C 4.691 11.505 4.822 11.437 4.963 11.42 Z"
        fill="#181818"/>
</svg>
