<svg
    xmlns="http://www.w3.org/2000/svg"
    viewBox="0 0 36 36"
    id="vector">
    <path
        id="path_1"
        d="M 17.505 27.881 L 17.505 25.438 C 15.909 25.332 14.411 24.628 13.311 23.468 C 12.21 22.307 11.587 20.773 11.567 19.174 C 11.567 19.043 11.619 18.917 11.712 18.824 C 11.805 18.731 11.931 18.679 12.062 18.679 C 12.193 18.679 12.319 18.731 12.412 18.824 C 12.505 18.917 12.557 19.043 12.557 19.174 C 12.59 20.595 13.179 21.948 14.196 22.941 C 15.213 23.935 16.579 24.491 18 24.491 C 19.422 24.491 20.788 23.935 21.805 22.941 C 22.822 21.948 23.411 20.595 23.444 19.174 C 23.444 19.043 23.496 18.917 23.589 18.824 C 23.682 18.731 23.808 18.679 23.939 18.679 C 24.07 18.679 24.196 18.731 24.289 18.824 C 24.382 18.917 24.434 19.043 24.434 19.174 C 24.418 20.774 23.796 22.311 22.695 23.472 C 21.594 24.633 20.093 25.336 18.496 25.438 L 18.496 27.881 M 21.713 13.128 L 21.713 19.174 C 21.686 20.14 21.282 21.058 20.589 21.731 C 19.897 22.404 18.968 22.781 18.002 22.781 C 17.035 22.781 16.106 22.404 15.414 21.731 C 14.721 21.058 14.317 20.14 14.29 19.174 L 14.29 13.128 C 14.317 12.162 14.721 11.244 15.414 10.571 C 16.106 9.898 17.035 9.521 18.002 9.521 C 18.968 9.521 19.897 9.898 20.589 10.571 C 21.282 11.244 21.686 12.162 21.713 13.128 Z M 20.723 13.128 C 20.704 12.419 20.408 11.745 19.9 11.25 C 19.392 10.756 18.71 10.479 18.001 10.479 C 17.292 10.479 16.61 10.756 16.102 11.25 C 15.594 11.745 15.298 12.419 15.279 13.128 L 15.279 19.174 C 15.298 19.883 15.594 20.557 16.102 21.052 C 16.61 21.546 17.292 21.823 18.001 21.823 C 18.71 21.823 19.392 21.546 19.9 21.052 C 20.408 20.557 20.704 19.883 20.723 19.174 Z"
        fill="#ffffff"
        stroke="#ffffff"
        stroke-width="0.15"/>
</svg>
