<svg xmlns="http://www.w3.org/2000/svg" width="20.345" height="31.75" viewBox="0 0 20.345 31.75">
  <g id="Group_33525" data-name="Group 33525" transform="translate(-124 -209.745)">
    <g id="mic" transform="translate(45.843 209.745)">
      <g id="Group_33537" data-name="Group 33537" transform="translate(78.157 15.29)">
        <g id="Group_33536" data-name="Group 33536" transform="translate(0)">
          <path id="Path_22869" data-name="Path 22869" d="M98.5,210.683a1.121,1.121,0,1,0-2.241,0,7.931,7.931,0,0,1-15.862,0,1.121,1.121,0,1,0-2.241,0,10.184,10.184,0,0,0,9.052,10.109v2.989H83.133a1.121,1.121,0,1,0,0,2.241H93.526a1.121,1.121,0,0,0,0-2.241H89.45v-2.989A10.184,10.184,0,0,0,98.5,210.683Z" transform="translate(-78.157 -209.562)" fill="#fff"/>
        </g>
      </g>
      <g id="Group_33539" data-name="Group 33539" transform="translate(82.079)">
        <g id="Group_33538" data-name="Group 33538" transform="translate(0)">
          <path id="Path_22870" data-name="Path 22870" d="M138.166,0a6.25,6.25,0,0,0-6.25,6.25V16.37a6.25,6.25,0,1,0,12.5,0V6.25A6.25,6.25,0,0,0,138.166,0Z" transform="translate(-131.916)" fill="#fff"/>
        </g>
      </g>
    </g>
  </g>
</svg>
