<svg xmlns="http://www.w3.org/2000/svg" width="31.409" height="23.746" viewBox="0 0 31.409 23.746">
  <g id="noun_Audio_3408360" transform="translate(-2.5 -14)">
    <g id="Group_15648" data-name="Group 15648" transform="translate(2.5 14)">
      <path id="Path_13786" data-name="Path 13786" d="M29.615,27.145V25.46a11.427,11.427,0,1,0-22.855,0v1.684a4.683,4.683,0,0,0,.429,9.347h.429v.165a1.1,1.1,0,0,0,1.09,1.09h.859a1.1,1.1,0,0,0,1.09-1.09v-9.71a1.1,1.1,0,0,0-1.09-1.09h-.4v-.4a9.016,9.016,0,0,1,18.033,0v.4h-.4a1.1,1.1,0,0,0-1.09,1.09v9.71a1.1,1.1,0,0,0,1.09,1.09h.859a1.1,1.1,0,0,0,1.09-1.09v-.165h.462a4.687,4.687,0,0,0,4.69-4.69A4.753,4.753,0,0,0,29.615,27.145Z" transform="translate(-2.5 -14)" fill="#fff"/>
    </g>
  </g>
</svg>
