<svg xmlns="http://www.w3.org/2000/svg" width="15.26" height="17.941" viewBox="0 0 15.26 17.941">
  <g id="avatar" transform="translate(-36.073)">
    <g id="Group_257" data-name="Group 257" transform="translate(36.073)">
      <path id="Path_1553" data-name="Path 1553" d="M140.894,9.667h.119a3.428,3.428,0,0,0,2.619-1.133c1.43-1.612,1.193-4.376,1.167-4.64A3.79,3.79,0,0,0,143,.524,4.131,4.131,0,0,0,141,0h-.063a4.137,4.137,0,0,0-2,.509,3.793,3.793,0,0,0-1.824,3.385c-.026.264-.264,3.028,1.167,4.64A3.414,3.414,0,0,0,140.894,9.667Zm-2.79-5.68c0-.011,0-.022,0-.03.123-2.664,2.014-2.95,2.824-2.95h.045c1,.022,2.708.431,2.824,2.95a.073.073,0,0,0,0,.03c0,.026.264,2.552-.918,3.882a2.435,2.435,0,0,1-1.913.8h-.037a2.427,2.427,0,0,1-1.91-.8C137.848,6.546,138.1,4.009,138.1,3.986Z" transform="translate(-133.329)" fill="#181818"/>
      <path id="Path_1554" data-name="Path 1554" d="M51.332,263.864v-.011c0-.03,0-.059,0-.093-.022-.736-.071-2.456-1.683-3.006l-.037-.011a10.72,10.72,0,0,1-3.084-1.4.5.5,0,0,0-.576.821,11.57,11.57,0,0,0,3.392,1.549c.866.308.962,1.233.988,2.081a.746.746,0,0,0,0,.093,6.743,6.743,0,0,1-.078,1.148,13.672,13.672,0,0,1-6.55,1.523,13.751,13.751,0,0,1-6.554-1.527,6.384,6.384,0,0,1-.078-1.148c0-.03,0-.059,0-.093.026-.847.123-1.772.988-2.08a11.679,11.679,0,0,0,3.392-1.549.5.5,0,1,0-.576-.821,10.6,10.6,0,0,1-3.084,1.4l-.037.011c-1.612.554-1.661,2.274-1.683,3.006a.746.746,0,0,1,0,.093v.011a5.7,5.7,0,0,0,.189,1.683.477.477,0,0,0,.193.234,14.053,14.053,0,0,0,7.252,1.776,14.1,14.1,0,0,0,7.252-1.776.5.5,0,0,0,.193-.234A5.977,5.977,0,0,0,51.332,263.864Z" transform="translate(-36.073 -249.613)" fill="#181818"/>
    </g>
  </g>
</svg>
