<svg id="camera_profile_change" data-name="camera profile change" xmlns="http://www.w3.org/2000/svg" width="35.012" height="35.012" viewBox="0 0 35.012 35.012">
  <path id="Forma_1" data-name="Forma 1" d="M233.808,206.178a2.531,2.531,0,1,0,2.5,2.53A2.514,2.514,0,0,0,233.808,206.178Zm6.661-2.53h-2a.743.743,0,0,1-.658-.48l-.517-1.57a.743.743,0,0,0-.658-.48h-5.662a.742.742,0,0,0-.658.48l-.516,1.57a.743.743,0,0,1-.658.48h-2a1.681,1.681,0,0,0-1.665,1.687v7.591a1.681,1.681,0,0,0,1.665,1.687h13.322a1.681,1.681,0,0,0,1.665-1.687v-7.591A1.681,1.681,0,0,0,240.469,203.647Zm-6.661,9.278a4.218,4.218,0,1,1,4.163-4.217A4.191,4.191,0,0,1,233.808,212.925Zm6.078-6.411a.59.59,0,1,1,.583-.59A.587.587,0,0,1,239.886,206.514Z" transform="translate(-215.906 -190.571)" fill="#000"/>
</svg>
