<svg xmlns="http://www.w3.org/2000/svg" width="50" height="50" viewBox="0 0 50 50">
  <g id="Group_15635" data-name="Group 15635" transform="translate(-20 -493)">
    <circle id="Ellipse_49" data-name="Ellipse 49" cx="25" cy="25" r="25" transform="translate(20 493)" fill="#ef5b5b"/>
    <g id="camera_1_" data-name="camera (1)" transform="translate(37.276 511.155)">
      <g id="camera-alt" transform="translate(0 0)">
        <circle id="Ellipse_55" data-name="Ellipse 55" cx="2.497" cy="2.497" r="2.497" transform="translate(5.307 5.307)" fill="#fff"/>
        <path id="Path_9745" data-name="Path 9745" d="M5.463,25.5l-1.4,1.561h-2.5A1.565,1.565,0,0,0,0,28.621v9.364a1.565,1.565,0,0,0,1.561,1.561H14.047a1.565,1.565,0,0,0,1.561-1.561V28.621a1.565,1.565,0,0,0-1.561-1.561h-2.5l-1.4-1.561ZM7.8,37.206a3.9,3.9,0,1,1,3.9-3.9A3.864,3.864,0,0,1,7.8,37.206Z" transform="translate(0 -25.5)" fill="#fff"/>
      </g>
    </g>
  </g>
</svg>
