<svg xmlns="http://www.w3.org/2000/svg" width="37.4" height="30.308" viewBox="0 0 37.4 30.308">
  <path id="Forma_1" data-name="Forma 1" d="M244.181,212.482a5.683,5.683,0,1,0,5.61,5.683A5.647,5.647,0,0,0,244.181,212.482Zm14.96-5.683h-4.488a1.668,1.668,0,0,1-1.477-1.078l-1.16-3.527a1.668,1.668,0,0,0-1.477-1.078H237.823a1.667,1.667,0,0,0-1.477,1.078l-1.16,3.527a1.669,1.669,0,0,1-1.477,1.078h-4.488a3.776,3.776,0,0,0-3.74,3.789v17.048a3.776,3.776,0,0,0,3.74,3.789h29.92a3.776,3.776,0,0,0,3.74-3.789V210.588A3.776,3.776,0,0,0,259.141,206.8Zm-14.96,20.837a9.472,9.472,0,1,1,9.35-9.471A9.411,9.411,0,0,1,244.181,227.637Zm13.651-14.4a1.326,1.326,0,1,1,1.309-1.326A1.318,1.318,0,0,1,257.833,213.238Z" transform="translate(-225.482 -201.117)" fill="#fff"/>
</svg>
