<svg xmlns="http://www.w3.org/2000/svg" width="20" height="18" viewBox="0 0 20 18">
  <g id="chat_" data-name="chat " transform="translate(0.15 -2.315)">
    <path id="Path_1540" data-name="Path 1540" d="M9.272,24.009h3.535a.272.272,0,0,0,0-.544H9.272a.272.272,0,0,0,0,.544Z" transform="translate(-5.876 -14.211)" fill="#181818" stroke="#181818" stroke-width="0.3"/>
    <path id="Path_1541" data-name="Path 1541" d="M16.342,29.465H9.272a.272.272,0,0,0,0,.544h7.07a.272.272,0,0,0,0-.544Z" transform="translate(-5.601 -18.272)" fill="#181818" stroke="#181818" stroke-width="0.3"/>
    <path id="Path_1542" data-name="Path 1542" d="M16.342,35.465H9.272a.272.272,0,1,0,0,.544h7.07a.272.272,0,1,0,0-.544Z" transform="translate(-5.601 -22.332)" fill="#181818" stroke="#181818" stroke-width="0.3"/>
    <path id="Path_1543" data-name="Path 1543" d="M17.754,2.487,6.544,2.465A1.929,1.929,0,0,0,4.6,4.371V6.018l-2.65.005A1.929,1.929,0,0,0,0,7.929v6.795A1.929,1.929,0,0,0,1.947,16.63H3.94v3.214a.322.322,0,0,0,.21.3.334.334,0,0,0,.361-.084L7.7,16.629l5.459-.022A1.929,1.929,0,0,0,15.1,14.7v-.036l1.727,1.86a.334.334,0,0,0,.361.084.322.322,0,0,0,.21-.3V13.094h.351A1.929,1.929,0,0,0,19.7,11.189v-6.8A1.929,1.929,0,0,0,17.754,2.487ZM14.447,14.7a1.278,1.278,0,0,1-1.292,1.263l-5.6.022a.332.332,0,0,0-.242.105L4.6,19.012v-2.7a.325.325,0,0,0-.328-.321H1.947a1.278,1.278,0,0,1-1.29-1.263V7.929A1.279,1.279,0,0,1,1.948,6.666L4.925,6.66h0l8.231-.017a1.278,1.278,0,0,1,1.29,1.263v6.8Zm4.6-3.513a1.278,1.278,0,0,1-1.29,1.263h-.68a.325.325,0,0,0-.328.321v2.7L15.1,13.709v-5.8A1.929,1.929,0,0,0,13.156,6l-7.9.016V4.371a1.278,1.278,0,0,1,1.29-1.263l11.21.022h0a1.278,1.278,0,0,1,1.29,1.263v6.8Z" transform="translate(0 0)" fill="#181818" stroke="#181818" stroke-width="0.3"/>
  </g>
</svg>
