<svg
    xmlns="http://www.w3.org/2000/svg"
    viewBox="0 0 21 21"
    id="vector">
    <path
        id="path"
        d="M 10.354 21.065 L 0.528 21.065 L 1.549 19.325 C 1.849 18.834 2.01 18.27 2.013 17.695 C 2.016 17.12 1.862 16.554 1.567 16.06 C 0.251 13.924 -0.259 11.386 0.128 8.908 C 0.516 6.429 1.776 4.168 3.681 2.536 C 5.586 0.903 8.013 0.004 10.522 0 C 12.389 -0.002 14.224 0.493 15.837 1.433 C 17.451 2.374 18.785 3.727 19.703 5.353 C 20.622 6.979 21.091 8.821 21.063 10.688 C 20.975 13.469 19.807 16.109 17.809 18.045 C 15.812 19.981 13.136 21.065 10.354 21.065 Z M 13.383 8.743 C 12.948 8.743 12.53 8.916 12.223 9.224 C 11.916 9.532 11.743 9.95 11.743 10.385 C 11.743 10.82 11.916 11.237 12.224 11.545 C 12.532 11.852 12.949 12.025 13.384 12.025 C 13.819 12.025 14.237 11.852 14.544 11.544 C 14.852 11.237 15.025 10.819 15.025 10.384 C 15.024 9.949 14.851 9.531 14.543 9.224 C 14.236 8.916 13.818 8.743 13.383 8.743 Z M 7.363 8.743 C 6.991 8.742 6.63 8.868 6.339 9.099 C 6.047 9.33 5.843 9.654 5.76 10.016 C 5.676 10.378 5.719 10.759 5.88 11.094 C 6.04 11.429 6.311 11.7 6.645 11.862 C 6.98 12.023 7.36 12.067 7.723 11.984 C 8.086 11.902 8.41 11.698 8.642 11.408 C 8.874 11.117 9 10.756 9 10.384 C 8.999 9.95 8.827 9.533 8.52 9.226 C 8.214 8.918 7.797 8.745 7.363 8.743 Z"
        fill="#ffffff"/>
</svg>
