<svg
    xmlns="http://www.w3.org/2000/svg"
    viewBox="0 0 18 18"
    id="vector">
    <path
        id="path"
        d="M 9 0 L 9 0 C 11.386 0 13.677 0.949 15.364 2.636 C 17.051 4.323 18 6.614 18 9 L 18 9 C 18 11.386 17.051 13.677 15.364 15.364 C 13.677 17.051 11.386 18 9 18 L 9 18 C 6.614 18 4.323 17.051 2.636 15.364 C 0.949 13.677 0 11.386 0 9 L 0 9 C 0 6.614 0.949 4.323 2.636 2.636 C 4.323 0.949 6.614 0 9 0 Z"
        fill="#90949d"
        stroke="#00000000"
        stroke-width="1"/>
    <path
        id="path_1"
        d="M 9 0.5 L 9 0.5 C 11.253 0.5 13.417 1.396 15.01 2.99 C 16.604 4.583 17.5 6.747 17.5 9 L 17.5 9 C 17.5 11.253 16.604 13.417 15.01 15.01 C 13.417 16.604 11.253 17.5 9 17.5 L 9 17.5 C 6.747 17.5 4.583 16.604 2.99 15.01 C 1.396 13.417 0.5 11.253 0.5 9 L 0.5 9 C 0.5 6.747 1.396 4.583 2.99 2.99 C 4.583 1.396 6.747 0.5 9 0.5 Z"
        fill="#00000000"
        stroke="#ffffff"
        stroke-width="1"/>
    <path
        id="path_2"
        d="M 11.139 6.148 L 9 8.287 L 6.861 6.148 C 6.766 6.054 6.638 6.001 6.505 6.001 C 6.371 6.002 6.243 6.055 6.149 6.149 C 6.055 6.243 6.002 6.371 6.001 6.505 C 6.001 6.638 6.054 6.766 6.148 6.861 L 8.287 9.001 L 6.148 11.14 C 6.054 11.235 6.001 11.363 6.001 11.496 C 6.002 11.63 6.055 11.758 6.149 11.852 C 6.243 11.946 6.371 11.999 6.505 12 C 6.638 12 6.766 11.947 6.861 11.853 L 9 9.714 L 11.139 11.853 C 11.214 11.929 11.311 11.979 11.417 11.995 C 11.522 12.012 11.63 11.995 11.725 11.947 C 11.82 11.899 11.898 11.821 11.946 11.726 C 11.994 11.631 12.011 11.523 11.994 11.418 C 11.978 11.312 11.928 11.215 11.852 11.14 L 9.713 9.001 L 11.852 6.862 C 11.928 6.787 11.978 6.69 11.994 6.584 C 12.011 6.479 11.994 6.371 11.946 6.276 C 11.898 6.181 11.82 6.103 11.725 6.055 C 11.63 6.007 11.522 5.99 11.417 6.007 C 11.311 6.023 11.214 6.073 11.139 6.149 Z"
        fill="#ffffff"/>
</svg>
