<svg
    xmlns="http://www.w3.org/2000/svg"
    viewBox="0 0 91 29"
    id="vector">
    <path
        id="path"
        d="M 22.132 0 L 2.459 0 L 2.459 2.459 L 22.132 2.459 Z M 2.459 29.51 L 22.132 29.51 L 22.132 27.051 L 2.459 27.051 Z M 22.132 4.918 L 2.459 4.918 C 1.808 4.92 1.183 5.18 0.722 5.64 C 0.262 6.101 0.002 6.726 0 7.377 L 0 22.132 C 0.002 22.783 0.262 23.408 0.722 23.869 C 1.183 24.329 1.808 24.589 2.459 24.591 L 22.132 24.591 C 22.783 24.589 23.408 24.329 23.869 23.869 C 24.329 23.408 24.589 22.783 24.591 22.132 L 24.591 7.377 C 24.589 6.726 24.329 6.101 23.869 5.64 C 23.408 5.18 22.783 4.92 22.132 4.918 Z M 12.3 8.3 C 13.034 8.3 13.738 8.592 14.257 9.11 C 14.775 9.629 15.067 10.333 15.067 11.067 C 15.067 11.801 14.775 12.505 14.257 13.024 C 13.738 13.542 13.034 13.834 12.3 13.834 C 11.566 13.834 10.862 13.542 10.343 13.024 C 9.825 12.505 9.533 11.801 9.533 11.067 C 9.534 10.334 9.826 9.63 10.345 9.112 C 10.863 8.593 11.567 8.301 12.3 8.3 Z M 18.448 20.9 L 6.148 20.9 L 6.148 19.058 C 6.148 17.005 10.242 15.984 12.296 15.984 C 14.35 15.984 18.444 17.005 18.444 19.058 Z"
        fill="#ffffff"/>
    <path
        id="path_1"
        d="M 50.131 12.898 L 44.6 12.898 L 44.6 7.369 C 44.6 7.186 44.527 7.01 44.398 6.88 C 44.268 6.751 44.092 6.678 43.909 6.678 C 43.726 6.678 43.55 6.751 43.42 6.88 C 43.291 7.01 43.218 7.186 43.218 7.369 L 43.218 12.898 L 37.691 12.898 C 37.508 12.898 37.332 12.971 37.202 13.1 C 37.073 13.23 37 13.406 37 13.589 C 37 13.772 37.073 13.948 37.202 14.078 C 37.332 14.207 37.508 14.28 37.691 14.28 L 43.22 14.28 L 43.22 19.809 C 43.22 19.955 43.265 20.098 43.351 20.216 C 43.437 20.335 43.558 20.423 43.697 20.468 C 43.836 20.513 43.986 20.513 44.125 20.468 C 44.264 20.423 44.385 20.335 44.471 20.216 C 44.557 20.098 44.602 19.955 44.602 19.809 L 44.602 14.278 L 50.131 14.278 C 50.314 14.278 50.49 14.205 50.62 14.076 C 50.749 13.946 50.822 13.77 50.822 13.587 C 50.822 13.404 50.749 13.228 50.62 13.098 C 50.49 12.969 50.314 12.896 50.131 12.896 Z M 50.131 12.898"
        fill="#ffffff"/>
    <path
        id="path_2"
        d="M 88.168 6.643 L 78.513 6.643 L 76.192 3.883 C 76.158 3.842 76.115 3.809 76.066 3.787 C 76.017 3.765 75.964 3.754 75.911 3.756 L 66.532 3.756 C 65.858 3.763 65.213 4.036 64.739 4.515 C 64.265 4.994 63.999 5.642 64 6.316 L 64 23.199 C 64 23.873 64.266 24.52 64.74 24.999 C 65.214 25.477 65.858 25.75 66.532 25.757 L 88.168 25.757 C 88.842 25.75 89.486 25.477 89.96 24.999 C 90.434 24.52 90.7 23.873 90.7 23.199 L 90.7 9.199 C 90.7 8.526 90.433 7.879 89.959 7.401 C 89.485 6.922 88.841 6.65 88.168 6.643 Z"
        fill="#ffffff"/>
</svg>
