<svg xmlns="http://www.w3.org/2000/svg" width="26.461" height="31.753" viewBox="0 0 26.461 31.753">
  <path id="Material_icons_-_Material_UI-55" data-name="Material icons - Material UI-55" d="M25.815,0H4.646V2.646H25.815ZM4.646,31.753H25.815V29.107H4.646ZM25.815,5.292H4.646A2.654,2.654,0,0,0,2,7.938V23.815a2.654,2.654,0,0,0,2.646,2.646H25.815a2.654,2.654,0,0,0,2.646-2.646V7.938A2.654,2.654,0,0,0,25.815,5.292ZM15.23,8.93a2.977,2.977,0,1,1-2.977,2.977A2.981,2.981,0,0,1,15.23,8.93Zm6.615,13.561H8.615V20.507c0-2.209,4.406-3.308,6.615-3.308s6.615,1.1,6.615,3.308Z" transform="translate(-2)" fill="#fff"/>
</svg>
