<svg xmlns="http://www.w3.org/2000/svg" width="14.04" height="16.679" viewBox="0 0 14.04 16.679">
  <path id="copy" d="M8.828,16.679H2.606A2.609,2.609,0,0,1,0,14.073V5.245A2.609,2.609,0,0,1,2.606,2.639H8.828a2.609,2.609,0,0,1,2.606,2.606v8.828A2.609,2.609,0,0,1,8.828,16.679ZM2.606,3.942a1.3,1.3,0,0,0-1.3,1.3v8.828a1.3,1.3,0,0,0,1.3,1.3H8.828a1.3,1.3,0,0,0,1.3-1.3V5.245a1.3,1.3,0,0,0-1.3-1.3Zm11.434,8.5V2.606A2.609,2.609,0,0,0,11.434,0H4.2a.652.652,0,1,0,0,1.3h7.232a1.3,1.3,0,0,1,1.3,1.3v9.838a.652.652,0,0,0,1.3,0Zm0,0" fill="#181818"/>
</svg>
