<svg
    xmlns="http://www.w3.org/2000/svg"
    viewBox="0 0 23 29"
    id="vector">
    <path
        id="path"
        d="M 23.52 27 C 23.52 28.5 22.32 29.6 20.92 29.6 L 2.62 29.6 C 1.12 29.6 0.02 28.4 0.02 27 L 0.02 2.6 C 0.02 1.2 1.22 0 2.62 0 L 13.92 0 C 14.42 0 14.92 0.2 15.32 0.6 L 22.82 8.1 C 23.22 8.5 23.42 9 23.42 9.5 L 23.42 27 Z"
        fill="#1ec656"/>
    <path
        id="path_1"
        d="M 23.32 8.7 L 16.62 8.7 C 15.62 8.7 14.82 7.9 14.82 6.9 L 14.82 0.2 C 15.02 0.3 15.22 0.4 15.42 0.6 L 22.92 8.1 C 23.12 8.3 23.22 8.5 23.32 8.7 L 23.32 8.7 Z"
        fill="#14974a"/>
    <path
        id="path_2"
        d="M 3.42 17.2 C 3.42 15.4 4.52 14.3 6.12 14.3 C 7.52 14.3 8.62 15.2 8.72 16.6 L 7.32 16.6 C 7.22 15.9 6.82 15.5 6.12 15.5 C 5.32 15.5 4.82 16.2 4.82 17.3 C 4.82 18.4 5.32 19.1 6.12 19.1 C 6.72 19.1 7.22 18.7 7.32 18 L 8.72 18 C 8.62 19.3 7.62 20.2 6.12 20.2 C 4.42 20.1 3.42 19 3.42 17.2 Z"
        fill="#ffffff"/>
    <path
        id="path_3"
        d="M 10.52 18.4 C 10.62 18.8 11.02 19 11.52 19 C 12.12 19 12.42 18.7 12.42 18.4 C 12.42 18.1 12.22 17.9 11.52 17.8 L 10.82 17.7 C 9.82 17.5 9.22 16.9 9.22 16.1 C 9.22 15 10.12 14.3 11.42 14.3 C 12.82 14.3 13.62 15 13.72 16 L 12.42 16 C 12.42 15.6 12.02 15.3 11.52 15.3 C 11.02 15.3 10.72 15.5 10.72 15.9 C 10.72 16.2 11.02 16.4 11.52 16.5 L 12.22 16.6 C 13.32 16.8 13.82 17.3 13.82 18.2 C 13.82 19.3 12.92 20 11.42 20 C 10.02 20 9.12 19.4 9.12 18.3 L 10.52 18.3 Z"
        fill="#ffffff"/>
    <path
        id="path_4"
        d="M 16.02 20 L 14.22 14.4 L 15.82 14.4 L 16.92 18.6 L 16.92 18.6 L 18.02 14.4 L 19.62 14.4 L 17.82 20 L 16.02 20 Z"
        fill="#ffffff"/>
</svg>
