<svg xmlns="http://www.w3.org/2000/svg" width="13.24" height="16.342" viewBox="0 0 13.24 16.342">
  <g id="delete" transform="translate(-1 3)">
    <path id="Path_13799" data-name="Path 13799" d="M1.63-.54A.623.623,0,0,0,1,.074a.623.623,0,0,0,.63.615h.63V12.728a.623.623,0,0,0,.63.615h9.459a.623.623,0,0,0,.63-.615V1.208a.63.63,0,0,0-1.26,0v10.9h-8.2V.689h8.2v1.23a.63.63,0,0,0,1.26,0V.689h.63a.623.623,0,0,0,.63-.615.623.623,0,0,0-.63-.615H10.956V-2.385A.623.623,0,0,0,10.326-3H4.914a.623.623,0,0,0-.63.615V-.54ZM5.544-1.77H9.7V-.54H5.544Zm0,0" fill="#fff"/>
    <path id="Path_13800" data-name="Path 13800" d="M111.027,164.695v6.471a.637.637,0,0,0,1.274,0v-6.471a.637.637,0,1,0-1.274,0Zm0,0" transform="translate(-105.594 -161.509)" fill="#fff"/>
    <path id="Path_13801" data-name="Path 13801" d="M208,164.637v6.471a.637.637,0,0,0,1.274,0v-6.471a.637.637,0,1,0-1.274,0Zm0,0" transform="translate(-199.44 -161.509)" fill="#fff"/>
  </g>
</svg>
