<svg
    xmlns="http://www.w3.org/2000/svg"
    viewBox="0 0 17 18"
    id="vector">
    <path
        id="path"
        d="M 11.988 18.177 L 5.4 18.177 C 4.738 18.164 4.105 17.901 3.628 17.441 C 3.151 16.981 2.865 16.358 2.828 15.697 L 2.048 3.697 C 2.042 3.579 2.068 3.462 2.123 3.358 C 2.178 3.254 2.259 3.166 2.359 3.104 C 2.459 3.041 2.573 3.006 2.691 3.003 L 14.691 3.003 C 14.779 3.003 14.867 3.021 14.948 3.057 C 15.029 3.092 15.102 3.144 15.162 3.209 C 15.222 3.274 15.269 3.351 15.298 3.435 C 15.328 3.519 15.34 3.608 15.334 3.697 L 14.588 15.697 C 14.55 16.364 14.26 16.993 13.775 17.453 C 13.291 17.914 12.649 18.173 11.981 18.177 Z M 3.413 4.301 L 4.073 15.618 C 4.093 15.957 4.241 16.276 4.487 16.51 C 4.734 16.744 5.06 16.875 5.4 16.876 L 11.985 16.876 C 12.324 16.873 12.65 16.742 12.896 16.508 C 13.143 16.275 13.292 15.957 13.314 15.619 L 14.009 4.345 Z"
        fill="#181818"
        stroke="#ffffff"
        stroke-width="0.1"/>
    <path
        id="path_1"
        d="M 16.675 4.5 L 0.715 4.5 C 0.528 4.488 0.352 4.403 0.228 4.262 C 0.103 4.122 0.039 3.937 0.05 3.75 C 0.039 3.563 0.103 3.378 0.228 3.238 C 0.352 3.097 0.528 3.012 0.715 3 L 16.675 3 C 16.862 3.012 17.038 3.097 17.162 3.238 C 17.287 3.378 17.351 3.563 17.34 3.75 C 17.351 3.937 17.287 4.122 17.162 4.262 C 17.038 4.403 16.862 4.488 16.675 4.5 Z"
        fill="#181818"
        stroke="#ffffff"
        stroke-width="0.1"/>
    <path
        id="path_2"
        d="M 11.695 4.5 L 5.695 4.5 C 5.497 4.497 5.308 4.418 5.168 4.277 C 5.027 4.137 4.948 3.948 4.945 3.75 L 4.945 1.95 C 4.958 1.437 5.167 0.948 5.53 0.585 C 5.893 0.222 6.382 0.013 6.895 0 L 10.495 0 C 11.017 0.013 11.513 0.23 11.877 0.603 C 12.241 0.977 12.445 1.478 12.445 2 L 12.445 3.75 C 12.442 3.948 12.363 4.137 12.222 4.277 C 12.082 4.418 11.893 4.497 11.695 4.5 Z M 6.445 3 L 10.945 3 L 10.945 2 C 10.945 1.881 10.898 1.766 10.813 1.682 C 10.729 1.597 10.614 1.55 10.495 1.55 L 6.895 1.55 C 6.776 1.55 6.661 1.597 6.577 1.682 C 6.492 1.766 6.445 1.881 6.445 2 Z"
        fill="#181818"/>
    <path
        id="path_3"
        d="M 11.327 15.022 C 11.129 15.019 10.94 14.94 10.8 14.799 C 10.659 14.659 10.58 14.47 10.577 14.272 L 10.577 6.272 C 10.578 6.074 10.657 5.883 10.798 5.743 C 10.938 5.603 11.129 5.524 11.327 5.524 C 11.525 5.524 11.716 5.603 11.856 5.743 C 11.997 5.883 12.076 6.074 12.077 6.272 L 12.077 14.272 C 12.074 14.47 11.995 14.659 11.854 14.799 C 11.714 14.94 11.525 15.019 11.327 15.022 Z"
        fill="#181818"
        stroke="#ffffff"
        stroke-width="0.1"/>
    <path
        id="path_4"
        d="M 6.063 15.022 C 5.865 15.019 5.676 14.94 5.536 14.799 C 5.395 14.659 5.316 14.47 5.313 14.272 L 5.313 6.272 C 5.313 6.073 5.392 5.882 5.533 5.742 C 5.673 5.601 5.864 5.522 6.063 5.522 C 6.262 5.522 6.453 5.601 6.593 5.742 C 6.734 5.882 6.813 6.073 6.813 6.272 L 6.813 14.272 C 6.81 14.47 6.731 14.659 6.59 14.799 C 6.45 14.94 6.261 15.019 6.063 15.022 Z"
        fill="#181818"
        stroke="#ffffff"
        stroke-width="0.1"/>
    <path
        id="path_5"
        d="M 8.695 15.022 C 8.497 15.019 8.308 14.94 8.168 14.799 C 8.027 14.659 7.948 14.47 7.945 14.272 L 7.945 6.272 C 7.945 6.073 8.024 5.882 8.165 5.742 C 8.305 5.601 8.496 5.522 8.695 5.522 C 8.894 5.522 9.085 5.601 9.225 5.742 C 9.366 5.882 9.445 6.073 9.445 6.272 L 9.445 14.272 C 9.442 14.47 9.363 14.659 9.222 14.799 C 9.082 14.94 8.893 15.019 8.695 15.022 Z"
        fill="#181818"
        stroke="#ffffff"
        stroke-width="0.1"/>
</svg>
