<svg xmlns="http://www.w3.org/2000/svg" width="18.093" height="22.788" viewBox="0 0 18.093 22.788">
  <g id="Group_15656" data-name="Group 15656" transform="translate(-1.28)">
    <path id="Path_9793" data-name="Path 9793" d="M70.828,20.753a2.037,2.037,0,0,1-2.039,2.035H54.774a2.037,2.037,0,0,1-2.039-2.035V2.035A2.037,2.037,0,0,1,54.774,0H63.5a1.53,1.53,0,0,1,1.082.448l5.8,5.8a1.524,1.524,0,0,1,.447,1.078Z" transform="translate(-51.455 0)" fill="#5da9f9"/>
    <path id="Path_9796" data-name="Path 9796" d="M315.4,9.659h-5.18a1.378,1.378,0,0,1-1.378-1.379V3.1a1.514,1.514,0,0,1,.448.31l5.8,5.8a1.515,1.515,0,0,1,.31.447Z" transform="translate(-296.16 -2.963)" fill="#8ec2fa"/>
    <g id="Group_15665" data-name="Group 15665" transform="translate(51.893 45.199)">
      <rect id="Rectangle_4490" data-name="Rectangle 4490" width="9.846" height="1.094" transform="translate(-46.705 -33.503)" fill="#fff"/>
      <rect id="Rectangle_4491" data-name="Rectangle 4491" width="9.846" height="1.094" transform="translate(-46.705 -31.06)" fill="#fff"/>
      <rect id="Rectangle_4492" data-name="Rectangle 4492" width="7.002" height="1.094" transform="translate(-46.705 -28.616)" fill="#fff"/>
    </g>
  </g>
</svg>
