<svg xmlns="http://www.w3.org/2000/svg" width="50" height="50" viewBox="0 0 50 50">
  <g id="Group_7336" data-name="Group 7336" transform="translate(-20 -546)">
    <circle id="Ellipse_52" data-name="Ellipse 52" cx="25" cy="25" r="25" transform="translate(20 546)" fill="#35b197"/>
    <g id="folded-document-icon" transform="translate(39.883 564.03)">
      <g id="Group_7326" data-name="Group 7326">
        <g id="Group_7325" data-name="Group 7325">
          <rect id="Rectangle_3728" data-name="Rectangle 3728" width="5.745" height="0.836" transform="translate(2.702 3.353)" fill="#fff"/>
          <rect id="Rectangle_3729" data-name="Rectangle 3729" width="5.745" height="0.836" transform="translate(2.702 5.356)" fill="#fff"/>
          <path id="Path_9748" data-name="Path 9748" d="M14.86,0H4.273a.278.278,0,0,0-.279.279V9.563a.69.69,0,0,0-.008.081,2.7,2.7,0,0,0,2.348,2.672l-.008.006,8.255,1.052a.557.557,0,0,0,.557-.557V.279A.279.279,0,0,0,14.86,0ZM13.745,11.759,8.218,8.518c-.13-.083-.235-.025-.235.129V9.6c0,.016,0,.031,0,.047a1.3,1.3,0,0,1-1.3,1.3,1.258,1.258,0,0,1-1.3-1.256c0-.025,0-.061,0-.086V1.393h8.358V11.759Z" transform="translate(-3.986)" fill="#fff"/>
        </g>
      </g>
    </g>
  </g>
</svg>
