<svg
    xmlns="http://www.w3.org/2000/svg"
    viewBox="0 0 23 29"
    id="vector">
    <path
        id="path"
        d="M 23.499 27.001 C 23.499 28.501 22.299 29.601 20.899 29.601 L 2.699 29.601 C 1.199 29.601 0.099 28.401 0.099 27.001 L 0.099 2.701 C 0.099 1.201 1.299 0.101 2.699 0.101 L 13.999 0.101 C 14.499 0.101 14.999 0.301 15.399 0.701 L 22.899 8.201 C 23.299 8.601 23.499 9.101 23.499 9.601 L 23.499 27.001 Z"
        fill="#198bec"/>
    <path
        id="path_1"
        d="M 23.299 8.701 L 16.599 8.701 C 15.599 8.701 14.799 7.901 14.799 6.901 L 14.799 0.201 C 14.999 0.301 15.199 0.401 15.399 0.601 L 22.899 8.101 C 23.099 8.301 23.199 8.501 23.299 8.701 L 23.299 8.701 Z"
        fill="#73b0e5"/>
    <path
        id="path_2"
        d="M 2.599 20.801 L 2.599 15.201 L 4.599 15.201 C 6.599 15.201 7.599 16.101 7.599 17.901 C 7.599 18.801 7.299 19.501 6.799 20.001 C 6.299 20.501 5.499 20.801 4.599 20.801 L 2.599 20.801 Z M 3.899 16.201 L 3.899 19.801 L 4.499 19.801 C 4.999 19.801 5.499 19.601 5.799 19.301 C 6.099 19.001 6.299 18.501 6.299 18.001 C 6.299 17.501 6.099 17.001 5.799 16.701 C 5.499 16.401 5.099 16.201 4.499 16.201 L 3.899 16.201 Z"
        fill="#ffffff"/>
    <path
        id="path_3"
        d="M 10.299 20.901 C 9.599 20.901 9.099 20.701 8.699 20.301 C 8.299 19.901 8.099 19.401 8.099 18.801 C 8.099 18.101 8.299 17.601 8.699 17.201 C 9.099 16.801 9.599 16.601 10.299 16.601 C 10.999 16.601 11.499 16.801 11.899 17.201 C 12.299 17.601 12.499 18.101 12.499 18.701 C 12.499 19.401 12.299 19.901 11.899 20.301 C 11.499 20.701 10.999 20.901 10.299 20.901 Z M 10.399 17.601 C 10.099 17.601 9.899 17.701 9.699 17.901 C 9.499 18.101 9.499 18.401 9.499 18.801 C 9.499 19.601 9.799 20.001 10.399 20.001 C 10.999 20.001 11.299 19.601 11.299 18.801 C 11.299 18.001 10.999 17.601 10.399 17.601 Z"
        fill="#ffffff"/>
    <path
        id="path_4"
        d="M 16.299 20.701 C 15.999 20.901 15.599 20.901 15.099 20.901 C 14.499 20.901 13.999 20.701 13.599 20.301 C 13.199 19.901 12.999 19.401 12.999 18.901 C 12.999 18.201 13.199 17.701 13.599 17.301 C 13.999 16.901 14.599 16.701 15.199 16.701 C 15.699 16.701 15.999 16.801 16.199 16.901 L 16.199 17.901 C 15.899 17.701 15.699 17.601 15.299 17.601 C 14.899 17.601 14.699 17.701 14.499 17.901 C 14.299 18.101 14.199 18.401 14.199 18.801 C 14.199 19.201 14.299 19.401 14.499 19.601 C 14.699 19.801 14.999 19.901 15.299 19.901 C 15.599 19.901 15.899 19.801 16.199 19.601 L 16.199 20.701 Z"
        fill="#ffffff"/>
    <path
        id="path_5"
        d="M 20.999 16.801 L 19.699 18.701 L 20.999 20.801 L 19.599 20.801 L 18.999 19.701 C 18.999 19.601 18.899 19.501 18.799 19.301 L 18.799 19.301 C 18.799 19.401 18.699 19.501 18.599 19.701 L 17.999 20.801 L 16.599 20.801 L 17.999 18.801 L 16.699 16.801 L 18.099 16.801 L 18.699 17.901 C 18.799 18.001 18.799 18.201 18.899 18.301 L 18.899 18.301 C 18.899 18.201 18.999 18.001 19.099 17.901 L 19.699 16.801 L 20.999 16.801 Z"
        fill="#ffffff"/>
</svg>
