<svg
    xmlns="http://www.w3.org/2000/svg"
    viewBox="0 0 18 18"
    id="vector">
    <path
        id="path"
        d="M 9 9 M 0 9 C 0 6.614 0.949 4.323 2.636 2.636 C 4.323 0.949 6.614 0 9 0 C 11.386 0 13.677 0.949 15.364 2.636 C 17.051 4.323 18 6.614 18 9 C 18 11.386 17.051 13.677 15.364 15.364 C 13.677 17.051 11.386 18 9 18 C 6.614 18 4.323 17.051 2.636 15.364 C 0.949 13.677 0 11.386 0 9"
        fill="#3276e2"/>
    <path
        id="path_1"
        d="M 5.668 6.349 L 8.714 8.761 C 8.862 8.87 9.044 8.923 9.227 8.91 C 9.41 8.923 9.592 8.87 9.74 8.761 L 12.782 6.349 C 13.026 6.157 12.971 6 12.661 6 L 5.79 6 C 5.48 6 5.425 6.157 5.668 6.349 Z"
        fill="#ffffff"/>
    <path
        id="path_2"
        d="M 13 6.986 L 9.676 9.511 C 9.543 9.6 9.386 9.648 9.226 9.648 C 9.066 9.648 8.909 9.6 8.776 9.511 L 5.449 6.986 C 5.2 6.798 5 6.899 5 7.209 L 5 11.353 C 5.001 11.502 5.06 11.645 5.165 11.751 C 5.271 11.856 5.414 11.915 5.563 11.916 L 12.888 11.916 C 13.037 11.915 13.18 11.856 13.286 11.751 C 13.391 11.645 13.45 11.502 13.451 11.353 L 13.451 7.209 C 13.451 6.899 13.249 6.798 13 6.986 Z"
        fill="#ffffff"/>
</svg>
