<svg
    xmlns="http://www.w3.org/2000/svg"
    viewBox="0 0 24 24"
    id="vector">
    <path
        id="path"
        d="M 12 12 M 0 12 C 0 8.819 1.265 5.764 3.515 3.515 C 5.764 1.265 8.819 0 12 0 C 15.181 0 18.236 1.265 20.485 3.515 C 22.735 5.764 24 8.819 24 12 C 24 15.181 22.735 18.236 20.485 20.485 C 18.236 22.735 15.181 24 12 24 C 8.819 24 5.764 22.735 3.515 20.485 C 1.265 18.236 0 15.181 0 12"
        fill="#000000"
        fill-opacity="0.17"
        stroke-opacity="0.17"/>
    <path
        id="path_1"
        d="M 16.847 10.78 L 13.54 7.346 C 13.487 7.292 13.419 7.254 13.345 7.238 C 13.271 7.223 13.193 7.23 13.123 7.258 C 13.053 7.286 12.992 7.335 12.95 7.398 C 12.907 7.461 12.884 7.535 12.884 7.611 L 12.884 9.265 L 12.757 9.265 C 11.441 9.266 10.178 9.789 9.248 10.72 C 8.317 11.65 7.794 12.913 7.793 14.229 L 7.793 14.992 C 7.794 15.078 7.824 15.161 7.879 15.228 C 7.933 15.294 8.009 15.34 8.093 15.357 C 8.12 15.364 8.149 15.367 8.177 15.367 C 8.249 15.366 8.32 15.345 8.381 15.307 C 8.443 15.269 8.493 15.214 8.526 15.15 C 8.872 14.451 9.408 13.863 10.071 13.453 C 10.734 13.043 11.499 12.827 12.279 12.83 L 12.879 12.83 L 12.879 14.479 C 12.879 14.555 12.902 14.629 12.945 14.692 C 12.987 14.755 13.048 14.804 13.118 14.832 C 13.188 14.86 13.266 14.867 13.34 14.852 C 13.414 14.836 13.482 14.798 13.535 14.744 L 16.842 11.31 C 16.911 11.239 16.949 11.144 16.949 11.045 C 16.949 10.946 16.911 10.851 16.842 10.78 Z M 16.847 10.78"
        fill="#ffffff"/>
</svg>
