<svg
    xmlns="http://www.w3.org/2000/svg"
    viewBox="0 0 50 50"
    id="vector">
    <path
        id="path"
        d="M 25 0 C 31.628 0 37.991 2.636 42.678 7.322 C 47.364 12.009 50 18.372 50 25 C 50 31.628 47.364 37.991 42.678 42.678 C 37.991 47.364 31.628 50 25 50 C 18.372 50 12.009 47.364 7.322 42.678 C 2.636 37.991 0 31.628 0 25 C 0 18.372 2.636 12.009 7.322 7.322 C 12.009 2.636 18.372 0 25 0 Z"
        fill="#f37626"/>
    <path
        id="path_1"
        d="M 32.669 23.835 L 32.669 22.7 C 32.674 21.075 32.163 19.489 31.211 18.173 C 30.258 16.857 28.912 15.876 27.367 15.373 C 25.821 14.869 24.156 14.869 22.61 15.373 C 21.065 15.876 19.719 16.857 18.766 18.173 C 17.814 19.489 17.303 21.075 17.308 22.7 L 17.308 23.832 C 16.499 23.903 15.748 24.284 15.214 24.895 C 14.679 25.506 14.401 26.301 14.438 27.112 C 14.476 27.923 14.826 28.689 15.414 29.248 C 16.002 29.807 16.785 30.118 17.597 30.114 L 17.886 30.114 L 17.886 30.225 C 17.888 30.419 17.965 30.605 18.102 30.742 C 18.239 30.879 18.425 30.956 18.619 30.958 L 19.195 30.958 C 19.389 30.956 19.575 30.879 19.712 30.742 C 19.849 30.605 19.926 30.419 19.928 30.225 L 19.928 23.7 C 19.926 23.506 19.849 23.32 19.712 23.183 C 19.575 23.046 19.389 22.969 19.195 22.967 L 18.929 22.967 L 18.929 22.7 C 18.929 21.093 19.568 19.551 20.704 18.415 C 21.84 17.279 23.382 16.64 24.989 16.64 C 26.596 16.64 28.138 17.279 29.274 18.415 C 30.41 19.551 31.049 21.093 31.049 22.7 L 31.049 22.966 L 30.783 22.966 C 30.589 22.968 30.403 23.045 30.266 23.182 C 30.129 23.319 30.052 23.505 30.05 23.699 L 30.05 30.225 C 30.052 30.419 30.129 30.605 30.266 30.742 C 30.403 30.879 30.589 30.956 30.783 30.958 L 31.36 30.958 C 31.554 30.956 31.74 30.879 31.877 30.742 C 32.014 30.605 32.091 30.419 32.093 30.225 L 32.093 30.114 L 32.404 30.114 C 32.957 30.114 33.501 29.969 33.98 29.692 C 34.46 29.416 34.858 29.018 35.134 28.538 C 35.411 28.059 35.556 27.515 35.556 26.962 C 35.543 26.177 35.242 25.424 34.709 24.848 C 34.177 24.271 33.45 23.91 32.669 23.835 Z"
        fill="#ffffff"/>
</svg>
