<svg
    xmlns="http://www.w3.org/2000/svg"
    viewBox="0 0 62 62"
    id="vector">
    <path
        id="path"
        d="M 31 31 M 0 31 C 0 22.781 3.268 14.891 9.08 9.08 C 14.891 3.268 22.781 0 31 0 C 39.219 0 47.109 3.268 52.92 9.08 C 58.732 14.891 62 22.781 62 31 C 62 39.219 58.732 47.109 52.92 52.92 C 47.109 58.732 39.219 62 31 62 C 22.781 62 14.891 58.732 9.08 52.92 C 3.268 47.109 0 39.219 0 31"
        fill="#e3e3e3"/>
    <path
        id="path_1"
        d="M 30.999 16.998 C 29.414 16.998 27.874 17.537 26.635 18.525 C 25.395 19.514 24.527 20.895 24.175 22.44 C 23.822 23.986 24.004 25.607 24.692 27.035 C 25.38 28.464 26.533 29.617 27.962 30.305 C 29.39 30.993 31.011 31.175 32.557 30.822 C 34.102 30.47 35.483 29.602 36.472 28.362 C 37.46 27.123 37.999 25.583 37.999 23.998 C 37.999 22.142 37.261 20.361 35.949 19.048 C 34.636 17.736 32.855 16.998 30.999 16.998 Z M 30.999 18.998 C 32.325 18.998 33.597 19.525 34.535 20.462 C 35.472 21.4 35.999 22.672 35.999 23.998 C 35.999 25.324 35.472 26.596 34.535 27.534 C 33.597 28.471 32.325 28.998 30.999 28.998 C 29.673 28.998 28.401 28.471 27.463 27.534 C 26.526 26.596 25.999 25.324 25.999 23.998 C 25.999 22.672 26.526 21.4 27.463 20.462 C 28.401 19.525 29.673 18.998 30.999 18.998 Z"
        fill="#333333"
        fill-rule="evenodd"/>
    <path
        id="path_2"
        d="M 18.999 42.998 L 31.499 42.998 C 31.764 42.998 32.019 43.103 32.206 43.291 C 32.394 43.478 32.499 43.733 32.499 43.998 C 32.499 44.263 32.394 44.518 32.206 44.705 C 32.019 44.893 31.764 44.998 31.499 44.998 L 17.999 44.998 C 17.734 44.998 17.479 44.893 17.292 44.705 C 17.104 44.518 16.999 44.263 16.999 43.998 L 16.999 41.998 C 16.999 39.612 17.948 37.321 19.635 35.634 C 21.322 33.947 23.613 32.998 25.999 32.998 L 31.499 32.998 C 31.764 32.998 32.019 33.103 32.206 33.291 C 32.394 33.478 32.499 33.733 32.499 33.998 C 32.499 34.263 32.394 34.518 32.206 34.705 C 32.019 34.893 31.764 34.998 31.499 34.998 L 25.999 34.998 C 24.143 34.998 22.362 35.736 21.049 37.048 C 19.737 38.361 18.999 40.142 18.999 41.998 Z"
        fill="#333333"
        fill-rule="evenodd"/>
    <path
        id="path_3"
        d="M 39.499 32.998 C 37.776 32.998 36.121 33.683 34.903 34.902 C 33.684 36.12 32.999 37.775 32.999 39.498 C 32.999 41.221 33.684 42.876 34.903 44.094 C 36.121 45.313 37.776 45.998 39.499 45.998 C 41.222 45.998 42.877 45.313 44.095 44.094 C 45.314 42.876 45.999 41.221 45.999 39.498 C 45.999 37.775 45.314 36.12 44.095 34.902 C 42.877 33.683 41.222 32.998 39.499 32.998 Z M 39.499 34.998 C 40.692 34.998 41.837 35.472 42.681 36.316 C 43.525 37.16 43.999 38.305 43.999 39.498 C 43.999 40.691 43.525 41.836 42.681 42.68 C 41.837 43.524 40.692 43.998 39.499 43.998 C 38.306 43.998 37.161 43.524 36.317 42.68 C 35.473 41.836 34.999 40.691 34.999 39.498 C 34.999 38.305 35.473 37.16 36.317 36.316 C 37.161 35.472 38.306 34.998 39.499 34.998 Z"
        fill="#333333"
        fill-rule="evenodd"/>
    <path
        id="path_4"
        d="M 42.676 34.898 L 34.899 42.674 C 34.717 42.863 34.616 43.115 34.618 43.377 C 34.621 43.64 34.726 43.89 34.911 44.076 C 35.097 44.261 35.347 44.366 35.61 44.369 C 35.872 44.371 36.124 44.27 36.313 44.088 L 44.088 36.313 C 44.266 36.124 44.363 35.873 44.359 35.613 C 44.356 35.354 44.251 35.105 44.067 34.922 C 43.884 34.738 43.636 34.632 43.376 34.628 C 43.117 34.624 42.866 34.721 42.676 34.898 Z"
        fill="#333333"
        fill-rule="evenodd"/>
</svg>
