<svg
    xmlns="http://www.w3.org/2000/svg"
    viewBox="0 0 361 641"
    id="vector">
    <path
        id="path"
        d="M 181.115 0.73 L 181.115 216.24"
        fill="#00000000"
        fill-opacity="0.05"
        stroke="#417ef9"
        stroke-opacity="0.05"
        stroke-width="2"/>
    <path
        id="path_1"
        d="M 141.115 0.73 L 141.115 64.403"
        fill="#00000000"
        fill-opacity="0.05"
        stroke="#417ef9"
        stroke-opacity="0.05"
        stroke-width="2"/>
    <path
        id="path_2"
        d="M 161.523 0.73 L 161.523 83.995"
        fill="#00000000"
        fill-opacity="0.05"
        stroke="#417ef9"
        stroke-opacity="0.05"
        stroke-width="2"/>
    <path
        id="path_3"
        d="M 195.809 0.73 L 195.809 70.118"
        fill="#00000000"
        fill-opacity="0.05"
        stroke="#417ef9"
        stroke-opacity="0.05"
        stroke-width="2"/>
    <path
        id="path_4"
        d="M 0.707 106.852 L 75.809 181.954"
        fill="#00000000"
        fill-opacity="0.05"
        stroke="#417ef9"
        stroke-opacity="0.05"
        stroke-width="2"/>
    <path
        id="path_5"
        d="M 292.136 181.954 L 360.707 114.199"
        fill="#00000000"
        fill-opacity="0.05"
        stroke="#417ef9"
        stroke-opacity="0.05"
        stroke-width="2"/>
    <path
        id="path_6"
        d="M 49.687 92.975 L 79.075 122.363"
        fill="#00000000"
        fill-opacity="0.05"
        stroke="#417ef9"
        stroke-opacity="0.05"
        stroke-width="2"/>
    <path
        id="path_7"
        d="M 281.523 122.363 L 311.727 92.975"
        fill="#00000000"
        fill-opacity="0.05"
        stroke="#417ef9"
        stroke-opacity="0.05"
        stroke-width="2"/>
    <path
        id="path_8"
        d="M 343.564 57.057 L 360.707 39.914"
        fill="#00000000"
        fill-opacity="0.05"
        stroke="#417ef9"
        stroke-opacity="0.05"
        stroke-width="2"/>
    <path
        id="path_9"
        d="M 17.85 57.057 L 0.707 39.914"
        fill="#00000000"
        fill-opacity="0.05"
        stroke="#417ef9"
        stroke-opacity="0.05"
        stroke-width="2"/>
    <path
        id="path_10"
        d="M 121.523 0.73 L 121.523 24.403"
        fill="#00000000"
        fill-opacity="0.05"
        stroke="#417ef9"
        stroke-opacity="0.05"
        stroke-width="2"/>
    <path
        id="path_11"
        d="M 299.483 79.097 L 360.707 19.505"
        fill="#00000000"
        fill-opacity="0.05"
        stroke="#417ef9"
        stroke-opacity="0.05"
        stroke-width="2"/>
    <path
        id="path_12"
        d="M 61.116 79.097 L 2.34 19.505"
        fill="#00000000"
        fill-opacity="0.05"
        stroke="#417ef9"
        stroke-opacity="0.05"
        stroke-width="2"/>
    <path
        id="path_13"
        d="M 336.217 180.322 L 360.707 180.322"
        fill="#00000000"
        fill-opacity="0.05"
        stroke="#417ef9"
        stroke-opacity="0.05"
        stroke-width="2"/>
    <path
        id="path_14"
        d="M 0.707 183.587 L 17.85 183.587"
        fill="#00000000"
        fill-opacity="0.05"
        stroke="#417ef9"
        stroke-opacity="0.05"
        stroke-width="2"/>
    <path
        id="path_15"
        d="M 303.564 268.485 L 360.707 268.485"
        fill="#00000000"
        fill-opacity="0.05"
        stroke="#417ef9"
        stroke-opacity="0.05"
        stroke-width="2"/>
    <path
        id="path_16"
        d="M 324.789 304.403 L 360.707 304.403"
        fill="#00000000"
        fill-opacity="0.05"
        stroke="#417ef9"
        stroke-opacity="0.05"
        stroke-width="2"/>
    <path
        id="path_17"
        d="M 0.707 286.444 L 70.095 286.444"
        fill="#00000000"
        fill-opacity="0.05"
        stroke="#417ef9"
        stroke-opacity="0.05"
        stroke-width="2"/>
    <path
        id="path_18"
        d="M 0.707 268.485 L 35.809 268.485"
        fill="#00000000"
        fill-opacity="0.05"
        stroke="#417ef9"
        stroke-opacity="0.05"
        stroke-width="2"/>
    <path
        id="path_19"
        d="M 0.707 304.403 L 17.85 304.403"
        fill="#00000000"
        fill-opacity="0.05"
        stroke="#417ef9"
        stroke-opacity="0.05"
        stroke-width="2"/>
    <path
        id="path_20"
        d="M 354.993 286.444 L 360.707 286.444"
        fill="#00000000"
        fill-opacity="0.05"
        stroke="#417ef9"
        stroke-opacity="0.05"
        stroke-width="2"/>
    <path
        id="path_21"
        d="M 83.156 0.73 L 96.217 12.975"
        fill="#00000000"
        fill-opacity="0.05"
        stroke="#417ef9"
        stroke-opacity="0.05"
        stroke-width="2"/>
    <path
        id="path_22"
        d="M 0.707 129.71 L 17.85 146.853"
        fill="#00000000"
        fill-opacity="0.05"
        stroke="#417ef9"
        stroke-opacity="0.05"
        stroke-width="2"/>
    <path
        id="path_23"
        d="M 13.36 6.853 L 84.38 76.241 L 84.38 101.547 L 109.28 127.67 L 109.28 157.87"
        fill="#00000000"
        fill-opacity="0.05"
        stroke="#417ef9"
        stroke-opacity="0.05"
        stroke-width="2"/>
    <path
        id="path_24"
        d="M 40.299 0.73 L 105.605 68.077 L 105.605 92.977 L 132.544 121.14 L 132.544 192.161"
        fill="#00000000"
        fill-opacity="0.05"
        stroke="#417ef9"
        stroke-opacity="0.05"
        stroke-width="2"/>
    <path
        id="path_25"
        d="M 64.38 0.73 L 122.544 58.894 L 122.544 86.853 L 148.87 114.2 L 148.87 163.588"
        fill="#00000000"
        fill-opacity="0.05"
        stroke="#417ef9"
        stroke-opacity="0.05"
        stroke-width="2"/>
    <path
        id="path_26"
        d="M 0.707 228.076 C 1.523 228.484 22.748 228.076 22.748 228.076 L 35.401 216.24 L 72.544 216.24"
        fill="#00000000"
        fill-opacity="0.05"
        stroke="#417ef9"
        stroke-opacity="0.05"
        stroke-width="2"/>
    <path
        id="path_27"
        d="M 40.299 240.322 L 30.087 250.534 L 1.523 250.534"
        fill="#00000000"
        fill-opacity="0.05"
        stroke="#417ef9"
        stroke-opacity="0.05"
        stroke-width="2"/>
    <path
        id="path_28"
        d="M 292.136 216.24 L 330.095 216.24 L 342.748 229.301 L 359.891 229.301"
        fill="#00000000"
        fill-opacity="0.05"
        stroke="#417ef9"
        stroke-opacity="0.05"
        stroke-width="2"/>
    <path
        id="path_29"
        d="M 324.789 240.322 L 332.544 252.158 L 360.299 252.158"
        fill="#00000000"
        fill-opacity="0.05"
        stroke="#417ef9"
        stroke-opacity="0.05"
        stroke-width="2"/>
    <path
        id="path_30"
        d="M 181.115 106.853 L 194.999 120.737 L 194.999 142.771"
        fill="#00000000"
        fill-opacity="0.05"
        stroke="#417ef9"
        stroke-opacity="0.05"
        stroke-width="2"/>
    <path
        id="path_31"
        d="M 269.279 0.73 L 220.707 53.383 L 220.707 63.583"
        fill="#00000000"
        fill-opacity="0.05"
        stroke="#417ef9"
        stroke-opacity="0.05"
        stroke-width="2"/>
    <path
        id="path_32"
        d="M 348.462 3.996 L 277.033 77.466 L 277.033 103.18 L 250.911 130.527 L 250.911 157.058"
        fill="#00000000"
        fill-opacity="0.05"
        stroke="#417ef9"
        stroke-opacity="0.05"
        stroke-width="2"/>
    <path
        id="path_33"
        d="M 324.789 0.73 L 260.503 65.016 L 260.503 94.2 L 233.361 122.364 L 233.361 177.874"
        fill="#00000000"
        fill-opacity="0.05"
        stroke="#417ef9"
        stroke-opacity="0.05"
        stroke-width="2"/>
    <path
        id="path_34"
        d="M 302.952 0.73 L 240.805 62.06 L 240.805 86.444 L 217.633 109.616 L 217.633 140.73"
        fill="#00000000"
        fill-opacity="0.05"
        stroke="#417ef9"
        stroke-opacity="0.05"
        stroke-width="2"/>
    <path
        id="path_35"
        d="M 101.207 19.315 M 94.707 19.315 C 94.707 17.943 95.142 16.605 95.948 15.494 C 96.755 14.384 97.893 13.557 99.198 13.133 C 100.504 12.709 101.91 12.709 103.216 13.133 C 104.521 13.557 105.659 14.384 106.466 15.494 C 107.272 16.605 107.707 17.943 107.707 19.315 C 107.707 20.687 107.272 22.025 106.466 23.136 C 105.659 24.246 104.521 25.073 103.216 25.497 C 101.91 25.921 100.504 25.921 99.198 25.497 C 97.893 25.073 96.755 24.246 95.948 23.136 C 95.142 22.025 94.707 20.687 94.707 19.315"
        fill="#00000000"
        fill-opacity="0.05"
        stroke="#417ef9"
        stroke-opacity="0.05"
        stroke-width="2"/>
    <path
        id="path_36"
        d="M 121.207 31.315 M 114.707 31.315 C 114.707 29.592 115.392 27.937 116.611 26.719 C 117.829 25.5 119.484 24.815 121.207 24.815 C 122.93 24.815 124.585 25.5 125.803 26.719 C 127.022 27.937 127.707 29.592 127.707 31.315 C 127.707 33.038 127.022 34.693 125.803 35.911 C 124.585 37.13 122.93 37.815 121.207 37.815 C 119.484 37.815 117.829 37.13 116.611 35.911 C 115.392 34.693 114.707 33.038 114.707 31.315"
        fill="#00000000"
        fill-opacity="0.05"
        stroke="#417ef9"
        stroke-opacity="0.05"
        stroke-width="2"/>
    <path
        id="path_37"
        d="M 15.707 63.315 C 15.702 64.69 16.168 66.032 17.036 67.146 C 17.904 68.26 19.131 69.09 20.54 69.516 C 21.948 69.942 23.466 69.942 24.874 69.516 C 26.283 69.09 27.51 68.26 28.378 67.146 C 29.246 66.032 29.712 64.69 29.707 63.315 C 29.712 61.94 29.246 60.598 28.378 59.484 C 27.51 58.37 26.283 57.54 24.874 57.114 C 23.466 56.688 21.948 56.688 20.54 57.114 C 19.131 57.54 17.904 58.37 17.036 59.484 C 16.168 60.598 15.702 61.94 15.707 63.315 Z"
        fill="#00000000"
        fill-opacity="0.05"
        stroke="#417ef9"
        stroke-opacity="0.05"
        stroke-width="2"/>
    <path
        id="path_38"
        d="M 37.707 87.315 C 37.707 89.038 38.445 90.693 39.757 91.911 C 41.07 93.13 42.851 93.815 44.707 93.815 C 46.563 93.815 48.344 93.13 49.657 91.911 C 50.969 90.693 51.707 89.038 51.707 87.315 C 51.707 85.592 50.969 83.937 49.657 82.719 C 48.344 81.5 46.563 80.815 44.707 80.815 C 42.851 80.815 41.07 81.5 39.757 82.719 C 38.445 83.937 37.707 85.592 37.707 87.315 Z"
        fill="#00000000"
        fill-opacity="0.05"
        stroke="#417ef9"
        stroke-opacity="0.05"
        stroke-width="2"/>
    <path
        id="path_39"
        d="M 59.707 84.315 C 59.707 86.038 60.445 87.693 61.757 88.911 C 63.07 90.13 64.851 90.815 66.707 90.815 C 68.563 90.815 70.344 90.13 71.657 88.911 C 72.969 87.693 73.707 86.038 73.707 84.315 C 73.707 82.592 72.969 80.937 71.657 79.719 C 70.344 78.5 68.563 77.815 66.707 77.815 C 64.851 77.815 63.07 78.5 61.757 79.719 C 60.445 80.937 59.707 82.592 59.707 84.315 Z"
        fill="#00000000"
        fill-opacity="0.05"
        stroke="#417ef9"
        stroke-opacity="0.05"
        stroke-width="2"/>
    <path
        id="path_40"
        d="M 134.707 71.815 C 134.707 73.671 135.392 75.452 136.611 76.765 C 137.829 78.077 139.484 78.815 141.207 78.815 C 142.93 78.815 144.585 78.077 145.803 76.765 C 147.022 75.452 147.707 73.671 147.707 71.815 C 147.707 69.959 147.022 68.178 145.803 66.865 C 144.585 65.553 142.93 64.815 141.207 64.815 C 139.484 64.815 137.829 65.553 136.611 66.865 C 135.392 68.178 134.707 69.959 134.707 71.815 Z"
        fill="#00000000"
        fill-opacity="0.05"
        stroke="#417ef9"
        stroke-opacity="0.05"
        stroke-width="2"/>
    <path
        id="path_41"
        d="M 161.707 91.815 M 154.707 91.815 C 154.707 89.959 155.445 88.178 156.757 86.865 C 158.07 85.553 159.851 84.815 161.707 84.815 C 163.563 84.815 165.344 85.553 166.657 86.865 C 167.969 88.178 168.707 89.959 168.707 91.815 C 168.707 93.671 167.969 95.452 166.657 96.765 C 165.344 98.077 163.563 98.815 161.707 98.815 C 159.851 98.815 158.07 98.077 156.757 96.765 C 155.445 95.452 154.707 93.671 154.707 91.815"
        fill="#00000000"
        fill-opacity="0.05"
        stroke="#417ef9"
        stroke-opacity="0.05"
        stroke-width="2"/>
    <path
        id="path_42"
        d="M 195.207 150.315 M 188.707 150.315 C 188.707 148.592 189.392 146.937 190.611 145.719 C 191.829 144.5 193.484 143.815 195.207 143.815 C 196.93 143.815 198.585 144.5 199.803 145.719 C 201.022 146.937 201.707 148.592 201.707 150.315 C 201.707 152.038 201.022 153.693 199.803 154.911 C 198.585 156.13 196.93 156.815 195.207 156.815 C 193.484 156.815 191.829 156.13 190.611 154.911 C 189.392 153.693 188.707 152.038 188.707 150.315"
        fill="#00000000"
        fill-opacity="0.05"
        stroke="#417ef9"
        stroke-opacity="0.05"
        stroke-width="2"/>
    <path
        id="path_43"
        d="M 149.207 171.315 M 142.707 171.315 C 142.707 169.592 143.392 167.937 144.611 166.719 C 145.829 165.5 147.484 164.815 149.207 164.815 C 150.93 164.815 152.585 165.5 153.803 166.719 C 155.022 167.937 155.707 169.592 155.707 171.315 C 155.707 173.038 155.022 174.693 153.803 175.911 C 152.585 177.13 150.93 177.815 149.207 177.815 C 147.484 177.815 145.829 177.13 144.611 175.911 C 143.392 174.693 142.707 173.038 142.707 171.315"
        fill="#00000000"
        fill-opacity="0.05"
        stroke="#417ef9"
        stroke-opacity="0.05"
        stroke-width="2"/>
    <path
        id="path_44"
        d="M 109.207 165.315 M 102.707 165.315 C 102.703 163.94 103.135 162.598 103.941 161.484 C 104.747 160.37 105.887 159.54 107.194 159.114 C 108.502 158.688 109.912 158.688 111.22 159.114 C 112.527 159.54 113.667 160.37 114.473 161.484 C 115.279 162.598 115.711 163.94 115.707 165.315 C 115.711 166.69 115.279 168.032 114.473 169.146 C 113.667 170.26 112.527 171.09 111.22 171.516 C 109.912 171.942 108.502 171.942 107.194 171.516 C 105.887 171.09 104.747 170.26 103.941 169.146 C 103.135 168.032 102.703 166.69 102.707 165.315"
        fill="#00000000"
        fill-opacity="0.05"
        stroke="#417ef9"
        stroke-opacity="0.05"
        stroke-width="2"/>
    <path
        id="path_45"
        d="M 132.707 199.815 M 125.707 199.815 C 125.707 197.959 126.445 196.178 127.757 194.865 C 129.07 193.553 130.851 192.815 132.707 192.815 C 134.563 192.815 136.344 193.553 137.657 194.865 C 138.969 196.178 139.707 197.959 139.707 199.815 C 139.707 201.671 138.969 203.452 137.657 204.765 C 136.344 206.077 134.563 206.815 132.707 206.815 C 130.851 206.815 129.07 206.077 127.757 204.765 C 126.445 203.452 125.707 201.671 125.707 199.815"
        fill="#00000000"
        fill-opacity="0.05"
        stroke="#417ef9"
        stroke-opacity="0.05"
        stroke-width="2"/>
    <path
        id="path_46"
        d="M 25.707 183.815 M 18.707 183.815 C 18.707 182.337 19.175 180.896 20.044 179.701 C 20.913 178.505 22.138 177.614 23.544 177.158 C 24.95 176.701 26.464 176.701 27.87 177.158 C 29.276 177.614 30.501 178.505 31.37 179.701 C 32.239 180.896 32.707 182.337 32.707 183.815 C 32.707 185.293 32.239 186.734 31.37 187.929 C 30.501 189.125 29.276 190.016 27.87 190.472 C 26.464 190.929 24.95 190.929 23.544 190.472 C 22.138 190.016 20.913 189.125 20.044 187.929 C 19.175 186.734 18.707 185.293 18.707 183.815"
        fill="#00000000"
        fill-opacity="0.05"
        stroke="#417ef9"
        stroke-opacity="0.05"
        stroke-width="2"/>
    <path
        id="path_47"
        d="M 80.207 216.315 M 73.707 216.315 C 73.707 214.592 74.392 212.937 75.611 211.719 C 76.829 210.5 78.484 209.815 80.207 209.815 C 81.93 209.815 83.585 210.5 84.803 211.719 C 86.022 212.937 86.707 214.592 86.707 216.315 C 86.707 218.038 86.022 219.693 84.803 220.911 C 83.585 222.13 81.93 222.815 80.207 222.815 C 78.484 222.815 76.829 222.13 75.611 220.911 C 74.392 219.693 73.707 218.038 73.707 216.315"
        fill="#00000000"
        fill-opacity="0.05"
        stroke="#417ef9"
        stroke-opacity="0.05"
        stroke-width="2"/>
    <path
        id="path_48"
        d="M 285.207 216.315 M 278.707 216.315 C 278.707 214.592 279.392 212.937 280.611 211.719 C 281.829 210.5 283.484 209.815 285.207 209.815 C 286.93 209.815 288.585 210.5 289.803 211.719 C 291.022 212.937 291.707 214.592 291.707 216.315 C 291.707 218.038 291.022 219.693 289.803 220.911 C 288.585 222.13 286.93 222.815 285.207 222.815 C 283.484 222.815 281.829 222.13 280.611 220.911 C 279.392 219.693 278.707 218.038 278.707 216.315"
        fill="#00000000"
        fill-opacity="0.05"
        stroke="#417ef9"
        stroke-opacity="0.05"
        stroke-width="2"/>
    <path
        id="path_49"
        d="M 296.707 268.815 M 289.707 268.815 C 289.707 266.959 290.445 265.178 291.757 263.865 C 293.07 262.553 294.851 261.815 296.707 261.815 C 298.563 261.815 300.344 262.553 301.657 263.865 C 302.969 265.178 303.707 266.959 303.707 268.815 C 303.707 270.671 302.969 272.452 301.657 273.765 C 300.344 275.077 298.563 275.815 296.707 275.815 C 294.851 275.815 293.07 275.077 291.757 273.765 C 290.445 272.452 289.707 270.671 289.707 268.815"
        fill="#00000000"
        fill-opacity="0.05"
        stroke="#417ef9"
        stroke-opacity="0.05"
        stroke-width="2"/>
    <path
        id="path_50"
        d="M 35.707 268.815 C 35.707 270.671 36.392 272.452 37.611 273.765 C 38.829 275.077 40.484 275.815 42.207 275.815 C 43.93 275.815 45.585 275.077 46.803 273.765 C 48.022 272.452 48.707 270.671 48.707 268.815 C 48.707 266.959 48.022 265.178 46.803 263.865 C 45.585 262.553 43.93 261.815 42.207 261.815 C 40.484 261.815 38.829 262.553 37.611 263.865 C 36.392 265.178 35.707 266.959 35.707 268.815 Z"
        fill="#00000000"
        fill-opacity="0.05"
        stroke="#417ef9"
        stroke-opacity="0.05"
        stroke-width="2"/>
    <path
        id="path_51"
        d="M 18.707 304.315 C 18.707 305.687 19.175 307.025 20.044 308.136 C 20.913 309.246 22.138 310.073 23.544 310.497 C 24.95 310.921 26.464 310.921 27.87 310.497 C 29.276 310.073 30.501 309.246 31.37 308.136 C 32.239 307.025 32.707 305.687 32.707 304.315 C 32.707 302.943 32.239 301.605 31.37 300.494 C 30.501 299.384 29.276 298.557 27.87 298.133 C 26.464 297.709 24.95 297.709 23.544 298.133 C 22.138 298.557 20.913 299.384 20.044 300.494 C 19.175 301.605 18.707 302.943 18.707 304.315 Z"
        fill="#00000000"
        fill-opacity="0.05"
        stroke="#417ef9"
        stroke-opacity="0.05"
        stroke-width="2"/>
    <path
        id="path_52"
        d="M 77.207 286.315 M 70.707 286.315 C 70.707 284.592 71.392 282.937 72.611 281.719 C 73.829 280.5 75.484 279.815 77.207 279.815 C 78.93 279.815 80.585 280.5 81.803 281.719 C 83.022 282.937 83.707 284.592 83.707 286.315 C 83.707 288.038 83.022 289.693 81.803 290.911 C 80.585 292.13 78.93 292.815 77.207 292.815 C 75.484 292.815 73.829 292.13 72.611 290.911 C 71.392 289.693 70.707 288.038 70.707 286.315"
        fill="#00000000"
        fill-opacity="0.05"
        stroke="#417ef9"
        stroke-opacity="0.05"
        stroke-width="2"/>
    <path
        id="path_53"
        d="M 348.207 286.315 M 341.707 286.315 C 341.707 284.592 342.392 282.937 343.611 281.719 C 344.829 280.5 346.484 279.815 348.207 279.815 C 349.93 279.815 351.585 280.5 352.803 281.719 C 354.022 282.937 354.707 284.592 354.707 286.315 C 354.707 288.038 354.022 289.693 352.803 290.911 C 351.585 292.13 349.93 292.815 348.207 292.815 C 346.484 292.815 344.829 292.13 343.611 290.911 C 342.392 289.693 341.707 288.038 341.707 286.315"
        fill="#00000000"
        fill-opacity="0.05"
        stroke="#417ef9"
        stroke-opacity="0.05"
        stroke-width="2"/>
    <path
        id="path_54"
        d="M 311.707 304.315 C 311.707 306.038 312.445 307.693 313.757 308.911 C 315.07 310.13 316.851 310.815 318.707 310.815 C 320.563 310.815 322.344 310.13 323.657 308.911 C 324.969 307.693 325.707 306.038 325.707 304.315 C 325.707 302.592 324.969 300.937 323.657 299.719 C 322.344 298.5 320.563 297.815 318.707 297.815 C 316.851 297.815 315.07 298.5 313.757 299.719 C 312.445 300.937 311.707 302.592 311.707 304.315 Z"
        fill="#00000000"
        fill-opacity="0.05"
        stroke="#417ef9"
        stroke-opacity="0.05"
        stroke-width="2"/>
    <path
        id="path_55"
        d="M 321.207 234.315 M 314.707 234.315 C 314.707 232.592 315.392 230.937 316.611 229.719 C 317.829 228.5 319.484 227.815 321.207 227.815 C 322.93 227.815 324.585 228.5 325.803 229.719 C 327.022 230.937 327.707 232.592 327.707 234.315 C 327.707 236.038 327.022 237.693 325.803 238.911 C 324.585 240.13 322.93 240.815 321.207 240.815 C 319.484 240.815 317.829 240.13 316.611 238.911 C 315.392 237.693 314.707 236.038 314.707 234.315"
        fill="#00000000"
        fill-opacity="0.05"
        stroke="#417ef9"
        stroke-opacity="0.05"
        stroke-width="2"/>
    <path
        id="path_56"
        d="M 37.707 234.315 C 37.707 236.038 38.445 237.693 39.757 238.911 C 41.07 240.13 42.851 240.815 44.707 240.815 C 46.563 240.815 48.344 240.13 49.657 238.911 C 50.969 237.693 51.707 236.038 51.707 234.315 C 51.707 232.592 50.969 230.937 49.657 229.719 C 48.344 228.5 46.563 227.815 44.707 227.815 C 42.851 227.815 41.07 228.5 39.757 229.719 C 38.445 230.937 37.707 232.592 37.707 234.315 Z"
        fill="#00000000"
        fill-opacity="0.05"
        stroke="#417ef9"
        stroke-opacity="0.05"
        stroke-width="2"/>
    <path
        id="path_57"
        d="M 180.707 223.815 M 173.707 223.815 C 173.707 221.959 174.445 220.178 175.757 218.865 C 177.07 217.553 178.851 216.815 180.707 216.815 C 182.563 216.815 184.344 217.553 185.657 218.865 C 186.969 220.178 187.707 221.959 187.707 223.815 C 187.707 225.671 186.969 227.452 185.657 228.765 C 184.344 230.077 182.563 230.815 180.707 230.815 C 178.851 230.815 177.07 230.077 175.757 228.765 C 174.445 227.452 173.707 225.671 173.707 223.815"
        fill="#00000000"
        fill-opacity="0.05"
        stroke="#417ef9"
        stroke-opacity="0.05"
        stroke-width="2"/>
    <path
        id="path_58"
        d="M 321.707 179.815 C 321.707 181.671 322.392 183.452 323.611 184.765 C 324.829 186.077 326.484 186.815 328.207 186.815 C 329.93 186.815 331.585 186.077 332.803 184.765 C 334.022 183.452 334.707 181.671 334.707 179.815 C 334.707 177.959 334.022 176.178 332.803 174.865 C 331.585 173.553 329.93 172.815 328.207 172.815 C 326.484 172.815 324.829 173.553 323.611 174.865 C 322.392 176.178 321.707 177.959 321.707 179.815 Z"
        fill="#00000000"
        fill-opacity="0.05"
        stroke="#417ef9"
        stroke-opacity="0.05"
        stroke-width="2"/>
    <path
        id="path_59"
        d="M 195.207 77.315 M 188.707 77.315 C 188.707 75.592 189.392 73.937 190.611 72.719 C 191.829 71.5 193.484 70.815 195.207 70.815 C 196.93 70.815 198.585 71.5 199.803 72.719 C 201.022 73.937 201.707 75.592 201.707 77.315 C 201.707 79.038 201.022 80.693 199.803 81.911 C 198.585 83.13 196.93 83.815 195.207 83.815 C 193.484 83.815 191.829 83.13 190.611 81.911 C 189.392 80.693 188.707 79.038 188.707 77.315"
        fill="#00000000"
        fill-opacity="0.05"
        stroke="#417ef9"
        stroke-opacity="0.05"
        stroke-width="2"/>
    <path
        id="path_60"
        d="M 214.707 71.815 C 214.707 73.671 215.392 75.452 216.611 76.765 C 217.829 78.077 219.484 78.815 221.207 78.815 C 222.93 78.815 224.585 78.077 225.803 76.765 C 227.022 75.452 227.707 73.671 227.707 71.815 C 227.707 69.959 227.022 68.178 225.803 66.865 C 224.585 65.553 222.93 64.815 221.207 64.815 C 219.484 64.815 217.829 65.553 216.611 66.865 C 215.392 68.178 214.707 69.959 214.707 71.815 Z"
        fill="#00000000"
        fill-opacity="0.05"
        stroke="#417ef9"
        stroke-opacity="0.05"
        stroke-width="2"/>
    <path
        id="path_61"
        d="M 287.707 85.315 C 287.707 87.038 288.445 88.693 289.757 89.911 C 291.07 91.13 292.851 91.815 294.707 91.815 C 296.563 91.815 298.344 91.13 299.657 89.911 C 300.969 88.693 301.707 87.038 301.707 85.315 C 301.707 83.592 300.969 81.937 299.657 80.719 C 298.344 79.5 296.563 78.815 294.707 78.815 C 292.851 78.815 291.07 79.5 289.757 80.719 C 288.445 81.937 287.707 83.592 287.707 85.315 Z"
        fill="#00000000"
        fill-opacity="0.05"
        stroke="#417ef9"
        stroke-opacity="0.05"
        stroke-width="2"/>
    <path
        id="path_62"
        d="M 331.707 63.315 C 331.707 65.038 332.445 66.693 333.757 67.911 C 335.07 69.13 336.851 69.815 338.707 69.815 C 340.563 69.815 342.344 69.13 343.657 67.911 C 344.969 66.693 345.707 65.038 345.707 63.315 C 345.707 61.592 344.969 59.937 343.657 58.719 C 342.344 57.5 340.563 56.815 338.707 56.815 C 336.851 56.815 335.07 57.5 333.757 58.719 C 332.445 59.937 331.707 61.592 331.707 63.315 Z"
        fill="#00000000"
        fill-opacity="0.05"
        stroke="#417ef9"
        stroke-opacity="0.05"
        stroke-width="2"/>
    <path
        id="path_63"
        d="M 309.707 87.315 C 309.707 89.038 310.445 90.693 311.757 91.911 C 313.07 93.13 314.851 93.815 316.707 93.815 C 318.563 93.815 320.344 93.13 321.657 91.911 C 322.969 90.693 323.707 89.038 323.707 87.315 C 323.707 85.592 322.969 83.937 321.657 82.719 C 320.344 81.5 318.563 80.815 316.707 80.815 C 314.851 80.815 313.07 81.5 311.757 82.719 C 310.445 83.937 309.707 85.592 309.707 87.315 Z"
        fill="#00000000"
        fill-opacity="0.05"
        stroke="#417ef9"
        stroke-opacity="0.05"
        stroke-width="2"/>
    <path
        id="path_64"
        d="M 276.207 128.315 M 269.707 128.315 C 269.707 126.592 270.392 124.937 271.611 123.719 C 272.829 122.5 274.484 121.815 276.207 121.815 C 277.93 121.815 279.585 122.5 280.803 123.719 C 282.022 124.937 282.707 126.592 282.707 128.315 C 282.707 130.038 282.022 131.693 280.803 132.911 C 279.585 134.13 277.93 134.815 276.207 134.815 C 274.484 134.815 272.829 134.13 271.611 132.911 C 270.392 131.693 269.707 130.038 269.707 128.315"
        fill="#00000000"
        fill-opacity="0.05"
        stroke="#417ef9"
        stroke-opacity="0.05"
        stroke-width="2"/>
    <path
        id="path_65"
        d="M 287.207 187.315 M 280.707 187.315 C 280.707 185.592 281.392 183.937 282.611 182.719 C 283.829 181.5 285.484 180.815 287.207 180.815 C 288.93 180.815 290.585 181.5 291.803 182.719 C 293.022 183.937 293.707 185.592 293.707 187.315 C 293.707 189.038 293.022 190.693 291.803 191.911 C 290.585 193.13 288.93 193.815 287.207 193.815 C 285.484 193.815 283.829 193.13 282.611 191.911 C 281.392 190.693 280.707 189.038 280.707 187.315"
        fill="#00000000"
        fill-opacity="0.05"
        stroke="#417ef9"
        stroke-opacity="0.05"
        stroke-width="2"/>
    <path
        id="path_66"
        d="M 84.207 128.315 M 77.707 128.315 C 77.707 126.592 78.392 124.937 79.611 123.719 C 80.829 122.5 82.484 121.815 84.207 121.815 C 85.93 121.815 87.585 122.5 88.803 123.719 C 90.022 124.937 90.707 126.592 90.707 128.315 C 90.707 130.038 90.022 131.693 88.803 132.911 C 87.585 134.13 85.93 134.815 84.207 134.815 C 82.484 134.815 80.829 134.13 79.611 132.911 C 78.392 131.693 77.707 130.038 77.707 128.315"
        fill="#00000000"
        fill-opacity="0.05"
        stroke="#417ef9"
        stroke-opacity="0.05"
        stroke-width="2"/>
    <path
        id="path_67"
        d="M 244.707 164.315 C 244.707 166.038 245.445 167.693 246.757 168.911 C 248.07 170.13 249.851 170.815 251.707 170.815 C 253.563 170.815 255.344 170.13 256.657 168.911 C 257.969 167.693 258.707 166.038 258.707 164.315 C 258.707 162.592 257.969 160.937 256.657 159.719 C 255.344 158.5 253.563 157.815 251.707 157.815 C 249.851 157.815 248.07 158.5 246.757 159.719 C 245.445 160.937 244.707 162.592 244.707 164.315 Z"
        fill="#00000000"
        fill-opacity="0.05"
        stroke="#417ef9"
        stroke-opacity="0.05"
        stroke-width="2"/>
    <path
        id="path_68"
        d="M 218.207 148.315 M 211.707 148.315 C 211.707 146.592 212.392 144.937 213.611 143.719 C 214.829 142.5 216.484 141.815 218.207 141.815 C 219.93 141.815 221.585 142.5 222.803 143.719 C 224.022 144.937 224.707 146.592 224.707 148.315 C 224.707 150.038 224.022 151.693 222.803 152.911 C 221.585 154.13 219.93 154.815 218.207 154.815 C 216.484 154.815 214.829 154.13 213.611 152.911 C 212.392 151.693 211.707 150.038 211.707 148.315"
        fill="#00000000"
        fill-opacity="0.05"
        stroke="#417ef9"
        stroke-opacity="0.05"
        stroke-width="2"/>
    <path
        id="path_69"
        d="M 233.207 185.315 M 226.707 185.315 C 226.707 183.592 227.392 181.937 228.611 180.719 C 229.829 179.5 231.484 178.815 233.207 178.815 C 234.93 178.815 236.585 179.5 237.803 180.719 C 239.022 181.937 239.707 183.592 239.707 185.315 C 239.707 187.038 239.022 188.693 237.803 189.911 C 236.585 191.13 234.93 191.815 233.207 191.815 C 231.484 191.815 229.829 191.13 228.611 189.911 C 227.392 188.693 226.707 187.038 226.707 185.315"
        fill="#00000000"
        fill-opacity="0.05"
        stroke="#417ef9"
        stroke-opacity="0.05"
        stroke-width="2"/>
    <path
        id="path_70"
        d="M 16.707 151.315 C 16.707 152.687 17.175 154.025 18.044 155.136 C 18.913 156.246 20.138 157.073 21.544 157.497 C 22.95 157.921 24.464 157.921 25.87 157.497 C 27.276 157.073 28.501 156.246 29.37 155.136 C 30.239 154.025 30.707 152.687 30.707 151.315 C 30.707 149.943 30.239 148.605 29.37 147.494 C 28.501 146.384 27.276 145.557 25.87 145.133 C 24.464 144.709 22.95 144.709 21.544 145.133 C 20.138 145.557 18.913 146.384 18.044 147.494 C 17.175 148.605 16.707 149.943 16.707 151.315 Z"
        fill="#00000000"
        fill-opacity="0.05"
        stroke="#417ef9"
        stroke-opacity="0.05"
        stroke-width="2"/>
    <path
        id="path_71"
        d="M 82.207 186.315 M 75.707 186.315 C 75.707 184.592 76.392 182.937 77.611 181.719 C 78.829 180.5 80.484 179.815 82.207 179.815 C 83.93 179.815 85.585 180.5 86.803 181.719 C 88.022 182.937 88.707 184.592 88.707 186.315 C 88.707 188.038 88.022 189.693 86.803 190.911 C 85.585 192.13 83.93 192.815 82.207 192.815 C 80.484 192.815 78.829 192.13 77.611 190.911 C 76.392 189.693 75.707 188.038 75.707 186.315"
        fill="#00000000"
        fill-opacity="0.05"
        stroke="#417ef9"
        stroke-opacity="0.05"
        stroke-width="2"/>
    <path
        id="path_72"
        d="M 181.115 640.815 L 181.115 425.305"
        fill="#00000000"
        fill-opacity="0.05"
        stroke="#417ef9"
        stroke-opacity="0.05"
        stroke-width="2"/>
    <path
        id="path_73"
        d="M 141.115 640.815 L 141.115 577.142"
        fill="#00000000"
        fill-opacity="0.05"
        stroke="#417ef9"
        stroke-opacity="0.05"
        stroke-width="2"/>
    <path
        id="path_74"
        d="M 161.523 640.815 L 161.523 557.55"
        fill="#00000000"
        fill-opacity="0.05"
        stroke="#417ef9"
        stroke-opacity="0.05"
        stroke-width="2"/>
    <path
        id="path_75"
        d="M 195.809 640.815 L 195.809 571.427"
        fill="#00000000"
        fill-opacity="0.05"
        stroke="#417ef9"
        stroke-opacity="0.05"
        stroke-width="2"/>
    <path
        id="path_76"
        d="M 0.707 534.693 L 75.809 459.591"
        fill="#00000000"
        fill-opacity="0.05"
        stroke="#417ef9"
        stroke-opacity="0.05"
        stroke-width="2"/>
    <path
        id="path_77"
        d="M 292.136 459.591 L 360.707 527.346"
        fill="#00000000"
        fill-opacity="0.05"
        stroke="#417ef9"
        stroke-opacity="0.05"
        stroke-width="2"/>
    <path
        id="path_78"
        d="M 49.687 548.57 L 79.075 519.182"
        fill="#00000000"
        fill-opacity="0.05"
        stroke="#417ef9"
        stroke-opacity="0.05"
        stroke-width="2"/>
    <path
        id="path_79"
        d="M 281.523 519.182 L 311.727 548.57"
        fill="#00000000"
        fill-opacity="0.05"
        stroke="#417ef9"
        stroke-opacity="0.05"
        stroke-width="2"/>
    <path
        id="path_80"
        d="M 343.564 584.488 L 360.707 601.631"
        fill="#00000000"
        fill-opacity="0.05"
        stroke="#417ef9"
        stroke-opacity="0.05"
        stroke-width="2"/>
    <path
        id="path_81"
        d="M 17.85 584.488 L 0.707 601.631"
        fill="#00000000"
        fill-opacity="0.05"
        stroke="#417ef9"
        stroke-opacity="0.05"
        stroke-width="2"/>
    <path
        id="path_82"
        d="M 121.523 640.815 L 121.523 617.142"
        fill="#00000000"
        fill-opacity="0.05"
        stroke="#417ef9"
        stroke-opacity="0.05"
        stroke-width="2"/>
    <path
        id="path_83"
        d="M 299.482 562.448 L 360.706 622.04"
        fill="#00000000"
        fill-opacity="0.05"
        stroke="#417ef9"
        stroke-opacity="0.05"
        stroke-width="2"/>
    <path
        id="path_84"
        d="M 61.116 562.448 L 2.34 622.04"
        fill="#00000000"
        fill-opacity="0.05"
        stroke="#417ef9"
        stroke-opacity="0.05"
        stroke-width="2"/>
    <path
        id="path_85"
        d="M 336.217 461.223 L 360.707 461.223"
        fill="#00000000"
        fill-opacity="0.05"
        stroke="#417ef9"
        stroke-opacity="0.05"
        stroke-width="2"/>
    <path
        id="path_86"
        d="M 0.707 457.958 L 17.85 457.958"
        fill="#00000000"
        fill-opacity="0.05"
        stroke="#417ef9"
        stroke-opacity="0.05"
        stroke-width="2"/>
    <path
        id="path_87"
        d="M 303.564 373.06 L 360.707 373.06"
        fill="#00000000"
        fill-opacity="0.05"
        stroke="#417ef9"
        stroke-opacity="0.05"
        stroke-width="2"/>
    <path
        id="path_88"
        d="M 324.789 337.142 L 360.707 337.142"
        fill="#00000000"
        fill-opacity="0.05"
        stroke="#417ef9"
        stroke-opacity="0.05"
        stroke-width="2"/>
    <path
        id="path_89"
        d="M 0.707 355.101 L 70.095 355.101"
        fill="#00000000"
        fill-opacity="0.05"
        stroke="#417ef9"
        stroke-opacity="0.05"
        stroke-width="2"/>
    <path
        id="path_90"
        d="M 0.707 373.06 L 35.809 373.06"
        fill="#00000000"
        fill-opacity="0.05"
        stroke="#417ef9"
        stroke-opacity="0.05"
        stroke-width="2"/>
    <path
        id="path_91"
        d="M 0.707 337.142 L 17.85 337.142"
        fill="#00000000"
        fill-opacity="0.05"
        stroke="#417ef9"
        stroke-opacity="0.05"
        stroke-width="2"/>
    <path
        id="path_92"
        d="M 354.993 355.101 L 360.707 355.101"
        fill="#00000000"
        fill-opacity="0.05"
        stroke="#417ef9"
        stroke-opacity="0.05"
        stroke-width="2"/>
    <path
        id="path_93"
        d="M 83.156 640.815 L 96.217 628.57"
        fill="#00000000"
        fill-opacity="0.05"
        stroke="#417ef9"
        stroke-opacity="0.05"
        stroke-width="2"/>
    <path
        id="path_94"
        d="M 0.707 511.836 L 17.85 494.693"
        fill="#00000000"
        fill-opacity="0.05"
        stroke="#417ef9"
        stroke-opacity="0.05"
        stroke-width="2"/>
    <path
        id="path_95"
        d="M 13.36 634.693 L 84.38 565.305 L 84.38 539.999 L 109.28 513.876 L 109.28 483.672"
        fill="#00000000"
        fill-opacity="0.05"
        stroke="#417ef9"
        stroke-opacity="0.05"
        stroke-width="2"/>
    <path
        id="path_96"
        d="M 40.299 640.815 L 105.605 573.468 L 105.605 548.568 L 132.544 520.405 L 132.544 449.386"
        fill="#00000000"
        fill-opacity="0.05"
        stroke="#417ef9"
        stroke-opacity="0.05"
        stroke-width="2"/>
    <path
        id="path_97"
        d="M 64.38 640.815 L 122.544 582.651 L 122.544 554.692 L 148.87 527.345 L 148.87 477.958"
        fill="#00000000"
        fill-opacity="0.05"
        stroke="#417ef9"
        stroke-opacity="0.05"
        stroke-width="2"/>
    <path
        id="path_98"
        d="M 0.707 413.468 C 1.523 413.06 22.748 413.468 22.748 413.468 L 35.401 425.304 L 72.544 425.304"
        fill="#00000000"
        fill-opacity="0.05"
        stroke="#417ef9"
        stroke-opacity="0.05"
        stroke-width="2"/>
    <path
        id="path_99"
        d="M 40.299 401.223 L 30.086 391.011 L 1.523 391.011"
        fill="#00000000"
        fill-opacity="0.05"
        stroke="#417ef9"
        stroke-opacity="0.05"
        stroke-width="2"/>
    <path
        id="path_100"
        d="M 292.136 425.305 L 330.095 425.305 L 342.748 412.244 L 359.891 412.244"
        fill="#00000000"
        fill-opacity="0.05"
        stroke="#417ef9"
        stroke-opacity="0.05"
        stroke-width="2"/>
    <path
        id="path_101"
        d="M 324.789 401.223 L 332.544 389.387 L 360.299 389.387"
        fill="#00000000"
        fill-opacity="0.05"
        stroke="#417ef9"
        stroke-opacity="0.05"
        stroke-width="2"/>
    <path
        id="path_102"
        d="M 181.115 534.692 L 194.999 520.808 L 194.999 498.774"
        fill="#00000000"
        fill-opacity="0.05"
        stroke="#417ef9"
        stroke-opacity="0.05"
        stroke-width="2"/>
    <path
        id="path_103"
        d="M 269.279 640.815 L 220.707 588.158 L 220.707 577.958"
        fill="#00000000"
        fill-opacity="0.05"
        stroke="#417ef9"
        stroke-opacity="0.05"
        stroke-width="2"/>
    <path
        id="path_104"
        d="M 348.462 637.55 L 277.033 564.08 L 277.033 538.366 L 250.911 511.019 L 250.911 484.488"
        fill="#00000000"
        fill-opacity="0.05"
        stroke="#417ef9"
        stroke-opacity="0.05"
        stroke-width="2"/>
    <path
        id="path_105"
        d="M 324.789 640.815 L 260.503 576.529 L 260.503 547.345 L 233.36 519.182 L 233.36 463.672"
        fill="#00000000"
        fill-opacity="0.05"
        stroke="#417ef9"
        stroke-opacity="0.05"
        stroke-width="2"/>
    <path
        id="path_106"
        d="M 302.952 640.815 L 240.805 579.485 L 240.805 555.101 L 217.633 531.929 L 217.633 500.815"
        fill="#00000000"
        fill-opacity="0.05"
        stroke="#417ef9"
        stroke-opacity="0.05"
        stroke-width="2"/>
    <path
        id="path_107"
        d="M 94.707 622.23 C 94.707 623.602 95.142 624.94 95.948 626.051 C 96.755 627.161 97.893 627.988 99.198 628.412 C 100.504 628.836 101.91 628.836 103.216 628.412 C 104.521 627.988 105.659 627.161 106.466 626.051 C 107.272 624.94 107.707 623.602 107.707 622.23 C 107.707 620.858 107.272 619.52 106.466 618.409 C 105.659 617.299 104.521 616.472 103.216 616.048 C 101.91 615.624 100.504 615.624 99.198 616.048 C 97.893 616.472 96.755 617.299 95.948 618.409 C 95.142 619.52 94.707 620.858 94.707 622.23 Z"
        fill="#00000000"
        fill-opacity="0.05"
        stroke="#417ef9"
        stroke-opacity="0.05"
        stroke-width="2"/>
    <path
        id="path_108"
        d="M 114.707 610.23 C 114.707 611.953 115.392 613.608 116.611 614.826 C 117.829 616.045 119.484 616.73 121.207 616.73 C 122.93 616.73 124.585 616.045 125.803 614.826 C 127.022 613.608 127.707 611.953 127.707 610.23 C 127.707 608.507 127.022 606.852 125.803 605.634 C 124.585 604.415 122.93 603.73 121.207 603.73 C 119.484 603.73 117.829 604.415 116.611 605.634 C 115.392 606.852 114.707 608.507 114.707 610.23 Z"
        fill="#00000000"
        fill-opacity="0.05"
        stroke="#417ef9"
        stroke-opacity="0.05"
        stroke-width="2"/>
    <path
        id="path_109"
        d="M 15.707 578.23 C 15.702 579.605 16.168 580.947 17.036 582.061 C 17.904 583.175 19.131 584.005 20.54 584.431 C 21.948 584.857 23.466 584.857 24.874 584.431 C 26.283 584.005 27.51 583.175 28.378 582.061 C 29.246 580.947 29.712 579.605 29.707 578.23 C 29.712 576.855 29.246 575.513 28.378 574.399 C 27.51 573.285 26.283 572.455 24.874 572.029 C 23.466 571.603 21.948 571.603 20.54 572.029 C 19.131 572.455 17.904 573.285 17.036 574.399 C 16.168 575.513 15.702 576.855 15.707 578.23 Z"
        fill="#00000000"
        fill-opacity="0.05"
        stroke="#417ef9"
        stroke-opacity="0.05"
        stroke-width="2"/>
    <path
        id="path_110"
        d="M 37.707 554.23 C 37.707 555.953 38.445 557.608 39.757 558.826 C 41.07 560.045 42.851 560.73 44.707 560.73 C 46.563 560.73 48.344 560.045 49.657 558.826 C 50.969 557.608 51.707 555.953 51.707 554.23 C 51.707 552.507 50.969 550.852 49.657 549.634 C 48.344 548.415 46.563 547.73 44.707 547.73 C 42.851 547.73 41.07 548.415 39.757 549.634 C 38.445 550.852 37.707 552.507 37.707 554.23 Z"
        fill="#00000000"
        fill-opacity="0.05"
        stroke="#417ef9"
        stroke-opacity="0.05"
        stroke-width="2"/>
    <path
        id="path_111"
        d="M 59.707 557.23 C 59.707 558.953 60.445 560.608 61.757 561.826 C 63.07 563.045 64.851 563.73 66.707 563.73 C 68.563 563.73 70.344 563.045 71.657 561.826 C 72.969 560.608 73.707 558.953 73.707 557.23 C 73.707 555.507 72.969 553.852 71.657 552.634 C 70.344 551.415 68.563 550.73 66.707 550.73 C 64.851 550.73 63.07 551.415 61.757 552.634 C 60.445 553.852 59.707 555.507 59.707 557.23 Z"
        fill="#00000000"
        fill-opacity="0.05"
        stroke="#417ef9"
        stroke-opacity="0.05"
        stroke-width="2"/>
    <path
        id="path_112"
        d="M 134.707 569.73 C 134.707 571.586 135.392 573.367 136.611 574.68 C 137.829 575.992 139.484 576.73 141.207 576.73 C 142.93 576.73 144.585 575.992 145.803 574.68 C 147.022 573.367 147.707 571.586 147.707 569.73 C 147.707 567.874 147.022 566.093 145.803 564.78 C 144.585 563.468 142.93 562.73 141.207 562.73 C 139.484 562.73 137.829 563.468 136.611 564.78 C 135.392 566.093 134.707 567.874 134.707 569.73 Z"
        fill="#00000000"
        fill-opacity="0.05"
        stroke="#417ef9"
        stroke-opacity="0.05"
        stroke-width="2"/>
    <path
        id="path_113"
        d="M 154.707 549.73 C 154.707 551.586 155.445 553.367 156.757 554.68 C 158.07 555.992 159.851 556.73 161.707 556.73 C 163.563 556.73 165.344 555.992 166.657 554.68 C 167.969 553.367 168.707 551.586 168.707 549.73 C 168.707 547.874 167.969 546.093 166.657 544.78 C 165.344 543.468 163.563 542.73 161.707 542.73 C 159.851 542.73 158.07 543.468 156.757 544.78 C 155.445 546.093 154.707 547.874 154.707 549.73 Z"
        fill="#00000000"
        fill-opacity="0.05"
        stroke="#417ef9"
        stroke-opacity="0.05"
        stroke-width="2"/>
    <path
        id="path_114"
        d="M 188.707 491.23 C 188.707 492.953 189.392 494.608 190.611 495.826 C 191.829 497.045 193.484 497.73 195.207 497.73 C 196.93 497.73 198.585 497.045 199.803 495.826 C 201.022 494.608 201.707 492.953 201.707 491.23 C 201.707 489.507 201.022 487.852 199.803 486.634 C 198.585 485.415 196.93 484.73 195.207 484.73 C 193.484 484.73 191.829 485.415 190.611 486.634 C 189.392 487.852 188.707 489.507 188.707 491.23 Z"
        fill="#00000000"
        fill-opacity="0.05"
        stroke="#417ef9"
        stroke-opacity="0.05"
        stroke-width="2"/>
    <path
        id="path_115"
        d="M 142.707 470.23 C 142.707 471.953 143.392 473.608 144.611 474.826 C 145.829 476.045 147.484 476.73 149.207 476.73 C 150.93 476.73 152.585 476.045 153.803 474.826 C 155.022 473.608 155.707 471.953 155.707 470.23 C 155.707 468.507 155.022 466.852 153.803 465.634 C 152.585 464.415 150.93 463.73 149.207 463.73 C 147.484 463.73 145.829 464.415 144.611 465.634 C 143.392 466.852 142.707 468.507 142.707 470.23 Z"
        fill="#00000000"
        fill-opacity="0.05"
        stroke="#417ef9"
        stroke-opacity="0.05"
        stroke-width="2"/>
    <path
        id="path_116"
        d="M 102.707 476.23 C 102.703 477.605 103.135 478.947 103.941 480.061 C 104.747 481.175 105.887 482.005 107.194 482.431 C 108.502 482.857 109.912 482.857 111.22 482.431 C 112.527 482.005 113.667 481.175 114.473 480.061 C 115.279 478.947 115.711 477.605 115.707 476.23 C 115.711 474.855 115.279 473.513 114.473 472.399 C 113.667 471.285 112.527 470.455 111.22 470.029 C 109.912 469.603 108.502 469.603 107.194 470.029 C 105.887 470.455 104.747 471.285 103.941 472.399 C 103.135 473.513 102.703 474.855 102.707 476.23 Z"
        fill="#00000000"
        fill-opacity="0.05"
        stroke="#417ef9"
        stroke-opacity="0.05"
        stroke-width="2"/>
    <path
        id="path_117"
        d="M 125.707 441.73 C 125.707 443.586 126.445 445.367 127.757 446.68 C 129.07 447.992 130.851 448.73 132.707 448.73 C 134.563 448.73 136.344 447.992 137.657 446.68 C 138.969 445.367 139.707 443.586 139.707 441.73 C 139.707 439.874 138.969 438.093 137.657 436.78 C 136.344 435.468 134.563 434.73 132.707 434.73 C 130.851 434.73 129.07 435.468 127.757 436.78 C 126.445 438.093 125.707 439.874 125.707 441.73 Z"
        fill="#00000000"
        fill-opacity="0.05"
        stroke="#417ef9"
        stroke-opacity="0.05"
        stroke-width="2"/>
    <path
        id="path_118"
        d="M 18.707 457.73 C 18.707 459.208 19.175 460.649 20.044 461.844 C 20.913 463.04 22.138 463.931 23.544 464.387 C 24.95 464.844 26.464 464.844 27.87 464.387 C 29.276 463.931 30.501 463.04 31.37 461.844 C 32.239 460.649 32.707 459.208 32.707 457.73 C 32.707 456.252 32.239 454.811 31.37 453.616 C 30.501 452.42 29.276 451.529 27.87 451.073 C 26.464 450.616 24.95 450.616 23.544 451.073 C 22.138 451.529 20.913 452.42 20.044 453.616 C 19.175 454.811 18.707 456.252 18.707 457.73 Z"
        fill="#00000000"
        fill-opacity="0.05"
        stroke="#417ef9"
        stroke-opacity="0.05"
        stroke-width="2"/>
    <path
        id="path_119"
        d="M 73.707 425.23 C 73.707 426.953 74.392 428.608 75.611 429.826 C 76.829 431.045 78.484 431.73 80.207 431.73 C 81.93 431.73 83.585 431.045 84.803 429.826 C 86.022 428.608 86.707 426.953 86.707 425.23 C 86.707 423.507 86.022 421.852 84.803 420.634 C 83.585 419.415 81.93 418.73 80.207 418.73 C 78.484 418.73 76.829 419.415 75.611 420.634 C 74.392 421.852 73.707 423.507 73.707 425.23 Z"
        fill="#00000000"
        fill-opacity="0.05"
        stroke="#417ef9"
        stroke-opacity="0.05"
        stroke-width="2"/>
    <path
        id="path_120"
        d="M 278.707 425.23 C 278.707 426.953 279.392 428.608 280.611 429.826 C 281.829 431.045 283.484 431.73 285.207 431.73 C 286.93 431.73 288.585 431.045 289.803 429.826 C 291.022 428.608 291.707 426.953 291.707 425.23 C 291.707 423.507 291.022 421.852 289.803 420.634 C 288.585 419.415 286.93 418.73 285.207 418.73 C 283.484 418.73 281.829 419.415 280.611 420.634 C 279.392 421.852 278.707 423.507 278.707 425.23 Z"
        fill="#00000000"
        fill-opacity="0.05"
        stroke="#417ef9"
        stroke-opacity="0.05"
        stroke-width="2"/>
    <path
        id="path_121"
        d="M 289.707 372.73 C 289.707 374.586 290.445 376.367 291.757 377.68 C 293.07 378.992 294.851 379.73 296.707 379.73 C 298.563 379.73 300.344 378.992 301.657 377.68 C 302.969 376.367 303.707 374.586 303.707 372.73 C 303.707 370.874 302.969 369.093 301.657 367.78 C 300.344 366.468 298.563 365.73 296.707 365.73 C 294.851 365.73 293.07 366.468 291.757 367.78 C 290.445 369.093 289.707 370.874 289.707 372.73 Z"
        fill="#00000000"
        fill-opacity="0.05"
        stroke="#417ef9"
        stroke-opacity="0.05"
        stroke-width="2"/>
    <path
        id="path_122"
        d="M 35.707 372.73 C 35.707 374.586 36.392 376.367 37.611 377.68 C 38.829 378.992 40.484 379.73 42.207 379.73 C 43.93 379.73 45.585 378.992 46.803 377.68 C 48.022 376.367 48.707 374.586 48.707 372.73 C 48.707 370.874 48.022 369.093 46.803 367.78 C 45.585 366.468 43.93 365.73 42.207 365.73 C 40.484 365.73 38.829 366.468 37.611 367.78 C 36.392 369.093 35.707 370.874 35.707 372.73 Z"
        fill="#00000000"
        fill-opacity="0.05"
        stroke="#417ef9"
        stroke-opacity="0.05"
        stroke-width="2"/>
    <path
        id="path_123"
        d="M 18.707 337.23 C 18.707 338.602 19.175 339.94 20.044 341.051 C 20.913 342.161 22.138 342.988 23.544 343.412 C 24.95 343.836 26.464 343.836 27.87 343.412 C 29.276 342.988 30.501 342.161 31.37 341.051 C 32.239 339.94 32.707 338.602 32.707 337.23 C 32.707 335.858 32.239 334.52 31.37 333.409 C 30.501 332.299 29.276 331.472 27.87 331.048 C 26.464 330.624 24.95 330.624 23.544 331.048 C 22.138 331.472 20.913 332.299 20.044 333.409 C 19.175 334.52 18.707 335.858 18.707 337.23 Z"
        fill="#00000000"
        fill-opacity="0.05"
        stroke="#417ef9"
        stroke-opacity="0.05"
        stroke-width="2"/>
    <path
        id="path_124"
        d="M 70.707 355.23 C 70.707 356.953 71.392 358.608 72.611 359.826 C 73.829 361.045 75.484 361.73 77.207 361.73 C 78.93 361.73 80.585 361.045 81.803 359.826 C 83.022 358.608 83.707 356.953 83.707 355.23 C 83.707 353.507 83.022 351.852 81.803 350.634 C 80.585 349.415 78.93 348.73 77.207 348.73 C 75.484 348.73 73.829 349.415 72.611 350.634 C 71.392 351.852 70.707 353.507 70.707 355.23 Z"
        fill="#00000000"
        fill-opacity="0.05"
        stroke="#417ef9"
        stroke-opacity="0.05"
        stroke-width="2"/>
    <path
        id="path_125"
        d="M 341.707 355.23 C 341.707 356.953 342.392 358.608 343.611 359.826 C 344.829 361.045 346.484 361.73 348.207 361.73 C 349.93 361.73 351.585 361.045 352.803 359.826 C 354.022 358.608 354.707 356.953 354.707 355.23 C 354.707 353.507 354.022 351.852 352.803 350.634 C 351.585 349.415 349.93 348.73 348.207 348.73 C 346.484 348.73 344.829 349.415 343.611 350.634 C 342.392 351.852 341.707 353.507 341.707 355.23 Z"
        fill="#00000000"
        fill-opacity="0.05"
        stroke="#417ef9"
        stroke-opacity="0.05"
        stroke-width="2"/>
    <path
        id="path_126"
        d="M 311.707 337.23 C 311.707 338.953 312.445 340.608 313.757 341.826 C 315.07 343.045 316.851 343.73 318.707 343.73 C 320.563 343.73 322.344 343.045 323.657 341.826 C 324.969 340.608 325.707 338.953 325.707 337.23 C 325.707 335.507 324.969 333.852 323.657 332.634 C 322.344 331.415 320.563 330.73 318.707 330.73 C 316.851 330.73 315.07 331.415 313.757 332.634 C 312.445 333.852 311.707 335.507 311.707 337.23 Z"
        fill="#00000000"
        fill-opacity="0.05"
        stroke="#417ef9"
        stroke-opacity="0.05"
        stroke-width="2"/>
    <path
        id="path_127"
        d="M 314.707 407.23 C 314.707 408.953 315.392 410.608 316.611 411.826 C 317.829 413.045 319.484 413.73 321.207 413.73 C 322.93 413.73 324.585 413.045 325.803 411.826 C 327.022 410.608 327.707 408.953 327.707 407.23 C 327.707 405.507 327.022 403.852 325.803 402.634 C 324.585 401.415 322.93 400.73 321.207 400.73 C 319.484 400.73 317.829 401.415 316.611 402.634 C 315.392 403.852 314.707 405.507 314.707 407.23 Z"
        fill="#00000000"
        fill-opacity="0.05"
        stroke="#417ef9"
        stroke-opacity="0.05"
        stroke-width="2"/>
    <path
        id="path_128"
        d="M 37.707 407.23 C 37.707 408.953 38.445 410.608 39.757 411.826 C 41.07 413.045 42.851 413.73 44.707 413.73 C 46.563 413.73 48.344 413.045 49.657 411.826 C 50.969 410.608 51.707 408.953 51.707 407.23 C 51.707 405.507 50.969 403.852 49.657 402.634 C 48.344 401.415 46.563 400.73 44.707 400.73 C 42.851 400.73 41.07 401.415 39.757 402.634 C 38.445 403.852 37.707 405.507 37.707 407.23 Z"
        fill="#00000000"
        fill-opacity="0.05"
        stroke="#417ef9"
        stroke-opacity="0.05"
        stroke-width="2"/>
    <path
        id="path_129"
        d="M 173.707 417.73 C 173.707 419.586 174.445 421.367 175.757 422.68 C 177.07 423.992 178.851 424.73 180.707 424.73 C 182.563 424.73 184.344 423.992 185.657 422.68 C 186.969 421.367 187.707 419.586 187.707 417.73 C 187.707 415.874 186.969 414.093 185.657 412.78 C 184.344 411.468 182.563 410.73 180.707 410.73 C 178.851 410.73 177.07 411.468 175.757 412.78 C 174.445 414.093 173.707 415.874 173.707 417.73 Z"
        fill="#00000000"
        fill-opacity="0.05"
        stroke="#417ef9"
        stroke-opacity="0.05"
        stroke-width="2"/>
    <path
        id="path_130"
        d="M 321.707 461.73 C 321.707 463.586 322.392 465.367 323.611 466.68 C 324.829 467.992 326.484 468.73 328.207 468.73 C 329.93 468.73 331.585 467.992 332.803 466.68 C 334.022 465.367 334.707 463.586 334.707 461.73 C 334.707 459.874 334.022 458.093 332.803 456.78 C 331.585 455.468 329.93 454.73 328.207 454.73 C 326.484 454.73 324.829 455.468 323.611 456.78 C 322.392 458.093 321.707 459.874 321.707 461.73 Z"
        fill="#00000000"
        fill-opacity="0.05"
        stroke="#417ef9"
        stroke-opacity="0.05"
        stroke-width="2"/>
    <path
        id="path_131"
        d="M 188.707 564.23 C 188.707 565.953 189.392 567.608 190.611 568.826 C 191.829 570.045 193.484 570.73 195.207 570.73 C 196.93 570.73 198.585 570.045 199.803 568.826 C 201.022 567.608 201.707 565.953 201.707 564.23 C 201.707 562.507 201.022 560.852 199.803 559.634 C 198.585 558.415 196.93 557.73 195.207 557.73 C 193.484 557.73 191.829 558.415 190.611 559.634 C 189.392 560.852 188.707 562.507 188.707 564.23 Z"
        fill="#00000000"
        fill-opacity="0.05"
        stroke="#417ef9"
        stroke-opacity="0.05"
        stroke-width="2"/>
    <path
        id="path_132"
        d="M 214.707 569.73 C 214.707 571.586 215.392 573.367 216.611 574.68 C 217.829 575.992 219.484 576.73 221.207 576.73 C 222.93 576.73 224.585 575.992 225.803 574.68 C 227.022 573.367 227.707 571.586 227.707 569.73 C 227.707 567.874 227.022 566.093 225.803 564.78 C 224.585 563.468 222.93 562.73 221.207 562.73 C 219.484 562.73 217.829 563.468 216.611 564.78 C 215.392 566.093 214.707 567.874 214.707 569.73 Z"
        fill="#00000000"
        fill-opacity="0.05"
        stroke="#417ef9"
        stroke-opacity="0.05"
        stroke-width="2"/>
    <path
        id="path_133"
        d="M 287.707 556.23 C 287.707 557.953 288.445 559.608 289.757 560.826 C 291.07 562.045 292.851 562.73 294.707 562.73 C 296.563 562.73 298.344 562.045 299.657 560.826 C 300.969 559.608 301.707 557.953 301.707 556.23 C 301.707 554.507 300.969 552.852 299.657 551.634 C 298.344 550.415 296.563 549.73 294.707 549.73 C 292.851 549.73 291.07 550.415 289.757 551.634 C 288.445 552.852 287.707 554.507 287.707 556.23 Z"
        fill="#00000000"
        fill-opacity="0.05"
        stroke="#417ef9"
        stroke-opacity="0.05"
        stroke-width="2"/>
    <path
        id="path_134"
        d="M 331.707 578.23 C 331.707 579.953 332.445 581.608 333.757 582.826 C 335.07 584.045 336.851 584.73 338.707 584.73 C 340.563 584.73 342.344 584.045 343.657 582.826 C 344.969 581.608 345.707 579.953 345.707 578.23 C 345.707 576.507 344.969 574.852 343.657 573.634 C 342.344 572.415 340.563 571.73 338.707 571.73 C 336.851 571.73 335.07 572.415 333.757 573.634 C 332.445 574.852 331.707 576.507 331.707 578.23 Z"
        fill="#00000000"
        fill-opacity="0.05"
        stroke="#417ef9"
        stroke-opacity="0.05"
        stroke-width="2"/>
    <path
        id="path_135"
        d="M 309.707 554.23 C 309.707 555.953 310.445 557.608 311.757 558.826 C 313.07 560.045 314.851 560.73 316.707 560.73 C 318.563 560.73 320.344 560.045 321.657 558.826 C 322.969 557.608 323.707 555.953 323.707 554.23 C 323.707 552.507 322.969 550.852 321.657 549.634 C 320.344 548.415 318.563 547.73 316.707 547.73 C 314.851 547.73 313.07 548.415 311.757 549.634 C 310.445 550.852 309.707 552.507 309.707 554.23 Z"
        fill="#00000000"
        fill-opacity="0.05"
        stroke="#417ef9"
        stroke-opacity="0.05"
        stroke-width="2"/>
    <path
        id="path_136"
        d="M 269.707 513.23 C 269.707 514.953 270.392 516.608 271.611 517.826 C 272.829 519.045 274.484 519.73 276.207 519.73 C 277.93 519.73 279.585 519.045 280.803 517.826 C 282.022 516.608 282.707 514.953 282.707 513.23 C 282.707 511.507 282.022 509.852 280.803 508.634 C 279.585 507.415 277.93 506.73 276.207 506.73 C 274.484 506.73 272.829 507.415 271.611 508.634 C 270.392 509.852 269.707 511.507 269.707 513.23 Z"
        fill="#00000000"
        fill-opacity="0.05"
        stroke="#417ef9"
        stroke-opacity="0.05"
        stroke-width="2"/>
    <path
        id="path_137"
        d="M 280.707 454.23 C 280.707 455.953 281.392 457.608 282.611 458.826 C 283.829 460.045 285.484 460.73 287.207 460.73 C 288.93 460.73 290.585 460.045 291.803 458.826 C 293.022 457.608 293.707 455.953 293.707 454.23 C 293.707 452.507 293.022 450.852 291.803 449.634 C 290.585 448.415 288.93 447.73 287.207 447.73 C 285.484 447.73 283.829 448.415 282.611 449.634 C 281.392 450.852 280.707 452.507 280.707 454.23 Z"
        fill="#00000000"
        fill-opacity="0.05"
        stroke="#417ef9"
        stroke-opacity="0.05"
        stroke-width="2"/>
    <path
        id="path_138"
        d="M 77.707 513.23 C 77.707 514.953 78.392 516.608 79.611 517.826 C 80.829 519.045 82.484 519.73 84.207 519.73 C 85.93 519.73 87.585 519.045 88.803 517.826 C 90.022 516.608 90.707 514.953 90.707 513.23 C 90.707 511.507 90.022 509.852 88.803 508.634 C 87.585 507.415 85.93 506.73 84.207 506.73 C 82.484 506.73 80.829 507.415 79.611 508.634 C 78.392 509.852 77.707 511.507 77.707 513.23 Z"
        fill="#00000000"
        fill-opacity="0.05"
        stroke="#417ef9"
        stroke-opacity="0.05"
        stroke-width="2"/>
    <path
        id="path_139"
        d="M 244.707 477.23 C 244.707 478.953 245.445 480.608 246.757 481.826 C 248.07 483.045 249.851 483.73 251.707 483.73 C 253.563 483.73 255.344 483.045 256.657 481.826 C 257.969 480.608 258.707 478.953 258.707 477.23 C 258.707 475.507 257.969 473.852 256.657 472.634 C 255.344 471.415 253.563 470.73 251.707 470.73 C 249.851 470.73 248.07 471.415 246.757 472.634 C 245.445 473.852 244.707 475.507 244.707 477.23 Z"
        fill="#00000000"
        fill-opacity="0.05"
        stroke="#417ef9"
        stroke-opacity="0.05"
        stroke-width="2"/>
    <path
        id="path_140"
        d="M 211.707 493.23 C 211.707 494.953 212.392 496.608 213.611 497.826 C 214.829 499.045 216.484 499.73 218.207 499.73 C 219.93 499.73 221.585 499.045 222.803 497.826 C 224.022 496.608 224.707 494.953 224.707 493.23 C 224.707 491.507 224.022 489.852 222.803 488.634 C 221.585 487.415 219.93 486.73 218.207 486.73 C 216.484 486.73 214.829 487.415 213.611 488.634 C 212.392 489.852 211.707 491.507 211.707 493.23 Z"
        fill="#00000000"
        fill-opacity="0.05"
        stroke="#417ef9"
        stroke-opacity="0.05"
        stroke-width="2"/>
    <path
        id="path_141"
        d="M 226.707 456.23 C 226.707 457.953 227.392 459.608 228.611 460.826 C 229.829 462.045 231.484 462.73 233.207 462.73 C 234.93 462.73 236.585 462.045 237.803 460.826 C 239.022 459.608 239.707 457.953 239.707 456.23 C 239.707 454.507 239.022 452.852 237.803 451.634 C 236.585 450.415 234.93 449.73 233.207 449.73 C 231.484 449.73 229.829 450.415 228.611 451.634 C 227.392 452.852 226.707 454.507 226.707 456.23 Z"
        fill="#00000000"
        fill-opacity="0.05"
        stroke="#417ef9"
        stroke-opacity="0.05"
        stroke-width="2"/>
    <path
        id="path_142"
        d="M 16.707 490.23 C 16.707 491.602 17.175 492.94 18.044 494.051 C 18.913 495.161 20.138 495.988 21.544 496.412 C 22.95 496.836 24.464 496.836 25.87 496.412 C 27.276 495.988 28.501 495.161 29.37 494.051 C 30.239 492.94 30.707 491.602 30.707 490.23 C 30.707 488.858 30.239 487.52 29.37 486.409 C 28.501 485.299 27.276 484.472 25.87 484.048 C 24.464 483.624 22.95 483.624 21.544 484.048 C 20.138 484.472 18.913 485.299 18.044 486.409 C 17.175 487.52 16.707 488.858 16.707 490.23 Z"
        fill="#00000000"
        fill-opacity="0.05"
        stroke="#417ef9"
        stroke-opacity="0.05"
        stroke-width="2"/>
    <path
        id="path_143"
        d="M 75.707 455.23 C 75.707 456.953 76.392 458.608 77.611 459.826 C 78.829 461.045 80.484 461.73 82.207 461.73 C 83.93 461.73 85.585 461.045 86.803 459.826 C 88.022 458.608 88.707 456.953 88.707 455.23 C 88.707 453.507 88.022 451.852 86.803 450.634 C 85.585 449.415 83.93 448.73 82.207 448.73 C 80.484 448.73 78.829 449.415 77.611 450.634 C 76.392 451.852 75.707 453.507 75.707 455.23 Z"
        fill="#00000000"
        fill-opacity="0.05"
        stroke="#417ef9"
        stroke-opacity="0.05"
        stroke-width="2"/>
</svg>
