<svg
    xmlns="http://www.w3.org/2000/svg"
    viewBox="0 0 25 25"
    id="vector">
    <path
        id="path"
        d="M 12.5 0 C 15.814 0 18.996 1.318 21.339 3.661 C 23.682 6.004 25 9.186 25 12.5 C 25 15.814 23.682 18.996 21.339 21.339 C 18.996 23.682 15.814 25 12.5 25 C 9.186 25 6.004 23.682 3.661 21.339 C 1.318 18.996 0 15.814 0 12.5 C 0 9.186 1.318 6.004 3.661 3.661 C 6.004 1.318 9.186 0 12.5 0 Z"
        fill="#efefef"/>
    <path
        id="path_1"
        d="M 17.381 12 L 8.538 12 C 8.384 12.039 8.248 12.128 8.15 12.254 C 8.053 12.379 8 12.533 8 12.692 C 8 12.851 8.053 13.005 8.15 13.13 C 8.248 13.256 8.384 13.345 8.538 13.384 L 17.381 13.384 C 17.535 13.345 17.671 13.256 17.769 13.13 C 17.866 13.005 17.919 12.851 17.919 12.692 C 17.919 12.533 17.866 12.379 17.769 12.254 C 17.671 12.128 17.535 12.039 17.381 12 Z"
        fill="#000000"/>
</svg>
