<svg
    xmlns="http://www.w3.org/2000/svg"
    viewBox="0 0 31 24"
    id="vector">
    <path
        id="path"
        d="M 14.293 0 L 24.717 0 C 26.308 0 27.835 0.633 28.96 1.757 C 30.084 2.882 30.717 4.409 30.717 6 L 30.717 17.979 C 30.717 19.57 30.084 21.097 28.96 22.222 C 27.835 23.346 26.308 23.979 24.717 23.979 L 12.293 23.979 C 10.702 23.979 9.175 23.346 8.05 22.222 C 6.926 21.097 6.293 19.57 6.293 17.979 L 6.293 8 C 6.293 5.879 7.136 3.843 8.636 2.343 C 10.136 0.843 12.172 0 14.293 0 Z"
        fill="#5f5f5f"/>
    <path
        id="path_1"
        d="M 0 12.473 L 8.067 2.979 L 15.248 11.508 L 8.406 22.635 Z"
        fill="#5f5f5f"/>
    <path
        id="path_2"
        d="M 12.468 7.871 L 14.168 6.171 L 24.346 16.349 L 22.646 18.049 Z"
        fill="#ffffff"/>
    <path
        id="path_3"
        d="M 14.006 17.986 L 12.293 16.273 L 22.567 5.999 L 24.28 7.713 Z"
        fill="#ffffff"/>
</svg>
