<svg
    xmlns="http://www.w3.org/2000/svg"
    viewBox="0 0 25 25"
    id="vector">
    <path
        id="path"
        d="M 12.4 0 C 15.687 0 18.844 1.307 21.168 3.632 C 23.493 5.956 24.8 9.113 24.8 12.4 C 24.8 15.687 23.493 18.844 21.168 21.168 C 18.844 23.493 15.687 24.8 12.4 24.8 C 9.113 24.8 5.956 23.493 3.632 21.168 C 1.307 18.844 0 15.687 0 12.4 C 0 9.113 1.307 5.956 3.632 3.632 C 5.956 1.307 9.113 0 12.4 0 Z"
        fill="#efefef"/>
    <path
        id="path_1"
        d="M 17.381 12 L 8.538 12 C 8.384 12.039 8.248 12.128 8.15 12.254 C 8.053 12.379 8 12.533 8 12.692 C 8 12.851 8.053 13.005 8.15 13.13 C 8.248 13.256 8.384 13.345 8.538 13.384 L 17.381 13.384 C 17.535 13.345 17.671 13.256 17.769 13.13 C 17.866 13.005 17.919 12.851 17.919 12.692 C 17.919 12.533 17.866 12.379 17.769 12.254 C 17.671 12.128 17.535 12.039 17.381 12 Z"
        fill="#000000"/>
    <path
        id="path_2"
        d="M 12 8.538 L 12 17.381 C 12.031 17.539 12.119 17.68 12.246 17.779 C 12.373 17.878 12.531 17.928 12.692 17.919 C 12.853 17.928 13.011 17.878 13.138 17.779 C 13.265 17.68 13.353 17.539 13.384 17.381 L 13.384 8.538 C 13.353 8.38 13.265 8.239 13.138 8.14 C 13.011 8.041 12.853 7.991 12.692 8 C 12.531 7.991 12.373 8.041 12.246 8.14 C 12.119 8.239 12.031 8.38 12 8.538 Z"
        fill="#000000"/>
</svg>
