<svg
    xmlns="http://www.w3.org/2000/svg"
    viewBox="0 0 28 22"
    id="vector">
    <path
        id="path"
        d="M 16.457 20.282 L 2.652 20.282 C 1.999 20.278 1.373 20.015 0.914 19.551 C 0.454 19.086 0.197 18.458 0.2 17.805 L 0.2 2.677 C 0.197 2.024 0.454 1.396 0.914 0.931 C 1.373 0.467 1.999 0.204 2.652 0.2 L 17.632 0.2 C 18.285 0.204 18.911 0.467 19.37 0.931 C 19.83 1.396 20.087 2.024 20.084 2.677 L 20.084 13.113 L 19.284 14.213 L 19.284 2.677 C 19.286 2.238 19.112 1.815 18.803 1.503 C 18.494 1.191 18.072 1.014 17.633 1.012 L 2.652 1.012 C 2.435 1.012 2.22 1.055 2.02 1.138 C 1.82 1.222 1.639 1.345 1.487 1.5 C 1.332 1.655 1.21 1.838 1.126 2.04 C 1.043 2.242 1 2.458 1 2.677 L 1 12.009 L 3.233 9.887 C 3.478 9.653 3.766 9.467 4.081 9.341 C 4.393 9.216 4.727 9.152 5.063 9.152 C 5.505 9.152 5.939 9.261 6.328 9.47 C 6.717 9.68 7.048 9.983 7.29 10.352 L 9.423 13.591 L 11.783 11.286 C 12.127 10.945 12.592 10.754 13.076 10.754 C 13.561 10.754 14.026 10.945 14.37 11.286 L 18.46 15.296 L 17.96 15.935 L 13.81 11.875 C 13.615 11.682 13.351 11.573 13.076 11.573 C 12.801 11.573 12.537 11.682 12.342 11.875 L 9.875 14.282 L 12.34 18.024 C 12.399 18.114 12.421 18.223 12.4 18.329 C 12.379 18.434 12.317 18.527 12.228 18.587 C 12.156 18.631 12.074 18.654 11.99 18.655 C 11.926 18.655 11.863 18.638 11.807 18.607 C 11.751 18.575 11.704 18.529 11.671 18.474 L 6.62 10.806 C 6.421 10.501 6.136 10.261 5.801 10.116 C 5.467 9.972 5.097 9.929 4.738 9.993 C 4.38 10.058 4.048 10.226 3.784 10.478 L 1 13.124 L 1 17.805 C 0.998 18.245 1.172 18.667 1.481 18.979 C 1.791 19.292 2.212 19.468 2.652 19.47 L 16.5 19.47 L 16.455 20.282 Z M 14.13 8.6 C 13.57 8.605 13.025 8.42 12.584 8.075 C 12.143 7.729 11.833 7.244 11.705 6.699 C 11.576 6.154 11.637 5.581 11.877 5.075 C 12.118 4.569 12.523 4.16 13.026 3.915 C 13.53 3.67 14.102 3.603 14.648 3.726 C 15.194 3.849 15.683 4.155 16.033 4.592 C 16.382 5.029 16.573 5.573 16.573 6.133 C 16.576 6.784 16.32 7.41 15.862 7.872 C 15.404 8.334 14.781 8.596 14.13 8.6 Z M 14.13 4.478 C 13.754 4.474 13.389 4.599 13.093 4.83 C 12.797 5.062 12.589 5.388 12.503 5.753 C 12.417 6.119 12.458 6.503 12.619 6.843 C 12.78 7.182 13.052 7.457 13.39 7.621 C 13.727 7.785 14.111 7.83 14.478 7.747 C 14.844 7.665 15.172 7.46 15.406 7.167 C 15.641 6.873 15.769 6.509 15.769 6.133 C 15.77 5.697 15.598 5.278 15.291 4.969 C 14.984 4.659 14.566 4.484 14.13 4.481 Z"
        fill="#ffffff"
        stroke="#ffffff"
        stroke-width="0.4"/>
    <path
        id="path_1"
        d="M 25.053 9.002 C 24.666 8.721 24.182 8.605 23.709 8.68 C 23.236 8.755 22.811 9.015 22.53 9.402 L 16.575 17.598 C 16.536 17.654 16.511 17.719 16.504 17.788 L 16.106 21.294 C 16.094 21.388 16.117 21.484 16.17 21.563 C 16.223 21.642 16.303 21.7 16.394 21.726 C 16.486 21.752 16.584 21.744 16.671 21.704 L 19.882 20.242 C 19.945 20.214 20 20.17 20.041 20.115 L 25.995 11.92 C 26.276 11.532 26.392 11.048 26.317 10.576 C 26.242 10.103 25.982 9.678 25.596 9.396 Z M 17.48 17.718 L 22.356 11.011 L 24.517 12.582 L 19.643 19.291 Z M 19.388 20.098 L 21.117 21.354 L 16.98 20.68 Z M 27.506 13.018 L 27.151 13.506 L 22.825 10.362 L 23.18 9.877 C 23.283 9.734 23.422 9.621 23.583 9.549 C 23.744 9.477 23.921 9.449 24.097 9.468 C 24.272 9.487 24.439 9.551 24.581 9.655 L 25.12 10.047 C 25.263 10.15 25.376 10.289 25.447 10.45 C 25.519 10.61 25.547 10.787 25.528 10.962 C 25.51 11.137 25.446 11.304 25.342 11.446 Z M 27.506 13.018"
        fill="#ffffff"
        stroke="#ffffff"
        stroke-width="0.4"/>
</svg>
