<svg
    xmlns="http://www.w3.org/2000/svg"
    viewBox="0 0 14 14"
    id="vector">
    <path
        id="path"
        d="M 2.367 3 L 8.08 3 C 8.61 3 9.119 3.211 9.494 3.586 C 9.869 3.961 10.08 4.47 10.08 5 L 10.08 8.932 C 10.08 9.462 9.869 9.971 9.494 10.346 C 9.119 10.721 8.61 10.932 8.08 10.932 L 2.367 10.932 C 1.837 10.932 1.328 10.721 0.953 10.346 C 0.578 9.971 0.367 9.462 0.367 8.932 L 0.367 5 C 0.367 4.47 0.578 3.961 0.953 3.586 C 1.328 3.211 1.837 3 2.367 3 Z"
        fill="#767676"/>
    <path
        id="path_1"
        d="M 12.127 4.095 L 10.815 4.914 L 10.815 9.014 L 12.126 9.833 C 12.809 10.259 13.368 9.95 13.368 9.145 L 13.368 4.783 C 13.368 3.976 12.809 3.669 12.127 4.095 Z"
        fill="#767676"/>
</svg>
