<svg xmlns="http://www.w3.org/2000/svg" width="16.034" height="13.751" viewBox="0 0 16.034 13.751">
  <g id="image" transform="translate(-0.001 -0.5)">
    <path id="Path_9769" data-name="Path 9769" d="M182.351,99.52a1.6,1.6,0,1,0-1.6-1.6A1.6,1.6,0,0,0,182.351,99.52Zm0-2.264a.662.662,0,1,1-.662.662A.663.663,0,0,1,182.351,97.256Zm0,0" transform="translate(-175.089 -92.816)" fill="#181818"/>
    <path id="Path_9770" data-name="Path 9770" d="M15.449.5H.586A.586.586,0,0,0,0,1.085V13.666a.586.586,0,0,0,.585.585H15.449a.586.586,0,0,0,.585-.585V1.085A.586.586,0,0,0,15.449.5Zm-.354.939V8.874L12.14,5.919a.5.5,0,0,0-.7,0L7.263,10.1,4.594,7.429a.494.494,0,0,0-.7,0L.94,10.384V1.439ZM.94,13.312v-1.6l3.3-3.3,2.669,2.669a.494.494,0,0,0,.7,0L11.791,6.9l3.3,3.3v3.109Zm0,0" fill="#181818"/>
  </g>
</svg>
