<svg xmlns="http://www.w3.org/2000/svg" width="14.201" height="15.2" viewBox="0 0 14.201 15.2">
  <g id="leave_group" data-name="leave group" transform="translate(-19.9 -612.215)">
    <path id="Shape_1_copy_5" data-name="Shape 1 copy 5" d="M2.805,15A2.8,2.8,0,0,1,0,12.214V2.786A2.8,2.8,0,0,1,2.805,0h4a.43.43,0,1,1,0,.86h-4A1.935,1.935,0,0,0,.866,2.786v9.429a1.935,1.935,0,0,0,1.94,1.926H6.745a.43.43,0,1,1,0,.86Zm7.706-4.46a.426.426,0,0,1,0-.608l2.012-2H3.744a.43.43,0,1,1,0-.859h8.779l-2.012-2a.425.425,0,0,1,0-.607.433.433,0,0,1,.612,0L13.874,7.2a.426.426,0,0,1,0,.611L11.12,10.54a.424.424,0,0,1-.3.127A.435.435,0,0,1,10.511,10.54Z" transform="translate(20 612.315)" fill="#ff3939" stroke="#ff3939" stroke-width="0.2"/>
  </g>
</svg>
