<svg xmlns="http://www.w3.org/2000/svg" width="26.332" height="11.132" viewBox="0 0 26.332 11.132">
  <g id="noun_link_551540" transform="translate(-3.4 -29.3)">
    <g id="Group_16111" data-name="Group 16111" transform="translate(3.4 29.3)">
      <path id="Path_13926" data-name="Path 13926" d="M5.745,34.866a3.219,3.219,0,0,1,3.221-3.221h6.329V29.3H8.966a5.566,5.566,0,1,0,0,11.132h6.329V38.087H8.966A3.219,3.219,0,0,1,5.745,34.866ZM24.166,29.3H17.837v2.345h6.329a3.221,3.221,0,0,1,0,6.442H17.837v2.345h6.329a5.566,5.566,0,1,0,0-11.132ZM9.87,34.866a1.194,1.194,0,0,0,1.187,1.187H22.1a1.187,1.187,0,0,0,0-2.373H11.057A1.194,1.194,0,0,0,9.87,34.866Z" transform="translate(-3.4 -29.3)" fill="#fff"/>
    </g>
  </g>
</svg>
