<svg xmlns="http://www.w3.org/2000/svg" width="14" height="14" viewBox="0 0 14 14">
  <g id="Location" transform="translate(-91 -144)">
    <g id="placeholder_1_" data-name="placeholder (1)" transform="translate(43.701 145)">
      <g id="Group_7328" data-name="Group 7328" transform="translate(49.299 0)">
        <path id="Path_9751" data-name="Path 9751" d="M54.145,0A5.026,5.026,0,0,0,49.39,5.979h0s.008.054.034.158a5.036,5.036,0,0,0,.338,1A14.553,14.553,0,0,0,54.044,12.5a.437.437,0,0,0,.558,0,14.538,14.538,0,0,0,4.285-5.364,4.823,4.823,0,0,0,.338-1c.023-.1.034-.158.034-.158h0A5.028,5.028,0,0,0,54.145,0Zm.178,7.521a2.441,2.441,0,1,1,2.441-2.441A2.44,2.44,0,0,1,54.323,7.524Z" transform="translate(-49.299 0)" fill="#767676"/>
      </g>
    </g>
    <rect id="Rectangle_4650" data-name="Rectangle 4650" width="14" height="14" transform="translate(91 144)" fill="none"/>
  </g>
</svg>
