<svg
    xmlns="http://www.w3.org/2000/svg"
    viewBox="0 0 13 17"
    id="vector">
    <path
        id="path"
        d="M 12.022 5.761 L 10.84 5.761 L 10.84 3.312 C 10.839 2.461 10.5 1.644 9.898 1.042 C 9.296 0.44 8.479 0.101 7.628 0.1 L 5.097 0.1 C 4.246 0.101 3.429 0.44 2.827 1.042 C 2.225 1.644 1.886 2.461 1.885 3.312 L 1.885 5.761 L 0.702 5.761 C 0.543 5.761 0.39 5.824 0.278 5.937 C 0.165 6.049 0.102 6.202 0.102 6.361 L 0.102 12.244 C 0.103 13.424 0.572 14.557 1.406 15.393 C 2.24 16.228 3.373 16.698 4.553 16.7 L 8.172 16.7 C 9.352 16.699 10.484 16.229 11.319 15.395 C 12.153 14.56 12.623 13.428 12.625 12.248 L 12.625 6.364 C 12.626 6.258 12.598 6.154 12.545 6.062 C 12.492 5.97 12.416 5.894 12.324 5.841 C 12.232 5.788 12.128 5.76 12.022 5.761 Z M 3.089 3.312 C 3.089 2.959 3.181 2.612 3.357 2.307 C 3.533 2.001 3.787 1.747 4.092 1.57 C 4.398 1.394 4.744 1.3 5.097 1.3 L 7.628 1.3 C 8.161 1.301 8.672 1.513 9.048 1.89 C 9.424 2.268 9.636 2.779 9.635 3.312 L 9.635 5.761 L 3.089 5.761 Z M 11.419 12.247 C 11.418 13.108 11.075 13.934 10.467 14.543 C 9.858 15.151 9.032 15.494 8.171 15.495 L 4.553 15.495 C 3.692 15.494 2.866 15.151 2.257 14.543 C 1.649 13.934 1.306 13.108 1.305 12.247 L 1.305 6.966 L 11.415 6.966 Z"
        fill="#808080"
        stroke="#ffffff"
        stroke-width="0.2"/>
    <path
        id="path_1"
        d="M 5.759 13.495 C 5.759 13.654 5.822 13.807 5.935 13.919 C 6.047 14.032 6.2 14.095 6.359 14.095 C 6.518 14.095 6.671 14.032 6.783 13.919 C 6.896 13.807 6.959 13.654 6.959 13.495 L 6.959 11.775 C 7.047 11.655 7.088 11.506 7.072 11.358 C 7.057 11.21 6.986 11.072 6.875 10.973 C 6.764 10.873 6.62 10.819 6.471 10.82 L 6.242 10.82 C 6.093 10.819 5.949 10.873 5.838 10.973 C 5.727 11.072 5.656 11.21 5.641 11.358 C 5.625 11.506 5.666 11.655 5.754 11.775 Z"
        fill="#808080"
        stroke="#ffffff"
        stroke-width="0.2"/>
</svg>
