<svg xmlns="http://www.w3.org/2000/svg" width="16.05" height="17.293" viewBox="0 0 16.05 17.293">
  <g id="logout_1_" data-name="logout (1)" transform="translate(-17.6)">
    <g id="Group_628" data-name="Group 628" transform="translate(17.6 0)">
      <g id="Group_627" data-name="Group 627" transform="translate(0 0)">
        <path id="Path_1733" data-name="Path 1733" d="M131.909,133.355l.007-.007a.27.27,0,0,0,.028-.039s0-.007.007-.011.018-.028.025-.042a.012.012,0,0,1,0-.007c.007-.014.014-.028.021-.046s0,0,0-.007.011-.032.018-.049,0-.007,0-.007a.248.248,0,0,0,.011-.049.032.032,0,0,1,0-.018c0-.014,0-.028.007-.042a.51.51,0,0,0,0-.12.177.177,0,0,0-.007-.042.032.032,0,0,0,0-.018c0-.018-.007-.032-.011-.049s0-.007,0-.007a.278.278,0,0,0-.018-.049s0,0,0-.007-.014-.032-.021-.046a.012.012,0,0,0,0-.007.261.261,0,0,0-.025-.042s0-.007-.007-.011a.371.371,0,0,0-.028-.039l-.007-.007a.5.5,0,0,0-.042-.046l-3.491-3.488a.607.607,0,1,0-.858.858l2.457,2.457h-9.767a.605.605,0,1,0,0,1.211h9.771l-2.439,2.439a.605.605,0,1,0,.854.858l3.47-3.47C131.88,133.384,131.895,133.369,131.909,133.355Z" transform="translate(-116 -124.326)" fill="#181818"/>
        <path id="Path_1734" data-name="Path 1734" d="M20.886,1.211H25.4A.605.605,0,1,0,25.4,0H20.886A3.292,3.292,0,0,0,17.6,3.286v10.72a3.292,3.292,0,0,0,3.286,3.286H25.33a.605.605,0,1,0,0-1.211H20.886a2.079,2.079,0,0,1-2.076-2.076V3.286A2.079,2.079,0,0,1,20.886,1.211Z" transform="translate(-17.6 0)" fill="#181818"/>
      </g>
    </g>
  </g>
</svg>
