<svg xmlns="http://www.w3.org/2000/svg" width="13.017" height="18.456" viewBox="0 0 13.017 18.456">
  <path id="mic" d="M286.605,622.4v-2.443a6.359,6.359,0,0,1-5.938-6.264.495.495,0,0,1,.99,0,5.445,5.445,0,0,0,10.887,0,.495.495,0,0,1,.99,0,6.342,6.342,0,0,1-5.938,6.264V622.4m3.217-14.753v6.046a3.713,3.713,0,0,1-7.423,0v-6.046a3.713,3.713,0,0,1,7.423,0Zm-.99,0a2.723,2.723,0,0,0-5.444,0v6.046a2.723,2.723,0,0,0,5.444,0Z" transform="translate(-280.592 -603.944)" fill="#363636" stroke="#363636" stroke-width="0.15"/>
</svg>
