<svg id="mic1" xmlns="http://www.w3.org/2000/svg" width="8.842" height="13.263" viewBox="0 0 8.842 13.263">
  <g id="Group_8996" data-name="Group 8996" transform="translate(0)">
    <path id="Path_10911" data-name="Path 10911" d="M148.542,9.261a2.187,2.187,0,0,0,1.669-.755,2.591,2.591,0,0,0,.694-1.817V2.573a2.591,2.591,0,0,0-.694-1.817,2.22,2.22,0,0,0-3.338,0,2.591,2.591,0,0,0-.694,1.817V6.688a2.591,2.591,0,0,0,.694,1.817A2.187,2.187,0,0,0,148.542,9.261Z" transform="translate(-144.121)" fill="#fff"/>
    <path id="Path_10912" data-name="Path 10912" d="M81.783,182.877a.467.467,0,0,0-.691,0,.506.506,0,0,0-.146.362v1.029a3.553,3.553,0,0,1-1.009,2.544,3.32,3.32,0,0,1-4.858,0,3.552,3.552,0,0,1-1.009-2.544v-1.029a.506.506,0,0,0-.146-.362.467.467,0,0,0-.691,0,.506.506,0,0,0-.146.362v1.029a4.586,4.586,0,0,0,1.132,3.091,4.225,4.225,0,0,0,2.8,1.507v1.061H75.052a.462.462,0,0,0-.345.153.521.521,0,0,0,0,.723.462.462,0,0,0,.345.153h4.912a.462.462,0,0,0,.345-.153.521.521,0,0,0,0-.723.462.462,0,0,0-.345-.153H78v-1.061a4.225,4.225,0,0,0,2.8-1.507,4.586,4.586,0,0,0,1.132-3.091v-1.029A.506.506,0,0,0,81.783,182.877Z" transform="translate(-73.087 -177.693)" fill="#fff"/>
  </g>
</svg>
