<svg
    xmlns="http://www.w3.org/2000/svg"
    viewBox="0 0 28 28"
    id="vector">
    <path
        id="path"
        d="M 14 0 C 17.712 0 21.275 1.476 23.899 4.101 C 26.524 6.725 28 10.288 28 14 C 28 17.712 26.524 21.275 23.899 23.899 C 21.275 26.524 17.712 28 14 28 C 10.288 28 6.725 26.524 4.101 23.899 C 1.476 21.275 0 17.712 0 14 C 0 10.288 1.476 6.725 4.101 4.101 C 6.725 1.476 10.288 0 14 0 Z"
        fill="#97a5c7"/>
    <path
        id="path_1"
        d="M 18.363 14.767 L 18.363 14.123 C 18.366 13.199 18.076 12.297 17.534 11.549 C 16.992 10.8 16.226 10.242 15.348 9.956 C 14.469 9.67 13.522 9.67 12.643 9.956 C 11.765 10.242 10.999 10.8 10.457 11.549 C 9.915 12.297 9.625 13.199 9.628 14.123 L 9.628 14.767 C 9.158 14.794 8.717 15.006 8.401 15.355 C 8.086 15.705 7.921 16.166 7.943 16.636 C 7.964 17.107 8.171 17.55 8.517 17.869 C 8.863 18.189 9.321 18.359 9.792 18.343 L 9.956 18.343 L 9.956 18.406 C 9.957 18.516 10.001 18.622 10.079 18.7 C 10.157 18.778 10.263 18.822 10.373 18.823 L 10.7 18.823 C 10.81 18.822 10.916 18.778 10.994 18.7 C 11.072 18.622 11.116 18.516 11.117 18.406 L 11.117 14.691 C 11.116 14.581 11.072 14.475 10.994 14.397 C 10.916 14.319 10.81 14.275 10.7 14.274 L 10.55 14.274 L 10.55 14.123 C 10.55 13.395 10.78 12.686 11.208 12.097 C 11.636 11.509 12.239 11.071 12.931 10.846 C 13.623 10.621 14.369 10.621 15.061 10.846 C 15.753 11.071 16.356 11.509 16.784 12.097 C 17.212 12.686 17.442 13.395 17.442 14.123 L 17.442 14.274 L 17.29 14.274 C 17.18 14.275 17.074 14.319 16.996 14.397 C 16.918 14.475 16.874 14.581 16.873 14.691 L 16.873 18.402 C 16.874 18.512 16.918 18.618 16.996 18.696 C 17.074 18.774 17.18 18.818 17.29 18.819 L 17.618 18.819 C 17.728 18.818 17.834 18.774 17.912 18.696 C 17.99 18.618 18.034 18.512 18.035 18.402 L 18.035 18.343 L 18.212 18.343 C 18.527 18.342 18.836 18.259 19.109 18.101 C 19.381 17.942 19.607 17.715 19.764 17.441 C 19.92 17.168 20.002 16.858 20 16.543 C 19.992 16.098 19.821 15.671 19.52 15.343 C 19.218 15.016 18.806 14.811 18.363 14.767 Z"
        fill="#ffffff"/>
</svg>
