<svg
    xmlns="http://www.w3.org/2000/svg"
    viewBox="0 0 18 18"
    id="vector">
    <path
        id="path"
        d="M 14.305 0.654 C 14.305 0.532 14.271 0.413 14.207 0.309 C 14.142 0.206 14.05 0.123 13.941 0.069 C 13.831 0.014 13.707 -0.009 13.585 0.005 C 13.463 0.019 13.347 0.068 13.252 0.147 L 7.491 4.738 L 14.306 11.553 Z"
        fill="#000000"/>
    <path
        id="path_1"
        d="M 18.016 17.1 L 1.11 0.193 C 0.987 0.076 0.823 0.011 0.654 0.013 C 0.484 0.015 0.321 0.083 0.201 0.203 C 0.081 0.323 0.013 0.486 0.011 0.656 C 0.009 0.825 0.074 0.989 0.191 1.112 L 4.282 5.205 L 3.901 5.205 C 3.558 5.21 3.23 5.349 2.988 5.592 C 2.745 5.834 2.606 6.162 2.601 6.505 L 2.601 11.705 C 2.601 11.933 2.661 12.157 2.775 12.355 C 2.889 12.553 3.053 12.717 3.251 12.831 C 3.449 12.945 3.673 13.005 3.901 13.005 L 6.918 13.005 L 13.255 18.067 C 13.369 18.157 13.51 18.207 13.655 18.21 C 13.754 18.207 13.851 18.185 13.941 18.145 C 14.05 18.091 14.142 18.008 14.207 17.905 C 14.271 17.801 14.305 17.682 14.305 17.56 L 14.305 15.228 L 17.096 18.019 C 17.192 18.122 17.318 18.192 17.457 18.217 C 17.595 18.243 17.738 18.222 17.864 18.159 C 17.99 18.097 18.093 17.995 18.156 17.869 C 18.219 17.743 18.239 17.6 18.214 17.461 C 18.189 17.323 18.12 17.196 18.017 17.1 Z"
        fill="#000000"/>
</svg>
