<svg xmlns="http://www.w3.org/2000/svg" width="17" height="18" viewBox="0 0 17 18">
  <path id="Notifications" d="M39.109,236v-2.971a6.149,6.149,0,0,0-1.822-4.345,6.423,6.423,0,0,0-2.313-1.458v-.448a2.112,2.112,0,0,0-4.222,0v.448a6.185,6.185,0,0,0-2.313,1.458,5.917,5.917,0,0,0-1.822,4.345v3a3.454,3.454,0,0,0-2.082,3.111.389.389,0,0,0,.4.393h4.973a3.1,3.1,0,0,0,6.188,0H40.93a.389.389,0,0,0,.4-.393,3.584,3.584,0,0,0-.839-2.214A4.44,4.44,0,0,0,39.109,236ZM31.5,226.8a1.3,1.3,0,0,1,2.6,0v.252a6.924,6.924,0,0,0-2.631,0V226.8Zm-4.135,6.251a5.466,5.466,0,0,1,10.93,0v2.831H27.34v-2.831Zm5.581,8.69a2.313,2.313,0,0,1-2.284-2.214h4.569A2.313,2.313,0,0,1,32.95,241.742Zm-7.634-2.971a2.5,2.5,0,0,1,2.169-2.13H38.3a2.469,2.469,0,0,1,2.169,2.13Z" transform="translate(-24.435 -224.627)" fill="#181818" stroke="#181818" stroke-width="0.2"/>
</svg>
