<svg
    xmlns="http://www.w3.org/2000/svg"
    viewBox="0 0 17 18"
    id="vector">
    <path
        id="path"
        d="M 14.674 11.373 L 14.674 8.402 C 14.671 7.594 14.508 6.794 14.196 6.048 C 13.883 5.303 13.426 4.626 12.852 4.057 C 12.195 3.411 11.406 2.913 10.539 2.599 L 10.539 2.151 C 10.522 1.603 10.292 1.082 9.898 0.7 C 9.504 0.318 8.977 0.104 8.428 0.104 C 7.879 0.104 7.352 0.318 6.958 0.7 C 6.564 1.082 6.334 1.603 6.317 2.151 L 6.317 2.599 C 5.447 2.906 4.657 3.405 4.004 4.057 C 3.419 4.618 2.955 5.293 2.642 6.04 C 2.328 6.788 2.172 7.592 2.182 8.402 L 2.182 11.402 C 1.573 11.666 1.052 12.099 0.683 12.651 C 0.314 13.203 0.111 13.849 0.1 14.513 C 0.099 14.583 0.117 14.652 0.153 14.712 C 0.188 14.773 0.239 14.823 0.3 14.857 C 0.361 14.891 0.43 14.908 0.5 14.906 L 5.473 14.906 C 5.522 15.693 5.87 16.432 6.444 16.972 C 7.019 17.512 7.778 17.813 8.567 17.813 C 9.356 17.813 10.115 17.512 10.69 16.972 C 11.264 16.432 11.612 15.693 11.661 14.906 L 16.495 14.906 C 16.565 14.908 16.634 14.891 16.695 14.857 C 16.756 14.823 16.807 14.773 16.842 14.712 C 16.878 14.652 16.896 14.583 16.895 14.513 C 16.874 13.701 16.578 12.921 16.056 12.299 C 15.658 11.906 15.189 11.592 14.674 11.373 Z M 7.065 2.173 C 7.065 1.828 7.202 1.497 7.446 1.254 C 7.689 1.01 8.02 0.873 8.365 0.873 C 8.71 0.873 9.041 1.01 9.284 1.254 C 9.528 1.497 9.665 1.828 9.665 2.173 L 9.665 2.425 C 8.796 2.257 7.903 2.257 7.034 2.425 L 7.034 2.173 Z M 2.93 8.424 C 2.957 6.993 3.546 5.629 4.567 4.627 C 5.589 3.625 6.964 3.063 8.395 3.063 C 9.826 3.063 11.201 3.625 12.223 4.627 C 13.244 5.629 13.833 6.993 13.86 8.424 L 13.86 11.255 L 2.905 11.255 L 2.905 8.424 Z M 8.511 17.114 C 7.92 17.107 7.353 16.874 6.928 16.462 C 6.503 16.05 6.252 15.491 6.227 14.9 L 10.796 14.9 C 10.771 15.491 10.521 16.05 10.096 16.462 C 9.672 16.873 9.106 17.107 8.515 17.115 Z M 0.877 14.143 C 0.954 13.599 1.209 13.095 1.601 12.71 C 1.993 12.325 2.501 12.08 3.046 12.013 L 13.865 12.013 C 14.412 12.075 14.923 12.319 15.316 12.705 C 15.709 13.09 15.962 13.597 16.034 14.143 Z"
        fill="#ffffff"
        stroke="#ffffff"
        stroke-width="0.2"/>
</svg>
