<svg xmlns="http://www.w3.org/2000/svg" width="13.548" height="10.243" viewBox="0 0 13.548 10.243">
  <g id="noun_Audio_3408360" transform="translate(-2.5 -14)">
    <g id="Group_15648" data-name="Group 15648" transform="translate(2.5 14)">
      <path id="Path_13786" data-name="Path 13786" d="M14.2,19.67v-.727a4.929,4.929,0,1,0-9.859,0v.727A2.02,2.02,0,0,0,4.523,23.7h.185v.071a.474.474,0,0,0,.47.47h.37a.474.474,0,0,0,.47-.47V19.585a.474.474,0,0,0-.47-.47H5.378v-.171a3.889,3.889,0,0,1,7.779,0v.171h-.171a.474.474,0,0,0-.47.47v4.188a.474.474,0,0,0,.47.47h.37a.474.474,0,0,0,.47-.47V23.7h.2a2.022,2.022,0,0,0,2.023-2.023A2.05,2.05,0,0,0,14.2,19.67Z" transform="translate(-2.5 -14)" fill="#767676"/>
    </g>
  </g>
</svg>
