<svg
    xmlns="http://www.w3.org/2000/svg"
    viewBox="0 0 18 22"
    id="vector">
    <path
        id="path"
        d="M 13 0 L 16 0 C 16.53 0 17.039 0.211 17.414 0.586 C 17.789 0.961 18 1.47 18 2 L 18 20 C 18 20.53 17.789 21.039 17.414 21.414 C 17.039 21.789 16.53 22 16 22 L 13 22 C 12.47 22 11.961 21.789 11.586 21.414 C 11.211 21.039 11 20.53 11 20 L 11 2 C 11 1.47 11.211 0.961 11.586 0.586 C 11.961 0.211 12.47 0 13 0 Z"
        fill="#7285b5"/>
    <path
        id="path_1"
        d="M 2 0 L 5 0 C 5.53 0 6.039 0.211 6.414 0.586 C 6.789 0.961 7 1.47 7 2 L 7 20 C 7 20.53 6.789 21.039 6.414 21.414 C 6.039 21.789 5.53 22 5 22 L 2 22 C 1.47 22 0.961 21.789 0.586 21.414 C 0.211 21.039 0 20.53 0 20 L 0 2 C 0 1.47 0.211 0.961 0.586 0.586 C 0.961 0.211 1.47 0 2 0 Z"
        fill="#7285b5"/>
</svg>
