<svg xmlns="http://www.w3.org/2000/svg" width="18.093" height="22.788" viewBox="0 0 18.093 22.788">
  <g id="Group_7354" data-name="Group 7354" transform="translate(-1.28)">
    <path id="Path_9793" data-name="Path 9793" d="M70.828,20.753a2.037,2.037,0,0,1-2.039,2.035H54.774a2.037,2.037,0,0,1-2.039-2.035V2.035A2.037,2.037,0,0,1,54.774,0H63.5a1.53,1.53,0,0,1,1.082.448l5.8,5.8a1.524,1.524,0,0,1,.447,1.078Z" transform="translate(-51.455 0)" fill="#f34646"/>
    <path id="Path_9796" data-name="Path 9796" d="M315.4,9.659h-5.18a1.378,1.378,0,0,1-1.378-1.379V3.1a1.514,1.514,0,0,1,.448.31l5.8,5.8a1.515,1.515,0,0,1,.31.447Z" transform="translate(-296.16 -2.963)" fill="#f77e7e"/>
    <g id="Group_7353" data-name="Group 7353" transform="translate(8.668 11.394)">
      <path id="Path_9799" data-name="Path 9799" d="M335.546,262.273a.344.344,0,1,0,0-.688h-2.1a.344.344,0,0,0-.344.344v5.188a.344.344,0,1,0,.688,0v-2.3h1.592a.344.344,0,0,0,0-.688h-1.592v-1.857Z" transform="translate(-328.009 -261.585)" fill="#f9f8f9"/>
      <path id="Path_9800" data-name="Path 9800" d="M220.525,262.891h-1.437a.344.344,0,0,0-.344.344v0h0v4.984a.343.343,0,0,0,.01.082v0a.344.344,0,0,0,.344.343h0c.043,0,1.066,0,1.473-.011a2.194,2.194,0,0,0,1.732-.881,3.273,3.273,0,0,0,.613-1.988C222.918,264.048,221.956,262.891,220.525,262.891Zm.036,5.061c-.256,0-.774.008-1.12.009,0-.567-.005-1.686-.005-2.2,0-.427,0-1.6,0-2.186h1.092c1.257,0,1.7,1.132,1.7,2.192C222.23,267.038,221.544,267.935,220.562,267.952Z" transform="translate(-218.745 -262.833)" fill="#f9f8f9"/>
    </g>
    <path id="Path_9801" data-name="Path 9801" d="M108.7,261.64h-1.467c-.3,0-.316.131-.316.316v5.27a.316.316,0,0,0,.632,0v-1.975c.343,0,.886,0,1.151,0a1.8,1.8,0,1,0,0-3.606Zm0,2.974c-.263,0-.8,0-1.143,0,0-.352,0-.908,0-1.176,0-.225,0-.805,0-1.171h1.15a1.171,1.171,0,1,1,0,2.342Z" transform="translate(-102.75 -250.246)" fill="#f9f8f9"/>
  </g>
</svg>
