<svg xmlns="http://www.w3.org/2000/svg" width="16.153" height="16.11" viewBox="0 0 16.153 16.11">
  <path id="Shape_1" data-name="Shape 1" d="M327.909,250.976a17.031,17.031,0,0,0,5.667,4.426,8.84,8.84,0,0,0,3.172.936c.076,0,.15.007.226.007a2.63,2.63,0,0,0,2.037-.872.071.071,0,0,0,.013-.017,8.58,8.58,0,0,1,.642-.663c.156-.149.316-.305.469-.464a1.6,1.6,0,0,0-.007-2.385l-2-1.994a1.621,1.621,0,0,0-1.171-.537,1.676,1.676,0,0,0-1.185.534l-1.191,1.188c-.11-.063-.223-.119-.329-.172a4.081,4.081,0,0,1-.366-.2,12.592,12.592,0,0,1-3.012-2.734,7.235,7.235,0,0,1-1.018-1.619c.313-.282.606-.577.888-.866.1-.1.2-.206.306-.309a1.567,1.567,0,0,0,0-2.389l-.992-.989c-.117-.116-.226-.229-.34-.345-.22-.226-.449-.458-.676-.667a1.662,1.662,0,0,0-1.171-.511,1.711,1.711,0,0,0-1.185.514l-1.245,1.241a2.546,2.546,0,0,0-.762,1.632,6.121,6.121,0,0,0,.463,2.654A15.433,15.433,0,0,0,327.909,250.976Zm-2.416-7.186a1.753,1.753,0,0,1,.529-1.128l1.238-1.234a.9.9,0,0,1,.612-.282.852.852,0,0,1,.6.289c.223.206.433.421.659.65.113.116.23.232.346.352l.992.989a.771.771,0,0,1,0,1.241c-.1.1-.206.209-.31.312-.31.312-.6.607-.919.889l-.017.017a.647.647,0,0,0-.166.736c0,.01.007.017.01.027a7.8,7.8,0,0,0,1.168,1.894,13.293,13.293,0,0,0,3.208,2.913,4.754,4.754,0,0,0,.439.239,4.14,4.14,0,0,1,.366.2l.037.02a.7.7,0,0,0,.323.083.707.707,0,0,0,.5-.226l1.245-1.241a.882.882,0,0,1,.609-.3.836.836,0,0,1,.589.3l2.007,2a.8.8,0,0,1-.01,1.251c-.14.149-.286.292-.443.441a9.548,9.548,0,0,0-.7.72,1.83,1.83,0,0,1-1.428.6c-.057,0-.117,0-.173-.007a8.032,8.032,0,0,1-2.869-.856,16.179,16.179,0,0,1-5.395-4.213,14.772,14.772,0,0,1-2.629-4.363A5.336,5.336,0,0,1,325.493,243.79Z" transform="translate(-324.618 -240.283)" fill="gray" stroke="gray" stroke-linejoin="round" stroke-width="0.1"/>
</svg>
