<svg
    xmlns="http://www.w3.org/2000/svg"
    viewBox="0 0 12 15"
    id="vector">
    <path
        id="path"
        d="M 11.671 6.868 L 0.987 0.1 C 0.847 0.02 0.683 -0.006 0.525 0.027 C 0.368 0.059 0.227 0.148 0.13 0.277 C 0.034 0.406 -0.013 0.565 0 0.726 L 0 14.277 C -0.013 14.438 0.034 14.597 0.13 14.726 C 0.227 14.855 0.368 14.944 0.525 14.976 C 0.683 15.009 0.847 14.983 0.987 14.903 L 11.671 8.133 C 11.807 8.038 11.909 7.901 11.961 7.743 C 12.013 7.586 12.013 7.415 11.961 7.258 C 11.909 7.1 11.807 6.963 11.671 6.868 Z"
        fill="#7285b5"/>
</svg>
