<svg xmlns="http://www.w3.org/2000/svg" width="18.093" height="22.788" viewBox="0 0 18.093 22.788">
  <g id="Group_15661" data-name="Group 15661" transform="translate(-1.28)">
    <path id="Path_9793" data-name="Path 9793" d="M70.828,20.753a2.037,2.037,0,0,1-2.039,2.035H54.774a2.037,2.037,0,0,1-2.039-2.035V2.035A2.037,2.037,0,0,1,54.774,0H63.5a1.53,1.53,0,0,1,1.082.448l5.8,5.8a1.524,1.524,0,0,1,.447,1.078Z" transform="translate(-51.455 0)" fill="#faca2e"/>
    <path id="Path_9796" data-name="Path 9796" d="M315.4,9.659h-5.18a1.378,1.378,0,0,1-1.378-1.379V3.1a1.514,1.514,0,0,1,.448.31l5.8,5.8a1.515,1.515,0,0,1,.31.447Z" transform="translate(-296.16 -2.963)" fill="#fcda6d"/>
    <path id="Path_13789" data-name="Path 13789" d="M3.4,19.854a.4.4,0,0,1-.4-.4V15.4a.4.4,0,0,1,.4-.4H4.618a1.618,1.618,0,1,1,0,3.236H3.809v1.213A.4.4,0,0,1,3.4,19.854Zm.4-2.427h.809a.809.809,0,1,0,0-1.618H3.809Z" transform="translate(1.664 -3.846)" fill="#fff"/>
    <path id="Path_13790" data-name="Path 13790" d="M8.4,19.854a.4.4,0,0,1-.4-.4V15.4a.4.4,0,0,1,.4-.4H9.618a1.618,1.618,0,1,1,0,3.236H8.809v1.213A.4.4,0,0,1,8.4,19.854Zm.4-2.427h.809a.809.809,0,0,0,0-1.618H8.809Z" transform="translate(0.708 -3.846)" fill="#fff"/>
    <path id="Path_13791" data-name="Path 13791" d="M14.9,19.854a.4.4,0,0,1-.4-.4V15.4a.4.4,0,0,1,.809,0v4.045A.4.4,0,0,1,14.9,19.854Z" transform="translate(-0.533 -3.846)" fill="#fff"/>
    <path id="Path_13792" data-name="Path 13792" d="M15.831,15.809H13.4a.4.4,0,1,1,0-.809h2.427a.4.4,0,0,1,0,.809Z" transform="translate(-0.247 -3.846)" fill="#fff"/>
  </g>
</svg>
