<svg
    xmlns="http://www.w3.org/2000/svg"
    viewBox="0 0 23 29"
    id="vector">
    <path
        id="path"
        d="M 23.499 27.001 C 23.499 28.501 22.299 29.601 20.899 29.601 L 2.699 29.601 C 1.199 29.601 0.099 28.401 0.099 27.001 L 0.099 2.701 C 0.099 1.201 1.299 0.101 2.699 0.101 L 13.999 0.101 C 14.499 0.101 14.999 0.301 15.399 0.701 L 22.899 8.201 C 23.299 8.601 23.499 9.101 23.499 9.601 L 23.499 27.001 Z"
        fill="#cb4b32"/>
    <path
        id="path_1"
        d="M 23.299 8.701 L 16.599 8.701 C 15.599 8.701 14.799 7.901 14.799 6.901 L 14.799 0.201 C 14.999 0.301 15.199 0.401 15.399 0.601 L 22.899 8.101 C 23.099 8.301 23.199 8.501 23.299 8.701 L 23.299 8.701 Z"
        fill="#ea7b65"/>
    <path
        id="path_2"
        d="M 3.899 18.901 L 3.899 20.801 L 2.599 20.801 L 2.599 15.201 L 4.599 15.201 C 5.999 15.201 6.699 15.801 6.699 17.001 C 6.699 17.601 6.499 18.001 6.099 18.401 C 5.699 18.801 5.199 18.901 4.499 18.901 L 3.899 18.901 Z M 3.899 16.201 L 3.899 17.901 L 4.399 17.901 C 5.099 17.901 5.399 17.601 5.399 17.001 C 5.399 16.401 5.099 16.101 4.399 16.101 L 3.899 16.101 Z"
        fill="#ffffff"/>
    <path
        id="path_3"
        d="M 8.799 18.901 L 8.799 20.801 L 7.499 20.801 L 7.499 15.201 L 9.499 15.201 C 10.899 15.201 11.599 15.801 11.599 17.001 C 11.599 17.601 11.399 18.001 10.999 18.401 C 10.599 18.801 10.099 18.901 9.399 18.901 L 8.799 18.901 Z M 8.799 16.201 L 8.799 17.901 L 9.299 17.901 C 9.999 17.901 10.299 17.601 10.299 17.001 C 10.299 16.401 9.999 16.101 9.299 16.101 L 8.799 16.101 Z"
        fill="#ffffff"/>
    <path
        id="path_4"
        d="M 16.399 16.201 L 14.799 16.201 L 14.799 20.801 L 13.499 20.801 L 13.499 16.201 L 11.899 16.201 L 11.899 15.201 L 16.399 15.201 L 16.399 16.201 Z"
        fill="#ffffff"/>
    <path
        id="path_5"
        d="M 21.699 20.801 L 20.199 20.801 L 19.199 19.001 C 19.199 18.901 19.099 18.801 19.099 18.601 L 19.099 18.601 C 19.099 18.701 18.999 18.801 18.999 19.001 L 17.999 20.801 L 16.499 20.801 L 18.299 18.001 L 16.699 15.201 L 18.199 15.201 L 18.999 16.901 C 19.099 17.001 19.099 17.201 19.199 17.401 L 19.199 17.401 C 19.199 17.301 19.299 17.101 19.399 16.901 L 20.299 15.201 L 21.699 15.201 L 19.999 18.001 L 21.699 20.801 Z"
        fill="#ffffff"/>
</svg>
