<svg xmlns="http://www.w3.org/2000/svg" width="16.907" height="16.923" viewBox="0 0 16.907 16.923">
  <path id="push-pin" d="M16.426,6.6a.31.31,0,0,0-.189-.225,7.569,7.569,0,0,0-5.688.089L5.94,2.54A3.464,3.464,0,0,0,5.3.115.312.312,0,0,0,5.079,0a.321.321,0,0,0-.236.09L.118,4.816a.31.31,0,0,0,.026.462,3.516,3.516,0,0,0,2.393.637l3.941,4.632a8.121,8.121,0,0,0-.1,5.681.31.31,0,0,0,.507.1L11.4,11.818l4.2,4.2a.31.31,0,0,0,.438-.438l-4.2-4.2,4.5-4.5A.311.311,0,0,0,16.426,6.6Zm-5.467,4.789L6.8,15.545a7.86,7.86,0,0,1,.319-4.928.311.311,0,0,0-.046-.328L2.9,5.387a.311.311,0,0,0-.237-.109.275.275,0,0,0-.048,0,3.205,3.205,0,0,1-1.795-.3L5.006.8a2.906,2.906,0,0,1,.3,1.812.309.309,0,0,0,.1.286l4.89,4.16a.313.313,0,0,0,.342.04,7.078,7.078,0,0,1,4.916-.315Z" transform="translate(0.223 0.25)" stroke="#000" stroke-width="0.5"/>
</svg>
