<svg
    xmlns="http://www.w3.org/2000/svg"
    viewBox="0 0 29 29"
    id="vector">
    <path
        id="path"
        d="M 14.496 1.496 C 11.05 1.496 7.741 2.867 5.304 5.304 C 2.867 7.741 1.496 11.05 1.496 14.496 C 1.496 17.942 2.867 21.251 5.304 23.688 C 7.741 26.125 11.05 27.496 14.496 27.496 C 17.942 27.496 21.251 26.125 23.688 23.688 C 26.125 21.251 27.496 17.942 27.496 14.496 C 27.491 11.051 26.119 7.745 23.683 5.309 C 21.247 2.873 17.941 1.501 14.496 1.496 Z M 14.496 25.903 C 11.474 25.901 8.574 24.698 6.439 22.561 C 4.303 20.423 3.102 17.522 3.103 14.501 C 3.104 11.479 4.305 8.579 6.442 6.442 C 8.579 4.305 11.479 3.104 14.501 3.103 C 17.522 3.102 20.423 4.303 22.561 6.439 C 24.698 8.574 25.901 11.474 25.903 14.496 C 25.901 17.519 24.697 20.421 22.559 22.559 C 20.421 24.697 17.519 25.901 14.496 25.903 Z"
        fill="#181818"
        stroke="#181818"
        stroke-width="0.2"/>
    <path
        id="path_1"
        d="M 13.284 9.352 C 13.284 9.652 13.379 9.945 13.556 10.188 C 13.732 10.431 13.981 10.612 14.267 10.704 C 14.552 10.797 14.86 10.797 15.145 10.704 C 15.431 10.612 15.68 10.431 15.856 10.188 C 16.033 9.945 16.128 9.652 16.128 9.352 C 16.128 9.052 16.033 8.759 15.856 8.516 C 15.68 8.273 15.431 8.092 15.145 8 C 14.86 7.907 14.552 7.907 14.267 8 C 13.981 8.092 13.732 8.273 13.556 8.516 C 13.379 8.759 13.284 9.052 13.284 9.352 Z"
        fill="#181818"
        stroke="#181818"
        stroke-width="0.2"/>
    <path
        id="path_2"
        d="M 14.355 12.498 C 14.13 12.498 13.914 12.588 13.754 12.747 C 13.595 12.907 13.505 13.123 13.505 13.348 L 13.505 20.576 C 13.505 20.801 13.595 21.018 13.754 21.177 C 13.913 21.336 14.13 21.426 14.355 21.426 C 14.58 21.426 14.797 21.336 14.956 21.177 C 15.115 21.018 15.205 20.801 15.205 20.576 L 15.205 13.348 C 15.205 13.199 15.166 13.052 15.091 12.923 C 15.017 12.794 14.909 12.686 14.78 12.612 C 14.651 12.537 14.504 12.498 14.355 12.498 Z"
        fill="#181818"
        stroke="#181818"
        stroke-width="0.2"/>
</svg>
