<svg
    xmlns="http://www.w3.org/2000/svg"
    viewBox="0 0 29 29"
    id="vector">
    <path
        id="path"
        d="M 7.363 18.344 C 9.696 21.119 12.594 23.365 15.863 24.932 C 17.348 25.69 18.961 26.162 20.62 26.325 C 20.735 26.325 20.845 26.335 20.959 26.335 C 21.532 26.352 22.102 26.245 22.629 26.021 C 23.157 25.796 23.629 25.46 24.014 25.035 C 24.022 25.028 24.029 25.019 24.034 25.01 C 24.337 24.664 24.658 24.334 24.997 24.022 C 25.232 23.8 25.471 23.568 25.697 23.331 C 26.033 23.033 26.277 22.645 26.401 22.214 C 26.525 21.782 26.524 21.324 26.397 20.893 C 26.271 20.462 26.025 20.076 25.687 19.78 L 22.687 16.812 C 22.464 16.566 22.193 16.368 21.891 16.231 C 21.589 16.093 21.262 16.019 20.93 16.012 C 20.596 16.021 20.266 16.096 19.961 16.233 C 19.656 16.371 19.381 16.567 19.153 16.812 L 17.366 18.58 C 17.201 18.486 17.031 18.402 16.872 18.323 C 16.684 18.232 16.501 18.132 16.323 18.023 C 14.607 16.92 13.081 15.545 11.805 13.953 C 11.191 13.221 10.678 12.411 10.278 11.543 C 10.747 11.123 11.187 10.684 11.611 10.254 C 11.761 10.101 11.911 9.948 12.07 9.795 C 12.417 9.504 12.671 9.117 12.801 8.683 C 12.931 8.248 12.931 7.786 12.801 7.351 C 12.671 6.917 12.417 6.53 12.07 6.239 L 10.582 4.767 C 10.407 4.594 10.243 4.426 10.073 4.253 C 9.744 3.917 9.399 3.572 9.06 3.26 C 8.832 3.024 8.559 2.835 8.257 2.705 C 7.956 2.574 7.631 2.504 7.303 2.499 C 6.634 2.513 5.996 2.788 5.526 3.264 L 3.659 5.111 C 2.993 5.754 2.587 6.619 2.516 7.541 C 2.449 8.893 2.686 10.244 3.21 11.492 C 4.182 14.002 5.587 16.321 7.363 18.344 Z M 3.739 7.644 C 3.788 7.006 4.071 6.408 4.533 5.965 L 6.39 4.128 C 6.63 3.875 6.959 3.724 7.308 3.708 C 7.479 3.716 7.647 3.758 7.802 3.832 C 7.956 3.906 8.094 4.01 8.208 4.138 C 8.542 4.444 8.857 4.765 9.196 5.106 C 9.366 5.279 9.54 5.452 9.715 5.63 L 11.203 7.102 C 11.398 7.244 11.542 7.444 11.617 7.673 C 11.691 7.902 11.691 8.149 11.617 8.378 C 11.542 8.607 11.398 8.807 11.203 8.949 C 11.048 9.102 10.894 9.26 10.739 9.413 C 10.275 9.877 9.839 10.313 9.361 10.737 L 9.336 10.762 C 9.183 10.895 9.077 11.074 9.032 11.271 C 8.987 11.469 9.006 11.676 9.086 11.862 C 9.091 11.877 9.096 11.887 9.101 11.902 C 9.547 12.921 10.137 13.871 10.853 14.722 C 12.209 16.421 13.835 17.885 15.665 19.058 C 15.878 19.188 16.098 19.307 16.324 19.414 C 16.524 19.514 16.708 19.607 16.873 19.714 L 16.928 19.744 C 17.077 19.823 17.243 19.865 17.412 19.867 C 17.552 19.863 17.69 19.831 17.818 19.773 C 17.945 19.716 18.06 19.633 18.156 19.531 L 20.023 17.684 C 20.257 17.422 20.586 17.264 20.936 17.244 C 21.105 17.254 21.271 17.298 21.423 17.374 C 21.575 17.449 21.71 17.555 21.82 17.684 L 24.83 20.657 C 25.018 20.807 25.155 21.01 25.225 21.239 C 25.294 21.469 25.292 21.715 25.219 21.943 C 25.146 22.172 25.005 22.372 24.815 22.519 C 24.605 22.741 24.386 22.954 24.151 23.176 C 23.785 23.515 23.437 23.873 23.108 24.248 C 22.838 24.545 22.507 24.779 22.137 24.935 C 21.767 25.09 21.368 25.163 20.967 25.148 C 20.882 25.148 20.792 25.148 20.707 25.138 C 19.207 24.985 17.749 24.553 16.407 23.864 C 13.294 22.373 10.535 20.235 8.315 17.592 C 6.633 15.673 5.298 13.475 4.371 11.097 C 3.904 10.009 3.688 8.83 3.739 7.647 Z"
        fill="#181818"
        stroke="#181818"
        stroke-width="0.5"
        stroke-linejoin="round"/>
</svg>
