<svg
    xmlns="http://www.w3.org/2000/svg"
    viewBox="0 0 29 29"
    id="vector">
    <path
        id="path"
        d="M 22.792 3 L 7.208 3 C 6.057 3.039 4.967 3.532 4.178 4.372 C 3.39 5.212 2.966 6.331 3 7.482 L 3 17.721 C 2.966 18.872 3.39 19.991 4.178 20.831 C 4.967 21.671 6.057 22.164 7.208 22.203 L 16.672 22.168 L 21.502 26.737 C 21.578 26.82 21.671 26.886 21.774 26.931 C 21.878 26.977 21.989 27 22.102 27 C 22.213 27 22.323 26.977 22.424 26.932 C 22.581 26.859 22.714 26.742 22.806 26.595 C 22.898 26.448 22.946 26.277 22.944 26.104 L 23.328 22.169 C 24.373 21.994 25.32 21.448 25.994 20.631 C 26.669 19.814 27.026 18.78 27 17.721 L 27 7.482 C 27.034 6.331 26.61 5.212 25.822 4.372 C 25.033 3.532 23.943 3.039 22.792 3 Z M 25.317 17.722 C 25.337 18.413 25.083 19.084 24.61 19.588 C 24.137 20.092 23.483 20.388 22.792 20.411 L 22.481 20.411 C 22.016 20.411 21.775 20.718 21.775 21.211 L 21.64 24.47 L 17.616 20.641 C 17.54 20.558 17.447 20.492 17.344 20.447 C 17.24 20.401 17.129 20.378 17.016 20.378 L 7.203 20.414 C 6.512 20.391 5.858 20.095 5.385 19.591 C 4.912 19.087 4.658 18.416 4.678 17.725 L 4.678 7.482 C 4.658 6.79 4.913 6.118 5.387 5.614 C 5.861 5.111 6.516 4.815 7.208 4.793 L 22.792 4.793 C 23.483 4.816 24.137 5.112 24.61 5.616 C 25.083 6.12 25.337 6.791 25.317 7.482 Z"
        fill="#181818"/>
    <path
        id="path_1"
        d="M 21.23 9.383 L 8.769 9.383 C 8.589 9.377 8.411 9.429 8.263 9.532 C 8.115 9.635 8.005 9.783 7.948 9.954 C 7.891 10.125 7.891 10.31 7.948 10.481 C 8.005 10.652 8.115 10.8 8.263 10.903 C 8.411 11.006 8.589 11.058 8.769 11.052 L 21.229 11.052 C 21.409 11.058 21.587 11.006 21.735 10.903 C 21.883 10.8 21.993 10.652 22.05 10.481 C 22.107 10.31 22.107 10.125 22.05 9.954 C 21.993 9.783 21.883 9.635 21.735 9.532 C 21.587 9.429 21.409 9.377 21.229 9.383 Z"
        fill="#181818"/>
    <path
        id="path_2"
        d="M 21.23 14.431 L 8.769 14.431 C 8.589 14.425 8.411 14.477 8.263 14.58 C 8.115 14.683 8.005 14.831 7.948 15.002 C 7.891 15.173 7.891 15.358 7.948 15.529 C 8.005 15.7 8.115 15.848 8.263 15.951 C 8.411 16.054 8.589 16.106 8.769 16.1 L 21.229 16.1 C 21.409 16.106 21.587 16.054 21.735 15.951 C 21.883 15.848 21.993 15.7 22.05 15.529 C 22.107 15.358 22.107 15.173 22.05 15.002 C 21.993 14.831 21.883 14.683 21.735 14.58 C 21.587 14.477 21.409 14.425 21.229 14.431 Z"
        fill="#181818"/>
</svg>
