<svg
    xmlns="http://www.w3.org/2000/svg"
    viewBox="0 0 29 29"
    id="vector">
    <path
        id="path"
        d="M 3.58 22.5 C 3.039 22.51 2.516 22.305 2.126 21.931 C 1.736 21.556 1.511 21.041 1.5 20.5 L 1.5 8.5 C 1.511 7.959 1.736 7.444 2.126 7.069 C 2.516 6.695 3.039 6.49 3.58 6.5 L 20.22 6.5 C 20.761 6.49 21.284 6.695 21.674 7.069 C 22.064 7.444 22.289 7.959 22.3 8.5 L 22.3 10.666 L 25.794 7.866 C 25.981 7.715 26.214 7.633 26.454 7.632 C 26.634 7.628 26.811 7.671 26.969 7.757 C 27.126 7.843 27.259 7.97 27.352 8.123 C 27.445 8.277 27.496 8.452 27.5 8.632 L 27.5 20.362 C 27.496 20.542 27.445 20.717 27.352 20.871 C 27.259 21.024 27.126 21.151 26.969 21.237 C 26.811 21.323 26.634 21.366 26.454 21.362 C 26.214 21.362 25.981 21.279 25.794 21.128 L 22.3 18.328 L 22.3 20.5 C 22.289 21.041 22.064 21.556 21.674 21.931 C 21.284 22.305 20.761 22.51 20.22 22.5 Z M 2.541 8.5 L 2.541 20.5 C 2.547 20.77 2.659 21.027 2.854 21.214 C 3.049 21.402 3.31 21.505 3.58 21.5 L 20.22 21.5 C 20.49 21.505 20.752 21.402 20.946 21.215 C 21.141 21.027 21.253 20.77 21.259 20.5 L 21.259 8.5 C 21.253 8.23 21.141 7.973 20.946 7.785 C 20.752 7.598 20.49 7.495 20.22 7.5 L 3.58 7.5 C 3.31 7.495 3.049 7.598 2.854 7.786 C 2.659 7.973 2.547 8.23 2.541 8.5 Z M 22.3 11.969 L 22.3 17.031 L 26.459 20.364 L 26.459 8.636 Z"
        fill="#181818"
        stroke="#181818"
        stroke-width="0.6"
        stroke-linejoin="round"/>
</svg>
