<svg
    xmlns="http://www.w3.org/2000/svg"
    viewBox="0 0 23 29"
    id="vector">
    <path
        id="path"
        d="M 23.504 26.959 C 23.503 27.66 23.223 28.332 22.727 28.827 C 22.23 29.322 21.557 29.601 20.856 29.6 L 2.648 29.6 C 1.947 29.601 1.273 29.322 0.777 28.827 C 0.28 28.331 0.001 27.658 0 26.957 L 0 2.643 C 0.001 1.942 0.28 1.269 0.777 0.773 C 1.273 0.278 1.947 -0.001 2.648 0 L 13.983 0 C 14.244 0 14.503 0.051 14.744 0.151 C 14.985 0.251 15.204 0.397 15.389 0.582 L 22.924 8.118 C 23.295 8.489 23.504 8.993 23.504 9.518 Z"
        fill="#fb9225"/>
    <path
        id="path_1"
        d="M 23.327 8.698 L 16.598 8.698 C 16.123 8.698 15.668 8.509 15.332 8.173 C 14.997 7.837 14.808 7.382 14.808 6.907 L 14.808 0.178 C 15.025 0.275 15.222 0.411 15.39 0.578 L 22.925 8.114 C 23.092 8.282 23.228 8.479 23.325 8.695 Z"
        fill="#fd6720"/>
    <path
        id="path_2"
        d="M 6.154 18.026 L 6.154 19.868 L 4.786 19.868 L 4.786 14.806 L 6.445 14.806 Q 8.509 14.806 8.508 16.306 C 8.509 16.591 8.429 16.87 8.276 17.111 C 8.124 17.352 7.907 17.545 7.649 17.667 L 9.124 19.873 L 7.573 19.873 L 6.499 18.031 Z M 6.154 16.997 L 6.41 16.997 Q 7.127 16.997 7.127 16.364 Q 7.127 15.842 6.427 15.842 L 6.157 15.842 Z"
        fill="#ffffff"/>
    <path
        id="path_3"
        d="M 12.69 19.868 L 12.441 18.92 L 10.796 18.92 L 10.54 19.868 L 9.04 19.868 L 10.69 14.79 L 12.517 14.79 L 14.189 19.873 Z M 12.157 17.798 L 11.939 16.967 Q 11.863 16.69 11.754 16.25 Q 11.645 15.81 11.61 15.62 Q 11.579 15.794 11.487 16.201 Q 11.395 16.608 11.08 17.801 L 12.156 17.801 Z"
        fill="#ffffff"/>
    <path
        id="path_4"
        d="M 16.101 18.026 L 16.101 19.868 L 14.733 19.868 L 14.733 14.806 L 16.392 14.806 Q 18.455 14.806 18.455 16.306 C 18.456 16.591 18.376 16.87 18.223 17.111 C 18.071 17.352 17.854 17.545 17.596 17.667 L 19.071 19.873 L 17.52 19.873 L 16.446 18.031 Z M 16.101 16.997 L 16.357 16.997 Q 17.074 16.997 17.074 16.364 Q 17.074 15.842 16.374 15.842 L 16.104 15.842 Z"
        fill="#ffffff"/>
</svg>
