<svg
    xmlns="http://www.w3.org/2000/svg"
    viewBox="0 0 10 13"
    id="vector">
    <path
        id="path"
        d="M 4.79 8.21 C 5.15 8.21 5.503 8.114 5.815 7.934 C 6.126 7.754 6.384 7.494 6.564 7.183 C 6.743 6.871 6.837 6.517 6.836 6.157 L 6.843 2.052 C 6.831 1.516 6.61 1.005 6.226 0.63 C 5.843 0.255 5.327 0.044 4.79 0.044 C 4.254 0.044 3.738 0.255 3.355 0.63 C 2.971 1.005 2.75 1.516 2.738 2.052 L 2.738 6.158 C 2.739 6.702 2.955 7.224 3.34 7.608 C 3.724 7.993 4.246 8.209 4.79 8.21 Z"
        fill="#7285b5"/>
    <path
        id="path_1"
        d="M 8.415 6.158 C 8.377 7.094 7.978 7.98 7.302 8.628 C 6.627 9.277 5.726 9.639 4.789 9.639 C 3.852 9.639 2.951 9.277 2.276 8.628 C 1.6 7.98 1.201 7.094 1.163 6.158 L 0 6.158 C 0.03 7.286 0.459 8.368 1.21 9.21 C 1.961 10.052 2.988 10.6 4.105 10.758 L 4.105 13.002 L 5.473 13.002 L 5.473 10.758 C 6.59 10.6 7.617 10.052 8.368 9.21 C 9.119 8.368 9.548 7.286 9.578 6.158 Z"
        fill="#7285b5"/>
    <path
        id="path_2"
        d="M 4.59 2.122 L 6.844 2.122 L 6.844 2.859 L 4.59 2.859 Z"
        fill="#7285b5"/>
    <path
        id="path_3"
        d="M 4.59 3.714 L 6.844 3.714 L 6.844 4.451 L 4.59 4.451 Z"
        fill="#7285b5"/>
    <path
        id="path_4"
        d="M 4.59 5.306 L 6.844 5.306 L 6.844 6.043 L 4.59 6.043 Z"
        fill="#7285b5"/>
</svg>
