<svg id="reply" xmlns="http://www.w3.org/2000/svg" width="18" height="17" viewBox="0 0 18 17">
  <path id="Path_1555" data-name="Path 1555" d="M194.77.7a.675.675,0,0,1,1.152.479V4.782a9.217,9.217,0,0,1,5.753,1.91,10.247,10.247,0,0,1,3.553,5.956,10.5,10.5,0,0,1,.121,3.432v0c0,.01,0,.02,0,.03l-.143.826a.675.675,0,0,1-1.244.232l-.43-.717a9.489,9.489,0,0,0-4.894-4.331,7.087,7.087,0,0,0-2.71-.4V15.46a.675.675,0,0,1-1.154.477l-7.136-7.178a.676.676,0,0,1,0-.956Zm-.2,13.126V11.117a.676.676,0,0,1,.568-.667,8.254,8.254,0,0,1,3.939.4,10.318,10.318,0,0,1,5.007,3.991,9.634,9.634,0,0,0-.183-1.928,8.793,8.793,0,0,0-3.1-5.185c-.014-.012-.028-.024-.042-.037-.047-.044-1.762-1.594-5.511-1.566h0a.676.676,0,0,1-.676-.676V2.8l-5.506,5.483Zm0,0" transform="translate(-187.435 -0.5)" fill="#181818"/>
</svg>
