<svg xmlns="http://www.w3.org/2000/svg" width="13.9" height="18.181" viewBox="0 0 13.9 18.181">
  <g id="Group_34213" data-name="Group 34213" transform="translate(-14.355 -625.501)">
    <g id="group" transform="translate(14.505 627.677)">
      <path id="Path_22860" data-name="Path 22860" d="M14.5,12.139a3.57,3.57,0,1,0-3.57-3.57A3.57,3.57,0,0,0,14.5,12.139Zm0-5.695A2.125,2.125,0,1,1,12.371,8.57,2.125,2.125,0,0,1,14.5,6.445Z" transform="translate(-8.474 -4.999)" fill="#ff3939" stroke="#fff" stroke-width="0.3"/>
      <path id="Path_22863" data-name="Path 22863" d="M16.751,19.38a7.3,7.3,0,0,0-4.933-2.773A5.873,5.873,0,0,0,6.885,19.38,6.238,6.238,0,0,0,5.7,23.352a.723.723,0,0,0,1.445,0c0-2.923,2.1-5.3,4.673-5.3s4.673,2.377,4.673,5.3a.723.723,0,0,0,1.445,0A7.383,7.383,0,0,0,16.751,19.38Z" transform="translate(-5.7 -8.219)" fill="#ff3939" stroke="#fff" stroke-width="0.3"/>
    </g>
    <g id="Group_30952" data-name="Group 30952" transform="translate(26.958 625.501)">
      <g id="Group_34171" data-name="Group 34171" transform="translate(0.026 0)">
        <g id="Group_34167" data-name="Group 34167" transform="translate(0 0)">
          <path id="Path_40314" data-name="Path 40314" d="M234.2,173c-.347,0-.619.186-.619.517,0,1.008.119,2.457.119,3.465,0,.263.229.373.5.373.2,0,.491-.11.491-.373,0-1.008.119-2.457.119-3.465A.544.544,0,0,0,234.2,173Z" transform="translate(-233.578 -173.005)" fill="#ff3939"/>
        </g>
      </g>
      <g id="Group_34172" data-name="Group 34172" transform="translate(0 4.94)">
        <g id="Group_34169" data-name="Group 34169" transform="translate(0 0)">
          <path id="Path_40315" data-name="Path 40315" d="M233.3,353.306a.652.652,0,0,0,0,1.3.653.653,0,0,0,0-1.3Z" transform="translate(-232.651 -353.306)" fill="#ff3939"/>
        </g>
      </g>
    </g>
  </g>
</svg>
