
<svg xmlns="http://www.w3.org/2000/svg" width="19.896" height="15.15" viewBox="0 0 19.896 15.15">
  <g id="Group_34173" data-name="Group 34173" transform="translate(15475.153 7033.904)">
    <g id="group" transform="translate(-15475 -7032.098)">
      <path id="Path_22860" data-name="Path 22860" d="M13.889,10.925a2.963,2.963,0,1,0-2.963-2.963A2.963,2.963,0,0,0,13.889,10.925Zm0-4.726a1.764,1.764,0,1,1-1.764,1.764A1.764,1.764,0,0,1,13.889,6.2Z" transform="translate(-4.97 -4.999)" fill="#ff3939" stroke="#fff" stroke-width="0.3"/>
      <path id="Path_22861" data-name="Path 22861" d="M5.012,14.743a2.279,2.279,0,1,0-2.279-2.279A2.279,2.279,0,0,0,5.012,14.743Zm0-3.358a1.079,1.079,0,1,1-1.079,1.079A1.079,1.079,0,0,1,5.012,11.384Z" transform="translate(-1.69 -7.075)" fill="#ff3939" stroke="#fff" stroke-width="0.3"/>
      <path id="Path_22862" data-name="Path 22862" d="M23.679,14.743A2.279,2.279,0,1,0,21.4,12.464,2.279,2.279,0,0,0,23.679,14.743Zm0-3.358A1.079,1.079,0,1,1,22.6,12.464,1.079,1.079,0,0,1,23.679,11.384Z" transform="translate(-9.163 -7.075)" fill="#ff3939" stroke="#fff" stroke-width="0.3"/>
      <path id="Path_22863" data-name="Path 22863" d="M15.59,18.516a3.16,3.16,0,0,0-1.5.392,4.94,4.94,0,0,0-4.094-2.3,4.94,4.94,0,0,0-4.094,2.3,3.16,3.16,0,0,0-1.5-.392A3.576,3.576,0,0,0,1,22.24a.6.6,0,0,0,1.2,0,2.381,2.381,0,0,1,2.2-2.524,1.962,1.962,0,0,1,.946.251,6.048,6.048,0,0,0-.426,2.238.6.6,0,0,0,1.2,0,4.167,4.167,0,0,1,3.878-4.4,4.167,4.167,0,0,1,3.878,4.4.6.6,0,1,0,1.2,0,6.048,6.048,0,0,0-.426-2.238,1.962,1.962,0,0,1,.946-.251,2.381,2.381,0,0,1,2.2,2.524.6.6,0,0,0,1.2,0,3.576,3.576,0,0,0-3.4-3.724Z" transform="translate(-0.995 -9.646)" fill="#ff3939" stroke="#fff" stroke-width="0.3"/>
    </g>
    <g id="Group_30952" data-name="Group 30952" transform="translate(-15456.769 -7033.904)">
      <g id="Group_34171" data-name="Group 34171" transform="translate(0.03 0)">
        <g id="Group_34167" data-name="Group 34167" transform="translate(0 0)">
          <path id="Path_40314" data-name="Path 40314" d="M234.3,173c-.4,0-.721.217-.721.6,0,1.175.138,2.865.138,4.04,0,.306.267.435.583.435.237,0,.573-.128.573-.435,0-1.175.138-2.865.138-4.04A.635.635,0,0,0,234.3,173Z" transform="translate(-233.578 -173.005)" fill="#ff3939"/>
        </g>
      </g>
      <g id="Group_34172" data-name="Group 34172" transform="translate(0 5.759)">
        <g id="Group_34169" data-name="Group 34169" transform="translate(0 0)">
          <path id="Path_40315" data-name="Path 40315" d="M233.412,353.306a.761.761,0,0,0,0,1.521.761.761,0,0,0,0-1.521Z" transform="translate(-232.651 -353.306)" fill="#ff3939"/>
        </g>
      </g>
    </g>
  </g>
</svg>
