<svg xmlns="http://www.w3.org/2000/svg" width="24.509" height="21.568" viewBox="0 0 24.509 21.568">
  <path id="send" d="M343.383,613.573,323.608,605.2a2.318,2.318,0,0,0-2.456.4,2.43,2.43,0,0,0-.744,2.421l1.943,7.772-1.943,7.772a2.43,2.43,0,0,0,.744,2.421,2.318,2.318,0,0,0,2.456.4l19.774-8.368a2.433,2.433,0,0,0,0-4.459Zm-.551,3.106-19.774,8.368a.9.9,0,0,1-.966-.159.943.943,0,0,1-.293-.952l1.851-7.4h7.135a.733.733,0,0,0,0-1.465H323.65l-1.851-7.4a.943.943,0,0,1,.293-.952.9.9,0,0,1,.966-.159l19.774,8.368a.956.956,0,0,1,0,1.753Z" transform="translate(-320.333 -605.019)" fill="#4879f9"/>
</svg>
