<svg xmlns="http://www.w3.org/2000/svg" width="24.722" height="24.722" viewBox="0 0 24.722 24.722">
  <g id="Group_34267" data-name="Group 34267" transform="translate(-12420.279 2710.473)">
    <g id="Group_34268" data-name="Group 34268" transform="translate(0.362 0.527)">
      <path id="Path_40333" data-name="Path 40333" d="M150.38,66.091l-1.87-.664-.9-2.168.855-1.8a.52.52,0,0,0-.1-.587l-2.513-2.513a.52.52,0,0,0-.587-.1l-1.8.855-2.168-.9-.664-1.87a.515.515,0,0,0-.484-.345h-3.564a.516.516,0,0,0-.484.345l-.664,1.87-2.168.9-1.8-.855a.55.55,0,0,0-.639.155l-2.513,2.513a.508.508,0,0,0-.052.536l.855,1.8-.9,2.168-1.87.664a.515.515,0,0,0-.345.484v3.564a.516.516,0,0,0,.345.484l1.87.664.9,2.168-.855,1.8a.52.52,0,0,0,.1.587l2.513,2.513a.52.52,0,0,0,.587.1l1.8-.855,2.168.9.664,1.87a.516.516,0,0,0,.484.345h3.564a.516.516,0,0,0,.484-.345l.664-1.87,2.168-.9,1.8.855a.52.52,0,0,0,.587-.1l2.513-2.513a.52.52,0,0,0,.1-.587l-.855-1.8.9-2.168,1.87-.664a.516.516,0,0,0,.345-.484V66.575a.515.515,0,0,0-.345-.484Zm-12.016,9.992a7.726,7.726,0,1,1,7.726-7.726A7.735,7.735,0,0,1,138.364,76.083Z" transform="translate(12293.914 -2766.996)" fill="#fff"/>
      <path id="Path_40334" data-name="Path 40334" d="M235.365,158.67a6.7,6.7,0,1,0,6.7,6.7A6.7,6.7,0,0,0,235.365,158.67Zm0,10.816a4.12,4.12,0,1,1,4.12-4.12A4.126,4.126,0,0,1,235.365,169.486Z" transform="translate(12196.913 -2864.004)" fill="#fff"/>
    </g>
  </g>
</svg>
