<svg
    xmlns="http://www.w3.org/2000/svg"
    viewBox="0 0 24 24"
    id="vector">
    <path
        id="path"
        d="M 18.411 15.785 C 17.865 15.785 17.326 15.909 16.834 16.148 C 16.343 16.387 15.913 16.735 15.576 17.165 L 8.951 13.342 C 9.297 12.481 9.297 11.519 8.951 10.658 L 15.572 6.835 C 16.136 7.55 16.95 8.024 17.849 8.163 C 18.749 8.302 19.668 8.095 20.421 7.584 C 21.174 7.072 21.706 6.294 21.908 5.407 C 22.111 4.519 21.969 3.587 21.513 2.8 C 21.057 2.013 20.318 1.427 19.448 1.162 C 18.577 0.896 17.637 0.971 16.819 1.37 C 16.002 1.769 15.365 2.464 15.038 3.314 C 14.712 4.163 14.719 5.106 15.059 5.95 L 8.443 9.773 C 7.912 9.097 7.157 8.632 6.314 8.463 C 5.471 8.294 4.595 8.432 3.845 8.851 C 3.094 9.27 2.518 9.944 2.22 10.751 C 1.922 11.557 1.922 12.444 2.22 13.25 C 2.518 14.057 3.094 14.731 3.845 15.15 C 4.595 15.569 5.471 15.707 6.314 15.538 C 7.157 15.369 7.912 14.904 8.443 14.228 L 15.064 18.051 C 14.735 18.872 14.719 19.786 15.019 20.618 C 15.32 21.45 15.916 22.143 16.693 22.564 C 17.471 22.986 18.377 23.107 19.238 22.904 C 20.099 22.702 20.856 22.19 21.364 21.466 C 21.872 20.742 22.097 19.856 21.995 18.977 C 21.893 18.099 21.472 17.288 20.811 16.699 C 20.151 16.111 19.296 15.786 18.412 15.786 Z M 18.411 2.023 C 19.096 2.023 19.754 2.296 20.239 2.78 C 20.723 3.265 20.996 3.923 20.996 4.608 C 20.996 5.293 20.723 5.951 20.239 6.436 C 19.754 6.92 19.096 7.193 18.411 7.193 C 17.726 7.193 17.068 6.92 16.583 6.436 C 16.099 5.951 15.826 5.293 15.826 4.608 C 15.827 3.923 16.1 3.265 16.584 2.781 C 17.068 2.297 17.726 2.024 18.411 2.023 Z M 5.611 14.585 C 5.025 14.586 4.457 14.387 3.998 14.023 C 3.54 13.658 3.219 13.148 3.088 12.577 C 2.957 12.006 3.025 11.408 3.278 10.88 C 3.532 10.352 3.958 9.926 4.485 9.672 C 5.013 9.417 5.611 9.349 6.182 9.48 C 6.753 9.61 7.264 9.93 7.629 10.388 C 7.994 10.846 8.193 11.414 8.193 12 C 8.192 12.685 7.919 13.343 7.435 13.827 C 6.951 14.311 6.293 14.584 5.608 14.585 Z M 18.411 21.977 C 17.726 21.977 17.068 21.704 16.583 21.22 C 16.099 20.735 15.826 20.077 15.826 19.392 C 15.826 18.707 16.099 18.049 16.583 17.564 C 17.068 17.08 17.726 16.807 18.411 16.807 C 19.096 16.807 19.754 17.08 20.239 17.564 C 20.723 18.049 20.996 18.707 20.996 19.392 C 20.995 20.077 20.722 20.735 20.238 21.219 C 19.754 21.703 19.096 21.976 18.411 21.977 Z"
        fill="#181818"
        stroke="#181818"
        stroke-width="0.2"/>
</svg>
