<svg xmlns="http://www.w3.org/2000/svg" width="19.667" height="19.657" viewBox="0 0 19.667 19.657">
  <path id="smile" d="M28.667,614.18a9.833,9.833,0,1,1,9.833,9.829A9.842,9.842,0,0,1,28.667,614.18Zm.855,0a8.978,8.978,0,1,0,8.978-8.973A8.986,8.986,0,0,0,29.522,614.18Zm4.811,2.849a.428.428,0,0,1,.637-.571,4.758,4.758,0,0,0,7.059,0,.428.428,0,1,1,.637.571,5.614,5.614,0,0,1-8.333,0Zm6.307-4.559a1.28,1.28,0,1,1,1.28,1.28A1.28,1.28,0,0,1,40.64,612.47Zm-6.84,0a1.28,1.28,0,1,1,1.28,1.28A1.28,1.28,0,0,1,33.8,612.47Z" transform="translate(-28.667 -604.352)" fill="#363636"/>
</svg>
