<svg xmlns="http://www.w3.org/2000/svg" width="9" height="9" viewBox="0 0 9 9">
  <g id="favourites-filled-star-symbol" transform="translate(0 -3.162)">
    <path id="Path_9763" data-name="Path 9763" d="M8.609,6.23,6.13,5.984a.431.431,0,0,1-.355-.277L4.887,3.442a.417.417,0,0,0-.788,0L3.218,5.707a.422.422,0,0,1-.355.277L.385,6.23a.457.457,0,0,0-.241.785L2.011,8.742a.461.461,0,0,1,.135.441L1.585,11.6a.434.434,0,0,0,.632.493L4.284,10.82a.411.411,0,0,1,.433,0L6.784,12.1a.433.433,0,0,0,.632-.493L6.862,9.183A.461.461,0,0,1,7,8.742L8.864,7.015A.462.462,0,0,0,8.609,6.23Z" transform="translate(0)" fill="#818181"/>
  </g>
</svg>
