<svg xmlns="http://www.w3.org/2000/svg" width="18.224" height="18.218" viewBox="0 0 18.224 18.218">
  <g id="star_this_message" data-name="star this message" transform="translate(0.112 0.1)">
    <g id="Group_274" data-name="Group 274" transform="translate(0 0)">
      <path id="Path_1568" data-name="Path 1568" d="M47.168,12.018a1.434,1.434,0,0,0,.34-1.436,1.351,1.351,0,0,0-1.083-.953l-4.453-.675a.269.269,0,0,1-.2-.153l-1.991-4.21a1.318,1.318,0,0,0-2.407,0L35.38,8.8a.27.27,0,0,1-.2.153l-4.453.675a1.351,1.351,0,0,0-1.083.953,1.434,1.434,0,0,0,.34,1.436L33.2,15.3a.288.288,0,0,1,.077.248l-.761,4.628a1.421,1.421,0,0,0,.534,1.37,1.288,1.288,0,0,0,1.413.107l3.983-2.185a.258.258,0,0,1,.25,0l3.983,2.185a1.287,1.287,0,0,0,1.413-.107,1.421,1.421,0,0,0,.534-1.37l-.761-4.628a.288.288,0,0,1,.077-.248Zm-4.358,3.715.761,4.628a.278.278,0,0,1-.107.274.253.253,0,0,1-.283.021L39.2,18.471a1.293,1.293,0,0,0-1.249,0l-3.983,2.185a.253.253,0,0,1-.283-.021.278.278,0,0,1-.107-.274l.761-4.628a1.438,1.438,0,0,0-.386-1.24L30.73,11.216a.282.282,0,0,1-.068-.287.266.266,0,0,1,.217-.191l4.453-.675A1.347,1.347,0,0,0,36.343,9.3l1.991-4.21a.264.264,0,0,1,.481,0h0L40.807,9.3a1.347,1.347,0,0,0,1.01.766l4.453.675a.266.266,0,0,1,.217.191.282.282,0,0,1-.068.287L43.2,14.493A1.438,1.438,0,0,0,42.811,15.733Z" transform="translate(-29.574 -3.81)" fill="#181818" stroke="#181818" stroke-width="0.2"/>
    </g>
  </g>
</svg>
