<svg xmlns="http://www.w3.org/2000/svg" width="18" height="17.034" viewBox="0 0 18 17.034">
  <g id="stared_message" data-name="stared message" transform="translate(-24 -167.947)">
    <g id="Group_240" data-name="Group 240" transform="translate(24 167.981)">
      <g id="stared_message-2" data-name="stared message" transform="translate(0 0)">
        <g id="stared_message-3" data-name="stared message">
          <g id="stared_message-4" data-name="stared message">
            <path id="Path_3_2_" d="M18.589,8.526a.485.485,0,0,0-.511.516h0v3.406a2.522,2.522,0,0,1-2.557,2.477H10.2a.485.485,0,0,0-.511.516h0v1.239l-1.33-1.342c-.1-.1-.2-.206-.307-.206a.374.374,0,0,0-.307-.1H4.68a2.591,2.591,0,0,1-2.557-2.477V4.81A2.522,2.522,0,0,1,4.68,2.333l5.824-.02a.485.485,0,0,0,.511-.516h0a.485.485,0,0,0-.511-.516h0L4.68,1.3A3.619,3.619,0,0,0,1.1,4.81h0v7.742a3.552,3.552,0,0,0,3.58,3.51H7.543l2.25,2.064a.491.491,0,0,0,.716,0h0a.381.381,0,0,0,.1-.31l.1-1.755H15.52a3.619,3.619,0,0,0,3.58-3.51h0V9.042A.551.551,0,0,0,18.589,8.526Z" transform="translate(-1.1 -1.281)" fill="#181818"/>
          </g>
        </g>
        <g id="Group_239" data-name="Group 239" transform="translate(2.952 5.474)">
          <path id="Path_1517" data-name="Path 1517" d="M104.875,591.349h3.669a.275.275,0,1,0,0-.549h-3.669a.275.275,0,1,0,0,.549Z" transform="translate(-104.6 -590.8)" fill="#181818" stroke="#181818" stroke-linecap="round" stroke-width="0.3"/>
          <path id="Path_1518" data-name="Path 1518" d="M113.4,597.6h-8.479a.277.277,0,1,0,0,.549H113.4a.3.3,0,0,0,.317-.274C113.742,597.725,113.6,597.6,113.4,597.6Z" transform="translate(-104.6 -594.955)" fill="#181818" stroke="#181818" stroke-linecap="round" stroke-width="0.3"/>
          <path id="Path_1519" data-name="Path 1519" d="M113.4,604.4h-8.479a.277.277,0,1,0,0,.549H113.4a.3.3,0,0,0,.317-.275A.284.284,0,0,0,113.4,604.4Z" transform="translate(-104.6 -599.109)" fill="#181818" stroke="#181818" stroke-linecap="round" stroke-width="0.3"/>
        </g>
      </g>
    </g>
    <path id="star" d="M6.359,3.843a.456.456,0,0,0,.118-.473A.462.462,0,0,0,6.1,3.055L4.527,2.829a.205.205,0,0,1-.155-.112L3.668,1.3a.468.468,0,0,0-.836,0l-.7,1.413a.206.206,0,0,1-.155.112L.4,3.055a.462.462,0,0,0-.376.314.456.456,0,0,0,.118.473l1.139,1.1a.2.2,0,0,1,.059.181L1.071,6.676a.457.457,0,0,0,.185.452.466.466,0,0,0,.491.035l1.408-.733a.208.208,0,0,1,.192,0l1.408.733a.467.467,0,0,0,.491-.035.457.457,0,0,0,.185-.452L5.161,5.123a.2.2,0,0,1,.059-.181ZM4.9,5.167l.269,1.553a.2.2,0,0,1-.082.2.2.2,0,0,1-.217.016L3.467,6.2a.47.47,0,0,0-.434,0l-1.407.733a.2.2,0,0,1-.217-.016.2.2,0,0,1-.082-.2L1.6,5.167a.459.459,0,0,0-.134-.409L.323,3.658a.2.2,0,0,1-.052-.209A.2.2,0,0,1,.437,3.31l1.574-.227a.465.465,0,0,0,.351-.253l.7-1.413a.207.207,0,0,1,.369,0l.7,1.413a.465.465,0,0,0,.351.253l1.574.227a.2.2,0,0,1,.166.139.2.2,0,0,1-.052.209l-1.139,1.1A.459.459,0,0,0,4.9,5.167Z" transform="translate(34.5 167.25)" fill="#181818" stroke="#181818" stroke-width="0.7"/>
  </g>
</svg>
