<svg id="stared_message" data-name="stared message" xmlns="http://www.w3.org/2000/svg" width="18" height="17" viewBox="0 0 18 17">
  <g id="stared_message-2" data-name="stared message">
    <path id="Path_3_2_" d="M18.589,8.526a.485.485,0,0,0-.511.516h0v3.406a2.522,2.522,0,0,1-2.557,2.477H10.2a.485.485,0,0,0-.511.516h0v1.239l-1.33-1.342c-.1-.1-.2-.206-.307-.206a.374.374,0,0,0-.307-.1H4.68a2.591,2.591,0,0,1-2.557-2.477V4.81A2.522,2.522,0,0,1,4.68,2.333l5.824-.02a.485.485,0,0,0,.511-.516h0a.485.485,0,0,0-.511-.516h0L4.68,1.3A3.619,3.619,0,0,0,1.1,4.81h0v7.742a3.552,3.552,0,0,0,3.58,3.51H7.543l2.25,2.064a.491.491,0,0,0,.716,0h0a.381.381,0,0,0,.1-.31l.1-1.755H15.52a3.619,3.619,0,0,0,3.58-3.51h0V9.042A.551.551,0,0,0,18.589,8.526Z" transform="translate(-1.1 -1.281)" fill="#181818"/>
  </g>
</svg>
