<svg xmlns="http://www.w3.org/2000/svg" width="18" height="17" viewBox="0 0 18 17">
  <g id="stared_message" data-name="stared message" transform="translate(0 0)">
    <g id="stared_message-2" data-name="stared message">
      <g id="stared_message-3" data-name="stared message">
        <path id="Path_3_2_" d="M18.589,8.526a.485.485,0,0,0-.511.516h0v3.406a2.522,2.522,0,0,1-2.557,2.477H10.2a.485.485,0,0,0-.511.516h0v1.239l-1.33-1.342c-.1-.1-.2-.206-.307-.206a.374.374,0,0,0-.307-.1H4.68a2.591,2.591,0,0,1-2.557-2.477V4.81A2.522,2.522,0,0,1,4.68,2.333l5.824-.02a.485.485,0,0,0,.511-.516h0a.485.485,0,0,0-.511-.516h0L4.68,1.3A3.619,3.619,0,0,0,1.1,4.81h0v7.742a3.552,3.552,0,0,0,3.58,3.51H7.543l2.25,2.064a.491.491,0,0,0,.716,0h0a.381.381,0,0,0,.1-.31l.1-1.755H15.52a3.619,3.619,0,0,0,3.58-3.51h0V9.042A.551.551,0,0,0,18.589,8.526Z" transform="translate(-1.1 -1.281)" fill="#181818"/>
      </g>
    </g>
    <g id="Group_239" data-name="Group 239" transform="translate(2.952 5.474)">
      <path id="Path_1517" data-name="Path 1517" d="M104.875,591.349h3.669a.275.275,0,1,0,0-.549h-3.669a.275.275,0,1,0,0,.549Z" transform="translate(-104.6 -590.8)" fill="#181818" stroke="#181818" stroke-linecap="round" stroke-width="0.3"/>
      <path id="Path_1518" data-name="Path 1518" d="M113.4,597.6h-8.479a.277.277,0,1,0,0,.549H113.4a.3.3,0,0,0,.317-.274C113.742,597.725,113.6,597.6,113.4,597.6Z" transform="translate(-104.6 -594.955)" fill="#181818" stroke="#181818" stroke-linecap="round" stroke-width="0.3"/>
      <path id="Path_1519" data-name="Path 1519" d="M113.4,604.4h-8.479a.277.277,0,1,0,0,.549H113.4a.3.3,0,0,0,.317-.275A.284.284,0,0,0,113.4,604.4Z" transform="translate(-104.6 -599.109)" fill="#181818" stroke="#181818" stroke-linecap="round" stroke-width="0.3"/>
    </g>
  </g>
</svg>
