<svg xmlns="http://www.w3.org/2000/svg" width="22.228" height="31.697" viewBox="0 0 22.228 31.697">
  <g id="sync" transform="translate(-31.435 -46.546) rotate(45)">
    <g id="Group_8761" data-name="Group 8761" transform="matrix(0.545, -0.839, 0.839, 0.545, 56.878, 14.949)">
      <g id="Group_8760" data-name="Group 8760" transform="translate(0)">
        <path id="Path_10166" data-name="Path 10166" d="M74.206,156.775a7.656,7.656,0,0,1-6.768-11.233l-1.863-1.863a10.2,10.2,0,0,0,8.63,15.647v3.827l5.1-5.1-5.1-5.1Z" transform="translate(-64 -135.088)" fill="#197cf5"/>
        <path id="Path_10167" data-name="Path 10167" d="M154.437,3.827V0l-5.1,5.1,5.1,5.1V6.379A7.656,7.656,0,0,1,161.2,17.611l1.863,1.863a10.2,10.2,0,0,0-8.63-15.647Z" transform="translate(-144.231)" fill="#197cf5"/>
      </g>
    </g>
  </g>
</svg>
