<svg
    xmlns="http://www.w3.org/2000/svg"
    viewBox="0 0 16 16"
    id="vector">
    <path
        id="path"
        d="M 8 8 M 0 8 C 0 5.879 0.843 3.843 2.343 2.343 C 3.843 0.843 5.879 0 8 0 C 10.121 0 12.157 0.843 13.657 2.343 C 15.157 3.843 16 5.879 16 8 C 16 10.121 15.157 12.157 13.657 13.657 C 12.157 15.157 10.121 16 8 16 C 5.879 16 3.843 15.157 2.343 13.657 C 0.843 12.157 0 10.121 0 8"
        fill="#3276E2"/>
    <path
        id="path_1"
        d="M 11.83 4.927 C 11.781 4.873 11.718 4.834 11.648 4.815 C 11.578 4.795 11.503 4.795 11.433 4.815 C 11.363 4.834 11.3 4.873 11.251 4.927 L 8.3 8.058 L 6.343 10.134 L 4.457 8.134 C 4.408 8.08 4.345 8.041 4.275 8.022 C 4.205 8.002 4.13 8.002 4.06 8.022 C 3.99 8.041 3.927 8.08 3.878 8.134 C 3.801 8.218 3.758 8.328 3.758 8.441 C 3.758 8.555 3.801 8.665 3.878 8.749 L 6.054 11.058 C 6.103 11.112 6.166 11.151 6.236 11.17 C 6.306 11.19 6.381 11.19 6.451 11.17 C 6.521 11.151 6.584 11.112 6.633 11.058 L 11.833 5.544 C 11.91 5.46 11.953 5.349 11.952 5.235 C 11.952 5.121 11.908 5.011 11.83 4.927 Z"
        fill="#ffffff"/>
</svg>
