<svg
    xmlns="http://www.w3.org/2000/svg"
    viewBox="0 0 23 29"
    id="vector">
    <path
        id="path"
        d="M 23.504 26.959 C 23.503 27.66 23.223 28.332 22.727 28.827 C 22.23 29.322 21.557 29.601 20.856 29.6 L 2.648 29.6 C 1.947 29.601 1.273 29.322 0.777 28.827 C 0.28 28.331 0.001 27.658 0 26.957 L 0 2.643 C 0.001 1.942 0.28 1.269 0.777 0.773 C 1.273 0.278 1.947 -0.001 2.648 0 L 13.983 0 C 14.244 0 14.503 0.051 14.744 0.151 C 14.985 0.251 15.204 0.397 15.389 0.582 L 22.924 8.118 C 23.295 8.489 23.504 8.993 23.504 9.518 Z"
        fill="#895aa9"/>
    <path
        id="path_1"
        d="M 23.325 8.698 L 16.596 8.698 C 16.121 8.698 15.666 8.509 15.33 8.173 C 14.995 7.837 14.806 7.382 14.806 6.907 L 14.806 0.178 C 15.023 0.275 15.22 0.411 15.388 0.578 L 22.923 8.114 C 23.09 8.282 23.226 8.479 23.323 8.695 Z"
        fill="#ac71b3"/>
    <path
        id="path_2"
        d="M 7.745 14.801 L 7.745 16.026 L 8.519 16.026 L 8.519 17.089 L 7.746 17.089 L 7.746 19.341 C 7.733 19.477 7.772 19.613 7.854 19.723 C 7.892 19.761 7.937 19.792 7.987 19.812 C 8.037 19.832 8.09 19.841 8.144 19.839 C 8.207 19.841 8.27 19.838 8.332 19.83 C 8.382 19.822 8.44 19.813 8.515 19.797 L 8.623 20.935 C 8.486 20.971 8.347 20.999 8.207 21.018 C 8.061 21.036 7.914 21.044 7.767 21.043 C 7.557 21.058 7.346 21.03 7.147 20.96 C 6.948 20.89 6.766 20.78 6.612 20.636 C 6.319 20.278 6.179 19.818 6.222 19.357 L 6.222 17.095 L 5.519 17.095 L 5.519 16.027 L 6.209 16.027 L 6.209 14.801 L 7.746 14.801 Z"
        fill="#ffffff"/>
    <path
        id="path_3"
        d="M 11.858 17.468 L 11.883 17.468 L 12.507 16.022 L 14.226 16.022 L 12.806 18.448 L 14.285 20.931 L 12.566 20.931 L 11.906 19.436 L 11.882 19.436 L 11.222 20.931 L 9.507 20.931 L 10.986 18.448 L 9.557 16.022 L 11.269 16.022 Z"
        fill="#ffffff"/>
    <path
        id="path_4"
        d="M 17.107 14.801 L 17.107 16.026 L 17.88 16.026 L 17.88 17.089 L 17.107 17.089 L 17.107 19.341 C 17.094 19.477 17.133 19.613 17.215 19.723 C 17.253 19.761 17.298 19.792 17.348 19.812 C 17.398 19.832 17.451 19.841 17.505 19.839 C 17.568 19.841 17.631 19.838 17.694 19.83 C 17.744 19.822 17.802 19.813 17.877 19.797 L 17.985 20.935 C 17.848 20.971 17.709 20.999 17.569 21.018 C 17.423 21.036 17.276 21.044 17.129 21.043 C 16.919 21.058 16.708 21.03 16.509 20.96 C 16.31 20.89 16.128 20.78 15.974 20.636 C 15.681 20.278 15.541 19.818 15.584 19.357 L 15.584 17.095 L 14.898 17.095 L 14.898 16.027 L 15.588 16.027 L 15.588 14.801 L 17.108 14.801 Z"
        fill="#ffffff"/>
</svg>
