<svg
    xmlns="http://www.w3.org/2000/svg"
    viewBox="0 0 18 18"
    id="vector">
    <path
        id="path"
        d="M 2.813 18 C 2.068 17.999 1.352 17.703 0.825 17.176 C 0.298 16.649 0.001 15.933 0 15.188 L 0 2.813 C 0.001 2.067 0.298 1.352 0.825 0.825 C 1.352 0.298 2.067 0.001 2.813 0 L 15.188 0 C 15.933 0.001 16.649 0.298 17.176 0.825 C 17.703 1.352 17.999 2.068 18 2.813 L 18 15.188 C 17.999 15.933 17.702 16.648 17.175 17.175 C 16.648 17.702 15.933 17.999 15.188 18 Z M 1.406 2.812 L 1.406 15.188 C 1.407 15.561 1.555 15.919 1.819 16.182 C 2.082 16.446 2.44 16.594 2.813 16.595 L 15.188 16.595 C 15.561 16.594 15.918 16.446 16.182 16.182 C 16.445 15.919 16.594 15.561 16.594 15.188 L 16.594 2.813 C 16.594 2.44 16.445 2.082 16.182 1.819 C 15.918 1.555 15.561 1.407 15.188 1.406 L 2.813 1.406 C 2.44 1.406 2.082 1.555 1.818 1.818 C 1.555 2.082 1.406 2.44 1.406 2.813 Z M 8.279 13.755 L 8.279 9.15 L 7.567 9.862 C 7.505 9.925 7.43 9.976 7.348 10.01 C 7.266 10.044 7.178 10.062 7.089 10.062 C 7 10.062 6.912 10.044 6.83 10.01 C 6.748 9.976 6.674 9.925 6.611 9.862 C 6.527 9.778 6.466 9.673 6.436 9.558 C 6.405 9.443 6.405 9.323 6.436 9.208 C 6.466 9.093 6.527 8.988 6.611 8.904 L 6.611 8.904 L 6.827 8.688 L 7.274 8.239 C 7.451 8.063 7.629 7.887 7.805 7.71 C 7.952 7.562 8.099 7.41 8.248 7.265 C 8.364 7.133 8.496 7.017 8.641 6.919 C 8.694 6.891 8.75 6.87 8.808 6.857 C 8.913 6.834 9.022 6.837 9.125 6.867 C 9.229 6.896 9.323 6.95 9.401 7.024 C 9.557 7.165 9.701 7.312 9.851 7.462 C 10.001 7.612 10.159 7.762 10.31 7.919 C 10.461 8.076 10.619 8.229 10.774 8.383 L 11.134 8.743 L 11.281 8.891 C 11.365 8.975 11.426 9.08 11.457 9.195 C 11.487 9.31 11.487 9.43 11.457 9.545 C 11.426 9.66 11.365 9.765 11.281 9.849 C 11.219 9.912 11.144 9.963 11.062 9.997 C 10.98 10.031 10.892 10.049 10.803 10.049 C 10.714 10.049 10.626 10.031 10.544 9.997 C 10.462 9.962 10.387 9.912 10.324 9.849 L 9.63 9.155 L 9.63 13.76 C 9.63 13.939 9.559 14.112 9.432 14.239 C 9.305 14.366 9.133 14.437 8.953 14.437 C 8.834 14.437 8.717 14.405 8.614 14.345 C 8.511 14.285 8.426 14.199 8.367 14.096 C 8.308 13.992 8.277 13.875 8.278 13.756 Z M 5.573 5.155 C 5.414 5.136 5.267 5.058 5.161 4.937 C 5.055 4.816 4.998 4.661 5 4.5 C 5 4.341 5.058 4.187 5.163 4.067 C 5.268 3.948 5.414 3.871 5.572 3.852 L 12.416 3.852 C 12.575 3.871 12.723 3.947 12.83 4.066 C 12.938 4.185 12.998 4.34 13 4.5 C 12.998 4.66 12.937 4.814 12.83 4.933 C 12.723 5.052 12.576 5.128 12.417 5.147 Z"
        fill="#181818"/>
</svg>
