<svg
    xmlns="http://www.w3.org/2000/svg"
    viewBox="0 0 12 18"
    id="vector">
    <path
        id="path"
        d="M 1 4.919 L 5 4.919 L 10.875 0.219 C 11.072 0.061 11.322 -0.016 11.574 0.002 C 11.825 0.021 12.061 0.134 12.233 0.319 C 12.405 0.504 12.5 0.748 12.5 1 L 12.5 17.839 C 12.5 18.091 12.405 18.335 12.233 18.52 C 12.061 18.705 11.825 18.818 11.574 18.837 C 11.322 18.855 11.072 18.778 10.875 18.62 L 5 13.919 L 1 13.919 C 0.735 13.919 0.48 13.814 0.293 13.626 C 0.105 13.439 0 13.184 0 12.919 L 0 5.919 C 0 5.654 0.105 5.399 0.293 5.212 C 0.48 5.024 0.735 4.919 1 4.919 Z"
        fill="#000000"/>
</svg>
