<svg
    xmlns="http://www.w3.org/2000/svg"
    viewBox="0 0 291 301"
    id="vector">
    <defs>
        <clipPath id="clip_path">
            <path d="M 0 0 L 291 0 L 291 301 L 0 301 Z"/>
        </clipPath>
        <clipPath id="clip_path_1">
            <path d="M 0 0 L 291 0 L 291 301 L 0 301 Z"/>
        </clipPath>
        <clipPath id="clip_path_2">
            <path d="M 0 0 L 291 0 L 291 301 L 0 301 Z"/>
        </clipPath>
    </defs>
    <g id="group">
        <path
            id="path"
            clip-path="url(#clip_path)"
            d="M 115.218 174.908 L 77.066 136.756 C 75.92 135.612 75.186 134.118 74.981 132.512 C 74.777 130.905 75.112 129.275 75.935 127.88 C 76.758 126.485 78.022 125.403 79.527 124.805 C 99.793 116.728 117.679 115.458 132.027 118.229 Q 132.711 118.361 133.327 118.495 L 179.407 79.295 C 178.998 72.533 180.28 65.775 183.137 59.632 C 184.219 57.178 185.59 54.862 187.22 52.732 C 188.08 51.664 189.223 50.859 190.519 50.41 C 191.814 49.961 193.21 49.885 194.547 50.192 C 195.883 50.499 197.106 51.177 198.076 52.146 L 248.284 102.346 C 249.258 103.32 249.937 104.549 250.242 105.892 C 250.548 107.235 250.467 108.637 250.01 109.936 C 249.553 111.235 248.738 112.379 247.659 113.235 C 244.861 115.437 241.731 117.181 238.385 118.4 C 232.98 120.358 227.242 121.23 221.499 120.967 L 181.949 167.456 Q 182.049 168.056 182.154 168.718 C 184.454 183.649 183.095 201.563 175.461 220.74 C 174.862 222.245 173.779 223.508 172.384 224.331 C 170.99 225.153 169.36 225.489 167.753 225.285 C 166.147 225.081 164.653 224.348 163.508 223.203 L 125.55 185.239 L 52.467 249.861 C 51.56 250.768 50.431 251.42 49.192 251.752 C 47.954 252.084 46.649 252.084 45.411 251.752 C 44.172 251.42 43.043 250.768 42.136 249.861 C 41.229 248.954 40.577 247.825 40.245 246.586 C 39.913 245.348 39.913 244.043 40.245 242.805 C 40.577 241.566 41.229 240.437 42.136 239.53 Z M 165.493 204.527 C 168.559 193.607 169.315 182.167 167.712 170.939 C 167.545 169.753 167.317 168.576 167.028 167.414 C 166.706 166.262 166.672 165.049 166.929 163.88 C 167.185 162.712 167.725 161.625 168.5 160.714 L 212.799 108.646 C 213.612 107.691 214.658 106.96 215.835 106.526 C 217.012 106.092 218.281 105.968 219.52 106.167 C 219.596 106.179 219.874 106.215 220.327 106.256 C 223.825 106.582 227.354 106.321 230.766 105.484 L 194.95 69.676 C 193.88 73.404 193.657 77.325 194.299 81.15 C 194.505 82.393 194.385 83.669 193.952 84.853 C 193.518 86.036 192.785 87.088 191.825 87.904 L 139.879 132.104 C 138.899 132.938 137.716 133.498 136.45 133.728 C 135.185 133.957 133.88 133.849 132.67 133.413 C 131.55 133.061 130.408 132.782 129.251 132.579 C 120.01 130.794 108.682 131.079 95.688 134.725 L 133.109 172.146 Z"
            fill="#000000"/>
        <path
            id="path_1"
            clip-path="url(#clip_path_1)"
            d="M 117.431 40.48 L 211.84 259.608"
            fill="#00000000"
            stroke="#ffffff"
            stroke-width="20"/>
        <path
            id="path_2"
            clip-path="url(#clip_path_2)"
            d="M 102.16 47.392 L 196.569 266.52"
            fill="#00000000"
            stroke="#000000"
            stroke-width="20"/>
    </g>
</svg>
