<svg
    xmlns="http://www.w3.org/2000/svg"
    viewBox="0 0 7 10"
    id="vector">
    <path
        id="path"
        d="M 0.7 10 C 0.525 10.009 0.352 9.949 0.221 9.832 C 0.09 9.715 0.011 9.55 0 9.375 C 0.005 9.24 0.053 9.111 0.137 9.006 C 0.221 8.9 0.336 8.824 0.466 8.789 L 0.466 7.216 C 0.47 6.942 0.537 6.672 0.661 6.427 C 0.785 6.183 0.964 5.97 1.183 5.805 L 2.211 5.005 L 1.183 4.205 C 0.964 4.04 0.785 3.827 0.661 3.583 C 0.537 3.338 0.47 3.068 0.466 2.794 L 0.466 1.22 C 0.336 1.185 0.221 1.109 0.137 1.003 C 0.053 0.898 0.005 0.769 0 0.634 C 0.011 0.459 0.09 0.294 0.221 0.177 C 0.352 0.06 0.525 0 0.7 0.009 L 6.3 0.009 C 6.475 0 6.648 0.06 6.779 0.177 C 6.91 0.294 6.989 0.459 7 0.634 C 6.995 0.769 6.947 0.898 6.863 1.003 C 6.779 1.109 6.664 1.185 6.534 1.22 L 6.534 2.794 C 6.53 3.068 6.463 3.338 6.339 3.583 C 6.215 3.827 6.036 4.04 5.817 4.205 L 4.789 5.005 L 5.817 5.805 C 6.036 5.97 6.215 6.183 6.339 6.427 C 6.463 6.672 6.53 6.942 6.534 7.216 L 6.534 8.789 C 6.664 8.824 6.779 8.9 6.863 9.006 C 6.947 9.111 6.995 9.24 7 9.375 C 6.989 9.55 6.91 9.715 6.779 9.832 C 6.648 9.949 6.475 10.009 6.3 10 Z M 0.934 2.786 C 0.938 2.998 0.99 3.207 1.086 3.396 C 1.182 3.585 1.32 3.75 1.489 3.878 L 2.719 4.838 C 2.752 4.862 2.777 4.896 2.79 4.935 C 2.802 4.974 2.802 5.015 2.79 5.054 C 2.777 5.093 2.752 5.127 2.719 5.151 L 1.489 6.111 C 1.318 6.24 1.179 6.406 1.083 6.596 C 0.986 6.787 0.935 6.997 0.932 7.211 L 0.932 8.747 L 6.065 8.747 L 6.065 7.211 C 6.062 6.997 6.011 6.787 5.914 6.596 C 5.818 6.406 5.679 6.24 5.508 6.111 L 4.279 5.151 C 4.246 5.127 4.221 5.093 4.208 5.054 C 4.196 5.015 4.196 4.974 4.208 4.935 C 4.221 4.896 4.246 4.862 4.279 4.838 L 5.509 3.878 C 5.68 3.749 5.819 3.583 5.915 3.393 C 6.012 3.202 6.063 2.992 6.066 2.778 L 6.066 1.243 L 0.933 1.243 Z M 1.634 8.333 C 1.592 8.334 1.55 8.324 1.513 8.303 C 1.476 8.283 1.445 8.252 1.424 8.216 C 1.405 8.181 1.398 8.141 1.403 8.101 C 1.408 8.061 1.425 8.024 1.452 7.995 L 3.319 5.912 C 3.368 5.865 3.433 5.838 3.502 5.838 C 3.57 5.838 3.635 5.865 3.684 5.912 L 5.551 7.995 C 5.578 8.024 5.596 8.061 5.601 8.101 C 5.606 8.141 5.598 8.181 5.579 8.216 C 5.558 8.252 5.527 8.282 5.49 8.303 C 5.453 8.324 5.411 8.334 5.369 8.333 Z M 3.334 4.523 L 2.401 3.689 C 2.369 3.662 2.347 3.625 2.338 3.585 C 2.328 3.544 2.333 3.501 2.35 3.463 C 2.37 3.423 2.401 3.39 2.439 3.367 C 2.478 3.344 2.521 3.333 2.566 3.334 L 4.433 3.334 C 4.477 3.333 4.521 3.344 4.559 3.367 C 4.597 3.39 4.628 3.423 4.648 3.463 C 4.666 3.501 4.67 3.544 4.661 3.584 C 4.652 3.625 4.63 3.662 4.598 3.689 L 3.665 4.523 C 3.619 4.562 3.56 4.583 3.5 4.583 C 3.44 4.583 3.381 4.562 3.335 4.523 Z"
        fill="#fe1a1a"/>
</svg>
