<svg
    xmlns="http://www.w3.org/2000/svg"
    viewBox="0 0 22 22"
    id="vector">
    <path
        id="path"
        d="M 19.596 10.208 C 19.777 10.021 19.903 9.789 19.963 9.537 C 20.022 9.284 20.012 9.02 19.934 8.772 C 19.863 8.528 19.724 8.308 19.533 8.14 C 19.343 7.971 19.108 7.86 18.857 7.819 L 14.425 7.144 C 14.382 7.137 14.341 7.119 14.306 7.092 C 14.271 7.066 14.243 7.031 14.225 6.991 L 12.245 2.781 C 12.108 2.47 11.855 2.224 11.54 2.096 C 11.224 1.968 10.872 1.968 10.556 2.096 C 10.241 2.224 9.988 2.47 9.851 2.781 L 7.873 6.99 C 7.855 7.03 7.827 7.065 7.792 7.091 C 7.757 7.118 7.716 7.136 7.673 7.143 L 3.245 7.818 C 2.994 7.859 2.759 7.97 2.569 8.139 C 2.378 8.307 2.239 8.527 2.168 8.771 C 2.09 9.019 2.08 9.283 2.139 9.536 C 2.199 9.788 2.325 10.02 2.506 10.207 L 5.706 13.484 C 5.737 13.516 5.761 13.556 5.774 13.599 C 5.787 13.642 5.79 13.688 5.783 13.732 L 5.025 18.361 C 4.981 18.616 5.007 18.878 5.1 19.12 C 5.194 19.361 5.351 19.572 5.556 19.731 C 5.754 19.885 5.993 19.978 6.243 19.997 C 6.493 20.016 6.743 19.96 6.962 19.838 L 10.925 17.653 C 10.963 17.632 11.006 17.621 11.049 17.621 C 11.092 17.621 11.135 17.632 11.173 17.653 L 15.134 19.838 C 15.353 19.961 15.603 20.016 15.853 19.997 C 16.103 19.978 16.342 19.885 16.54 19.731 C 16.745 19.572 16.902 19.361 16.996 19.12 C 17.089 18.878 17.115 18.616 17.071 18.361 L 16.315 13.733 C 16.308 13.689 16.311 13.643 16.324 13.6 C 16.337 13.557 16.361 13.517 16.392 13.485 Z M 15.263 13.923 L 16.019 18.551 C 16.029 18.602 16.024 18.655 16.005 18.703 C 15.986 18.752 15.954 18.794 15.913 18.825 C 15.874 18.856 15.826 18.875 15.776 18.879 C 15.726 18.883 15.676 18.871 15.632 18.846 L 11.671 16.661 C 11.481 16.555 11.267 16.5 11.05 16.5 C 10.833 16.5 10.619 16.555 10.429 16.661 L 6.468 18.846 C 6.424 18.871 6.374 18.883 6.324 18.879 C 6.274 18.875 6.226 18.856 6.187 18.825 C 6.146 18.794 6.114 18.752 6.095 18.703 C 6.076 18.655 6.071 18.602 6.081 18.551 L 6.837 13.923 C 6.874 13.701 6.859 13.473 6.792 13.257 C 6.726 13.042 6.609 12.845 6.453 12.683 L 3.253 9.406 C 3.216 9.369 3.191 9.323 3.179 9.272 C 3.167 9.221 3.169 9.168 3.185 9.119 C 3.199 9.07 3.226 9.026 3.264 8.992 C 3.302 8.958 3.35 8.936 3.4 8.928 L 7.828 8.253 C 8.045 8.217 8.249 8.128 8.424 7.995 C 8.598 7.861 8.737 7.687 8.828 7.487 L 10.808 3.277 C 10.836 3.215 10.886 3.166 10.949 3.14 C 11.012 3.115 11.083 3.115 11.146 3.14 C 11.209 3.166 11.259 3.215 11.287 3.277 L 11.287 3.277 L 13.267 7.487 C 13.358 7.687 13.497 7.861 13.671 7.995 C 13.846 8.128 14.05 8.217 14.267 8.253 L 18.695 8.928 C 18.745 8.936 18.793 8.958 18.831 8.992 C 18.869 9.026 18.896 9.07 18.91 9.119 C 18.926 9.168 18.928 9.221 18.916 9.272 C 18.904 9.323 18.879 9.369 18.842 9.406 L 15.642 12.683 C 15.486 12.846 15.371 13.043 15.305 13.258 C 15.24 13.473 15.225 13.701 15.263 13.923 Z"
        fill="#181818"
        stroke="#181818"
        stroke-width="0.4"/>
    <path
        id="path_1"
        d="M 18.302 3.352 C 18.402 3.44 18.478 3.553 18.52 3.679 C 18.562 3.806 18.569 3.942 18.541 4.072 C 18.513 4.202 18.45 4.323 18.36 4.421 L 3.343 20.749 C 3.205 20.899 3.014 20.988 2.811 20.999 C 2.607 21.01 2.408 20.94 2.255 20.806 C 2.155 20.718 2.079 20.605 2.037 20.479 C 1.995 20.352 1.988 20.216 2.016 20.086 C 2.044 19.956 2.107 19.835 2.197 19.737 L 17.214 3.408 C 17.352 3.259 17.543 3.169 17.747 3.159 C 17.95 3.148 18.149 3.218 18.302 3.352 Z"
        fill="#181818"
        stroke="#ffffff"
        stroke-width="0.4"/>
</svg>
