<svg xmlns="http://www.w3.org/2000/svg" width="12.014" height="7.059" viewBox="0 0 12.014 7.059">
  <g id="video-camera" transform="translate(0 -96.512)">
    <g id="Group_15643" data-name="Group 15643" transform="translate(0 96.512)">
      <g id="Group_15642" data-name="Group 15642" transform="translate(0 0)">
        <path id="Path_13751" data-name="Path 13751" d="M6.8,96.512H1.314A1.318,1.318,0,0,0,0,97.826v4.43a1.318,1.318,0,0,0,1.314,1.314H6.8a1.318,1.318,0,0,0,1.314-1.314v-4.43A1.31,1.31,0,0,0,6.8,96.512Z" transform="translate(0 -96.512)" fill="#fff"/>
      </g>
    </g>
    <g id="Group_15645" data-name="Group 15645" transform="translate(8.767 97.214)">
      <g id="Group_15644" data-name="Group 15644" transform="translate(0 0)">
        <path id="Path_13752" data-name="Path 13752" d="M343.778,123.868a.67.67,0,0,0-.223.092l-2.051,1.183v3.05l2.064,1.183a.781.781,0,0,0,1.078-.289.8.8,0,0,0,.105-.394v-4.062A.791.791,0,0,0,343.778,123.868Z" transform="translate(-341.504 -123.847)" fill="#fff"/>
      </g>
    </g>
  </g>
</svg>
