<svg xmlns="http://www.w3.org/2000/svg" width="18.093" height="22.788" viewBox="0 0 18.093 22.788">
  <g id="Group_15658" data-name="Group 15658" transform="translate(-1.28)">
    <path id="Path_9793" data-name="Path 9793" d="M70.828,20.753a2.037,2.037,0,0,1-2.039,2.035H54.774a2.037,2.037,0,0,1-2.039-2.035V2.035A2.037,2.037,0,0,1,54.774,0H63.5a1.53,1.53,0,0,1,1.082.448l5.8,5.8a1.524,1.524,0,0,1,.447,1.078Z" transform="translate(-51.455 0)" fill="#50d388"/>
    <path id="Path_9796" data-name="Path 9796" d="M315.4,9.659h-5.18a1.378,1.378,0,0,1-1.378-1.379V3.1a1.514,1.514,0,0,1,.448.31l5.8,5.8a1.515,1.515,0,0,1,.31.447Z" transform="translate(-296.16 -2.963)" fill="#87e1ae"/>
    <path id="Path_13779" data-name="Path 13779" d="M14.5,15H4.569a.5.5,0,0,1-.5-.5v-6a.5.5,0,0,1,.5-.5H14.5a.5.5,0,0,1,.5.5v6A.5.5,0,0,1,14.5,15ZM5.069,14H14V9H5.069Z" transform="translate(0.704 3.154)" fill="#fff"/>
    <path id="Path_13780" data-name="Path 13780" d="M9.5,15c-.276,0-.5-.121-.5-.269V8.269C9,8.121,9.224,8,9.5,8s.5.121.5.269v6.462C10,14.879,9.776,15,9.5,15Z" transform="translate(-0.296 3.154)" fill="#fff"/>
    <path id="Path_13781" data-name="Path 13781" d="M15.5,12H5.429a.506.506,0,0,1,0-1H15.5a.506.506,0,0,1,0,1Z" transform="translate(-0.227 3.154)" fill="#fff"/>
  </g>
</svg>
