<svg xmlns="http://www.w3.org/2000/svg" width="18.09" height="22.783" viewBox="0 0 18.09 22.783">
  <g id="Group_16115" data-name="Group 16115" transform="translate(-156.001 -227.199)">
    <path id="Path_9793" data-name="Path 9793" d="M70.825,20.749a2.036,2.036,0,0,1-2.038,2.034H54.773a2.036,2.036,0,0,1-2.038-2.034V2.034A2.036,2.036,0,0,1,54.773,0H63.5a1.53,1.53,0,0,1,1.082.448l5.8,5.8a1.524,1.524,0,0,1,.447,1.078Z" transform="translate(103.266 227.199)" fill="#06b036"/>
    <path id="Path_9796" data-name="Path 9796" d="M315.395,9.658h-5.179a1.378,1.378,0,0,1-1.378-1.378V3.1a1.514,1.514,0,0,1,.448.31l5.8,5.8a1.514,1.514,0,0,1,.309.447Z" transform="translate(-141.442 224.236)" fill="#47c96c"/>
    <text id="XLSX" transform="translate(157.539 242.282)" fill="#fff" font-size="6" font-family="SegoeUI-Bold, Segoe UI" font-weight="700"><tspan x="0" y="0">XLSX</tspan></text>
  </g>
</svg>
