<svg
    xmlns="http://www.w3.org/2000/svg"
    viewBox="0 0 23 29"
    id="vector">
    <path
        id="path"
        d="M 23.504 26.959 C 23.503 27.66 23.223 28.332 22.727 28.827 C 22.23 29.322 21.557 29.601 20.856 29.6 L 2.648 29.6 C 1.947 29.601 1.273 29.322 0.777 28.827 C 0.28 28.331 0.001 27.658 0 26.957 L 0 2.643 C 0.001 1.942 0.28 1.269 0.777 0.773 C 1.273 0.278 1.947 -0.001 2.648 0 L 13.983 0 C 14.244 0 14.503 0.051 14.744 0.151 C 14.985 0.251 15.204 0.397 15.389 0.582 L 22.924 8.118 C 23.295 8.489 23.504 8.993 23.504 9.518 Z"
        fill="#556080"/>
    <path
        id="path_1"
        d="M 23.327 8.698 L 16.598 8.698 C 16.123 8.698 15.668 8.509 15.332 8.173 C 14.997 7.837 14.808 7.382 14.808 6.907 L 14.808 0.178 C 15.025 0.275 15.222 0.411 15.39 0.578 L 22.925 8.114 C 23.092 8.282 23.228 8.479 23.325 8.695 Z"
        fill="#323d5d"/>
    <path
        id="path_2"
        d="M 11.956 15.181 L 11.956 14.468 L 12.668 14.468 L 12.668 13.756 L 11.956 13.756 L 11.956 13.044 L 12.668 13.044 L 12.668 12.331 L 11.956 12.331 L 11.956 11.618 L 12.668 11.618 L 12.668 10.906 L 11.956 10.906 L 11.956 10.193 L 12.668 10.193 L 12.668 9.48 L 11.956 9.48 L 11.956 8.768 L 11.244 8.768 L 11.244 9.48 L 10.531 9.48 L 10.531 10.193 L 11.243 10.193 L 11.243 10.905 L 10.531 10.905 L 10.531 11.618 L 11.243 11.618 L 11.243 12.33 L 10.531 12.33 L 10.531 13.042 L 11.243 13.042 L 11.243 13.754 L 10.531 13.754 L 10.531 14.468 L 11.243 14.468 L 11.243 15.18 L 9.818 15.18 L 9.818 16.96 C 9.817 17.337 9.935 17.705 10.156 18.01 C 10.377 18.315 10.69 18.543 11.048 18.66 C 11.406 18.776 11.793 18.776 12.151 18.66 C 12.509 18.543 12.822 18.315 13.043 18.01 C 13.264 17.705 13.382 17.337 13.381 16.96 L 13.381 15.18 Z M 12.668 16.961 C 12.668 17.244 12.555 17.516 12.355 17.717 C 12.154 17.917 11.882 18.03 11.599 18.03 C 11.316 18.03 11.044 17.917 10.843 17.717 C 10.643 17.516 10.53 17.244 10.53 16.961 L 10.53 15.894 L 12.668 15.894 Z"
        fill="#ffffff"/>
    <path
        id="path_3"
        d="M 11.243 17.318 L 11.955 17.318 C 12.049 17.318 12.14 17.28 12.207 17.214 C 12.273 17.147 12.311 17.056 12.311 16.962 C 12.311 16.868 12.273 16.777 12.207 16.71 C 12.14 16.644 12.049 16.606 11.955 16.606 L 11.243 16.606 C 11.149 16.606 11.058 16.644 10.991 16.71 C 10.925 16.777 10.887 16.868 10.887 16.962 C 10.887 17.056 10.925 17.147 10.991 17.214 C 11.058 17.28 11.149 17.318 11.243 17.318 Z"
        fill="#ffffff"/>
    <path
        id="path_4"
        d="M 7.593 21.955 L 10.434 21.955 L 10.434 22.607 L 8.609 24.507 L 10.502 24.507 L 10.502 25.207 L 7.417 25.207 L 7.417 24.532 L 9.223 22.65 L 7.593 22.65 Z M 11.158 21.955 L 12.164 21.955 L 12.164 25.206 L 11.157 25.206 Z M 13.047 21.955 L 14.717 21.955 C 15.013 21.932 15.306 22.025 15.534 22.214 C 15.628 22.311 15.701 22.427 15.748 22.554 C 15.795 22.681 15.815 22.817 15.806 22.952 C 15.814 23.094 15.791 23.236 15.739 23.369 C 15.687 23.502 15.608 23.622 15.506 23.721 C 15.252 23.924 14.93 24.024 14.606 23.999 L 14.056 23.999 L 14.056 25.206 L 13.044 25.206 Z M 14.056 23.344 L 14.302 23.344 C 14.445 23.358 14.589 23.323 14.71 23.244 C 14.748 23.213 14.778 23.173 14.799 23.129 C 14.819 23.084 14.829 23.035 14.828 22.986 C 14.829 22.938 14.821 22.891 14.804 22.847 C 14.787 22.802 14.761 22.761 14.728 22.727 C 14.619 22.643 14.481 22.604 14.344 22.62 L 14.056 22.62 Z"
        fill="#ffffff"/>
</svg>
